<svg width="29" height="22" viewBox="0 0 29 22" fill="none" xmlns="http://www.w3.org/2000/svg">
<path d="M28.6333 4.95989L25.2958 15.2144C25.0463 15.9447 24.3913 16.4315 23.6115 16.4315H10.7297C9.9811 16.4315 9.2637 15.9751 9.01418 15.3057L4.08601 2.4343H1.24764C0.561437 2.4343 0 1.88658 0 1.21715C0 0.547718 0.561437 0 1.24764 0H4.95936C5.4896 0 5.95747 0.334716 6.14461 0.821577L11.2287 13.9972H23.0813L25.7325 5.78147H11.0416C10.3554 5.78147 9.79395 5.23375 9.79395 4.56432C9.79395 3.89488 10.3554 3.34716 11.0416 3.34716H27.448C27.8535 3.34716 28.2278 3.56017 28.4461 3.86445C28.6957 4.16874 28.758 4.59474 28.6333 4.95989ZM11.3535 18.0443C10.8233 18.0443 10.293 18.2573 9.91871 18.6224C9.54442 18.9875 9.32609 19.5048 9.32609 20.0221C9.32609 20.5394 9.54442 21.0567 9.91871 21.4219C10.293 21.787 10.8233 22 11.3535 22C11.8837 22 12.414 21.787 12.7883 21.4219C13.1626 21.0567 13.3809 20.5394 13.3809 20.0221C13.3809 19.5048 13.1626 18.9875 12.7883 18.6224C12.414 18.2573 11.8837 18.0443 11.3535 18.0443ZM22.551 18.0443C22.0208 18.0443 21.4905 18.2573 21.1163 18.6224C20.742 18.9875 20.5236 19.5048 20.5236 20.0221C20.5236 20.5394 20.742 21.0567 21.1163 21.4219C21.4905 21.787 22.0208 22 22.551 22C23.0813 22 23.6115 21.787 23.9858 21.4219C24.3601 21.0567 24.5785 20.5394 24.5785 20.0221C24.5785 19.5048 24.3601 18.9875 23.9858 18.6224C23.6115 18.2573 23.0813 18.0443 22.551 18.0443Z" fill="white"/>
</svg>
