<svg width="26" height="25" viewBox="0 0 26 25" fill="none" xmlns="http://www.w3.org/2000/svg">
<path fill-rule="evenodd" clip-rule="evenodd" d="M1.22382 0.492232C1.78414 -0.068085 2.83636 0.0756771 3.57401 0.813334L24.9443 22.1837C25.682 22.9213 25.8258 23.9735 25.2655 24.5339C24.7051 25.0942 23.6529 24.9504 22.9153 24.2128L1.54492 2.84242C0.807267 2.10477 0.663505 1.05255 1.22382 0.492232Z" fill="white"/>
<path fill-rule="evenodd" clip-rule="evenodd" d="M25.2652 0.492238C24.7049 -0.0680793 23.6527 0.0756828 22.915 0.81334L1.54466 22.1837C0.807001 22.9213 0.663238 23.9736 1.22356 24.5339C1.78387 25.0942 2.83609 24.9504 3.57375 24.2128L24.9441 2.84243C25.6817 2.10477 25.8255 1.05256 25.2652 0.492238Z" fill="white"/>
</svg>
