<svg  viewBox="0 0 53 54" width="70" height="70" fill="currentColor" xmlns="http://www.w3.org/2000/svg">
<path d="M10.686 39.0376C15.4079 41.2509 37.2773 41.8792 40.6492 40.4526" stroke-linecap="round" stroke-linejoin="round"/>
<path d="M32.7734 29.2247C33.2657 29.3681 33.0536 29.3187 33.4886 29.4259" stroke-linecap="round" stroke-linejoin="round"/>
<path d="M31.063 28.715C31.1174 28.73 31.1721 28.7453 31.2277 28.7609C31.4045 28.8109 31.5881 28.8649 31.7746 28.9203" stroke-linecap="round" stroke-linejoin="round"/>
<path d="M29.616 28.2859C29.7782 28.3452 29.8733 28.3759 30.0392 28.4264" stroke-linecap="round" stroke-linejoin="round"/>
<path d="M28.2766 27.5858C28.4177 27.6818 28.4717 27.7158 28.6195 27.8026" stroke-linecap="round" stroke-linejoin="round"/>
<path d="M25.7766 24.1393C25.857 24.3688 25.8266 24.2559 25.857 24.3688" stroke-linecap="round" stroke-linejoin="round"/>
<path d="M13.2971 25.5475C13.2733 25.7022 12.6856 28.5479 12.6524 28.6689C12.6322 28.7419 12.6082 28.8069 12.6005 28.8611C12.5954 28.8931 12.5963 28.9208 12.5989 28.9561C12.6651 29.8175 12.942 30.8781 13.6084 31.5475C14.1437 32.0853 14.8239 32.5057 15.488 32.8654C16.1977 33.2491 17.0907 33.6944 17.8487 34.0467" stroke-linecap="round" stroke-linejoin="round"/>
<path d="M12.6771 28.3844L12.451 28.8776C12.4276 28.9285 12.4158 28.9843 12.4169 29.0417L12.4447 30.9681C12.4385 31.0387 12.4393 31.1107 12.4524 31.1824C12.6022 32.0001 13.9389 32.4992 14.6827 32.7183C15.9182 33.0822 16.8483 33.1842 18.114 33.3372C19.4044 33.4932 20.6936 33.6574 21.9813 33.8698C24.0172 34.1247 25.9857 34.7381 27.9276 35.4537C28.1515 35.5357 28.3438 35.6062 28.5799 35.6821C29.0361 35.8277 29.6575 35.9937 30.1081 36.0731C31.807 36.3734 33.5189 36.3955 35.2098 36.4064C36.2655 36.4131 37.3408 36.4541 38.3876 36.396C38.4292 36.3937 38.4736 36.3912 38.4535 36.2729C38.3132 35.9096 36.1685 32.7635 36.0107 32.7375C35.9462 32.7268 35.856 32.7049 35.7739 32.6924C32.1176 32.1321 28.5503 31.3899 25.1206 29.8263C24.4058 29.5006 23.4764 29.1202 22.8063 28.7199C22.1121 28.3051 21.8857 28.1849 21.2273 27.6701C20.7886 27.3272 20.4984 26.7967 20.4361 26.3379L19.6519 21.326" stroke-linecap="round" stroke-linejoin="round"/>
<path d="M14.6012 20.1166C14.4911 19.0501 14.6287 18.6171 14.9143 17.9787C15.5654 16.5216 16.3965 14.6316 15.5783 12.9172C15.3725 12.4876 15.0196 12.0267 14.7308 11.8219C14.5783 11.7142 14.4438 11.6771 14.0993 11.6133C14.2313 11.6378 14.2452 15.0362 14.2435 15.3571C14.238 16.3356 14.2043 17.3123 14.1008 18.2755C14.0035 19.1826 13.7039 20.0369 13.6383 20.9501C13.7192 21.1074 13.8935 21.6583 14.141 22.0729" stroke-linecap="round" stroke-linejoin="round"/>
<path fill-rule="evenodd" clip-rule="evenodd" d="M15.8999 21.6164L19.9012 21.14L22.4628 19.2292C20.986 18.9573 19.4477 18.9218 17.8069 18.6961C17.3161 18.6282 16.8174 18.544 16.3645 18.5315C16.0791 18.5236 15.8122 18.5446 15.5873 18.6033C15.2787 18.6836 15.0504 18.8352 14.8693 19.0744C14.7745 19.1983 14.6938 19.3472 14.6279 19.4797C14.5343 19.6666 14.4707 19.8223 14.4022 20.1059C14.1818 20.8977 13.9705 21.6939 13.8287 22.5087C13.6909 23.3029 13.6629 24.1123 13.6113 24.922C13.6069 24.9812 13.6026 25.0398 13.6424 25.0976L15.8999 21.6164Z" stroke-linecap="round" stroke-linejoin="round"/>
<path d="M16.2235 18.3812C16.3784 18.1104 16.4407 18.0093 16.4971 17.9096C16.9985 17.0319 17.0751 16.2847 17.1122 15.7308C17.1426 15.2824 17.1477 14.9606 17.0884 14.5865C17.0031 14.0416 16.782 13.3868 16.3512 12.8021C15.8755 12.1562 15.1425 11.5965 14.1873 11.5776" stroke-linecap="round" stroke-linejoin="round"/>
<path d="M21.5159 19.5693C21.5363 19.7825 21.5529 20.15 21.5581 20.2391C21.5927 20.8098 21.595 21.4869 21.6744 22.1478C21.8486 23.5938 22.3964 24.9599 23.2195 26.0747C24.238 27.4533 25.679 28.4468 27.2038 29.2847C27.8314 29.6288 28.4727 29.9467 29.2283 30.2361C30.1347 30.5833 31.2056 30.8896 32.2289 31.1299C32.9321 31.2951 33.6121 31.4293 34.3022 31.575C34.8017 31.6811 35.3054 31.7923 35.7222 31.7948" stroke-linecap="round" stroke-linejoin="round"/>
<path d="M27.1 27.3639C26.934 27.2555 26.776 27.1405 26.6279 27.0171" stroke-linecap="round" stroke-linejoin="round"/>
<path d="M28.5167 28.0739C28.328 28.0001 28.1792 27.9379 27.9985 27.8572" stroke-linecap="round" stroke-linejoin="round"/>
<path d="M30.0222 28.6007C29.8508 28.5445 29.6792 28.4882 29.5083 28.4312" stroke-linecap="round" stroke-linejoin="round"/>
<path d="M31.7327 29.1547C31.4742 29.0841 31.2228 29.0035 30.9709 28.9202" stroke-linecap="round" stroke-linejoin="round"/>
<path d="M33.4759 29.4812C33.2083 29.4333 32.9545 29.394 32.7114 29.3551" stroke-linecap="round" stroke-linejoin="round"/>
<path d="M35.7218 32.4956C35.677 32.3054 35.648 32.2122 35.6167 32.1043C35.5221 31.7761 35.4113 31.3154 35.3156 30.9733C35.2687 30.8074 35.225 30.6692 35.1708 30.5176C35.1139 30.3586 35.0443 30.1846 34.8994 30.039C34.781 29.9207 34.6128 29.8221 34.4192 29.7382" stroke-linecap="round" stroke-linejoin="round"/>
<path d="M25.4602 25.8914C25.5763 26.0145 25.6371 26.0642 25.7699 26.1904C25.8244 26.2423 25.8818 26.2971 25.9405 26.3536" stroke-linecap="round" stroke-linejoin="round"/>
<path d="M24.5967 24.5421C24.6275 24.6037 24.6281 24.6033 24.6602 24.6642C24.7399 24.8148 24.8234 24.9621 24.9087 25.1022" stroke-linecap="round" stroke-linejoin="round"/>
<path d="M22.4703 18.9017C22.6304 18.899 22.7869 18.9285 22.8812 18.9436C23.1996 18.9966 23.5006 19.2081 23.6804 19.477C23.9931 19.9435 23.9427 20.5847 23.9475 21.1655C23.9535 21.8668 24.0387 22.4812 24.1769 23.1668C24.2098 23.3072 24.2621 23.4742 24.3292 23.6559" stroke-linecap="round" stroke-linejoin="round"/>
<path d="M35.0417 30.345C35.2203 30.3636 38.9255 30.9827 39.7651 31.2938C40.3613 31.5193 40.5292 32.0895 40.6625 32.6982C40.8773 33.6802 41.0001 34.7627 40.7493 35.6919C40.634 35.8812 40.5868 35.9023 40.5356 35.9223C40.0129 36.1212 39.1672 36.1713 38.3346 36.2406" stroke-linecap="round" stroke-linejoin="round"/>
<path d="M35.5334 32.088C35.7989 32.1003 38.2659 32.42 39.3653 32.5636C39.6862 32.6056 39.9712 32.8068 40.0999 33.0815L40.8811 34.8923" stroke-linecap="round" stroke-linejoin="round"/>
<path d="M10.8542 38.9279C10.9224 38.6708 12.9504 34.0428 12.9504 34.0428" stroke-linecap="round" stroke-linejoin="round"/>
<path d="M39.8972 36.1214C39.8997 36.2204 39.9036 36.2563 39.8973 36.2865C39.8708 36.4041 39.6794 36.4326 39.6067 36.5209C39.5541 36.5844 39.562 36.6786 39.5786 36.7715C39.6692 37.2816 40.0003 37.7654 40.3311 38.2649C40.658 38.7568 40.9845 39.2648 40.785 39.7988" stroke-linecap="round" stroke-linejoin="round"/>
<path fill-rule="evenodd" clip-rule="evenodd" d="M20.1649 18.3357C20.1468 18.029 20.1808 17.3733 20.2557 16.772C20.3264 16.2023 20.4337 15.6829 20.5696 15.191C20.7914 14.3838 21.0878 13.6514 21.4816 12.9759C21.7067 12.5909 21.9634 12.2238 22.3955 12.0094C22.9343 11.7434 23.7467 11.7156 24.2803 11.6952C24.6002 11.6836 24.8199 11.6746 25.2212 11.717C25.5413 11.7511 25.9758 11.8182 26.1555 11.9979C26.4298 12.2714 26.1135 12.8065 25.9652 13.0157C24.4752 12.8664 23.2305 13.1752 22.6222 14.0199C22.4095 14.3146 22.2747 14.6742 22.1673 15.0944C21.9344 16.0033 21.8298 17.1962 21.7989 18.5045L20.1649 18.3357Z" stroke-linecap="round" stroke-linejoin="round"/>
<path d="M25.6063 23.0863C25.5511 21.7613 25.5501 21.6136 25.5452 21.4849C25.5218 20.861 25.5214 20.7516 25.5141 20.4576C25.5035 20.0439 25.4853 19.629 25.4382 19.2139C25.3967 18.846 25.362 18.3621 25.1306 18.035C25.2291 18.1754 24.8212 18.5322 24.7494 18.6088C24.4985 18.8766 24.3719 19.1018 24.2741 19.4747C24.0875 20.1847 24.1815 21.8958 24.9161 23.3384" stroke-linecap="round" stroke-linejoin="round"/>
<path d="M25.9699 12.8254L25.3792 17.9423" stroke-linecap="round" stroke-linejoin="round"/>
<path d="M27.4967 28.4156C27.4393 28.5807 27.2701 28.6903 27.0662 28.6759C26.8084 28.6577 26.5924 28.4484 26.584 28.2085C26.5792 28.0707 26.6437 27.9529 26.7484 27.8808" stroke-linecap="round" stroke-linejoin="round"/>
<path d="M20.9812 35.1616L19.9844 36.4775C19.7823 36.701 19.9071 37.0235 20.2599 37.1978C20.9619 37.5445 22.1086 38.0489 24.7493 38.5071C27.3304 38.8667 29.0123 38.8177 29.7316 38.6924C30.115 38.6256 30.2866 38.3329 30.1138 38.0543L29.6385 37.2879"/>
<path d="M40.6288 40.6468L40.678 41.7137C40.7209 42.6431 37.1283 42.64 36.3769 42.6655C32.8683 42.7841 29.2954 42.6247 25.752 42.4354C21.9912 42.2345 18.174 42.0115 14.4245 41.4289C13.2545 41.2471 11.5182 41.0753 10.8041 40.246C10.7383 40.1696 10.7005 40.0836 10.6965 39.9976L10.6526 39.0452" stroke-linecap="round" stroke-linejoin="round"/>
<path d="M27.5039 36.6953C27.9618 36.8248 28.5853 36.9723 29.0372 37.0428" stroke-linecap="round" stroke-linejoin="round"/>
<path d="M12.4895 32.6404C12.5888 33.1333 12.8167 33.6521 13.4035 33.9094C14.1314 34.2284 15.0896 34.3303 15.8681 34.4569C17.7023 34.7548 19.5462 34.88 21.3833 35.1332C22.4314 35.2774 23.4791 35.4639 24.5053 35.7434C25.5408 36.0251 26.5555 36.3679 27.5761 36.6953" stroke-linecap="round" stroke-linejoin="round"/>
<path d="M39.6563 36.7952C39.3114 36.8885 38.9248 36.9246 38.5483 36.9548C38.0852 36.9922 37.616 37.0249 37.1466 37.0406C36.6751 37.0566 36.2006 37.0592 35.726 37.0575C35.2512 37.0559 34.7757 37.0498 34.3008 37.048L34.1733 37.0476C32.4748 37.0437 30.7553 37.0317 29.0488 36.8161" stroke-linecap="round" stroke-linejoin="round"/>
<path fill-rule="evenodd" clip-rule="evenodd" d="M29.9026 40.5104C31.4547 40.5291 32.7683 40.4867 33.8401 40.4096C33.9039 40.405 33.9176 40.3336 33.861 40.3012L32.4554 39.4912C32.426 39.4742 32.3922 39.4664 32.3589 39.4693C31.8677 39.5116 31.295 39.5434 30.6424 39.5582C30.6035 39.559 30.5681 39.5741 30.5458 39.5995L29.8379 40.411C29.8041 40.4495 29.8435 40.5097 29.9026 40.5104Z"/>
<path fill-rule="evenodd" clip-rule="evenodd" d="M25.4156 40.5166C26.4869 40.5924 27.5062 40.6448 28.4349 40.6755C28.4761 40.6769 28.5134 40.6629 28.5378 40.6373L29.2531 39.8863C29.2885 39.8488 29.2505 39.789 29.1906 39.788C28.322 39.7724 27.2338 39.7232 26.1814 39.6486C26.1387 39.6455 26.0989 39.659 26.0733 39.6852L25.3575 40.4177C25.3225 40.4536 25.3572 40.5125 25.4156 40.5166Z"/>
<path fill-rule="evenodd" clip-rule="evenodd" d="M24.257 40.5396L25.0011 39.7637C25.0351 39.7281 25.0042 39.6698 24.9479 39.6626C23.8674 39.5242 22.8475 39.3683 22.0462 39.2136C22 39.2048 21.9549 39.2156 21.9248 39.243L21.0459 40.0368C21.0081 40.0709 21.0371 40.1321 21.0948 40.1403L24.1375 40.5758C24.1842 40.5825 24.2288 40.569 24.257 40.5396Z"/>
<path fill-rule="evenodd" clip-rule="evenodd" d="M16.1161 39.1954C17.037 39.4546 18.424 39.7381 19.7413 39.993C19.829 40.0099 19.9159 39.9899 19.9762 39.939L20.93 39.1333C20.9679 39.1014 20.9449 39.041 20.8901 39.0276C19.491 38.6808 18.5412 38.2887 17.8651 38.0003C17.8176 37.9798 17.7638 37.9829 17.7251 38.0082L16.0856 39.086C16.0415 39.115 16.0596 39.1796 16.1161 39.1954Z"/>
<path d="M26.0741 27.5145C25.9976 27.6378 25.8507 27.7137 25.6792 27.7015C25.4217 27.6832 25.2061 27.4728 25.1977 27.2317C25.1914 27.0507 25.3035 26.9038 25.4684 26.8494" stroke-linecap="round" stroke-linejoin="round"/>
<path d="M30.7008 29.6829C30.7092 29.9135 30.5064 30.0863 30.2478 30.0689C29.9892 30.0515 29.7724 29.8504 29.7639 29.6198" stroke-linecap="round" stroke-linejoin="round"/>
<path d="M32.4447 30.1641C32.4531 30.4015 32.2507 30.5794 31.9924 30.5614C31.7345 30.5434 31.5182 30.3363 31.5098 30.0989C31.5069 30.0189 31.5283 29.9457 31.5673 29.8843" stroke-linecap="round" stroke-linejoin="round"/>
<path d="M34.1444 30.5436C34.1529 30.7743 33.95 30.9471 33.6914 30.9296C33.4328 30.9122 33.216 30.7111 33.2075 30.4805" stroke-linecap="round" stroke-linejoin="round"/>
<path fill-rule="evenodd" clip-rule="evenodd" d="M23.6342 24.5687L23.4178 24.1105C23.3853 24.0419 23.4214 23.9655 23.4999 23.9357L25.4833 23.1761C25.5698 23.1433 25.6736 23.1793 25.7094 23.2551L25.958 23.9738C25.9936 24.0494 25.9462 24.1326 25.8551 24.1552L23.8392 24.6541C23.7563 24.6747 23.6667 24.6373 23.6342 24.5687Z" stroke-linecap="round" stroke-linejoin="round"/>
<path fill-rule="evenodd" clip-rule="evenodd" d="M25.8006 27.4676L25.4171 27.1038C25.3598 27.0493 25.3513 26.9678 25.3979 26.9172L26.5318 25.6883C26.5833 25.6327 26.6804 25.6363 26.7438 25.6962L27.264 26.2908C27.327 26.3508 27.33 26.442 27.2701 26.4896L25.9995 27.4877C25.9449 27.5309 25.858 27.5222 25.8006 27.4676Z" stroke-linecap="round" stroke-linejoin="round"/>
<path fill-rule="evenodd" clip-rule="evenodd" d="M27.1626 28.5235L26.7267 28.2181C26.6617 28.1723 26.6369 28.0941 26.6704 28.039L27.4845 26.7025C27.5215 26.6417 27.6138 26.6332 27.6855 26.6835L28.3393 27.2377C28.4112 27.2879 28.4326 27.3764 28.3858 27.4299L27.3537 28.5181C27.3115 28.5668 27.2277 28.5692 27.1626 28.5235Z" stroke-linecap="round" stroke-linejoin="round"/>
<path fill-rule="evenodd" clip-rule="evenodd" d="M28.8212 29.3168L28.3429 29.0843C28.2711 29.0494 28.2303 28.98 28.2491 28.9252L28.6707 27.659C28.6915 27.5988 28.7762 27.5803 28.8551 27.6185L29.6075 27.9686C29.6864 28.0069 29.7265 28.0863 29.6951 28.1413L28.9995 29.2898C28.9707 29.3396 28.8931 29.3515 28.8212 29.3168Z" stroke-linecap="round" stroke-linejoin="round"/>
<path fill-rule="evenodd" clip-rule="evenodd" d="M30.4699 29.8813L29.9671 29.7208C29.8918 29.6968 29.8401 29.6331 29.849 29.5748L30.0659 28.2253C30.0758 28.1612 30.1543 28.1294 30.2373 28.1559L30.9877 28.3953C31.0709 28.4218 31.1233 28.4955 31.1022 28.5559L30.6375 29.8265C30.6184 29.8814 30.5452 29.9053 30.4699 29.8813Z" stroke-linecap="round" stroke-linejoin="round"/>
<path fill-rule="evenodd" clip-rule="evenodd" d="M32.2142 30.3475L31.7114 30.187C31.6361 30.163 31.5843 30.0992 31.5932 30.0412L31.7768 28.7332C31.7865 28.6691 31.8654 28.6373 31.9482 28.6638L32.6988 28.9032C32.7816 28.9297 32.8342 29.0036 32.8132 29.0638L32.3819 30.2927C32.3628 30.3476 32.2895 30.3717 32.2142 30.3475Z" stroke-linecap="round" stroke-linejoin="round"/>
<path fill-rule="evenodd" clip-rule="evenodd" d="M33.9344 30.6968L33.4312 30.5368C33.3556 30.5129 33.3041 30.4493 33.313 30.3915L33.4987 29.233C33.5084 29.169 33.5872 29.1374 33.6701 29.1636L34.4213 29.4024C34.5043 29.4288 34.5571 29.5023 34.5361 29.5625L34.1023 30.6421C34.0831 30.6969 34.0098 30.7209 33.9344 30.6968Z" stroke-linecap="round" stroke-linejoin="round"/>
<path d="M10.686 39.0376C15.4079 41.2509 37.2773 41.8792 40.6492 40.4526" stroke-linecap="round" stroke-linejoin="round"/>
<path d="M27.1318 26.5785C27.2688 26.7253 27.2549 26.704 27.4167 26.8474" stroke-linecap="round" stroke-linejoin="round"/>
<path d="M26.2456 25.3547C26.3356 25.4906 26.4119 25.5944 26.5071 25.7183" stroke-linecap="round" stroke-linejoin="round"/>
<path d="M13.2971 25.5475C13.2733 25.7022 12.6856 28.5479 12.6524 28.6689C12.6322 28.7419 12.6082 28.8069 12.6005 28.8611C12.5954 28.8931 12.5963 28.9208 12.5989 28.9561C12.6651 29.8175 12.942 30.8781 13.6084 31.5475C14.1437 32.0853 14.8239 32.5057 15.488 32.8654C16.1977 33.2491 17.0907 33.6944 17.8487 34.0467" stroke-linecap="round" stroke-linejoin="round"/>
<path d="M12.6771 28.3844L12.451 28.8776C12.4276 28.9285 12.4158 28.9843 12.4169 29.0417L12.4447 30.9681C12.4385 31.0387 12.4393 31.1107 12.4524 31.1824C12.6022 32.0001 13.9389 32.4992 14.6827 32.7183C15.9182 33.0822 16.8483 33.1842 18.114 33.3372C19.4044 33.4932 20.6936 33.6574 21.9813 33.8698C24.0172 34.1247 25.9857 34.7381 27.9276 35.4537C28.1515 35.5357 28.3438 35.6062 28.5799 35.6821C29.0361 35.8277 29.6575 35.9937 30.1081 36.0731C31.807 36.3734 33.5189 36.3955 35.2098 36.4064C36.2655 36.4131 37.3408 36.4541 38.3876 36.396C38.4292 36.3937 38.4736 36.3912 38.4535 36.2729C38.3132 35.9096 36.1685 32.7635 36.0107 32.7375C35.9462 32.7268 35.856 32.7049 35.7739 32.6924C32.1176 32.1321 28.5503 31.3899 25.1206 29.8263C24.4058 29.5006 23.4764 29.1202 22.8063 28.7199C22.1121 28.3051 21.8857 28.1849 21.2273 27.6701C20.7886 27.3272 20.4984 26.7967 20.4361 26.3379L19.6519 21.326" stroke-linecap="round" stroke-linejoin="round"/>
<path d="M14.6012 20.1166C14.4911 19.0501 14.6287 18.6171 14.9143 17.9787C15.5654 16.5216 16.3965 14.6316 15.5783 12.9172C15.3725 12.4876 15.0196 12.0267 14.7308 11.8219C14.5783 11.7142 14.4438 11.6771 14.0993 11.6133C14.2313 11.6378 14.2452 15.0362 14.2435 15.3571C14.238 16.3356 14.2043 17.3123 14.1008 18.2755C14.0035 19.1826 13.7039 20.0369 13.6383 20.9501C13.7192 21.1074 13.8935 21.6583 14.141 22.0729" stroke-linecap="round" stroke-linejoin="round"/>
<path fill-rule="evenodd" clip-rule="evenodd" d="M15.8999 21.6164L19.9012 21.14L22.4628 19.2292C20.986 18.9573 19.4477 18.9218 17.8069 18.6961C17.3161 18.6282 16.8174 18.544 16.3645 18.5315C16.0791 18.5236 15.8122 18.5446 15.5873 18.6033C15.2787 18.6836 15.0504 18.8352 14.8693 19.0744C14.7745 19.1983 14.6938 19.3472 14.6279 19.4797C14.5343 19.6666 14.4707 19.8223 14.4022 20.1059C14.1818 20.8977 13.9705 21.6939 13.8287 22.5087C13.6909 23.3029 13.6629 24.1123 13.6113 24.922C13.6069 24.9812 13.6026 25.0398 13.6424 25.0976L15.8999 21.6164Z" stroke-linecap="round" stroke-linejoin="round"/>
<path d="M16.2235 18.3812C16.3784 18.1104 16.4407 18.0093 16.4971 17.9096C16.9985 17.0319 17.0751 16.2847 17.1122 15.7308C17.1426 15.2824 17.1477 14.9606 17.0884 14.5865C17.0031 14.0416 16.782 13.3868 16.3512 12.8021C15.8755 12.1562 15.1425 11.5965 14.1873 11.5776" stroke-linecap="round" stroke-linejoin="round"/>
<path d="M21.5159 19.5693C21.5363 19.7825 21.5529 20.15 21.5581 20.2391C21.5927 20.8098 21.595 21.4869 21.6744 22.1478C21.8486 23.5938 22.3964 24.9599 23.2195 26.0747C24.238 27.4533 25.679 28.4468 27.2038 29.2847C27.8314 29.6288 28.4727 29.9467 29.2283 30.2361C30.1347 30.5833 31.2056 30.8896 32.2289 31.1299C32.9321 31.2951 33.6121 31.4293 34.3022 31.575C34.8017 31.6811 35.3054 31.7923 35.7222 31.7948" stroke-linecap="round" stroke-linejoin="round"/>
<path fill-rule="evenodd" clip-rule="evenodd" d="M25.4505 25.8213L26.3684 25.3309C26.4408 25.2928 26.4573 25.2022 26.404 25.1334L26.0051 24.4818C25.9518 24.413 25.8513 24.3949 25.7859 24.4424L24.345 25.488C24.2855 25.531 24.277 25.613 24.3254 25.6754L24.648 26.0921C24.6964 26.1547 24.7849 26.1761 24.8508 26.1415L25.4505 25.8213Z" stroke-linecap="round" stroke-linejoin="round"/>
<path d="M22.4703 18.9017C22.6304 18.899 22.7869 18.9285 22.8812 18.9436C23.1996 18.9966 23.5006 19.2081 23.6804 19.477C23.9931 19.9435 23.9427 20.5847 23.9475 21.1655C23.9535 21.8668 24.0387 22.4812 24.1769 23.1668C24.2098 23.3072 24.2621 23.4742 24.3292 23.6559" stroke-linecap="round" stroke-linejoin="round"/>
<path d="M35.0417 30.345C35.2203 30.3636 38.9255 30.9827 39.7651 31.2938C40.3613 31.5193 40.5292 32.0895 40.6625 32.6982C40.8773 33.6802 41.0001 34.7627 40.7493 35.6919C40.634 35.8812 40.5868 35.9023 40.5356 35.9223C40.0129 36.1212 39.1672 36.1713 38.3346 36.2406" stroke-linecap="round" stroke-linejoin="round"/>
<path d="M35.5334 32.088C35.7989 32.1003 38.2659 32.42 39.3653 32.5636C39.6862 32.6056 39.9712 32.8068 40.0999 33.0815L40.8811 34.8923" stroke-linecap="round" stroke-linejoin="round"/>
<path fill-rule="evenodd" clip-rule="evenodd" d="M20.1649 18.3357C20.1468 18.029 20.1808 17.3733 20.2557 16.772C20.3264 16.2023 20.4337 15.6829 20.5696 15.191C20.7914 14.3838 21.0878 13.6514 21.4816 12.9759C21.7067 12.5909 21.9634 12.2238 22.3955 12.0094C22.9343 11.7434 23.7467 11.7156 24.2803 11.6952C24.6002 11.6836 24.8199 11.6746 25.2212 11.717C25.5413 11.7511 25.9758 11.8182 26.1555 11.9979C26.4298 12.2714 26.1135 12.8065 25.9652 13.0157C24.4752 12.8664 23.2305 13.1752 22.6222 14.0199C22.4095 14.3146 22.2747 14.6742 22.1673 15.0944C21.9344 16.0033 21.8298 17.1962 21.7989 18.5045L20.1649 18.3357Z" stroke-linecap="round" stroke-linejoin="round"/>
<path d="M25.6063 23.0863C25.5511 21.7613 25.5501 21.6136 25.5452 21.4849C25.5218 20.861 25.5214 20.7516 25.5141 20.4576C25.5035 20.0439 25.4853 19.629 25.4382 19.2139C25.3967 18.846 25.362 18.3621 25.1306 18.035C25.2291 18.1754 24.8212 18.5322 24.7494 18.6088C24.4985 18.8766 24.3719 19.1018 24.2741 19.4747C24.0875 20.1847 24.1815 21.8958 24.9161 23.3384" stroke-linecap="round" stroke-linejoin="round"/>
<path d="M25.9699 12.8254L25.3792 17.9423" stroke-linecap="round" stroke-linejoin="round"/>
<path d="M29.0822 29.1629C29.0374 29.3468 28.8592 29.4727 28.6412 29.4573C28.3834 29.4391 28.1677 29.23 28.1593 28.9906C28.1548 28.8606 28.212 28.7482 28.3069 28.6755" stroke-linecap="round" stroke-linejoin="round"/>
<path d="M20.9812 35.1616L19.9844 36.4775C19.7823 36.701 19.9071 37.0235 20.2599 37.1978C20.9619 37.5445 22.1086 38.0489 24.7493 38.5071C27.3304 38.8667 29.0123 38.8177 29.7316 38.6924C30.115 38.6256 30.2866 38.3329 30.1138 38.0543L29.6385 37.2879"/>
<path d="M23.922 24.7679C23.8428 24.8281 23.7382 24.8605 23.6225 24.8522C23.3651 24.8337 23.15 24.6219 23.1417 24.3791C23.1333 24.1362 23.2945 23.9514 23.5517 23.9699" stroke-linecap="round" stroke-linejoin="round"/>
<path d="M40.6288 40.6468L40.678 41.7137C40.7209 42.6431 37.1283 42.64 36.3769 42.6655C32.8683 42.7841 29.2954 42.6247 25.752 42.4354C21.9912 42.2345 18.174 42.0115 14.4245 41.4289C13.2545 41.2471 11.5182 41.0753 10.8041 40.246C10.7383 40.1696 10.7005 40.0836 10.6965 39.9976L10.6526 39.0452" stroke-linecap="round" stroke-linejoin="round"/>
<path d="M27.5039 36.6953C27.9618 36.8248 28.5853 36.9723 29.0372 37.0428" stroke-linecap="round" stroke-linejoin="round"/>
<path d="M12.4895 32.6404C12.5888 33.1333 12.8167 33.6521 13.4035 33.9094C14.1314 34.2284 15.0896 34.3303 15.8681 34.4569C17.7023 34.7548 19.5462 34.88 21.3833 35.1332C22.4314 35.2774 23.4791 35.4639 24.5053 35.7434C25.5408 36.0251 26.5555 36.3679 27.5761 36.6953" stroke-linecap="round" stroke-linejoin="round"/>
<path d="M39.6563 36.7952C39.3114 36.8885 38.9248 36.9246 38.5483 36.9548C38.0852 36.9922 37.616 37.0249 37.1466 37.0406C36.6751 37.0566 36.2006 37.0592 35.726 37.0575C35.2512 37.0559 34.7757 37.0498 34.3008 37.048L34.1733 37.0476C32.4748 37.0437 30.7553 37.0317 29.0488 36.8161" stroke-linecap="round" stroke-linejoin="round"/>
<path fill-rule="evenodd" clip-rule="evenodd" d="M29.9026 40.5104C31.4547 40.5291 32.7683 40.4867 33.8401 40.4096C33.9039 40.405 33.9176 40.3336 33.861 40.3012L32.4554 39.4912C32.426 39.4742 32.3922 39.4664 32.3589 39.4693C31.8677 39.5116 31.295 39.5434 30.6424 39.5582C30.6035 39.559 30.5681 39.5741 30.5458 39.5995L29.8379 40.411C29.8041 40.4495 29.8435 40.5097 29.9026 40.5104Z"/>
<path fill-rule="evenodd" clip-rule="evenodd" d="M25.4156 40.5166C26.4869 40.5924 27.5062 40.6448 28.4349 40.6755C28.4761 40.6769 28.5134 40.6629 28.5378 40.6373L29.2531 39.8863C29.2885 39.8488 29.2505 39.789 29.1906 39.788C28.322 39.7724 27.2338 39.7232 26.1814 39.6486C26.1387 39.6455 26.0989 39.659 26.0733 39.6852L25.3575 40.4177C25.3225 40.4536 25.3572 40.5125 25.4156 40.5166Z"/>
<path fill-rule="evenodd" clip-rule="evenodd" d="M24.257 40.5396L25.0011 39.7637C25.0351 39.7281 25.0042 39.6698 24.9479 39.6626C23.8674 39.5242 22.8475 39.3683 22.0462 39.2136C22 39.2048 21.9549 39.2156 21.9248 39.243L21.0459 40.0368C21.0081 40.0709 21.0371 40.1321 21.0948 40.1403L24.1375 40.5758C24.1842 40.5825 24.2288 40.569 24.257 40.5396Z"/>
<path fill-rule="evenodd" clip-rule="evenodd" d="M16.1161 39.1954C17.037 39.4546 18.424 39.7381 19.7413 39.993C19.829 40.0099 19.9159 39.9899 19.9762 39.939L20.93 39.1333C20.9679 39.1014 20.9449 39.041 20.8901 39.0276C19.491 38.6808 18.5412 38.2887 17.8651 38.0003C17.8176 37.9798 17.7638 37.9829 17.7251 38.0082L16.0856 39.086C16.0415 39.115 16.0596 39.1796 16.1161 39.1954Z"/>
<path d="M24.9128 26.1889C24.8312 26.2621 24.7165 26.3028 24.5877 26.2936C24.3302 26.2752 24.1147 26.064 24.1063 25.8219C24.1001 25.6404 24.212 25.4266 24.4462 25.4433" stroke-linecap="round" stroke-linejoin="round"/>
<path d="M30.7053 29.6699C30.7137 29.9077 30.5113 30.0859 30.2533 30.0679C29.9952 30.0498 29.779 29.8424 29.7705 29.6046C29.7674 29.5162 29.7934 29.4362 29.8404 29.3713" stroke-linecap="round" stroke-linejoin="round"/>
<path d="M32.4405 30.1762C32.449 30.4068 32.2462 30.5797 31.9873 30.5622C31.7289 30.5448 31.5121 30.3437 31.5037 30.113" stroke-linecap="round" stroke-linejoin="round"/>
<path d="M33.2233 30.4753C33.2192 30.351 33.2353 30.2581 33.3155 30.1828" stroke-linecap="round" stroke-linejoin="round"/>
<path fill-rule="evenodd" clip-rule="evenodd" d="M23.6342 24.5687L23.4178 24.1105C23.3853 24.0419 23.4214 23.9655 23.4999 23.9357L25.4833 23.1761C25.5698 23.1433 25.6736 23.1793 25.7094 23.2551L25.958 23.9738C25.9936 24.0494 25.9462 24.1326 25.8551 24.1552L23.8392 24.6541C23.7563 24.6747 23.6667 24.6373 23.6342 24.5687Z" stroke-linecap="round" stroke-linejoin="round"/>
<path fill-rule="evenodd" clip-rule="evenodd" d="M24.648 26.0921L24.3252 25.6754C24.277 25.613 24.2857 25.531 24.3448 25.488L25.7857 24.4424C25.8511 24.3949 25.9518 24.413 26.0051 24.4818L26.404 25.1334C26.4573 25.2022 26.4408 25.2928 26.3684 25.3309L24.8508 26.1415C24.7849 26.1761 24.6964 26.1547 24.648 26.0921Z" stroke-linecap="round" stroke-linejoin="round"/>
<path fill-rule="evenodd" clip-rule="evenodd" d="M25.8006 27.4676L25.4171 27.1038C25.3598 27.0493 25.3513 26.9678 25.3979 26.9172L26.5318 25.6883C26.5833 25.6327 26.6804 25.6363 26.7438 25.6962L27.264 26.2908C27.327 26.3508 27.33 26.442 27.2701 26.4896L25.9995 27.4877C25.9449 27.5309 25.858 27.5222 25.8006 27.4676Z" stroke-linecap="round" stroke-linejoin="round"/>
<path fill-rule="evenodd" clip-rule="evenodd" d="M27.1626 28.5235L26.7267 28.2181C26.6617 28.1723 26.6369 28.0941 26.6704 28.039L27.4845 26.7025C27.5215 26.6417 27.6138 26.6332 27.6855 26.6835L28.3393 27.2377C28.4112 27.2879 28.4326 27.3764 28.3858 27.4299L27.3537 28.5181C27.3115 28.5668 27.2277 28.5692 27.1626 28.5235Z" stroke-linecap="round" stroke-linejoin="round"/>
<path fill-rule="evenodd" clip-rule="evenodd" d="M28.8212 29.3168L28.3429 29.0843C28.2711 29.0494 28.2303 28.98 28.2491 28.9252L28.6707 27.659C28.6915 27.5988 28.7762 27.5803 28.8551 27.6185L29.6075 27.9686C29.6864 28.0069 29.7265 28.0863 29.6951 28.1413L28.9995 29.2898C28.9707 29.3396 28.8931 29.3515 28.8212 29.3168Z" stroke-linecap="round" stroke-linejoin="round"/>
<path fill-rule="evenodd" clip-rule="evenodd" d="M30.4699 29.8813L29.9671 29.7208C29.8918 29.6968 29.8401 29.6331 29.849 29.5748L30.0659 28.2253C30.0758 28.1612 30.1543 28.1294 30.2373 28.1559L30.9877 28.3953C31.0709 28.4218 31.1233 28.4955 31.1022 28.5559L30.6375 29.8265C30.6184 29.8814 30.5452 29.9053 30.4699 29.8813Z" stroke-linecap="round" stroke-linejoin="round"/>
<path fill-rule="evenodd" clip-rule="evenodd" d="M32.2142 30.3475L31.7114 30.187C31.6361 30.163 31.5843 30.0992 31.5932 30.0412L31.7768 28.7332C31.7865 28.6691 31.8654 28.6373 31.9482 28.6638L32.6988 28.9032C32.7816 28.9297 32.8342 29.0036 32.8132 29.0638L32.3819 30.2927C32.3628 30.3476 32.2895 30.3717 32.2142 30.3475Z" stroke-linecap="round" stroke-linejoin="round"/>
<path fill-rule="evenodd" clip-rule="evenodd" d="M33.9344 30.6968L33.4312 30.5368C33.3556 30.5129 33.3041 30.4493 33.313 30.3915L33.4987 29.233C33.5084 29.169 33.5872 29.1374 33.6701 29.1636L34.4213 29.4024C34.5043 29.4288 34.5571 29.5023 34.5361 29.5625L34.1023 30.6421C34.0831 30.6969 34.0098 30.7209 33.9344 30.6968Z" stroke-linecap="round" stroke-linejoin="round"/>
<path d="M1.13259 32.3106L5.10069 34.5427L5.26799 34.6368L5.07978 34.9714L4.91248 34.8773L0.305719 32.286L0.00830078 32.1187L0.305719 31.9514L4.91248 29.3601L5.07978 29.266L5.26799 29.6006L5.10069 29.6947L1.13259 31.9267H5.00659H9.77565H9.9676V32.3106H9.77565H5.00659H1.13259Z" fill="black"/>
<path d="M50.8841 31.9267L46.916 29.6947L46.7487 29.6006L46.9369 29.266L47.1042 29.3601L51.711 31.9514L52.0084 32.1187L51.711 32.286L47.1042 34.8773L46.9369 34.9714L46.7487 34.6368L46.916 34.5427L50.8841 32.3106H47.0101H43.4283H43.2363V31.9267H43.4283H47.0101H50.8841Z" fill="black"/>
<path d="M24.4369 1.50075L22.2048 5.46886L22.1107 5.63615L21.7761 5.44794L21.8702 5.28065L24.4615 0.673883L24.6288 0.376465L24.7961 0.673883L27.3874 5.28065L27.4815 5.44794L27.1469 5.63615L27.0528 5.46886L24.8208 1.50075V5.37475V8.36208V8.55402H24.4369V8.36208V5.37475V1.50075Z" fill="black"/>
<path d="M24.8208 52.1813L27.0528 48.2132L27.1469 48.0459L27.4815 48.2341L27.3874 48.4014L24.7961 53.0082L24.6288 53.3056L24.4615 53.0082L21.8702 48.4014L21.7761 48.2341L22.1107 48.0459L22.2048 48.2132L24.4369 52.1813V48.3073V45.4937V45.3018H24.8208V45.4937V48.3073V52.1813Z" fill="black"/>
</svg>
