<svg width="872" height="845" viewBox="0 0 872 845" fill="none" xmlns="http://www.w3.org/2000/svg">
<g clip-path="url(#clip0_401_27)">
<path d="M187.642 607.655C192.615 607.655 222.455 612.625 326.896 657.361C318.193 639.964 303.273 591.5 299.543 514.456C297.056 433.684 295.813 402.618 295.813 393.919C290.839 405.103 272.189 449.838 260.999 474.691C247.356 505.521 230.254 534.704 210.022 561.677C195.931 580.317 187.642 594.4 187.642 607.655ZM341.816 671.03L325.653 664.816C212.509 616.353 186.398 608.897 186.398 608.897L177.695 606.412C177.695 592.742 192.615 575.346 206.292 556.706C226.327 530.489 243.422 502.153 257.269 472.206C270.946 442.383 295.813 390.192 295.813 390.192L297.056 386.463V390.192C297.056 390.192 304.516 413.802 309.49 514.456C311.976 593.986 329.383 643.691 338.086 658.603L341.816 671.03Z" fill="black"/>
<path d="M653.896 633.75L651.41 636.235C647.975 637.434 644.955 639.59 642.706 642.449C637.733 644.934 634.003 648.662 626.543 653.632C619.082 658.603 614.109 664.817 605.82 671.03C603.333 672.272 602.09 673.515 599.604 674.758C597.117 676 597.117 676 595.873 677.243L593.387 679.728C587.811 684.058 582.799 689.067 578.467 694.64C574.737 698.368 571.006 703.338 566.033 708.309L563.546 710.794C562.303 712.037 561.06 713.279 561.06 714.522C558.631 716.687 556.535 719.2 554.843 721.978C552.356 724.464 547.383 730.677 543.653 732.334C539.532 732.958 535.34 732.958 531.22 732.334C527.718 732.588 524.2 732.166 520.858 731.091C518.372 731.091 514.642 729.848 510.497 729.848C498.064 726.12 485.63 722.392 471.953 718.664C447.086 709.966 424.706 701.267 399.425 693.811C394.451 691.326 388.235 690.083 382.018 687.598C375.801 685.113 370.828 683.871 365.855 681.385C354.664 677.657 345.132 673.929 334.771 670.201C324.41 666.473 314.877 655.29 307.417 652.804C299.957 650.319 292.497 646.591 287.524 644.105C282.627 642.297 278.02 639.785 273.847 636.65C273.847 636.65 280.064 639.135 291.254 644.105C296.227 645.348 302.444 649.076 309.904 651.562C313.634 652.804 318.607 655.289 322.337 656.532C326.067 657.775 327.311 657.775 328.554 659.017C329.797 660.26 333.528 660.26 336.014 661.502C344.718 665.23 355.908 668.958 365.855 672.686C371.447 675.304 377.275 677.384 383.261 678.899C388.772 681.71 394.623 683.799 400.668 685.113C424.292 693.812 449.159 702.51 475.269 711.209C487.702 716.239 500.617 719.986 513.813 722.392C516.299 723.635 520.029 723.635 522.516 724.877H532.877C535.836 725.17 538.822 724.744 541.581 723.635C544.426 722.591 546.982 720.887 549.041 718.664C551.47 716.5 553.565 713.987 555.258 711.209L558.987 707.48C558.987 706.238 560.231 704.995 561.474 703.753L573.908 691.326C577.323 686.911 581.063 682.757 585.098 678.899C586.341 677.657 587.585 677.657 588.828 676.414L591.314 673.929L598.775 670.201C602.505 667.716 606.235 663.988 609.965 661.502C613.642 659.342 617.11 656.847 620.326 654.047C627.786 649.076 632.759 643.691 637.733 641.62L653.896 633.75Z" fill="black"/>
<path d="M203.39 611.383H199.661C199.171 610.91 198.582 610.554 197.936 610.338C197.291 610.123 196.605 610.056 195.93 610.14H192.2C192.2 608.897 189.714 608.897 188.47 608.897H184.74C184.251 608.425 183.662 608.068 183.016 607.853C182.371 607.638 181.685 607.571 181.01 607.655H174.794L172.307 606.412H159.874C161.614 606.464 163.336 606.034 164.847 605.169H175.208L176.452 606.412H185.155C186.614 607.4 188.375 607.841 190.128 607.655C191.371 607.655 192.615 608.897 193.858 608.897H196.345C198.832 610.14 200.075 610.14 201.318 611.383H203.39Z" fill="black"/>
<path d="M322.337 350.427L321.094 351.669C320.424 352.344 319.55 352.78 318.608 352.912C318.608 354.154 317.364 355.397 316.121 356.639L314.877 359.125L312.391 361.611C311.147 364.096 309.904 365.338 308.661 367.823C307.729 370.383 305.982 372.566 303.687 374.036L299.957 381.493C298.943 384.485 297.696 387.394 296.227 390.192L292.497 397.647C291.255 400.412 290.417 403.342 290.01 406.346C287.657 410.769 285.581 415.334 283.794 420.014C283.083 420.658 282.639 421.546 282.55 422.5L281.307 424.985C280.064 427.471 280.064 428.713 278.82 429.956C278.154 431.1 277.731 432.369 277.577 433.684C277.731 432.369 278.154 431.1 278.82 429.956C278.634 428.204 279.075 426.444 280.064 424.985C280.064 423.743 280.064 423.743 281.307 422.5C282.55 421.258 281.307 420.014 282.55 420.014C283.794 415.044 286.281 409.659 287.524 405.103L291.254 397.647C292.722 394.849 293.969 391.941 294.984 388.948L298.714 381.493L302.444 374.036C304.521 371.858 306.204 369.335 307.417 366.581C308.661 365.338 309.904 362.853 311.147 361.611L313.634 359.125L314.877 356.639L318.608 352.912C319.252 352.201 320.139 351.758 321.094 351.669L322.337 350.427Z" fill="black"/>
<path d="M655.969 661.088H657.212C657.212 662.331 658.455 662.331 659.699 663.574C660.942 664.816 660.942 666.059 662.185 667.301L664.672 668.544L667.159 671.03L669.645 673.515C670.289 673.563 670.894 673.84 671.351 674.296C671.807 674.752 672.084 675.357 672.132 676C673.376 676 674.619 677.243 675.862 678.485C677.105 679.728 677.105 679.728 678.349 680.971C681.105 682.183 683.629 683.866 685.809 685.942C688.295 687.184 690.782 689.669 693.269 690.912C695.756 692.155 696.999 694.64 699.486 697.125C701.972 699.61 701.973 698.368 703.216 699.61C704.459 700.853 704.459 702.096 705.702 703.339C706.346 703.386 706.951 703.664 707.407 704.12C707.864 704.576 708.141 705.18 708.189 705.824C709.432 707.066 710.676 707.066 711.919 708.309C713.163 709.552 713.163 710.794 714.406 712.037C715.081 712.707 715.518 713.58 715.649 714.522C716.893 714.522 716.893 715.765 718.136 717.008L719.379 719.493L719.376 719.504C720.617 723.225 720.617 723.225 721.858 726.947L721.866 726.949C721.866 725.706 720.623 725.706 720.623 724.463C720.623 723.221 719.379 721.978 718.136 719.493C716.601 718.076 715.337 716.391 714.406 714.522C713.731 713.852 713.294 712.979 713.163 712.037C712.519 711.989 711.914 711.712 711.458 711.256C711.001 710.799 710.724 710.195 710.676 709.552L708.189 707.066L704.459 703.339L701.973 700.853C700.729 699.611 699.486 698.368 698.242 698.368C696.999 695.882 694.512 694.64 692.026 692.155C689.539 689.669 687.052 688.427 684.566 687.184C682.079 685.942 679.592 683.456 678.349 682.213C677.105 680.971 675.862 679.728 674.619 679.728L672.132 677.243C670.889 676 669.645 674.758 668.402 674.758L665.915 672.272L663.429 669.787L662.185 667.301L658.455 663.574L655.969 661.088Z" fill="#DE9F85"/>
<path d="M667.159 690.912L668.402 692.154V694.64C669.163 695.229 669.781 695.982 670.211 696.842C670.642 697.703 670.873 698.648 670.889 699.61L673.375 700.853L674.619 704.581C676.154 705.998 677.418 707.682 678.349 709.551C679.592 710.794 680.836 710.794 682.079 712.037C682.127 712.68 682.404 713.284 682.861 713.741C683.317 714.197 683.922 714.474 684.565 714.522L690.782 720.735C693.269 721.978 695.756 724.463 698.242 725.706L704.459 731.919C706.765 733.262 708.859 734.937 710.676 736.89C713.163 739.375 715.649 740.617 716.892 743.103C718.136 745.588 720.623 746.831 721.866 748.074L723.109 750.559L724.352 753.044C725.218 754.554 725.649 756.275 725.596 758.015C726.307 758.658 726.751 759.545 726.839 760.5C726.164 759.829 725.727 758.957 725.596 758.015C725.596 756.772 724.352 755.529 724.352 754.287L721.866 751.802L720.623 749.316C719.359 746.959 717.673 744.852 715.649 743.103L710.676 738.132C708.189 735.647 705.702 734.405 704.459 733.162C703.216 731.919 699.486 729.434 696.999 726.948C694.512 724.463 692.026 723.221 689.539 721.978C687.052 720.735 685.809 718.25 683.322 715.764C682.679 715.717 682.074 715.44 681.617 714.984C681.161 714.528 680.883 713.922 680.836 713.279L678.349 710.794C676.324 709.045 674.639 706.939 673.375 704.581C672.132 703.338 670.889 700.853 669.645 699.61C668.402 698.367 668.402 695.882 668.402 694.64C668.402 693.397 668.402 693.397 667.159 692.154V690.912Z" fill="#DE9F85"/>
<path d="M665.915 738.132V741.86C665.915 743.103 667.159 744.345 668.402 745.588L669.645 748.074L670.889 750.559C672.132 751.802 674.619 753.044 675.862 755.529C677.105 758.015 679.592 758.014 682.079 759.257C687.052 762.985 690.782 765.47 695.756 769.612C700.729 773.755 704.459 777.069 708.189 780.796C710.676 782.039 711.919 784.524 714.406 785.767C716.893 787.01 716.893 789.495 718.136 791.98L719.379 793.223V801.507C718.668 802.151 718.225 803.038 718.136 803.992L716.892 805.235L718.136 803.992V801.507C718.136 800.265 719.379 799.022 718.136 796.537V792.808H716.892V791.152C715.649 789.909 714.406 787.424 713.163 786.181C711.919 784.939 709.432 782.453 706.946 781.21C703.086 777.178 698.93 773.44 694.513 770.027C690.521 765.884 685.907 762.39 680.836 759.672C678.939 758.157 676.849 756.903 674.619 755.943C673.375 753.458 670.889 752.216 669.645 750.973L668.402 749.73L667.159 746.003C666.686 745.513 666.329 744.924 666.114 744.279C665.899 743.634 665.831 742.949 665.915 742.275V738.546V738.132Z" fill="#DE9F85"/>
<path d="M642.292 728.191C643.247 728.28 644.134 728.723 644.779 729.434H648.509L649.752 730.676L650.995 731.919H652.239C653.198 734.148 654.453 736.237 655.969 738.132C656.68 738.776 657.123 739.663 657.212 740.617L655.969 738.132C653.749 737.152 651.976 735.38 650.995 733.162H649.752V731.919L648.509 730.676H646.022L644.779 729.434H642.292V728.191Z" fill="black"/>
<path d="M639.805 680.97H643.535L644.778 682.213H647.265L649.752 683.456L650.995 684.698C651.955 686.927 653.209 689.017 654.725 690.912L655.969 693.397L654.725 692.154C653.482 690.912 653.482 689.669 652.238 688.427L649.752 685.941L648.509 684.698L647.265 683.456L644.778 682.213H643.535C642.292 682.213 642.292 682.213 641.048 680.97H639.805Z" fill="black"/>
<path d="M637.318 651.147H638.562V649.904H642.292L643.535 651.147H646.022V652.389H647.265C648.225 654.618 649.48 656.708 650.995 658.603V662.331C650.907 661.376 650.463 660.489 649.752 659.846C649.621 658.904 649.184 658.031 648.509 657.361C647.265 656.118 647.265 654.875 646.022 653.632L644.778 652.389H643.535L642.292 651.147H637.318Z" fill="black"/>
<path d="M531.634 -0.000244141H516.714C516.714 -0.000244141 524.174 58.4047 473.197 80.7723C425.371 102.032 375.887 119.348 325.239 132.549C276.748 144.976 231.988 143.733 198.417 205.037C164.847 266.341 181.011 272.139 135.007 372.794C89.003 473.448 74.0827 507.414 38.0256 570.375C1.9686 633.336 -4.24825 673.929 1.96848 731.919C5.69852 775.412 22.6909 785.353 40.5122 785.353C46.3932 785.225 52.2377 784.391 57.9193 782.868C60.2681 781.854 62.8286 781.428 65.3794 781.625C95.2197 781.625 174.794 806.478 330.212 821.39C402.741 827.603 439.626 827.603 460.763 827.603H477.756C489.762 827.555 501.637 830.098 512.569 835.059C524.939 841.313 538.506 844.844 552.357 845.414C566.033 845.414 579.71 840.444 605.82 829.26C621.978 821.389 638.585 814.474 655.554 808.549C655.554 808.549 645.193 814.762 648.094 822.218C652.174 826.271 657.029 829.461 662.37 831.596C667.71 833.731 673.427 834.768 679.178 834.645C685.366 834.916 691.474 833.171 696.585 829.674C705.351 823.881 712.259 815.683 716.478 806.064L717.721 804.821V801.507C717.721 800.265 718.965 799.022 717.721 796.537V792.809H716.478V791.152C715.235 789.909 713.991 787.424 712.748 786.182C711.505 784.939 709.018 782.453 706.531 781.211C702.671 777.178 698.515 773.44 694.098 770.027C690.107 765.884 685.492 762.39 680.421 759.672C678.525 758.157 676.434 756.903 674.204 755.943C672.961 753.458 670.474 752.216 669.231 750.973L667.987 749.73L666.744 748.488C669.89 753.521 674.142 757.771 679.178 760.914C691.532 769.947 703.171 779.917 713.991 790.738C718.965 794.466 716.478 799.436 707.775 799.436C700.475 799.018 693.377 796.889 687.052 793.223C680.919 789.808 674.147 787.692 667.159 787.01C656.797 787.01 646.436 793.223 619.912 799.436C588.828 806.892 568.106 823.047 537.022 823.047C524.668 822.611 512.477 820.09 500.965 815.591C484.801 811.863 469.881 815.591 351.763 808.135C242.349 801.922 120.501 766.713 76.9839 766.713C73.4809 766.371 69.9452 766.795 66.6227 767.956C62.1407 768.985 57.54 769.403 52.9458 769.199C28.0789 769.199 5.69859 749.317 8.18528 669.787C9.42862 632.508 41.7555 589.015 87.7593 493.745C133.763 398.476 158.63 344.627 181.01 271.311C203.391 197.995 219.554 163.201 282.965 147.046C349.616 131.443 414.789 110.1 477.756 83.2575C516.714 66.2747 530.391 42.2498 531.634 -0.000244141ZM676.691 642.034C686.969 656.399 699.091 669.351 712.748 680.556C723.938 688.012 723.109 695.468 715.235 695.468C707.633 694.625 700.437 691.604 694.512 686.769C679.742 677.37 665.619 666.992 652.239 655.703C654.467 658.054 656.544 660.545 658.455 663.159L655.969 660.674H657.212C657.212 661.917 658.455 661.917 659.699 663.159C660.942 664.402 660.942 665.645 662.185 666.887L664.672 668.13L667.159 670.615L669.645 673.1C670.289 673.148 670.894 673.425 671.351 673.881C671.807 674.338 672.084 674.943 672.132 675.586C673.376 675.586 674.619 676.829 675.862 678.071C677.105 679.314 677.105 679.314 678.349 680.556C681.105 681.769 683.629 683.451 685.809 685.527C688.295 686.77 690.782 689.255 693.269 690.498C695.756 691.741 696.999 694.226 699.486 696.711C701.972 699.196 701.973 697.953 703.216 699.196C704.459 700.439 704.459 701.681 705.702 702.924C706.346 702.972 706.951 703.249 707.407 703.705C707.864 704.161 708.141 704.766 708.189 705.409C709.432 706.652 710.676 706.652 711.919 707.895C713.163 709.138 713.162 710.38 714.406 711.623L715.649 712.865C718.168 712.081 720.48 710.744 722.416 708.952C724.352 707.161 725.863 704.96 726.839 702.51C733.056 691.326 713.163 677.657 701.973 667.716C692.756 660.258 684.414 651.782 677.105 642.449L676.691 642.034ZM667.987 674.343C674.204 679.313 680.421 685.527 687.881 690.498C718.965 715.351 720.208 727.777 718.965 733.99L717.721 735.233C710.261 735.233 672.961 704.167 666.744 686.769C666.886 689.292 667.303 691.793 667.987 694.226C668.748 694.815 669.367 695.567 669.797 696.428C670.227 697.288 670.459 698.234 670.474 699.196L672.961 700.439L674.204 704.166C675.739 705.583 677.004 707.268 677.934 709.137C679.178 710.38 680.421 710.38 681.664 711.623C681.712 712.266 681.99 712.871 682.446 713.327C682.902 713.783 683.508 714.06 684.151 714.108L690.368 720.321C692.854 721.563 695.341 724.049 697.828 725.292L704.045 731.505C706.35 732.847 708.445 734.522 710.261 736.475C712.748 738.961 715.235 740.204 716.478 742.689L718.965 745.174C720.585 743.329 721.763 741.139 722.409 738.77C723.055 736.402 723.153 733.917 722.695 731.505C722.779 730.83 722.711 730.145 722.496 729.5C722.281 728.855 721.924 728.266 721.451 727.777V726.534C721.451 725.292 720.208 725.292 720.208 724.049C720.208 722.807 718.965 721.564 717.721 719.078C716.186 717.662 714.922 715.977 713.991 714.108C713.316 713.438 712.879 712.565 712.748 711.623C712.104 711.575 711.499 711.298 711.043 710.841C710.587 710.385 710.309 709.781 710.261 709.137L707.775 706.652L704.045 702.924L701.558 700.439C700.315 699.196 699.071 697.953 697.828 697.953C696.584 695.468 694.098 694.226 691.611 691.74C689.125 689.255 686.638 688.012 684.151 686.769C681.665 685.527 679.178 683.042 677.934 681.799C676.691 680.556 675.448 679.314 674.204 679.314L671.718 676.829C670.889 676 669.645 674.758 668.402 674.758L667.987 674.343ZM672.961 704.166C675.943 710 680.191 715.094 685.395 719.078C715.235 745.174 725.181 750.144 721.451 765.056C721.015 766.644 720.021 768.021 718.65 768.934C717.28 769.847 715.625 770.236 713.991 770.027C700.315 770.027 671.718 750.144 665.501 733.99C664.781 736.423 664.781 739.013 665.501 741.446C665.501 742.689 666.744 743.931 667.987 745.174L669.231 747.659L670.474 750.144C671.718 751.387 674.204 752.63 675.448 755.115C676.691 757.601 679.178 757.601 681.664 758.843C686.638 762.571 690.368 765.056 695.341 769.199C700.315 773.341 704.045 776.655 707.775 780.383C710.262 781.625 711.505 784.11 713.991 785.353V786.596C717.905 783.378 721.052 779.329 723.203 774.744C725.354 770.158 726.454 765.15 726.425 760.086C725.75 759.416 725.313 758.543 725.182 757.601C725.182 756.358 723.938 755.115 723.938 753.873L721.451 751.387L720.208 748.902C718.945 746.544 717.259 744.438 715.235 742.689L710.261 737.718C708.081 735.642 705.557 733.96 702.801 732.747C701.558 730.262 699.071 729.02 696.585 726.534C694.098 724.049 691.611 722.807 689.124 721.564C686.638 720.321 685.394 717.836 682.908 715.35C682.264 715.303 681.659 715.025 681.203 714.569C680.746 714.113 680.469 713.509 680.421 712.865L677.934 710.38C676.097 708.719 674.555 706.758 673.375 704.581L672.961 704.166Z" fill="black"/>
<path d="M655.969 661.088L658.455 663.574C662.184 667.037 665.648 670.776 668.817 674.758C670.06 674.758 671.303 676 672.546 677.243L675.033 679.728C676.277 679.728 677.52 680.971 678.763 682.213C680.007 683.456 682.493 684.699 684.98 687.184C687.467 689.669 689.953 690.912 692.44 692.155C694.927 693.397 697.414 695.882 698.657 698.368C699.9 698.368 701.143 699.611 702.387 700.853L704.874 703.339L708.604 707.066L711.09 709.552C711.138 710.195 711.415 710.799 711.872 711.256C712.328 711.712 712.933 711.989 713.577 712.037C713.709 712.979 714.145 713.852 714.82 714.522C715.751 716.392 717.015 718.076 718.55 719.493C719.794 721.978 721.037 723.221 721.037 724.463C721.037 725.706 722.281 725.706 722.281 726.949V728.191C720.7 722.817 718.174 717.767 714.82 713.279H716.064L714.82 712.037C713.577 710.794 712.334 709.552 712.334 708.309C712.334 707.066 709.847 707.066 708.604 705.824C708.556 705.181 708.278 704.576 707.822 704.12C707.366 703.664 706.761 703.386 706.117 703.339C704.874 702.096 703.63 700.853 703.63 699.61C703.63 698.368 701.144 698.368 699.9 697.125C698.657 695.882 694.927 693.397 693.683 690.912C692.44 688.427 688.71 687.184 686.223 685.942C684.043 683.866 681.519 682.183 678.763 680.971C677.52 679.728 677.52 678.485 676.277 678.485C675.033 678.485 673.79 676 672.546 676C672.499 675.357 672.222 674.752 671.765 674.296C671.309 673.84 670.704 673.563 670.06 673.515L667.573 671.03L665.086 668.544L662.6 667.301C661.356 666.059 660.113 664.816 660.113 663.574C660.113 662.331 657.626 662.331 657.626 661.088H655.969Z" fill="black"/>
<path d="M668.402 694.64C669.786 698.216 671.449 701.679 673.375 704.995C674.639 707.353 676.324 709.459 678.349 711.209L680.835 713.694C680.883 714.337 681.161 714.942 681.617 715.398C682.073 715.854 682.678 716.131 683.322 716.179C685.809 718.664 688.295 719.907 689.539 722.392C690.782 724.877 694.512 726.12 696.999 727.363C699.486 728.606 701.972 731.091 704.459 733.576C706.946 736.061 708.189 736.061 710.676 738.546L715.649 743.517C717.673 745.267 719.359 747.373 720.622 749.73L721.866 752.216L724.352 754.701C724.352 755.943 725.596 757.187 725.596 758.429C725.727 759.371 726.164 760.244 726.839 760.914C725.406 755.484 722.866 750.407 719.379 746.003L716.892 743.517C715.649 741.032 713.162 739.789 710.676 737.304C708.859 735.351 706.764 733.676 704.459 732.333L698.242 726.12C695.756 724.877 693.269 722.392 690.782 721.149L684.565 714.936C683.922 714.889 683.317 714.611 682.86 714.155C682.404 713.699 682.127 713.095 682.079 712.451C680.835 711.209 679.592 711.208 678.349 709.965C677.418 708.096 676.154 706.412 674.619 704.995L673.375 701.267L670.889 700.025C670.938 698.993 670.738 697.966 670.305 697.028C669.872 696.091 669.219 695.271 668.402 694.64Z" fill="black"/>
<path d="M665.916 738.132V741.86C666.452 743.905 666.867 745.98 667.159 748.074L668.402 749.316V750.559L669.645 751.802C670.889 753.044 673.376 754.287 674.619 756.772C676.849 757.731 678.94 758.985 680.836 760.5C685.907 763.218 690.521 766.712 694.513 770.855C698.93 774.268 703.086 778.007 706.946 782.039C709.433 783.282 710.676 785.767 713.163 787.009C715.649 788.252 715.649 790.738 716.892 791.98V793.223H718.136V796.951C719.379 799.436 718.136 800.679 718.136 801.921V804.407L716.892 805.65C718.664 802.724 719.383 799.282 718.93 795.892C718.478 792.503 716.882 789.369 714.406 787.009V785.767C711.919 784.524 710.676 782.039 708.189 780.796C704.459 777.069 699.486 773.34 695.756 769.612C692.026 765.885 687.052 763.399 682.079 759.257C679.592 758.014 678.349 756.772 675.862 755.529C673.376 754.287 672.132 751.802 670.889 750.559L669.645 748.074L668.402 745.588C667.159 744.345 665.916 743.103 665.916 741.86V738.132Z" fill="black"/>
<path d="M141.223 456.052L159.874 383.978L199.661 432.441L141.223 456.052Z" fill="#EE2025"/>
<path d="M92.7328 454.809C85.7543 450.319 79.819 444.387 75.326 437.412C72.8393 434.927 71.5959 431.199 69.1092 428.713C69.1092 427.471 67.8659 426.228 67.8659 423.743C67.8659 421.258 66.6226 418.772 66.6226 423.743V449.424C67.866 434.512 86.5162 432.027 97.7063 430.785C121.082 430.57 144.286 434.787 166.09 443.211C165.467 437.844 165.467 432.424 166.09 427.057V410.902C151.17 407.174 137.493 403.447 122.573 400.547C111.461 398.684 100.115 398.684 89.0029 400.547C85.4055 400.248 81.7921 400.893 78.5209 402.419C75.2497 403.944 72.4338 406.297 70.3525 409.245C68.8408 410.906 67.721 412.885 67.0754 415.035C66.4299 417.186 66.2752 419.454 66.6226 421.672V446.524C66.425 449.074 66.8517 451.633 67.8659 453.981C71.2712 464.058 77.2753 473.059 85.2727 480.076C90.2461 469.721 95.6341 460.194 96.463 456.466L92.7328 454.809Z" fill="#EE2025"/>
<path d="M225.771 470.135C239.011 478.561 251.492 488.124 263.071 498.716C267.216 502.705 270.712 507.317 273.432 512.385C274.986 514.087 275.869 516.295 275.919 518.598C277.162 521.083 277.163 529.782 277.163 517.355V494.988C276.821 498.432 275.453 501.693 273.236 504.352C271.02 507.01 268.056 508.943 264.729 509.9C257.456 511.951 249.895 512.791 242.349 512.385C238.619 517.356 228.672 534.753 223.699 543.451C236.539 544.901 249.522 544.483 262.242 542.209C269.703 539.723 275.919 535.995 277.163 528.539C278.168 526.631 278.599 524.473 278.406 522.326V497.473C278.303 493.218 277.461 489.014 275.919 485.047C272.392 477.449 267.309 470.676 260.999 465.164C250.005 455.68 238.373 446.961 226.185 439.069L224.942 444.039V466.407L225.771 470.135Z" fill="#EE2025"/>
<path d="M642.292 812.691L643.535 811.863L646.022 810.62H648.509L649.752 809.378C652.758 808.971 655.689 808.134 658.455 806.892C660.942 805.65 664.672 805.65 667.159 804.407C669.646 803.165 670.889 803.164 672.132 803.164H677.106C678.617 802.299 680.338 801.869 682.079 801.921H689.539C690.782 801.921 692.026 801.921 692.026 803.164H681.664C680.421 803.164 679.178 804.407 676.691 804.407H672.961C671.45 805.272 669.728 805.703 667.988 805.65C664.258 806.892 660.528 806.892 657.626 808.135C654.86 809.377 651.928 810.213 648.923 810.62L647.68 811.863H646.436C645.494 811.994 644.62 812.431 643.95 813.105L642.292 812.691Z" fill="white"/>
<path d="M677.105 802.75H675.862V803.993H673.375C672.132 805.235 670.889 805.235 670.889 806.478L669.645 807.72L668.402 810.206V816.419L669.645 817.662V818.904L670.889 820.147V821.39L669.645 820.147H668.402V818.904L667.159 817.662V810.206L668.402 807.72L669.645 805.235C670.889 803.993 672.132 803.993 673.375 802.75H677.105Z" fill="white"/>
</g>
<defs>
<clipPath id="clip0_401_27">
<rect width="872" height="845" fill="white"/>
</clipPath>
</defs>
</svg>
