<svg width="1141" height="504" viewBox="0 0 1141 504" fill="none" xmlns="http://www.w3.org/2000/svg">
<g clip-path="url(#clip0_414_12)">
<path d="M341.11 185.147L326.776 132.957L868.562 0L881.678 51.0652L876.15 52.4707L864.533 6.74623L333.709 136.986L346.45 183.647L341.11 185.147Z" fill="#E5202F"/>
<path d="M354.976 227.123L360.597 164.158L319 175.402L354.976 227.123Z" fill="#E5202F"/>
<path d="M890.109 94.4473L895.73 31.4824L854.134 42.7261L890.109 94.4473Z" fill="#E5202F"/>
<path d="M1075.61 8.99486C1053.07 18.8679 1031.17 30.1332 1010.03 42.7258C989.791 56.2183 970.679 68.5865 950.443 80.9546C930.855 92.7303 910.142 102.523 888.61 110.188C886.362 110.188 888.611 109.064 887.486 110.188H885.612C884.488 111.313 887.861 111.313 887.861 110.188H864.252C831.422 111.584 798.735 115.342 766.444 121.432C703.151 134.114 640.6 150.254 579.072 169.78C536.352 184.397 492.507 199.014 449.786 214.755C444.165 217.004 438.544 219.252 431.798 221.501C428.563 222.755 425.431 224.258 422.43 225.999C418.37 226.882 414.216 227.26 410.063 227.123C394.829 229.3 379.792 232.683 365.094 237.242C358.536 239.699 352.256 242.839 346.357 246.612L354.226 244.363C338.86 236.283 322.05 231.316 304.76 229.747C290.145 229.747 275.53 230.871 260.915 231.995C254.17 231.995 248.549 229.747 242.178 229.747C237.279 229.561 232.376 229.938 227.563 230.871C224.89 230.679 222.206 231.062 219.694 231.995C218.569 231.995 217.445 233.12 216.321 233.12C212.948 235.368 217.445 233.12 215.197 233.12C199.457 237.617 183.718 230.871 168.354 233.12L161.608 234.244H151.49C146.337 232.945 141.061 232.192 135.751 231.995C128.942 232.998 122.497 235.706 117.014 239.866C115.581 240.68 114.357 241.815 113.436 243.181C112.515 244.547 111.922 246.108 111.705 247.741C111.487 249.374 111.65 251.035 112.181 252.595C112.712 254.155 113.596 255.571 114.765 256.732C121.511 266.851 133.502 267.975 143.995 271.348C150.741 272.473 157.486 275.846 164.231 276.97H179.971C182.219 275.846 179.97 276.97 181.095 276.97C186.716 276.97 193.461 278.095 199.832 278.095L202.081 279.219H201.706C198.333 279.219 205.078 278.095 201.706 279.219C198.333 280.344 203.954 279.219 203.954 278.095H199.457C197.209 279.219 193.836 279.219 191.588 280.344C182.82 282.45 174.185 285.078 165.73 288.214C162.358 289.338 161.234 290.463 157.861 291.587C130.879 301.706 102.773 310.327 75.7919 320.821C62.8416 324.267 50.0826 328.395 37.5682 333.189C28.9759 335.302 20.671 338.448 12.835 342.559C8.33809 344.807 1.59288 349.305 1.59288 354.927C1.59288 360.549 6.0898 362.798 10.9615 362.798C16.9736 363.591 23.0824 363.209 28.949 361.673C31.1975 360.549 27.8248 361.673 28.949 361.673C30.0732 361.673 31.1976 360.549 32.3218 360.549C78.4153 351.179 126.008 342.559 172.851 333.564C175.099 333.564 176.223 333.564 173.975 336.937C175.991 336.069 177.882 334.935 179.596 333.564L75.0426 374.041C59.3033 380.788 42.4398 386.409 26.7006 392.781C18.3368 395.076 10.633 399.314 4.21608 405.149C-2.52931 411.895 -1.40526 418.642 8.71281 419.766C21.0233 419.813 33.2308 417.523 44.6881 413.019C67.1728 407.398 89.6575 401.776 112.142 395.03C132.378 389.408 153.739 383.786 173.975 378.164C178.223 377.568 182.378 376.434 186.341 374.791H188.59C191.962 372.542 188.59 373.666 188.59 373.666C188.59 373.666 193.087 370.293 190.838 371.418C188.59 372.542 187.465 373.666 186.341 373.666C148.117 396.154 111.392 418.641 72.7939 441.129C68.297 443.377 63.4253 446.751 58.1789 449C50.3093 453.497 40.1912 458.369 37.9428 466.989C35.6943 481.606 62.676 473.735 69.4213 470.362C108.769 452.372 148.117 435.507 188.59 418.642C199.832 413.02 212.199 407.397 223.441 402.9C221.192 404.024 223.441 404.024 224.565 402.9L223.441 404.024C223.388 404.733 223.154 405.415 222.76 406.006C222.366 406.597 221.826 407.077 221.192 407.398C215.571 411.895 211.074 416.768 206.577 419.766C194.211 429.885 181.844 438.505 169.103 447.875C153.364 460.243 137.624 471.487 120.761 482.73C117.388 486.104 98.2764 501.47 111.392 504.094C118.815 505.019 126.334 503.435 132.753 499.596L240.679 442.253C244.536 440.606 248.29 438.729 251.921 436.631C249.673 436.631 248.549 437.756 246.3 438.88C271.406 434.455 295.441 425.297 317.127 411.895C336.711 400.721 355.493 388.198 373.338 374.416C377.313 371.576 381.071 368.445 384.58 365.046C381.533 366.37 378.404 367.497 375.212 368.419C388.651 372.379 403.085 371.176 415.684 365.046C416.808 363.922 412.312 365.046 414.56 365.046C416.454 364.782 418.331 364.407 420.181 363.922L433.672 360.549C443.041 358.3 450.535 357.175 459.529 354.927C483.635 350.076 508.055 346.945 532.604 345.557C538.622 345.371 544.644 345.747 550.592 346.681H582.07C600.058 346.681 619.545 346.681 638.282 345.557C666.964 343.543 695.497 339.789 723.723 334.314C741.072 331.313 758.038 326.411 774.314 319.696C778.965 318.708 783.49 317.199 787.804 315.199C788.929 314.075 793.425 312.95 790.053 314.075C810.289 308.453 830.525 301.707 850.762 296.085C864.252 292.712 877.743 289.339 891.233 286.715C905.943 283.456 920.003 277.755 932.83 269.85C943.703 264.266 954.217 258.007 964.309 251.11C965.433 249.986 966.557 249.985 966.557 248.861H967.681C967.681 249.985 963.184 249.985 967.681 248.861C969.531 248.376 971.408 248.001 973.302 247.736C983.42 244.363 993.538 239.866 1003.66 236.493C1041.13 223.001 1076.73 209.508 1111.58 193.767C1119.66 190.48 1127.55 186.726 1135.19 182.523C1136.32 182.523 1140.81 180.274 1139.69 178.025C1138.56 175.777 1134.07 178.025 1132.94 179.15C1092.47 197.14 1050.87 215.13 1008.15 229.747C995.787 234.244 984.545 239.116 972.178 243.239C966.847 244.317 961.842 246.627 957.563 249.986C945.748 258.955 932.918 266.502 919.339 272.473C903.748 278.668 887.543 283.191 870.997 285.965C854.134 289.338 837.27 295.335 821.531 299.458C809.339 302.53 797.328 306.284 785.556 310.702L784.432 311.826C783.308 311.826 785.556 310.702 784.432 311.826C783.308 312.95 782.183 312.95 779.935 312.95C776.887 314.274 773.758 315.401 770.566 316.323C761.396 319.611 752.004 322.242 742.461 324.194C711.103 331.887 679.124 336.779 646.901 338.811C624.416 339.935 600.807 339.935 577.198 339.935C562.583 339.935 547.969 337.687 533.354 338.811C498.856 341.687 464.645 347.327 431.049 355.676C426.552 356.801 421.68 357.925 418.682 359.049C416.018 359.648 413.391 360.399 410.813 361.298C409.688 362.422 410.813 361.299 410.813 362.423C407.791 363.396 404.61 363.777 401.444 363.547H394.699C391.326 363.547 387.953 361.298 384.58 361.298C377.835 360.174 369.965 369.169 365.843 372.542C341.441 392.248 314.616 408.748 286.023 421.639C278.523 425.264 270.589 427.91 262.414 429.51C257.032 430.486 251.76 431.992 246.675 434.008C241.049 436.445 235.76 439.594 230.936 443.377C208.451 454.621 185.967 466.989 163.482 478.233C154.113 483.855 145.494 488.353 136.5 492.85C134.252 493.974 130.879 496.223 128.631 497.347H127.506C132.003 495.099 133.128 496.223 128.631 496.223C126.382 497.347 118.513 499.596 119.262 493.974C120.012 488.352 124.883 486.104 128.631 483.855C135.638 479.356 142.393 474.476 148.867 469.238C173.6 451.248 198.333 433.258 221.942 414.144C226.337 410.708 230.471 406.949 234.309 402.9C236.557 398.402 234.308 396.154 228.687 396.154C223.639 397.533 218.743 399.416 214.072 401.776C171.352 420.515 128.631 439.255 85.9102 457.994C78.9542 460.641 72.1922 463.772 65.674 467.364C64.5497 467.364 64.5496 467.364 63.4253 468.488C64.5496 467.364 63.4253 467.364 64.5495 467.364C63.4253 467.364 62.3012 468.488 61.177 468.488C60.0527 468.488 56.6801 469.613 53.3074 469.613C49.9347 469.613 48.8103 466.24 49.9345 461.742C52.9782 457.405 57.3024 454.129 62.3011 452.373C66.7981 450.124 71.6697 446.75 75.7919 444.502C114.016 422.014 153.364 398.402 191.588 375.915C193.836 374.79 202.83 370.293 198.333 366.545C196.085 365.421 191.588 367.67 188.965 368.794C184.468 369.919 191.213 367.67 188.965 368.794C187.207 369.611 185.28 369.996 183.343 369.919C161.983 375.541 141.747 381.162 121.511 386.784C97.9018 393.53 74.6678 400.277 50.6842 405.524C44.5492 407.749 38.2935 409.625 31.947 411.145C26.3259 412.27 17.332 414.518 13.2098 411.145C10.9614 410.021 10.9614 406.648 13.2098 403.275C15.9048 400.38 19.4464 398.412 23.3278 397.653C28.7404 396.282 34.0107 394.399 39.0672 392.031C61.5518 382.661 82.9121 374.041 105.397 366.171C127.881 358.3 148.117 349.305 168.354 341.434C172.57 339.774 176.697 337.898 180.72 335.813C184.093 334.688 190.089 326.443 182.969 325.693C180.662 325.514 178.347 325.9 176.223 326.817C133.502 334.688 90.7817 342.559 48.061 351.554C42.4398 352.678 37.943 352.678 32.3218 353.802L31.1974 354.927C30.0731 354.927 32.3216 353.802 31.1974 354.927C30.0731 356.051 26.7004 356.051 24.452 356.051C19.955 356.051 12.0856 353.803 13.2098 349.305C14.3341 342.559 23.3278 342.559 28.949 339.935C38.3176 336.562 45.8125 334.313 54.8064 330.565C80.6637 322.695 106.521 313.7 132.378 304.705C141.934 301.444 151.316 297.691 160.484 293.461C161.608 293.461 163.857 292.337 164.981 292.337C166.105 292.337 163.857 292.337 164.981 292.337C166.105 292.337 166.105 291.212 167.229 291.212C175.542 287.919 184.225 285.654 193.087 284.466C199.832 282.218 206.577 282.217 211.074 276.596C215.571 270.974 211.074 270.974 206.577 269.85C202.08 268.725 195.335 268.725 189.714 268.725C185.611 268.163 181.45 268.163 177.347 268.725C171.248 268.25 165.217 267.118 159.36 265.352C153.547 263.196 147.515 261.688 141.372 260.854C139.124 259.73 135.751 259.73 133.502 257.481C129.006 255.233 118.887 246.238 122.26 240.616C123.384 237.243 126.757 237.242 129.005 237.242C130.372 238.025 131.928 238.414 133.502 238.367C137.999 238.367 141.372 239.491 144.745 239.491C156.71 238.367 168.755 238.367 180.72 239.491C188.55 240.615 196.499 240.615 204.329 239.491C211.074 238.367 217.82 236.118 224.565 234.994C231.31 233.869 240.304 236.118 248.174 236.118C253.781 236.682 259.43 236.682 265.037 236.118C277.754 234.993 290.545 234.993 303.261 236.118C317.08 238.221 330.408 242.791 342.609 249.611C344.858 250.735 349.355 248.486 350.479 247.362C363.734 240.387 378.269 236.179 393.2 234.994C403.04 233.663 412.798 231.787 422.43 229.372C466.275 212.506 511.244 195.641 556.213 181.024C619.593 159.985 684.162 142.715 749.581 129.303C783.506 121.998 817.973 117.485 852.635 115.81H881.865C898.984 110.723 915.555 103.943 931.331 95.5715C948.195 86.2017 963.934 77.5815 979.673 67.4621C1002.16 53.9697 1022.39 39.3528 1045.25 26.9847C1055.37 21.3628 1066.61 16.8654 1076.73 11.2435C1078.98 11.2435 1082.35 8.99495 1082.35 6.7462C1082.35 4.49746 1076.73 7.87049 1075.61 8.99486Z" fill="#231E20"/>
</g>
<defs>
<clipPath id="clip0_414_12">
<rect width="1141" height="504" fill="white"/>
</clipPath>
</defs>
</svg>
