<svg width="591" height="444" viewBox="0 0 591 444" fill="none" xmlns="http://www.w3.org/2000/svg">
<g clip-path="url(#clip0_607_2)">
<path d="M71.2231 400.769C71.2231 405.32 70.4654 415.938 69.7077 417.455V420.489C68.95 423.522 68.95 425.039 69.7077 425.798C69.7077 425.798 69.7077 427.315 68.95 428.073C68.95 428.831 68.1923 429.59 68.1923 430.348C68.1923 429.59 68.1923 428.831 67.4346 428.073C66.6769 427.315 66.6769 425.798 67.4346 425.798C67.4346 425.039 68.1923 423.522 67.4346 420.489C66.6769 417.455 66.6769 418.213 66.6769 417.455C65.9192 415.938 65.1615 405.32 65.1615 400.769C65.1615 396.977 64.4038 389.393 64.4038 387.876C64.4038 386.359 65.9192 381.808 65.9192 378.775C66.6769 376.499 66.6769 372.707 66.6769 368.915C66.6769 365.123 67.4346 359.055 67.4346 356.78C66.6769 354.505 65.1615 348.437 65.1615 345.404C65.1615 343.128 66.6769 338.578 66.6769 337.061C67.4346 335.544 68.1923 334.027 68.1923 330.993C68.95 334.027 68.95 335.544 69.7077 337.061C70.4654 338.578 71.2231 343.128 71.2231 345.404C71.2231 348.437 69.7077 354.505 69.7077 356.78C68.95 359.055 69.7077 365.123 69.7077 368.915C69.7077 372.707 70.4654 376.499 70.4654 378.775C70.4654 381.808 71.9808 386.359 71.9808 387.876C71.9808 389.393 71.2231 396.977 71.2231 400.769V400.769ZM65.9192 288.521C65.9192 283.212 66.6769 277.903 67.4346 275.628C67.4346 274.111 68.1923 271.836 68.1923 269.56C68.95 271.836 68.95 274.111 68.95 275.628C69.7077 277.903 70.4654 283.212 70.4654 288.521C70.4654 293.83 70.4654 299.139 69.7077 302.173C68.95 305.965 68.95 305.207 68.1923 306.723C68.1923 305.207 68.1923 305.965 66.6769 302.173C65.9192 299.139 65.9192 293.83 65.9192 288.521ZM133.354 185.374C134.112 183.857 134.112 180.823 134.112 176.273C134.112 171.722 132.596 166.413 131.838 164.896C131.838 163.379 131.081 161.863 131.081 156.554C131.081 151.244 131.838 139.11 131.081 137.593C131.081 136.076 131.838 134.559 131.081 133.042C130.323 131.525 128.808 126.216 128.808 123.941C128.303 122.93 128.05 121.666 128.05 120.149C128.808 117.115 129.565 114.84 129.565 112.564C129.565 110.289 128.808 104.98 127.292 101.946C126.535 98.9125 124.262 95.1204 124.262 93.6035L122.746 90.5698V88.2945C122.746 88.2945 118.958 84.5023 117.442 83.7438C115.927 82.9854 115.927 82.227 115.169 82.227C114.412 82.227 111.381 81.4686 111.381 81.4686L109.865 80.7101H106.835C105.319 79.9517 104.562 79.1932 104.562 79.1932H100.773C99.2577 78.4348 99.2577 79.1932 97.7423 79.1932C96.9846 78.4348 94.7115 76.1595 92.4385 73.8842C90.1654 72.3673 87.1346 70.8505 85.6192 69.3336C84.1038 67.8167 81.8308 66.2999 81.8308 66.2999V59.474C81.8308 59.474 81.8308 48.0974 82.5885 48.0974H84.1038C84.1038 47.339 84.8615 46.5806 85.6192 45.0637C86.3769 43.5468 87.8923 39.7547 87.8923 38.9962V35.9625C87.8923 35.2041 88.65 35.2041 88.65 34.4456V31.4119C88.65 30.6535 87.8923 30.6535 87.8923 30.6535L85.6192 29.895V26.8613C85.6192 26.8613 85.6192 25.3444 86.3769 25.3444V19.2769L87.1346 17.7601C86.3769 17.0016 85.6192 17.0016 85.6192 16.2432L83.3462 13.9679V12.451C82.5885 11.6926 81.8308 11.6926 81.0731 10.9342C79.5577 10.1757 78.8 8.65887 77.2846 7.90044C75.7692 6.38357 74.2538 5.62513 71.9808 5.62513C70.4654 5.62513 68.95 6.38357 68.1923 6.38357C67.4346 6.38357 66.6769 6.38357 65.9192 5.62513C64.4038 5.62513 62.1308 4.8667 61.3731 4.8667C60.6154 4.8667 59.1 6.38357 57.5846 7.142C56.0692 7.90044 52.2808 9.4173 52.2808 9.4173V10.9342C52.2808 10.9342 44.7038 17.0016 44.7038 18.5185C44.7038 19.2769 45.4615 21.5523 45.4615 23.0691C45.4615 24.586 46.2192 29.1366 46.2192 29.1366L43.9462 29.895H42.4308C42.4308 30.6535 43.1885 32.1703 43.1885 33.6872C43.1885 34.4456 43.9462 35.2041 43.9462 36.7209C43.9462 38.2378 44.7038 38.9962 44.7038 38.9962V42.03C44.7038 43.5468 45.4615 45.0637 46.9769 46.5806L49.25 48.8559C49.25 48.8559 50.0077 54.1649 50.0077 55.6818C50.0077 56.4402 50.7654 57.1987 50.7654 58.7155C50.7654 60.9908 51.5231 63.2661 51.5231 64.0246V66.2999C48.4923 67.8167 46.9769 68.5752 44.7038 70.092C42.4308 71.6089 39.4 73.8842 37.8846 74.6426C36.3692 75.4011 34.0962 77.6764 32.5808 77.6764C31.0654 78.4348 30.3077 78.4348 28.0346 78.4348C26.5192 77.6764 24.2462 77.6764 21.2154 79.1932C18.9423 79.9517 15.9115 82.227 14.3962 82.9854C12.8808 83.7439 12.1231 86.0192 11.3654 87.536C10.6077 89.0529 9.09231 92.8451 8.33462 95.1204C8.33462 96.6372 6.06154 101.188 6.06154 102.705L3.78846 107.255V116.357C4.54615 121.666 5.30385 124.699 6.06154 126.216C6.06154 126.216 6.81923 135.317 6.06154 136.834V158.829C6.06154 158.829 3.78846 164.138 3.03077 167.172C1.51538 170.205 0 175.514 0 177.031C0 178.548 1.51538 189.925 2.27308 196.751C3.03077 203.576 3.78846 205.093 3.03077 207.369C3.03077 208.885 2.27308 221.779 2.27308 224.813C3.03077 227.846 4.54615 231.639 4.54615 231.639C4.54615 231.639 3.78846 233.155 3.78846 236.189C3.03077 239.981 3.03077 245.29 3.03077 245.29C3.03077 245.29 2.27308 247.566 2.27308 249.082C1.51538 250.599 2.27308 252.116 3.03077 253.633C3.78846 255.15 6.06154 258.184 6.81923 259.701C7.57692 261.217 9.09231 262.734 10.6077 263.493C12.1231 264.251 13.6385 264.251 14.3962 265.01L15.1538 265.768C15.1538 265.768 15.9115 265.01 17.4269 265.768C18.1846 265.768 21.9731 267.285 21.9731 267.285C21.9731 267.285 23.4885 268.043 24.2462 267.285L23.4885 265.768V265.01C23.4885 265.01 24.2462 265.768 25.0038 265.01C25.7615 264.251 24.2462 262.734 24.2462 262.734V260.459C24.2462 260.459 25.0038 259.701 25.0038 258.942C25.0038 258.184 25.7615 257.425 25.7615 257.425L25.0038 256.667C25.0038 255.908 25.7615 254.392 25.0038 253.633C25.0038 252.875 24.2462 251.358 25.7615 249.841C27.2769 247.566 27.2769 246.807 26.5192 244.532C26.5192 241.498 25.0038 237.706 22.7308 234.672C21.2154 232.397 17.4269 229.363 17.4269 225.571C17.4269 222.537 18.9423 217.987 20.4577 212.678C21.9731 207.369 23.4885 199.026 25.0038 195.992C25.7615 192.958 26.5192 192.2 26.5192 191.441V182.34C25.7615 179.307 25.0038 177.79 25.0038 177.031C24.2462 176.273 24.2462 173.998 25.0038 173.998V170.205C25.0038 168.688 24.2462 167.172 24.2462 165.655C24.2462 164.138 25.7615 158.829 26.5192 154.278C26.5192 150.486 27.2769 142.143 27.2769 140.626C28.7923 142.902 34.0962 155.795 34.8538 156.554C35.6115 157.312 35.6115 158.07 35.6115 158.07V166.413C35.6115 166.413 35.6115 170.964 34.8538 171.722C34.0962 173.239 32.5808 177.79 34.0962 180.823C34.0962 180.823 30.3077 188.408 30.3077 189.925C30.3077 191.441 29.55 201.301 29.55 201.301C29.55 201.301 25.7615 211.161 25.7615 212.678C25.7615 213.436 26.5192 227.088 27.2769 230.88C28.0346 234.672 28.7923 253.633 29.55 258.184C30.3077 262.734 34.0962 292.313 37.1269 296.864C39.4 300.656 40.9154 308.999 40.9154 310.516C40.9154 312.791 42.4308 318.1 42.4308 320.375C42.4308 322.651 42.4308 325.684 40.1577 333.269C38.6423 340.853 35.6115 349.954 38.6423 362.848C40.9154 375.741 46.9769 396.977 46.9769 396.977C46.9769 396.977 47.7346 404.561 48.4923 406.837C50.0077 408.354 51.5231 415.938 51.5231 415.938V418.972C50.7654 419.73 48.4923 424.281 48.4923 425.039C48.4923 426.556 46.9769 428.073 45.4615 428.831C43.9462 428.831 42.4308 429.59 41.6731 430.348C41.6731 431.107 40.1577 433.382 40.1577 433.382L41.6731 434.899C41.6731 434.899 40.1577 436.416 53.0385 436.416C65.9192 436.416 57.5846 436.416 57.5846 436.416C57.5846 436.416 65.9192 436.416 66.6769 435.657C67.4346 434.899 68.1923 435.657 68.1923 434.14C68.1923 435.657 68.95 434.899 69.7077 435.657C70.4654 436.416 78.8 436.416 78.8 436.416C78.8 436.416 70.4654 436.416 83.3462 436.416C96.2269 436.416 95.4692 434.899 95.4692 434.899L96.2269 433.382C96.2269 433.382 94.7115 431.107 94.7115 430.348C93.9538 429.59 92.4385 428.831 90.9231 428.831C89.4077 428.073 88.65 426.556 88.65 425.039C87.8923 424.281 85.6192 419.73 84.8615 418.972V415.938C84.8615 415.938 87.1346 408.354 87.8923 406.837C88.65 404.561 89.4077 396.977 89.4077 396.977C89.4077 396.977 95.4692 375.741 98.5 362.848C100.773 349.954 98.5 340.853 96.2269 333.269C94.7115 325.684 93.9538 322.651 93.9538 320.375C94.7115 318.1 95.4692 312.791 95.4692 310.516C95.4692 308.999 96.9846 300.656 99.2577 296.864C102.288 292.313 106.077 262.734 106.835 258.184C107.592 253.633 108.35 234.672 109.865 230.88C110.623 227.088 110.623 213.436 110.623 212.678C110.623 211.161 106.835 201.301 106.835 201.301C106.835 201.301 106.835 191.441 106.077 189.925C106.077 188.408 101.531 181.582 100.773 180.065C102.288 177.031 100.773 173.239 100.773 171.722C100.015 170.964 99.2577 166.413 99.2577 166.413V158.07L100.773 156.554C100.773 155.037 107.592 139.868 107.592 139.868C108.35 143.66 109.108 148.211 109.108 150.486C109.865 155.795 112.138 159.587 112.138 161.104C112.896 162.621 112.138 165.655 111.381 167.93C110.623 170.205 112.896 173.239 112.138 180.065C111.381 186.891 110.623 192.2 111.381 195.992C112.138 200.543 112.896 202.06 113.654 206.61C115.169 211.161 116.685 217.228 116.685 217.228V221.02C116.685 222.537 117.442 226.329 117.442 227.088C117.442 228.605 116.685 229.363 115.927 230.122C115.169 231.638 115.169 234.672 115.169 234.672C115.169 234.672 112.896 237.706 112.138 239.223C110.623 241.498 109.108 243.773 109.108 245.29C109.108 246.807 109.865 248.324 109.865 249.082C109.865 250.599 109.108 252.875 109.108 254.392C109.108 255.15 109.865 258.184 109.865 259.701C109.108 261.217 108.35 261.976 107.592 262.734L106.835 264.251C108.35 265.01 107.592 265.01 109.865 265.768C111.381 265.768 112.896 266.526 113.654 266.526C114.412 267.285 114.412 268.043 115.169 268.043C115.927 268.043 115.927 268.802 117.442 268.802C118.2 268.802 118.2 268.043 118.2 268.043C118.958 268.043 119.715 268.802 120.473 268.802C121.231 268.043 122.746 265.768 125.019 264.251C128.05 262.734 129.565 260.459 129.565 260.459L131.081 258.942C131.081 258.184 131.081 255.15 130.323 253.633C129.565 251.358 128.808 247.566 128.808 246.049C128.05 245.29 127.292 243.773 128.05 242.257C128.808 240.74 128.808 239.981 129.565 237.706C129.565 234.672 131.081 227.088 131.081 222.537C131.838 217.987 133.354 213.436 133.354 211.919C134.112 209.644 134.112 208.885 134.112 207.369V188.408C134.112 187.649 133.354 187.649 133.354 185.374V185.374Z" fill="#231F20"/>
<path d="M235.642 4.86652V0.315918H115.927V4.86652H197.758H235.642Z" fill="#231F20"/>
<path d="M235.642 440.208V434.899H115.927V440.208H197.758H235.642Z" fill="#231F20"/>
<path d="M198.515 434.141C203.061 422.006 210.638 406.837 218.973 397.736L200.788 404.562V35.9626L218.973 42.7885C210.638 33.6873 203.819 19.277 199.273 7.14209H197.758C193.211 19.277 185.635 33.6873 178.058 42.7885L196.242 35.9626V404.562L178.058 397.736C185.635 406.837 193.211 422.006 197.758 434.141H198.515V434.141Z" fill="#E5202F"/>
<path d="M591 8.659V4.1084H471.285V8.659H553.115H591Z" fill="#231F20"/>
<path d="M591 444V438.691H471.285V444H553.115H591Z" fill="#231F20"/>
<path d="M553.873 437.933C558.419 425.798 565.996 410.629 573.573 401.528L556.146 408.354V39.7546L573.573 46.5805C565.996 37.4793 558.419 23.069 553.873 10.9341H553.115C548.569 23.069 540.992 37.4793 533.416 46.5805L550.842 39.7546V408.354L533.416 401.528C540.992 410.629 548.569 425.798 553.115 437.933H553.873Z" fill="#E5202F"/>
<path d="M484.923 240.739C484.165 238.464 484.165 233.155 484.165 230.88C483.408 227.846 481.892 221.02 481.892 219.503C482.65 211.919 483.408 193.717 483.408 193.717C483.408 191.441 480.377 171.722 480.377 166.413C481.135 160.345 481.135 153.52 481.135 150.486C481.135 147.452 479.619 136.834 479.619 133.042C479.619 131.525 477.346 119.39 475.831 111.806C474.315 104.98 469.769 94.3617 465.223 89.8111C464.465 89.0526 456.889 85.2604 451.585 83.7436C445.523 82.2267 438.704 82.9851 432.642 77.6761C432.642 77.6761 431.127 71.6086 431.885 66.2996C431.885 63.2659 437.946 61.749 437.946 51.1309C440.977 51.1309 441.735 48.8556 441.735 47.3387C441.735 45.8219 440.977 46.5803 441.735 44.305C441.735 42.7881 442.492 42.0297 442.492 40.5128C442.492 36.7207 440.977 36.7207 440.219 36.7207C440.219 36.7207 440.977 30.6532 440.977 29.1363C440.977 26.1026 437.189 25.3441 437.189 21.552C437.189 18.5182 433.4 17.7598 432.642 16.2429C432.642 14.7261 431.885 15.4845 428.854 13.9676C428.096 13.2092 427.339 12.4508 425.823 11.6923C427.339 10.9339 428.096 10.1755 427.339 7.90016C426.581 6.38329 427.339 6.38329 426.581 4.86642C425.823 1.83269 424.308 4.10799 423.55 1.83269C422.035 -0.442615 415.215 -0.442615 413.7 1.07425C412.185 1.83269 412.185 4.86642 411.427 6.38329C410.669 8.6586 411.427 10.9339 414.458 11.6923C412.942 12.4508 410.669 12.4508 409.912 13.2092C406.881 14.7261 406.123 15.4845 405.365 17.0014C405.365 18.5182 401.577 21.552 401.577 23.0688C401.577 26.1026 398.546 27.6195 399.304 29.1363V36.7207C399.304 36.7207 397.031 36.7207 397.789 40.5128C397.789 42.0297 397.789 42.7881 398.546 44.305V47.3387C398.546 48.8556 398.546 51.1309 401.577 51.1309C402.335 61.749 408.396 63.2659 408.396 66.2996C409.154 71.6086 407.639 77.6761 407.639 77.6761C400.819 82.9851 394 82.2267 388.696 83.7436C382.635 85.2604 375.815 89.0526 374.3 89.8111C369.754 94.3617 365.208 104.98 364.45 111.806C362.177 119.39 360.662 131.525 359.904 133.042C359.904 136.834 358.389 147.452 358.389 150.486C358.389 153.52 358.389 160.345 359.146 166.413C359.146 171.722 356.115 191.441 356.115 193.717C356.115 199.784 357.631 211.919 358.389 219.503C358.389 221.02 356.873 227.846 356.115 230.88C355.358 233.155 356.115 238.464 355.358 240.739C354.6 243.015 355.358 244.532 355.358 245.29C355.358 246.049 357.631 247.565 357.631 247.565C357.631 247.565 358.389 249.841 360.662 251.358C363.692 252.874 363.692 254.391 365.208 255.15H372.785C373.542 254.391 373.542 253.633 375.058 253.633C377.331 252.874 377.331 252.116 377.331 251.358C378.089 249.841 375.815 248.324 375.815 246.807C375.815 245.29 376.573 243.015 375.815 241.498C375.815 240.739 375.058 237.706 375.815 236.947V232.397C375.815 230.88 374.3 228.605 373.542 227.088C372.785 224.812 370.512 222.537 370.512 222.537C369.754 221.02 368.996 219.503 368.996 217.986C368.996 214.194 371.269 208.127 372.785 201.301C373.542 195.233 375.815 170.205 376.573 166.413C377.331 162.621 378.846 157.312 378.846 153.52C379.604 149.727 381.877 136.076 382.635 125.457C383.392 126.974 382.635 137.592 384.15 145.935C386.423 155.795 390.212 162.621 390.212 167.171C392.485 201.301 378.846 202.818 378.089 227.088C378.089 233.914 380.362 260.459 381.119 265.009C381.877 269.56 387.181 296.864 387.939 299.897C389.454 302.931 391.727 314.308 392.485 323.409C392.485 325.684 391.727 331.752 391.727 337.061C391.727 345.403 390.212 354.505 392.485 367.398C394.758 380.291 405.365 415.938 403.092 422.764C402.335 423.522 400.819 428.073 400.819 428.831C400.819 430.348 399.304 431.865 397.789 431.865C396.273 432.623 394.758 433.382 394.758 434.14C394 434.899 394 437.174 394 437.174C394 437.932 392.485 440.208 405.365 440.208C418.246 440.208 417.489 440.208 418.246 439.449C419.004 438.691 419.762 435.657 419.004 432.623C419.004 431.865 418.246 430.348 418.246 429.59C418.751 428.578 418.751 427.061 418.246 425.039C418.246 424.281 417.489 422.005 416.731 421.247V405.32C415.973 392.426 418.246 374.224 419.004 367.398C419.004 356.021 417.489 339.336 418.246 336.302C419.762 327.201 420.519 317.341 418.246 306.723V291.555C419.004 288.521 419.004 277.903 419.004 268.802C419.004 264.251 419.762 258.183 419.762 255.908C419.762 255.908 420.519 271.835 420.519 268.802C420.519 271.835 421.277 287.004 421.277 291.555C421.277 296.864 422.035 303.689 421.277 306.723C419.762 317.341 419.762 327.201 422.035 336.302C422.035 339.336 420.519 356.021 421.277 367.398C421.277 374.224 424.308 392.426 423.55 405.32C422.792 409.112 423.55 418.213 422.792 421.247C422.035 422.005 422.035 424.281 422.035 425.039C421.53 427.061 421.277 428.578 421.277 429.59C421.277 430.348 421.277 431.865 420.519 432.623C419.762 435.657 420.519 438.691 421.277 439.449C422.035 440.208 421.277 440.208 434.158 440.208C447.039 440.208 446.281 437.932 446.281 437.174C446.281 437.174 445.523 434.899 445.523 434.14C444.765 433.382 444.008 432.623 441.735 431.865C440.219 431.865 439.462 430.348 439.462 428.831C438.704 428.073 437.189 423.522 437.189 422.764C434.915 415.938 444.765 380.291 447.796 367.398C450.069 354.505 447.796 345.403 447.796 337.061C447.796 331.752 447.039 325.684 447.796 323.409C447.796 314.308 450.069 302.931 451.585 299.897C453.1 296.864 457.646 269.56 458.404 265.009C459.162 260.459 461.435 233.914 461.435 227.088C461.435 202.818 446.281 201.301 449.312 167.171C450.069 161.862 453.1 155.795 455.373 145.935C456.889 137.592 456.131 126.974 456.889 125.457C457.646 136.076 460.677 149.727 460.677 153.52C461.435 157.312 462.95 162.621 462.95 166.413C463.708 170.205 465.981 195.233 467.496 201.301C468.254 208.127 471.285 214.194 471.285 217.986C470.527 219.503 470.527 221.02 469.769 222.537C469.769 222.537 467.496 224.812 466.739 227.088C465.223 228.605 464.465 230.88 463.708 232.397C463.708 233.914 464.465 235.43 464.465 236.947C464.465 237.706 464.465 240.739 463.708 241.498C463.708 243.015 464.465 245.29 464.465 246.807C463.708 248.324 462.192 249.841 462.192 251.358C462.192 252.116 462.95 252.874 464.465 253.633C466.739 253.633 466.739 254.391 467.496 255.15H475.073C476.589 254.391 476.589 252.874 478.862 251.358C481.892 249.841 482.65 247.565 482.65 247.565L484.923 245.29V240.739V240.739Z" fill="#231F20"/>
</g>
<defs>
<clipPath id="clip0_607_2">
<rect width="591" height="444" fill="white"/>
</clipPath>
</defs>
</svg>
