<svg width="248" height="496" viewBox="0 0 248 496" fill="none" xmlns="http://www.w3.org/2000/svg">
<path d="M248 131.299C247.193 130.493 246.386 130.493 245.58 130.493C244.773 129.688 243.159 128.882 242.352 128.882C239.932 128.077 237.511 128.077 235.091 127.271C230.25 126.466 226.216 125.66 221.375 124.855C216.534 124.049 211.693 123.244 206.852 122.438H199.591C198.784 122.438 197.171 121.633 196.364 121.633H195.557L194.75 120.022L193.943 119.216V118.411C193.943 117.605 193.943 115.994 193.136 115.189C193.136 111.967 192.33 108.745 192.33 106.328C191.523 101.495 189.909 97.4673 189.102 93.4398V84.5791C188.296 82.9681 188.296 81.357 188.296 79.746H187.489C187.489 84.5791 186.682 88.6067 186.682 93.4398V99.8839C186.682 102.3 187.489 103.911 187.489 106.328C188.296 111.161 189.102 115.189 189.102 119.216C189.909 121.633 189.909 124.049 190.716 125.66C190.716 126.466 191.523 128.077 191.523 128.882C192.33 133.716 193.136 138.549 193.943 142.576C194.75 146.604 194.75 149.826 195.557 153.853C196.364 157.075 196.364 160.298 197.171 163.52C197.977 170.769 197.977 178.019 197.977 185.269V196.546C197.977 199.768 197.171 202.99 197.171 207.017C197.171 213.462 196.364 219.906 195.557 226.35C195.557 229.572 194.75 232.794 194.75 236.016C193.943 237.627 193.943 238.433 193.943 240.849C192.33 245.682 191.523 252.126 189.909 257.765C189.102 264.209 187.489 271.459 185.875 278.708C183.455 292.402 180.227 306.901 178.614 320.595C177.807 327.845 177.807 335.9 177.807 343.149C177.807 347.177 178.614 351.205 178.614 354.427C178.614 356.843 178.614 358.454 179.421 360.065V364.093C179.421 367.315 179.421 370.537 180.227 373.759C181.034 380.203 182.648 386.647 185.068 392.286C187.489 397.925 189.102 404.369 191.523 410.007C192.33 412.424 193.943 415.646 195.557 418.062V419.673C196.364 422.09 196.364 423.701 197.171 425.312C197.977 428.534 198.784 431.756 199.591 434.978C200.398 438.2 200.398 440.617 200.398 443.839C201.205 446.255 201.205 449.478 200.398 452.7C199.591 455.116 198.784 458.338 197.977 460.755C196.364 463.171 194.75 465.588 193.136 467.199C191.523 468.81 189.909 469.615 187.489 471.226C186.682 472.032 185.875 472.032 185.068 472.837C184.261 472.032 183.455 472.837 181.841 472.837H176.193C172.966 473.643 169.739 473.643 165.705 473.643C162.477 473.643 159.25 473.643 155.216 472.837C151.989 472.032 147.955 472.032 144.727 471.226H123.75C119.716 471.226 116.489 471.226 113.261 472.032C110.034 472.837 106.807 473.643 103.58 474.448C101.159 475.254 99.5455 476.06 97.1251 477.671H95.5114C92.2841 479.282 89.8637 480.087 86.6364 480.087C84.216 480.893 81.7955 480.893 78.5683 480.893C74.5342 481.698 71.3069 482.504 68.0796 482.504C64.0455 483.309 60.8182 482.504 57.591 482.504H47.1023C43.8751 483.309 39.841 483.309 36.6137 484.92L35.8069 485.726C33.3864 485.726 30.966 486.531 28.5455 487.337C26.9319 488.142 25.3182 488.142 23.7046 488.948H19.6705C19.1326 488.948 18.5948 488.679 18.0569 488.142H17.2501L16.4432 487.337H15.6364L14.8296 486.531L14.0228 485.726L13.216 484.115H12.4092L11.6023 482.504V481.698H10.7955V476.865H11.6023L12.4092 476.059V475.254H13.216C15.6364 473.643 18.8637 473.643 22.091 472.837C23.7046 472.837 25.3182 472.032 26.1251 471.226C27.7387 471.226 29.3523 469.615 30.966 468.81L31.7728 468.004V467.199C28.5455 468.81 25.3183 468.81 21.2842 468.81C18.8637 468.81 15.6364 468.81 12.4092 469.615C9.9887 469.615 7.56825 471.226 5.95461 473.643V472.837L6.76143 472.032C6.76143 471.495 7.03037 470.958 7.56825 470.421C8.10613 469.884 8.644 469.615 9.18188 469.615C10.7955 468.81 11.6023 468.81 12.4092 468.81C14.0228 468.004 15.6364 468.004 16.4432 468.004C18.0569 467.199 19.6705 466.393 20.4773 466.393C22.091 465.588 22.8978 464.782 23.7046 463.977L22.8978 463.171C22.091 463.171 20.4773 463.171 19.6705 463.977C18.0569 463.977 16.4432 464.782 14.8296 464.782H12.4092L13.216 463.977C16.4432 461.56 19.6705 459.949 22.8978 458.338C26.9319 456.727 30.1592 455.116 34.1932 454.311L35.0001 453.505C38.2273 453.505 41.4546 452.7 43.8751 451.894C47.1023 450.283 50.3296 449.478 52.7501 447.866C58.3978 445.45 64.0455 441.422 68.8864 437.395C74.5342 433.367 79.3751 429.34 85.0228 425.312C90.6705 421.284 96.3182 417.257 101.159 413.229C110.034 406.785 118.102 397.924 122.136 386.647C123.75 381.009 124.557 375.37 124.557 369.732V368.12C125.364 360.065 125.364 352.01 124.557 344.761C123.75 335.9 122.943 327.845 122.136 318.984C120.523 310.929 118.102 302.874 115.682 294.013C114.068 285.958 111.648 277.903 110.034 269.042C106 252.126 102.773 235.21 100.352 218.295C98.7387 204.601 97.1251 190.907 97.1251 177.213V166.742C96.3182 164.325 96.3182 161.103 96.3182 158.686C96.3182 150.631 96.3182 142.576 95.5114 134.521C95.5114 129.688 95.5114 124.855 94.7046 120.022V111.967C93.8978 111.161 93.8978 109.55 93.8978 108.745C93.091 104.717 92.2841 101.495 91.4773 98.2729C90.6705 95.0508 89.8637 91.0232 89.0569 87.8012C89.0569 84.5791 88.2501 81.357 87.4433 78.135V70.8853C86.6364 60.4136 88.2501 50.7475 92.2842 41.8868C93.091 39.4702 94.7046 37.0537 96.3182 34.6372V33.8316L97.1251 33.0261C97.9319 32.2206 98.7387 32.2206 98.7387 31.4151C99.5455 29.8041 100.352 28.9985 101.159 28.193C101.966 25.7765 103.58 23.3599 105.193 21.7489L106 20.1379L106.807 19.3324L109.227 16.9158L111.648 14.4993L112.455 13.6938L113.261 12.8882H114.068C114.875 12.0827 115.682 11.2772 116.489 11.2772L118.102 10.4717L118.909 9.66618H119.716C122.136 8.86067 124.557 8.05515 126.977 8.05515H127.784L129.398 7.24964H137.466C141.5 6.44412 144.727 6.44412 148.761 6.44412C163.284 6.44412 177.807 7.24964 192.33 7.24964C206.046 6.44412 220.568 5.63861 235.091 6.44412C235.898 7.24964 237.511 7.24964 239.125 7.24964H243.966C245.58 7.24964 245.58 5.63861 243.966 4.83309C242.352 4.83309 240.739 4.02758 239.125 4.02758C238.318 4.02758 237.511 3.22206 237.511 3.22206H233.477C230.25 2.41655 226.216 2.41655 222.989 1.61103C215.727 1.61103 208.466 0.805515 201.205 0.805515H179.421C172.966 0.805515 164.898 0 158.443 0C150.375 0 143.114 0 135.852 0.805515C130.205 0.805515 123.75 0.805515 117.296 3.22206C109.227 6.44412 102.773 12.8882 97.9319 20.1379V20.9434C94.7046 24.1655 92.2841 28.9985 89.8637 33.0261C86.6364 38.6647 85.0228 43.4978 83.4092 49.1364C81.7955 55.5806 80.9887 62.0247 80.9887 68.4688C80.9887 77.3295 82.6023 85.3846 84.216 94.2453C85.0228 98.2729 85.8296 103.106 86.6364 107.134C87.4432 110.356 88.2501 114.383 89.8637 117.605V128.882C90.6705 137.743 90.6705 145.798 90.6705 154.659C90.6705 171.575 90.6705 189.296 92.2842 206.212C94.7046 223.128 97.1251 240.849 100.352 257.765C102.773 265.82 104.386 274.681 106.807 282.736C108.421 291.596 110.841 299.652 113.261 307.707C115.682 318.179 116.489 327.845 117.296 338.316C118.102 347.177 118.102 355.232 119.716 363.287C118.909 366.509 118.909 368.926 118.909 372.148C118.102 377.787 116.489 384.231 114.068 389.064C108.421 400.341 98.7387 407.591 89.0569 414.84C84.216 418.062 79.3751 421.284 74.5342 425.312C69.6933 428.534 65.6592 432.562 60.8182 435.784C56.7842 438.2 51.9432 440.617 47.9092 443.033C45.4887 444.644 43.0682 445.45 40.6478 446.255C39.841 447.061 39.0342 447.061 37.4205 447.866C35.8069 448.672 34.1932 448.672 31.7728 449.478C27.7387 450.283 23.7046 451.894 19.6705 453.505C15.6364 455.116 12.4092 456.727 9.9887 459.144C8.37507 459.949 7.56825 461.56 5.95461 463.171C5.95461 463.977 5.14779 465.588 5.14779 466.393C3.53416 467.199 2.72734 468.81 1.92052 470.421C1.1137 471.226 1.1137 472.032 1.1137 473.643C0.306884 474.448 0.306885 476.06 0.306885 477.671C0.306885 479.282 1.1137 480.087 1.92052 480.893C2.72734 481.698 3.53416 483.309 4.34097 484.115H5.14779C6.76143 487.337 9.18188 490.559 12.4092 492.975C17.2501 496.197 24.5114 495.392 29.3523 493.781C32.5796 492.975 36.6137 491.364 38.2273 488.948H47.9092C55.1705 488.948 61.6251 489.753 68.8864 488.948C72.1137 488.948 75.341 488.142 79.3751 487.337C82.6023 487.337 85.8296 487.337 89.0569 486.531C91.4773 485.726 94.7046 485.726 97.1251 484.115C98.7387 484.115 100.352 483.309 101.159 482.504C102.773 481.698 104.386 480.893 105.193 479.282C106.807 478.476 109.227 478.476 111.648 477.671C118.102 476.06 124.557 476.059 131.011 476.059C138.273 476.059 145.534 476.06 151.989 477.671C159.25 479.282 166.511 479.282 173.773 478.476C176.193 478.476 178.614 477.671 181.034 477.671C181.841 476.865 182.648 476.865 184.261 476.865C184.261 476.865 185.068 476.865 185.875 476.059C188.296 476.059 190.716 475.254 193.136 474.448C198.784 471.226 202.011 466.393 204.432 460.755C206.852 455.116 207.659 448.672 206.852 442.228C206.046 435.784 205.239 429.34 202.818 422.896C202.011 421.284 201.205 420.479 200.398 418.868V417.257C199.591 414.84 198.784 411.618 197.171 409.202C196.364 405.98 195.557 403.563 194.75 400.341C193.136 397.925 192.33 394.702 191.523 391.48C189.102 385.842 187.489 379.398 185.875 372.954C185.875 370.537 185.068 367.315 185.068 364.093V355.232C184.261 352.01 184.261 347.983 184.261 344.761V323.012C185.068 315.762 185.875 309.318 187.489 302.068C189.102 295.624 189.909 288.374 191.523 281.93C193.136 274.681 194.75 267.431 196.364 260.181C197.171 256.154 197.977 252.126 197.977 248.904C198.784 247.293 198.784 245.682 198.784 243.266C199.591 240.849 200.398 237.627 200.398 235.21C201.205 231.183 202.011 227.961 202.818 224.739C203.625 217.489 203.625 210.239 203.625 202.99C204.432 188.491 204.432 173.991 202.818 160.298C202.011 153.048 201.205 146.604 199.591 139.354C198.784 135.327 197.977 131.299 197.171 127.271H199.591C201.205 127.271 203.625 127.271 206.046 128.077C210.886 128.077 215.727 128.882 220.568 128.882C224.602 129.688 229.443 130.493 233.477 130.493C235.898 130.493 238.318 130.493 240.739 131.299H243.966C244.773 132.104 245.58 132.105 246.386 132.105H247.193L248 131.299Z" fill="#322116"/>
</svg>
