<svg width="27" height="22" viewBox="0 0 27 22" fill="none" xmlns="http://www.w3.org/2000/svg">
<path fill-rule="evenodd" clip-rule="evenodd" d="M0 1.43478C0 0.642374 0.671573 0 1.5 0H25.5C26.3284 0 27 0.642374 27 1.43478C27 2.22719 26.3284 2.86957 25.5 2.86957H1.5C0.671573 2.86957 0 2.22719 0 1.43478ZM0 11C0 10.2076 0.671573 9.56522 1.5 9.56522H25.5C26.3284 9.56522 27 10.2076 27 11C27 11.7924 26.3284 12.4348 25.5 12.4348H1.5C0.671573 12.4348 0 11.7924 0 11ZM0 20.5652C0 19.7728 0.671573 19.1304 1.5 19.1304H25.5C26.3284 19.1304 27 19.7728 27 20.5652C27 21.3576 26.3284 22 25.5 22H1.5C0.671573 22 0 21.3576 0 20.5652Z" fill="white"/>
</svg>
