<svg width="200" height="300" viewBox="0 0 617 743" fill="none" xmlns="http://www.w3.org/2000/svg">
<g clip-path="url(#clip0_404_88)">
<path d="M527.943 365.637C533.368 365.143 538.835 365.872 543.941 367.769C555.673 370.967 561.006 377.363 561.717 384.825C561.717 395.485 551.052 406.145 531.854 414.673C518.561 420.996 506.518 429.663 496.302 440.257C491.906 444.425 487.277 448.34 482.437 451.983C476.038 457.313 468.572 462.643 456.84 472.236C450.127 478.077 442.998 483.421 435.509 488.227C420.476 498.096 406.533 509.531 393.913 522.338C390.713 524.47 388.58 527.669 385.025 529.801C357.295 557.517 334.897 578.836 308.233 587.364C301.762 590.308 294.958 592.456 287.969 593.761C266.638 600.157 260.239 602.644 242.107 623.608C236.774 630.004 230.375 637.467 221.843 645.995C193.748 673.908 169.046 705.036 148.251 738.736C143.755 740.107 139.086 740.825 134.386 740.868C120.52 740.868 91.7235 736.604 53.3277 706.756C8.88801 671.223 2.13316 652.391 2.13316 645.995C1.82867 645.325 1.67114 644.598 1.67114 643.862C1.67114 643.127 1.82867 642.4 2.13316 641.73C3.19971 641.73 62.9266 582.034 83.1911 557.517C103.456 532.999 106.655 521.983 100.967 489.293C100.663 483.491 99.5873 477.754 97.7673 472.236C95.6342 459.445 92.4345 442.389 90.3014 426.399C88.1683 416.805 88.1684 409.343 87.1018 404.013C86.0353 394.419 84.9687 389.089 83.9022 381.627C82.8356 376.297 82.8355 369.901 81.769 362.439C80.7024 352.845 79.6359 342.185 77.5028 326.906C75.1648 309.771 70.8705 292.961 64.7042 276.804C63.6376 275.738 63.6377 273.606 62.5711 271.474C58.3049 259.748 56.1718 246.956 52.9721 235.941C51.9056 230.611 50.839 225.281 49.7725 221.017C48.7059 216.753 46.5728 212.133 45.5063 207.159C40.1735 193.301 33.7742 175.179 35.9073 162.742C36.2693 158.815 38.1363 155.18 41.118 152.597C44.0997 150.015 47.965 148.684 51.9056 148.884C56.8527 149.309 61.5506 151.239 65.3651 154.416C69.1796 157.593 71.927 161.864 73.2366 166.651C77.7837 178.517 81.6998 190.615 84.9687 202.895C89.6659 218.062 95.3668 232.9 102.034 247.312C108.433 264.368 113.766 277.159 119.809 296.347V297.413C125.142 315.18 132.608 337.921 143.274 337.921L145.407 336.855C156.072 334.723 156.072 317.667 156.072 284.621V280.357C156.072 264.367 155.006 253.707 155.006 244.824C153.48 231.734 153.123 218.535 153.939 205.382C154.4 186.523 153.687 167.655 151.806 148.884C150.49 138.63 149.778 128.308 149.673 117.971C148.606 94.5187 147.54 64.6707 159.272 52.9447C162.19 50.2742 165.982 48.7578 169.937 48.6804C187.713 48.6804 190.202 79.5945 191.268 109.442C192.335 118.326 192.335 126.498 193.401 133.96C195.535 162.742 202.289 196.854 205.133 218.174C205.239 222.866 205.956 227.525 207.267 232.032C207.267 236.296 208.333 244.824 208.333 253.352C209.4 284.266 211.533 307.718 220.065 310.916H221.132C230.02 310.916 232.864 274.672 234.997 234.164C235.821 228.518 236.178 222.813 236.063 217.108C237.13 211.778 238.197 204.316 239.263 196.854C242.184 174.573 243.964 152.158 244.596 129.696C245.662 111.929 246.729 101.98 247.796 90.2542C247.796 81.3709 248.862 73.1984 249.929 60.4064C250.995 33.7565 260.594 20.9644 277.659 23.0964C288.324 24.1624 301.123 33.7564 297.923 101.98C295.79 137.513 295.79 161.676 295.79 179.798C296.657 191.623 296.776 203.491 296.146 215.331C294.013 231.321 292.946 245.179 290.813 271.829C289.747 296.347 289.747 305.941 294.013 310.205C294.433 310.61 294.938 310.916 295.492 311.101C296.045 311.285 296.633 311.343 297.212 311.271C306.1 311.271 323.876 267.565 331.342 248.378C338.808 229.19 343.074 216.398 347.34 203.961C350.249 194.14 353.812 184.524 358.006 175.179C362.272 163.453 366.894 151.727 370.804 141.067C374.676 128.944 379.307 117.076 384.67 105.534C390.002 92.7418 397.468 85.2795 406.001 85.2795C408.267 85.5022 410.454 86.2312 412.4 87.412C421.999 90.61 430.176 100.204 418.799 139.646V141.778C407.067 181.22 395.335 221.728 392.136 239.494C388.864 256.191 384.227 272.591 378.27 288.53C376.137 294.926 374.004 301.322 371.871 308.784C362.983 335.434 354.095 397.617 368.671 424.978C369.822 428.248 372.004 431.055 374.889 432.978C377.775 434.9 381.207 435.834 384.67 435.637C407.067 435.637 440.13 407.921 451.862 395.129C465.016 380.561 500.568 365.637 527.943 365.637ZM135.452 741.934C140.528 742.433 145.65 741.702 150.384 739.802C169.582 705.69 201.578 671.578 223.976 647.06C232.864 638.177 238.908 631.07 244.24 624.674C262.016 604.42 267.704 602.289 290.102 595.893C296.702 593.299 303.473 591.161 310.367 589.496C337.03 580.613 359.428 558.583 387.158 531.933C389.824 528.689 392.801 525.713 396.046 523.049C408.666 510.241 422.609 498.807 437.642 488.937C445.131 484.131 452.26 478.787 458.973 472.947C470.705 463.353 478.171 458.024 484.57 452.694C490.969 447.364 494.169 445.232 498.435 442.034C508.651 431.439 520.694 422.773 533.987 416.45C553.185 407.566 564.917 395.13 563.85 384.47C563.85 375.587 557.451 369.546 546.074 365.282C540.475 363.982 534.756 363.267 529.01 363.15C501.279 363.15 465.017 379.139 452.218 394.063C439.419 408.987 406.356 433.505 386.092 433.505C383.035 433.497 380.037 432.668 377.41 431.106C374.783 429.543 372.625 427.304 371.16 424.622C357.295 396.906 366.894 335.079 375.426 308.429C377.559 300.967 379.692 294.571 381.826 288.175C387.029 272.449 391.302 256.431 394.624 240.204C398.89 222.438 410.622 180.509 421.288 141.067L422.354 138.935C434.086 98.4272 424.488 88.8333 414.889 84.5693C412.486 83.7622 409.956 83.4009 407.423 83.5033C401.023 83.5033 391.424 86.701 383.959 103.757C379.692 113.351 375.071 126.143 370.093 139.29C366.474 150.893 362.201 162.282 357.295 173.402L347.696 202.184C343.103 217.246 337.764 232.07 331.698 246.601C314.633 290.307 301.834 309.495 298.634 309.495L296.501 308.429C292.235 304.165 293.302 288.175 294.368 271.119C295.152 252.206 296.932 233.346 299.701 214.621C299.701 207.159 299.701 196.854 300.768 180.509C300.768 162.742 300.768 137.869 301.834 102.691C305.034 48.3252 298.634 23.8073 280.503 21.6753H277.303C261.305 21.6753 252.773 34.4673 250.64 61.1172C249.573 73.9092 249.573 82.437 248.507 90.965C247.082 104.064 246.37 117.231 246.373 130.407C245.453 152.538 243.317 174.602 239.974 196.499C238.839 203.557 238.127 210.676 237.841 217.819C236.844 223.446 236.486 229.167 236.775 234.875C234.641 259.393 231.442 309.495 223.976 309.495H222.909C215.443 307.363 213.31 275.382 213.31 254.062C212.244 245.179 212.244 237.007 211.177 231.677C210.82 227.361 210.106 223.083 209.044 218.885C205.844 197.565 200.156 162.387 197.312 133.605C197.312 126.143 196.246 118.681 196.246 110.153C193.046 79.95 191.979 48.3252 171.715 48.3252C166.942 48.4878 162.392 50.3824 158.916 53.655C148.251 66.447 149.317 95.2289 149.317 119.747C150.384 131.473 151.45 141.067 151.45 150.661C153.843 169.393 154.557 188.3 153.583 207.159C152.748 220.311 153.105 233.512 154.65 246.601C156.113 258.388 156.826 270.256 156.783 282.134V286.398C156.783 318.378 156.783 335.434 147.184 337.566H145.051C135.452 337.566 127.986 315.18 122.654 299.19V297.058C117.722 280.37 111.786 263.994 104.878 248.022C99.5449 234.164 94.2121 219.24 88.8794 202.184C84.6132 190.458 81.4135 177.666 77.1473 165.94C75.4923 160.828 72.3996 156.3 68.2387 152.897C64.0778 149.495 59.0247 147.361 53.6832 146.752C49.2611 146.73 44.9896 148.356 41.7027 151.313C38.4157 154.27 36.3495 158.345 35.9073 162.742C33.7742 175.534 40.1735 193.656 45.5063 208.58C47.248 212.731 48.6741 217.007 49.7725 221.372C50.698 226.475 52.127 231.474 54.0387 236.296C56.3685 248.591 59.5763 260.703 63.6376 272.54C64.0549 274.42 64.7754 276.221 65.7708 277.87C71.0384 293.861 74.9627 310.263 77.5028 326.906C79.6359 341.83 80.7024 353.556 81.769 362.439C82.8355 371.322 83.9021 376.297 84.9687 381.627C86.0352 389.089 86.0353 394.419 87.1018 404.013C88.1684 410.409 89.2348 416.805 90.3014 427.465C92.4558 442.89 95.4226 458.19 99.1893 473.303C100.256 479.699 101.322 485.029 102.389 489.293C107.722 522.339 102.389 531.933 83.1911 556.451C63.9932 580.969 6.39939 637.466 3.19974 640.664C2.13319 641.73 2.13316 642.796 2.13316 644.928C2.13316 652.39 8.53252 671.578 54.3942 707.822C91.7235 737.67 121.587 741.934 135.452 741.934Z" fill="black"/>
<path d="M527.943 365.637V363.505C533.786 363.439 539.585 364.526 545.008 366.703C549.735 368.299 554.089 370.838 557.806 374.165C559.384 375.476 560.673 377.101 561.591 378.936C562.509 380.771 563.036 382.776 563.139 384.825C562.91 388.126 562.002 391.344 560.473 394.279C558.944 397.213 556.826 399.801 554.251 401.881C548.09 407.817 540.85 412.521 532.92 415.739C519.567 422.317 507.331 430.95 496.657 441.323C492.897 445.749 488.597 449.688 483.859 453.049C474.85 459.176 466.296 465.945 458.262 473.303C451.397 479.428 443.887 484.789 435.864 489.293C421.437 499.134 407.878 510.189 395.335 522.338L386.447 531.222C358.717 558.938 336.319 580.258 309.655 589.852C300.767 591.984 294.724 594.115 289.391 595.182C280.729 596.967 272.434 600.211 264.86 604.776C256.918 610.182 249.742 616.636 243.529 623.963C238.196 630.359 230.731 637.821 223.265 647.415C195.428 675.169 170.747 705.914 149.673 739.091L148.606 740.157C144.191 741.854 139.462 742.581 134.741 742.289C120.876 742.289 91.0123 738.025 52.6165 708.177C8.88785 672.644 1.422 653.812 1.422 645.994L1.06648 643.507L2.13302 642.441V641.375C3.19957 640.309 62.9265 580.613 83.191 556.095C97.0561 538.328 103.455 528.379 103.455 510.257C103.17 503.114 102.458 495.995 101.322 488.937C101.019 483.135 99.9427 477.399 98.1227 471.881C95.9896 460.155 91.7234 443.099 89.2347 426.043C88.1421 418.623 87.4302 411.151 87.1017 403.657C86.0351 394.063 84.9686 388.733 83.902 381.271C82.5449 374.964 81.8301 368.535 81.7689 362.084C80.7023 352.49 78.5692 341.83 77.5027 326.55C75.3773 309.988 71.1974 293.755 65.0596 278.225C63.993 276.093 63.993 273.961 62.9265 272.895C58.6603 260.103 56.5272 247.311 53.3275 236.651C52.261 231.321 51.1944 225.991 50.1278 221.727C48.6185 217.357 46.8374 213.084 44.7951 208.935C39.5862 195.619 36.3524 181.613 35.1961 167.362V163.097C36.0917 158.898 38.2936 155.09 41.4866 152.218C44.6796 149.345 48.6999 147.557 52.972 147.107C58.1603 147.803 63.0362 149.985 67.0108 153.39C70.9853 156.795 73.8885 161.277 75.3696 166.296C79.6358 178.022 84.2575 190.813 88.1682 202.539C92.0388 218.29 97.3956 233.638 104.166 248.377C110.566 264.367 115.899 278.225 121.942 297.413V298.479C125.142 307.362 128.342 316.245 131.541 325.129C133.395 328.281 135.537 331.255 137.941 334.012C138.727 334.959 139.702 335.733 140.804 336.283C141.906 336.834 143.11 337.15 144.34 337.21H146.473C148.606 337.21 149.673 336.144 151.806 334.012C154.332 329.081 155.44 323.545 155.005 318.022C156.009 308.82 156.365 299.558 156.072 290.306V281.423C156.154 269.544 155.441 257.673 153.939 245.89C153.939 238.428 152.872 230.966 152.872 220.306V206.448C153.758 201.166 154.115 195.81 153.939 190.458C153.939 175.534 152.872 162.742 151.806 149.95C150.741 139.8 150.267 129.597 150.384 119.391C150.384 112.995 149.317 105.533 149.317 99.1373C149.407 90.5689 150.12 82.0189 151.45 73.5538C152.164 66.3394 155.296 59.5774 160.338 54.3656C163.407 51.1324 167.615 49.2209 172.07 49.0358C174.312 48.901 176.553 49.3159 178.598 50.2449C180.643 51.1739 182.43 52.5885 183.802 54.3656C188.545 61.7798 191.58 70.1541 192.69 78.8836C193.967 89.4983 194.679 100.173 194.823 110.863C195.89 119.747 195.89 126.853 196.956 134.315C200.156 163.097 205.844 198.276 208.689 219.595C209.755 224.925 209.755 229.189 210.822 233.453C211.888 237.717 211.888 246.245 211.888 254.773C212.202 267.971 213.27 281.139 215.088 294.215C216.154 298.479 217.221 303.098 218.287 305.941C218.523 307.105 219.033 308.195 219.775 309.122C220.517 310.049 221.47 310.786 222.554 311.271H223.62C224.195 310.692 224.945 310.317 225.753 310.205C227.144 307.124 228.216 303.91 228.953 300.611C233.252 279.182 235.749 257.431 236.419 235.585C236.419 229.189 237.485 222.793 237.485 218.529C237.485 214.265 239.619 205.737 240.685 197.209C243.651 175.291 245.431 153.228 246.018 131.118C247.084 113.351 247.084 103.402 248.151 91.6756C249.217 82.7923 250.284 74.6198 251.351 61.8278C250.966 51.7101 253.562 41.7023 258.816 33.046C260.403 29.7194 262.935 26.9337 266.097 25.0378C269.258 23.1418 272.909 22.2195 276.592 22.3859H279.792C283.218 22.9371 286.425 24.4229 289.06 26.6801C291.695 28.9372 293.655 31.8782 294.724 35.1779C298.99 44.0612 301.123 58.6295 301.123 83.1474V103.402C298.99 138.935 298.99 163.098 298.99 181.219C299.325 192.601 298.969 203.992 297.923 215.331C295.79 231.321 294.724 246.245 292.591 271.829V303.809C293.141 305.848 294.249 307.694 295.79 309.139C295.79 310.205 296.857 310.205 297.923 310.205C298.743 310.129 299.504 309.748 300.056 309.139C306.651 300.489 312.367 291.205 317.121 281.423C322.454 269.697 327.787 255.839 330.986 248.377C338.452 230.611 342.718 215.331 346.985 203.961C349.894 193.793 353.457 183.822 357.65 174.112C361.916 163.452 366.538 151.727 370.449 140.001C374.359 128.275 380.048 115.483 384.314 104.468C386.36 98.8398 389.64 93.7407 393.913 89.5437C397.389 86.2711 401.939 84.376 406.712 84.2134C408.978 84.436 411.165 85.165 413.111 86.3458C416.891 87.4438 420.242 89.6764 422.71 92.7415C425.236 97.6729 426.344 103.208 425.909 108.731C425.722 119.248 423.924 129.674 420.577 139.646V141.778C408.845 181.219 398.179 222.793 393.913 240.915C390.655 257.268 386.017 273.315 380.048 288.885C377.915 295.281 375.782 301.677 373.648 309.139C366.795 333.429 363.208 358.523 362.983 383.759C362.377 397.997 364.927 412.194 370.449 425.333C371.607 428.302 373.674 430.829 376.356 432.553C379.038 434.276 382.197 435.107 385.381 434.927C399.004 432.935 411.871 427.423 422.71 418.936C433.115 411.76 442.763 403.545 451.507 394.419C472.766 375.562 499.898 364.639 528.298 363.505V366.703C501.635 366.703 466.083 381.627 453.64 395.485C444.831 405.265 434.793 413.864 423.776 421.069C412.656 429.765 399.389 435.29 385.381 437.059C381.823 437.055 378.339 436.053 375.322 434.169C372.306 432.284 369.878 429.593 368.316 426.399C362.192 413.066 359.62 398.378 360.85 383.759C361.007 358.167 364.594 332.712 371.515 308.073C373.648 300.611 375.782 294.215 377.915 287.819C384.028 272.298 388.67 256.238 391.78 239.849C394.98 222.083 406.712 181.219 418.444 142.133V138.935C421.851 129.346 423.652 119.262 423.776 109.087C424.243 103.904 423.127 98.7001 420.577 94.1626C418.362 91.3639 415.202 89.469 411.689 88.8329C410.051 87.9711 408.199 87.601 406.356 87.7669C404.375 87.6628 402.396 87.9903 400.554 88.7266C398.712 89.4628 397.053 90.5901 395.69 92.0307C391.075 95.4905 387.707 100.353 386.092 105.889C381.825 115.483 377.204 128.275 372.226 141.422C367.249 154.569 363.339 164.874 359.428 175.534C355.517 186.194 351.962 194.722 348.762 204.316C344.478 219.478 339.132 234.32 332.764 248.732C328.114 262.305 322.409 275.492 315.699 288.174C312.963 294.108 309.753 299.812 306.1 305.23C304.948 307.207 303.51 309.003 301.834 310.56C300.659 311.684 299.172 312.426 297.568 312.692C295.435 312.692 294.368 312.692 293.302 311.626C292.042 309.226 290.972 306.731 290.102 304.164C290.102 300.966 289.035 296.702 289.035 291.372C289.035 286.042 290.102 279.646 290.102 272.184C290.831 253.268 292.611 234.406 295.435 215.687C296.338 204.34 296.576 192.949 296.146 181.575C296.146 163.808 296.146 138.935 298.279 103.757V83.5031C299.073 67.6072 296.903 51.7019 291.879 36.599C287.613 27.7157 282.992 25.9389 278.014 25.9389H275.881C272.621 25.5668 269.325 26.2236 266.457 27.8165C263.588 29.4094 261.289 31.8587 259.883 34.8222C255.241 43.3426 252.683 52.84 252.417 62.5381C251.351 75.33 250.284 84.9244 250.284 92.3864C248.86 105.485 248.148 118.652 248.151 131.828C247.084 154.214 243.885 178.732 241.752 198.986C240.622 205.687 239.91 212.451 239.618 219.24C238.552 223.504 238.552 229.9 237.485 236.296C236.419 256.55 235.352 275.737 233.219 289.595C232.182 295.37 230.757 301.069 228.953 306.652C228.13 308.563 227.054 310.356 225.753 311.982C224.687 313.048 223.62 314.113 222.554 314.113H220.421C217.868 312.768 215.951 310.47 215.088 307.718C210.822 298.124 209.755 278.936 208.689 255.484C207.622 246.601 207.622 238.428 206.555 234.164C206.211 229.495 205.498 224.862 204.422 220.306C201.223 200.052 195.534 164.874 193.757 136.092C192.471 127.98 191.758 119.787 191.624 111.574C191.426 97.6178 189.998 83.7062 187.357 70.0003C186.554 65.192 184.325 60.7356 180.958 57.2083C179.951 55.5708 178.538 54.2202 176.857 53.2866C175.176 52.3531 173.282 51.8683 171.359 51.8785V50.8126L172.426 51.8785H171.715C167.803 52.1615 164.077 53.6513 161.049 56.1423C157.587 61.6071 155.063 67.6122 153.583 73.909C152.673 82.4048 152.317 90.9509 152.517 99.4929V119.391C153.583 131.117 153.583 140.711 154.65 150.305C155.716 163.097 156.783 175.889 156.783 190.813V206.803C155.937 211.372 155.58 216.017 155.716 220.661C155.806 229.23 156.519 237.78 157.85 246.245C157.85 255.129 158.916 265.433 158.916 281.779V290.662C159.237 302.517 158.881 314.381 157.85 326.195C157.113 329.494 156.041 332.708 154.65 335.789C153.766 336.975 152.647 337.966 151.362 338.699C150.077 339.433 148.655 339.894 147.184 340.053L145.051 341.119C141.851 341.119 139.718 338.987 136.163 336.855C128.974 325.68 123.577 313.451 120.165 300.611L119.098 298.479C114.224 282.211 108.529 266.201 102.033 250.509C95.5316 235.545 89.8352 220.243 84.9685 204.671C81.7689 192.945 77.5027 180.153 73.2365 168.428C71.9932 163.863 69.3878 159.785 65.7674 156.738C62.1471 153.691 57.6837 151.819 52.972 151.371C49.5692 151.373 46.2692 152.537 43.6183 154.669C40.9675 156.802 39.125 159.775 38.3958 163.097V167.362C39.5213 181.388 42.7574 195.163 47.9948 208.225C49.0613 212.489 51.1944 217.819 52.2609 222.083C53.3275 226.346 54.394 231.676 55.4606 237.006C58.6602 247.666 60.7934 259.392 65.0596 272.54C66.1261 274.672 67.1927 275.738 67.1927 277.87C73.4921 293.985 77.7905 310.811 79.9913 327.971C82.1244 342.895 83.191 353.556 84.2575 362.084C85.3241 370.612 85.3241 377.007 86.3906 382.337C87.4572 387.667 88.5237 395.129 89.5903 404.723C90.6568 410.053 91.7234 417.515 92.7899 427.109C94.923 443.099 98.1227 460.155 100.256 472.947C101.962 478.129 103.037 483.498 103.455 488.937C105.126 496.276 105.843 503.8 105.589 511.323C105.589 529.09 99.1893 540.105 84.2575 558.227C63.9931 582.745 4.26614 643.507 4.26614 643.507L2.84407 641.73L3.91061 642.796V645.994C3.91061 651.324 10.3099 671.578 55.1051 705.69C92.4344 734.472 121.231 738.736 135.096 739.802C139.363 739.802 142.562 738.736 144.695 738.736C145.504 738.623 146.253 738.248 146.828 737.67H147.895L148.962 738.736L147.895 737.67C167.093 704.624 199.09 669.446 221.487 644.928C230.375 636.044 236.419 628.938 241.752 622.542C253.224 607.2 269.916 596.584 288.68 592.694C295.589 591.085 302.364 588.946 308.944 586.298C334.542 577.415 356.939 556.45 384.669 529.8C387.335 526.557 390.312 523.581 393.557 520.917C406.409 508.365 420.326 496.951 435.153 486.805C442.642 481.999 449.771 476.655 456.484 470.815C468.216 461.221 475.682 455.891 482.081 450.561C487.036 447.463 491.679 443.893 495.946 439.901C505.909 428.442 518.295 419.339 532.209 413.251C539.998 409.77 547.195 405.095 553.54 399.394C557.86 395.566 560.535 390.22 561.006 384.47C560.078 380.869 558.242 377.566 555.673 374.876C552.169 372.071 548.197 369.906 543.941 368.479C538.817 366.657 533.366 365.931 527.943 366.347V365.637ZM135.452 741.934V741.223C138.691 741.532 141.959 741.169 145.051 740.157C145.63 740.229 146.218 740.171 146.772 739.986C147.325 739.802 147.831 739.496 148.251 739.091H149.317C168.515 704.979 200.512 670.867 222.909 646.349C231.797 637.466 237.841 630.359 243.174 623.963C249.391 616.331 256.56 609.525 264.505 603.71C272.733 599.936 281.305 596.962 290.102 594.826C296.702 592.232 303.473 590.095 310.366 588.43C335.964 579.547 358.361 558.582 386.092 530.866C389.337 528.202 392.314 525.227 394.98 521.983C407.472 509.345 421.437 498.25 436.575 488.937C442.974 483.607 449.374 479.343 457.906 471.881C469.638 462.998 477.104 456.957 483.503 451.627C488.458 448.529 493.101 444.959 497.368 440.967C507.649 430.132 519.973 421.437 533.631 415.383C541.477 411.552 548.675 406.517 554.962 400.46C557.234 398.446 559.068 395.988 560.352 393.237C561.636 390.487 562.343 387.503 562.428 384.47C562.532 382.49 562.205 380.511 561.468 378.67C560.731 376.83 559.603 375.171 558.162 373.81C553.932 370.656 549.26 368.141 544.297 366.347C539.074 364.97 533.699 364.254 528.298 364.215C500.568 364.215 465.372 380.205 452.573 394.063C443.352 403.827 432.964 412.42 421.643 419.647C411.24 427.998 398.651 433.179 385.381 434.571C382.057 434.768 378.752 433.957 375.898 432.246C373.043 430.534 370.772 428.001 369.382 424.978C363.86 411.838 361.311 397.642 361.916 383.403C362.447 358.115 366.393 333.015 373.648 308.784C375.782 301.322 377.915 294.925 380.048 288.529C384.314 273.606 388.936 260.814 392.846 240.56C396.757 220.306 408.845 180.864 419.51 141.422L420.577 139.29C423.396 129.192 425.182 118.835 425.909 108.376C426.084 102.744 424.601 97.184 421.643 92.3864C419.489 89.312 416.356 87.0573 412.755 85.9901C410.741 85.1206 408.544 84.7547 406.356 84.9242C402.598 85.133 398.943 86.2288 395.69 88.122C391.109 92.9264 387.166 98.3011 383.958 104.112C379.692 114.772 375.071 126.498 371.16 140.356C366.894 151.016 362.272 162.742 357.295 174.468C354.095 184.062 350.895 192.235 347.696 203.25C343.43 216.042 338.808 229.9 331.697 247.666C325.505 263.702 318.382 279.363 310.366 294.57C307.167 299.9 305.034 303.453 302.901 306.296L299.701 309.495C298.634 309.495 298.634 310.56 297.568 310.56C296.501 310.56 295.435 309.495 294.368 309.495C293.03 307.231 292.296 304.661 292.235 302.032C291.302 298.198 290.943 294.246 291.169 290.306C290.99 283.892 291.347 277.474 292.235 271.119C293.302 245.535 295.435 230.61 296.501 214.62C297.546 203.282 297.903 191.89 297.568 180.509C298.634 162.742 298.634 137.869 299.701 102.691C300.561 95.9755 300.917 89.2056 300.767 82.4371C301.233 67.4479 299.435 52.4742 295.435 38.0206C294.323 34.3431 292.257 31.0249 289.448 28.4037C286.638 25.7825 283.184 23.9512 279.436 23.0962H276.237C272.705 23.0704 269.225 23.9364 266.117 25.6136C263.01 27.2907 260.376 29.7248 258.461 32.6903C254.182 41.7289 251.649 51.4939 250.995 61.4721C250.975 71.4587 250.262 81.4323 248.862 91.3204C247.438 104.42 246.726 117.586 246.729 130.762C246.286 153.277 244.146 175.727 240.33 197.92C239.2 204.621 238.488 211.385 238.196 218.174C238.196 222.438 237.13 228.834 237.13 235.23C236.063 248.022 234.997 266.144 232.864 282.134C232.174 289.019 230.744 295.809 228.597 302.387C228.375 304.652 227.646 306.838 226.464 308.784L225.398 310.916H222.198C218.999 309.85 217.932 307.717 216.865 303.453C212.814 287.416 210.666 270.958 210.466 254.418C210.764 247.294 210.407 240.157 209.4 233.098C209.133 228.421 208.418 223.78 207.266 219.24C204.067 197.92 198.379 163.808 195.534 135.026C194.623 126.887 194.267 118.696 194.468 110.508C193.944 96.1661 192.16 81.898 189.135 67.8684C188.332 62.7443 186.116 57.9453 182.736 54.0104C180.603 50.8125 177.403 49.7461 172.07 48.6801V48.325L173.137 49.3909H171.715C167.386 50.0475 163.324 51.8925 159.983 54.7207C156.1 59.9565 153.539 66.0511 152.517 72.4873C150.705 81.2482 149.989 90.2 150.384 99.1373C150.207 105.906 150.563 112.679 151.45 119.391C151.45 131.117 152.517 140.711 152.517 150.305C153.583 163.097 154.65 175.889 154.65 190.813V221.727C154.424 229.915 154.781 238.108 155.716 246.245C157.18 258.033 157.892 269.901 157.85 281.779V290.662C158.347 301.722 157.632 312.803 155.716 323.708C155.519 326.998 154.799 330.237 153.583 333.302C151.713 335.083 149.548 336.525 147.184 337.566H145.051C143.547 337.544 142.073 337.142 140.768 336.396C139.462 335.65 138.367 334.586 137.585 333.302C130.353 322.407 124.949 310.404 121.587 297.768V297.058C116.655 280.369 110.719 263.994 103.811 248.022C97.343 233.162 91.9954 217.84 87.8127 202.184C83.5464 190.458 80.3468 178.732 75.0141 166.651C69.6813 154.569 63.282 147.462 53.683 147.462C49.5141 147.468 45.4883 148.983 42.3509 151.727C39.2135 154.471 37.1769 158.258 36.6182 162.387V166.651C37.5587 180.899 40.676 194.919 45.8616 208.225C47.6205 212.734 49.0464 217.365 50.1278 222.083C51.1944 226.346 53.3275 231.676 54.3941 237.006C56.7142 249.071 59.9225 260.948 63.993 272.54C64.0358 274.516 64.7937 276.41 66.1262 277.87C71.8825 294.084 75.8174 310.888 77.8582 327.971C79.9913 342.895 81.0578 353.555 82.1244 363.505C83.1909 370.967 84.2575 377.363 85.324 382.693C86.3906 390.155 86.3906 395.484 87.4571 405.078C88.5237 411.474 89.5902 417.871 90.6568 427.465C92.7128 442.906 95.6807 458.212 99.5447 473.303C100.315 479.04 101.383 484.732 102.744 490.359C103.88 497.416 104.592 504.535 104.878 511.678C104.877 519.796 103.055 527.81 99.5447 535.13C95.105 543.053 89.4689 550.245 82.8354 556.45C63.6375 580.968 6.04373 638.532 2.84407 641.73C2.26488 642.305 1.89024 643.054 1.77753 643.862V644.928C2.84408 651.324 8.17685 671.578 54.0386 707.111C92.4344 736.959 121.231 741.223 135.096 741.223V743.355C121.231 743.355 91.3678 739.091 51.9054 709.243C6.0437 673 -0.355589 652.745 -0.355589 645.284V643.507C-0.515186 642.004 -0.137355 640.494 0.710953 639.243C3.91061 636.045 61.5044 578.481 80.7023 555.029C86.9351 548.252 92.3083 540.734 96.7006 532.643C99.8459 525.615 101.307 517.949 100.967 510.257C101.093 503.135 100.737 496.011 99.9002 488.937C98.5204 483.674 97.452 478.335 96.7006 472.947C92.9338 457.835 89.9671 442.534 87.8127 427.109C86.7461 417.515 85.6795 410.053 84.613 403.657C83.5464 394.774 82.4799 388.733 81.4133 381.271C81.1159 374.836 80.4034 368.427 79.2803 362.084C78.2137 353.2 77.1472 341.83 75.0141 326.55C72.5533 309.787 68.2614 293.343 62.2154 277.514C61.7556 275.76 61.3994 273.981 61.1489 272.184C57.2141 260.551 54.0083 248.683 51.55 236.651C49.776 231.784 48.3503 226.797 47.2837 221.727C46.2023 217.01 44.7764 212.378 43.0175 207.869C37.6953 194.588 34.4574 180.565 33.4185 166.296V162.031C34.2681 157.423 36.7458 153.274 40.4002 150.339C44.0545 147.404 48.6423 145.879 53.3275 146.041C63.993 146.041 72.5255 153.504 77.8582 166.296C83.191 179.088 85.3241 190.813 89.5903 202.539C94.923 218.529 100.256 234.519 105.589 246.956C113.054 264.012 117.321 276.804 123.364 295.992L124.431 297.058C126.747 305.797 129.718 314.349 133.319 322.642C134.908 326.278 137.068 329.637 139.718 332.591C141.1 334.209 142.972 335.331 145.051 335.789H146.118C148.315 334.99 150.188 333.492 151.45 331.525C153.098 326.693 154.172 321.684 154.65 316.601V281.068C154.949 269.213 154.593 257.35 153.583 245.535C152.25 237.428 151.537 229.232 151.45 221.017C151.274 216.018 151.632 211.015 152.517 206.093V190.458C152.517 175.534 151.45 163.808 150.384 149.95C149.317 140.356 149.317 130.762 148.251 119.036V98.7821C147.856 89.8448 148.572 80.8931 150.384 72.1322C150.477 68.497 151.314 64.9195 152.842 61.6196C154.371 58.3197 156.559 55.3675 159.272 52.9445C160.762 50.9586 162.694 49.3468 164.916 48.2366C167.137 47.1265 169.587 46.5482 172.07 46.5482C174.554 46.5482 177.003 47.1265 179.225 48.2366C181.446 49.3468 183.379 50.9586 184.869 52.9445C190.521 59.8771 193.654 68.5203 193.757 77.4625C195.454 88.4076 196.523 99.4408 196.956 110.508C197.09 118.367 197.803 126.206 199.09 133.96C201.223 162.742 206.555 197.92 209.755 219.24C210.817 223.438 211.53 227.716 211.888 232.032C212.955 237.362 212.955 244.824 214.021 254.418C215.088 264.012 215.088 277.87 216.154 289.951C217.221 295.281 218.287 299.545 219.354 303.809C220.421 308.073 221.487 309.139 222.554 309.139H223.62C224.687 308.073 224.687 307.007 225.753 305.941C228.513 295.416 230.65 284.738 232.153 273.961C233.219 260.103 234.286 245.179 234.286 235.585C235.352 228.123 235.352 222.793 236.419 218.529C236.704 211.386 237.417 204.267 238.552 197.209C240.685 178.021 243.885 152.793 244.951 131.118C244.984 117.588 245.696 104.068 247.084 90.6096C247.084 83.1477 248.151 74.6198 249.217 61.8278C249.375 51.4368 251.929 41.2219 256.683 31.9795C258.843 28.596 261.848 25.8335 265.401 23.9642C268.955 22.0949 272.934 21.1838 276.948 21.3199H280.147C284.303 22.0735 288.167 23.9682 291.307 26.7923C294.446 29.6163 296.737 33.2581 297.923 37.3098C301.869 52.2586 303.665 67.6926 303.256 83.1474V103.402C301.123 138.935 301.123 163.098 301.123 181.219C301.458 192.601 301.102 203.992 300.056 215.331C297.923 232.387 295.79 246.245 294.724 271.829C294.724 278.225 293.657 284.621 293.657 291.017C293.363 294.606 293.724 298.218 294.724 301.677C294.566 304.006 295.332 306.304 296.857 308.073H297.923C298.99 308.073 300.056 307.007 302.19 303.809C312.723 285.637 321.989 266.76 329.92 247.311C337.386 229.545 341.652 215.331 345.918 202.895C348.474 193.098 351.681 183.482 355.517 174.112C359.783 162.386 364.405 150.661 368.316 140.001C373.648 127.209 377.915 114.417 382.181 104.468C384.457 97.5314 388.954 91.5374 394.98 87.4118C398.329 84.7645 402.443 83.2686 406.712 83.1474C409.248 82.9649 411.794 83.3284 414.177 84.2134C418.235 85.3409 421.684 88.0224 423.776 91.6756C427.088 96.7149 428.592 102.727 428.043 108.731C427.942 119.256 426.142 129.695 422.71 139.646L421.643 142.844C410.978 182.285 399.246 222.793 396.046 240.56C390.713 261.88 386.447 274.671 382.181 289.595C379.727 295.88 377.591 302.285 375.782 308.784C368.928 333.073 365.341 358.167 365.116 383.403C364.095 397.218 366.285 411.083 371.515 423.912C372.746 426.554 374.703 428.792 377.158 430.365C379.613 431.938 382.465 432.781 385.381 432.795C398.396 431.248 410.715 426.076 420.932 417.87C431.682 410.716 441.686 402.503 450.796 393.353C472.358 374.306 499.892 363.373 528.654 362.439C534.401 362.556 540.12 363.271 545.719 364.571C550.994 366.363 555.752 369.411 559.584 373.454C563.099 376.434 565.379 380.613 565.983 385.18C565.422 392.026 562.238 398.39 557.095 402.947C550.412 409.004 542.863 414.034 534.698 417.87C521.283 423.507 509.18 431.855 499.146 442.388C494.75 446.556 490.121 450.471 485.281 454.115C478.882 459.444 470.349 464.775 459.684 474.369C452.819 480.494 445.309 485.855 437.286 490.359C422.646 500.315 409.065 511.745 396.757 524.47C393.557 526.602 391.424 529.8 387.869 531.932C360.139 559.648 337.741 582.034 310.011 590.562C302.545 593.76 296.146 594.826 289.746 596.958C281.616 599.03 273.745 602.01 266.282 605.842C258.34 611.248 251.164 617.702 244.951 625.029C239.618 631.425 233.219 638.887 224.687 648.481C202.289 672.999 170.293 707.111 151.095 740.157L148.962 742.289C144.416 743.314 139.745 743.673 135.096 743.355L135.452 741.934Z" fill="black"/>
<path d="M78.9247 210.001H79.9913V211.067L76.7916 214.265L74.6585 215.331L72.5254 216.397C72.0195 217.049 71.3735 217.579 70.635 217.948C69.8966 218.317 69.0847 218.516 68.2592 218.529C68.2592 219.595 67.1927 219.596 66.1261 219.596L63.993 220.662C62.4997 220.616 61.0231 220.985 59.7268 221.727H55.4606L54.394 220.662L55.4606 219.596C56.3589 218.858 57.4986 218.478 58.6602 218.529H59.7268C59.7268 217.463 61.8599 217.463 62.9264 216.397L65.0595 215.331H67.1926L69.3258 214.265L71.4589 213.199L72.5254 212.133L74.6585 211.067C75.6404 210.496 76.7297 210.133 77.8582 210.001H78.9247ZM55.4606 220.662L56.5271 219.596L55.4606 220.662Z" fill="black"/>
<path d="M101.322 279.291L102.389 280.357V281.423C101.491 282.161 100.351 282.541 99.1893 282.489C98.1228 283.555 97.0563 283.555 94.9232 283.555C92.7901 283.555 92.7901 284.621 91.7235 285.687C90.2302 285.642 88.7536 286.011 87.4573 286.754C86.3907 286.754 85.3242 287.82 84.2577 287.82C83.1911 287.82 82.1245 287.819 82.1245 288.885H81.058L79.9915 287.82V286.754L81.058 285.687C81.6333 285.108 82.3826 284.734 83.1911 284.621L84.2577 283.555L86.3908 282.489C87.4573 282.489 88.5238 281.423 90.6569 281.423L91.7235 280.357H93.8566C95.1529 279.615 96.6296 279.246 98.1228 279.291H101.322ZM81.058 288.175L79.9915 287.109L81.058 288.175Z" fill="black"/>
<path d="M97.0561 284.621C97.8646 284.734 98.6139 285.108 99.1892 285.687H100.611L99.5447 287.82C98.7252 287.896 97.9641 288.276 97.4116 288.885H95.2785C94.8586 289.291 94.3532 289.596 93.7996 289.781C93.2459 289.965 92.658 290.024 92.0788 289.951C92.0788 291.017 91.0123 291.017 89.9458 291.017C89.1372 291.13 88.3879 291.504 87.8126 292.083C85.6795 292.083 85.6795 293.149 85.6795 293.149H84.613L83.5464 292.083V291.017L85.6795 288.885H86.7461V288.175H87.8126C88.2326 287.77 88.7379 287.463 89.2916 287.279C89.8453 287.094 90.4332 287.036 91.0123 287.109L92.0788 286.043H94.2119C95.2785 286.043 95.2785 284.977 96.345 284.977L97.0561 284.621ZM84.2575 292.083L83.1909 291.017L84.2575 292.083Z" fill="black"/>
<path d="M184.513 124.722L185.58 125.788V126.854L184.513 127.92H182.38L181.314 128.986C179.81 128.827 178.299 129.204 177.047 130.052H171.715C169.871 130.218 168.02 129.848 166.382 128.986H162.116C161.696 128.581 161.19 128.275 160.637 128.09C160.083 127.906 159.495 127.848 158.916 127.92L157.85 126.854L156.783 125.788L157.85 124.722H162.116C164.249 124.722 165.315 125.788 166.382 125.788H168.515L170.648 126.854H174.914L177.047 125.788H180.603L182.736 124.722H184.869H184.513ZM157.85 125.788L158.916 124.722L157.85 125.788Z" fill="black"/>
<path d="M172.781 122.589H179.181V124.721L178.114 125.787H167.449L166.382 124.721L165.315 123.655L166.382 122.589H172.781ZM167.449 123.655L166.382 122.589L167.449 123.655Z" fill="black"/>
<path d="M167.448 125.788H177.047L174.914 126.854H170.648L168.515 125.788H167.448Z" fill="black"/>
<path d="M264.505 120.458H287.969L289.035 121.523L287.969 122.589L286.902 123.655C285.774 123.787 284.685 124.15 283.703 124.721H268.771C267.267 124.881 265.756 124.503 264.505 123.655C263 123.831 261.483 123.452 260.238 122.589L259.172 121.523L260.238 120.458H264.505Z" fill="black"/>
<path d="M274.104 124.721C274.683 124.649 275.271 124.708 275.825 124.892C276.378 125.077 276.884 125.382 277.304 125.787H279.437V128.275C278.617 128.351 277.856 128.731 277.304 129.341H269.482C268.93 128.731 268.169 128.351 267.349 128.275V127.209L268.416 126.143H269.482L271.615 125.077L274.104 124.721ZM268.771 126.854L269.838 125.787L268.771 126.854Z" fill="black"/>
<path d="M354.095 245.179H358.361C359.855 245.134 361.331 245.503 362.628 246.246C363.694 246.246 364.761 247.311 365.827 248.377L367.96 249.443L369.027 250.509C369.579 250.55 370.098 250.788 370.49 251.179C370.881 251.571 371.119 252.089 371.16 252.641H372.227L371.16 254.773H370.094L369.027 253.707H367.96L367.249 252.641C366.674 252.062 365.925 251.688 365.116 251.575L362.983 250.509H360.85C360.43 250.104 359.925 249.798 359.371 249.614C358.817 249.429 358.23 249.371 357.65 249.443C357.23 249.038 356.725 248.732 356.171 248.548C355.618 248.363 355.03 248.305 354.451 248.377C353.469 247.806 352.38 247.443 351.251 247.311L350.185 246.246L351.251 245.179H354.095Z" fill="black"/>
<path d="M350.896 252.641H354.095C354.671 253.22 355.42 253.594 356.228 253.707C357.295 253.707 357.295 253.707 358.362 254.773H361.561C361.561 255.839 362.628 255.839 363.694 255.839C364.503 255.952 365.252 256.326 365.827 256.905V257.971L364.761 259.037H360.495C359.428 259.037 358.361 257.971 357.295 257.971C356.228 257.971 354.095 256.905 351.962 255.839C351.41 255.229 350.649 254.849 349.829 254.773V252.641H350.896ZM350.896 253.707L351.962 252.641L350.896 253.707Z" fill="black"/>
<path d="M379.692 159.899H385.025L387.158 160.965L388.225 162.031C390.358 162.031 391.424 163.097 392.491 163.097C393.557 163.097 394.624 164.163 395.691 165.229L397.824 167.362V168.428L396.757 169.494C395.629 169.362 394.539 168.999 393.557 168.428L392.491 167.362H390.358L388.225 166.296L387.158 165.229C386.092 165.229 385.025 164.163 383.959 164.163L381.825 163.097H380.759C379.95 162.985 379.201 162.61 378.626 162.031H377.559L376.493 160.965L377.559 159.899H379.692Z" fill="black"/>
<path d="M381.825 165.229H382.892L383.958 166.296H386.092L387.158 167.362H389.291L390.358 168.428C390.91 169.037 391.671 169.418 392.491 169.494V171.626H388.225L386.092 170.56L383.958 169.494L382.892 168.428L380.759 167.362V166.296L381.825 165.229Z" fill="black"/>
<path d="M214.377 315.535H221.843L222.909 316.601L221.843 318.733H207.978C206.911 319.799 205.845 319.799 203.711 319.799H202.645L200.512 320.865C198.379 320.865 197.312 320.865 196.246 321.931C195.179 322.997 193.046 321.931 191.979 322.997C190.913 324.063 188.78 324.063 186.647 324.063C186.141 324.715 185.495 325.245 184.756 325.614C184.018 325.983 183.206 326.182 182.38 326.195C181.205 327.318 179.718 328.061 178.114 328.327C174.915 330.459 171.715 331.525 168.515 333.657C165.316 335.789 162.116 336.855 158.916 337.921C155.717 338.987 151.45 340.053 148.251 341.119C145.051 342.185 141.851 342.185 138.652 342.185C137.148 342.026 135.637 342.403 134.386 343.251H132.252L130.119 344.317H127.275C126.855 344.722 126.35 345.028 125.796 345.212C125.243 345.397 124.655 345.455 124.076 345.383C123.009 346.449 121.942 346.449 120.876 347.515L119.809 348.581H118.387L117.321 349.647L116.254 350.713L115.188 351.779H114.121V348.581L115.188 347.515H116.254V346.449H117.321L119.454 344.317C120.52 344.317 121.587 343.251 122.654 343.251C123.074 342.846 123.579 342.54 124.132 342.355C124.686 342.171 125.274 342.113 125.853 342.185C126.92 341.119 127.986 341.119 129.053 340.053H131.186L133.319 338.987H137.585L139.718 337.921C141.369 338.916 143.17 339.636 145.051 340.053L147.184 338.987C148.447 339.139 149.727 338.918 150.865 338.349C152.003 337.78 152.948 336.89 153.584 335.789C154.003 335.384 154.509 335.078 155.062 334.894C155.616 334.709 156.204 334.651 156.783 334.723C159.983 332.591 163.182 331.525 166.382 329.393C169.582 327.261 172.781 326.195 175.981 325.129C177.156 324.006 178.643 323.263 180.247 322.997H181.314C182.38 321.931 184.513 321.931 185.58 320.865C186.647 319.799 188.78 319.799 189.846 318.733C191.69 318.899 193.541 318.529 195.179 317.667C196.682 317.827 198.194 317.449 199.445 316.601H203.711C204.778 316.601 205.845 315.535 207.978 315.535H214.377Z" fill="black"/>
<path d="M153.939 335.789C153.303 336.89 152.358 337.781 151.22 338.349C150.082 338.918 148.802 339.14 147.54 338.987L145.406 340.053C143.273 340.053 142.207 338.987 140.074 337.921C142.612 338.172 145.173 337.807 147.54 336.855C149.383 337.021 151.235 336.651 152.872 335.789H153.939Z" fill="black"/>
<path d="M287.969 304.875H289.036V305.941L290.102 308.073H291.169L292.235 309.139C292.311 309.958 292.692 310.718 293.302 311.271C294.368 312.337 295.435 312.337 297.568 312.337C298.147 312.409 298.735 312.351 299.289 312.166C299.842 311.982 300.348 311.676 300.768 311.271H301.834L302.901 310.205H305.034V312.337H303.967V313.403H302.901L301.834 314.469C301.551 314.469 301.28 314.581 301.08 314.781C300.88 314.981 300.768 315.252 300.768 315.535H293.302C293.302 315.252 293.189 314.981 292.989 314.781C292.789 314.581 292.518 314.469 292.235 314.469H291.169L290.102 312.337L289.036 311.271L287.969 309.139C287.127 308.166 286.41 307.092 285.836 305.941L286.903 304.875H287.969Z" fill="black"/>
<path d="M292.235 309.139V310.205H294.368L295.435 311.271H300.767C300.347 311.676 299.842 311.982 299.288 312.167C298.735 312.351 298.147 312.409 297.568 312.337C295.435 312.337 294.368 312.337 293.301 311.271C292.692 310.719 292.311 309.958 292.235 309.139Z" fill="black"/>
<path d="M262.372 399.749H263.438L264.505 401.881L262.372 402.947H257.039C254.673 403.899 252.111 404.264 249.573 404.013C248.506 405.079 247.44 405.079 245.307 405.079C244.055 405.927 242.544 406.305 241.041 406.145C237.841 407.211 233.575 408.277 230.375 409.343C228.398 409.386 226.503 410.143 225.042 411.475C222.909 411.475 220.776 412.541 218.643 412.541C214.377 413.607 209.755 415.739 205.844 416.805C201.752 418.701 197.458 420.132 193.046 421.069C191.099 422.25 188.912 422.979 186.646 423.201C184.513 424.267 182.38 424.267 180.247 425.333C176.084 426.562 171.786 427.278 167.449 427.465H161.049C159.983 427.465 158.916 428.531 157.85 428.531C157.27 428.603 156.683 428.545 156.129 428.361C155.575 428.176 155.07 427.87 154.65 427.465H142.918C141.851 426.399 141.851 426.399 140.785 426.399H138.652L136.519 425.333H134.385C132.252 424.267 131.186 424.267 130.119 423.201C129.54 423.273 128.952 423.215 128.399 423.03C127.845 422.846 127.34 422.54 126.92 422.135C124.938 421.453 123.122 420.363 121.587 418.937L120.52 417.871L121.587 416.805H122.653V417.871C124.535 418.288 126.336 419.008 127.986 420.003C129.053 420.003 130.119 421.069 131.186 421.069C132.252 421.069 133.319 422.135 134.385 422.135H136.163L138.296 423.201H143.629C144.695 424.267 144.695 424.267 145.762 424.267H162.827C163.893 424.267 164.96 423.201 166.026 423.201C170.364 423.014 174.662 422.298 178.825 421.069C180.958 421.069 183.091 420.003 185.224 420.003C187.171 418.822 189.358 418.093 191.624 417.871C195.716 415.974 200.01 414.544 204.422 413.607C208.515 411.711 212.808 410.28 217.221 409.343C220.98 407.785 224.923 406.711 228.953 406.145C233.219 405.079 236.419 404.013 239.618 402.947C242.818 401.881 246.018 401.881 249.217 401.881C251.601 400.996 254.147 400.633 256.683 400.815H258.816L260.95 399.749H262.372ZM121.587 417.516L122.653 416.45L121.587 417.516Z" fill="black"/>
<path d="M407.422 431.729H408.489V433.861C407.67 433.937 406.909 434.317 406.356 434.927L404.223 437.059C403.156 437.059 402.09 438.125 401.023 438.125V439.191C397.941 440.581 394.725 441.652 391.424 442.389C389.291 443.455 388.225 443.454 386.092 444.52C383.958 445.586 380.759 445.586 378.626 445.586C374.359 446.652 369.027 446.653 363.694 447.719C357.985 447.542 352.272 447.899 346.629 448.785C340.23 448.785 333.83 449.851 327.431 449.851C325.298 449.851 322.098 450.917 318.543 450.917C314.988 450.917 312.144 451.983 308.944 451.983C305.745 451.983 302.545 453.049 299.345 453.049C296.146 453.049 292.946 454.115 289.746 455.181C286.699 455.475 283.708 456.193 280.858 457.312C277.967 458.568 274.999 459.636 271.97 460.511C269.385 461.755 266.89 463.18 264.505 464.775C262.141 465.815 259.975 467.258 258.105 469.039C257.039 469.039 255.972 470.104 254.906 471.17C253.839 472.236 252.773 472.237 251.706 473.303L246.373 478.633L242.107 482.896C241.04 483.962 241.04 485.029 239.974 486.095L237.841 488.227C236.717 489.401 235.974 490.887 235.708 492.491C234.391 493.706 233.307 495.151 232.508 496.754C231.513 498.404 230.792 500.204 230.375 502.085L229.308 503.151V504.217H228.242L227.175 503.151C227.251 502.332 227.632 501.571 228.242 501.019C228.78 498.833 229.493 496.694 230.375 494.622C231.442 493.556 231.441 492.491 232.508 491.425C233.575 490.359 234.641 488.227 235.708 486.095L237.841 483.962C237.954 483.154 238.328 482.405 238.907 481.83C241.04 479.698 242.107 477.567 244.24 476.501C245.446 474.232 247.303 472.376 249.573 471.17L252.773 467.973C253.839 467.973 254.906 466.907 255.972 465.841C257.039 464.775 260.238 462.643 262.371 460.511C264.505 458.379 267.704 458.378 271.259 457.312C274.815 456.246 276.592 454.115 280.147 453.049C283.44 452.851 286.68 452.132 289.746 450.917C291.879 449.851 295.079 449.851 298.634 448.785C302.189 447.719 305.034 448.074 308.233 448.074C311.433 448.074 314.633 447.008 317.832 447.008C321.032 447.008 324.231 445.942 327.431 445.942C333.83 445.942 340.23 444.876 345.207 444.876C350.184 444.876 356.939 443.81 362.272 443.81C367.605 443.81 372.937 442.744 378.27 442.744C380.403 442.744 382.536 441.678 384.669 441.678C386.337 440.904 388.165 440.538 390.002 440.612C393.369 439.6 396.594 438.167 399.601 436.348C400.668 436.348 401.734 435.282 402.801 435.282L404.934 433.15C405.214 432.741 405.584 432.4 406.015 432.154C406.446 431.908 406.927 431.762 407.422 431.729Z" fill="black"/>
<path d="M394.624 445.586L395.691 446.653V461.577C395.618 462.156 395.677 462.743 395.861 463.297C396.046 463.85 396.352 464.355 396.757 464.775V467.973C397.336 468.548 397.711 469.296 397.824 470.104V472.236L398.89 474.369L399.957 475.435V478.633H398.89L397.824 477.567L396.757 476.501L395.691 475.435L394.624 473.303C394.624 472.237 394.624 472.236 393.558 471.17V467.973C392.491 467.973 392.491 466.907 392.491 465.841C392.491 464.775 391.424 463.709 391.424 462.643V456.247C391.258 454.404 391.629 452.553 392.491 450.917V448.074C393.558 447.008 393.558 447.008 393.558 445.942L394.624 445.586Z" fill="black"/>
<path d="M385.025 464.775C385.845 464.851 386.606 465.231 387.158 465.841C387.158 466.907 388.225 467.972 389.291 470.104C390.591 471.73 391.668 473.523 392.491 475.435C393.557 476.501 393.557 477.567 394.624 478.633C395.691 479.698 395.691 481.83 395.691 482.896C395.691 483.962 396.757 485.029 396.757 487.161C396.757 489.293 397.824 489.293 397.824 490.359V504.216H395.691L394.624 503.151V494.267C394.219 493.847 393.913 493.343 393.728 492.789C393.544 492.236 393.485 491.648 393.557 491.069C393.717 489.567 393.339 488.056 392.491 486.805C392.563 486.226 392.505 485.639 392.32 485.085C392.136 484.532 391.83 484.027 391.424 483.607C391.497 483.028 391.438 482.441 391.254 481.887C391.069 481.334 390.763 480.829 390.358 480.409C390.358 479.343 389.291 478.277 389.291 477.211C388.11 475.266 387.381 473.08 387.158 470.815L383.958 467.617V464.419L385.025 464.775ZM385.025 465.841L386.092 464.775L385.025 465.841Z" fill="black"/>
<path d="M449.018 414.673L450.085 415.739C450.085 415.739 451.151 415.739 451.151 417.871C451.151 420.003 452.218 420.003 452.218 422.135C452.218 424.267 453.284 425.333 453.284 426.399L454.351 427.465V429.597H452.218L451.151 427.465C450.085 427.465 450.085 426.399 449.018 425.333C448.439 424.758 448.064 424.009 447.952 423.201V415.739L449.018 414.673Z" fill="black"/>
<path d="M453.284 401.881L454.351 404.013V405.079C454.351 406.145 455.418 407.211 455.418 408.277V413.607C456.484 413.607 456.484 414.673 456.484 415.739C457.094 416.291 457.475 417.052 457.551 417.871L458.617 420.003L459.684 421.069L460.75 423.201L462.883 424.267L463.95 426.399L466.083 427.465L467.15 428.531H468.216L469.283 430.663L468.216 431.729L467.15 430.663H466.083L463.95 429.597C463.667 429.597 463.396 429.484 463.196 429.284C462.996 429.085 462.883 428.814 462.883 428.531C462.304 428.603 461.716 428.545 461.163 428.361C460.609 428.176 460.104 427.87 459.684 427.465C459.684 426.399 458.617 426.399 457.551 425.333C456.484 424.267 456.484 424.267 455.418 423.201V422.135L454.351 420.003C453.946 419.583 453.64 419.078 453.455 418.525C453.271 417.971 453.212 417.384 453.284 416.805C452.675 416.253 452.294 415.492 452.218 414.673V413.607C451.639 413.032 451.264 412.283 451.151 411.475V408.277C451.336 407.162 451.696 406.082 452.218 405.079V402.947L453.284 401.881Z" fill="black"/>
<path d="M105.589 506.349C105.589 508.481 106.655 509.546 106.655 510.612C106.655 511.678 107.722 514.877 107.722 517.009C107.722 519.141 108.788 522.339 109.855 525.892C110.15 528.938 110.868 531.928 111.988 534.775C112.283 537.821 113.001 540.811 114.121 543.659C114.121 544.725 115.188 546.856 115.188 547.922C115.188 548.988 116.254 551.121 117.321 553.253C118.387 555.385 118.387 555.385 119.454 557.517L120.52 559.648L121.587 561.78C123.237 564.13 124.665 566.629 125.853 569.243L129.053 572.44L132.252 575.638C133.319 575.638 134.386 576.704 135.452 577.77L136.519 578.836H137.585L138.652 579.903C140.302 580.898 142.103 581.618 143.984 582.035C145.635 583.029 147.436 583.749 149.317 584.166C150.797 584.232 152.247 584.594 153.583 585.232L154.65 586.298L153.583 587.364H152.517C151.054 587.197 149.62 586.839 148.251 586.298C146.414 586.372 144.585 586.007 142.918 585.232C140.785 585.232 138.652 583.101 136.519 582.035H134.386L133.319 580.969L130.119 577.77C128.903 576.454 127.458 575.37 125.853 574.572C124.787 573.506 123.72 572.44 123.72 571.374H122.653C121.033 568.322 119.253 565.357 117.321 562.491L116.254 560.359L115.188 558.227C114.922 556.624 114.178 555.138 113.055 553.963C113.055 551.831 111.988 550.765 111.988 549.699C111.988 548.633 110.921 546.501 109.855 544.369C108.788 542.237 108.788 537.973 107.722 535.486V534.42C106.655 532.288 106.655 529.09 105.589 525.536V506.349Z" fill="black"/>
<path d="M103.455 499.953L104.522 501.019C105.161 502.354 105.523 503.804 105.589 505.283V521.273C105.183 520.853 104.877 520.348 104.693 519.795C104.508 519.241 104.45 518.654 104.522 518.075C103.726 514.219 103.368 510.285 103.455 506.349C102.915 504.98 102.556 503.547 102.389 502.085L103.455 499.953ZM103.455 502.085L104.522 501.019L103.455 502.085Z" fill="black"/>
<path d="M213.31 595.893C214.377 595.893 214.377 596.959 216.51 596.959C216.51 598.025 217.576 598.024 218.643 599.09C219.709 600.156 221.843 599.09 222.909 600.156H223.976C225.479 599.997 226.99 600.375 228.242 601.222H253.839C254.418 601.295 255.006 601.237 255.56 601.052C256.113 600.868 256.619 600.561 257.039 600.156H260.594L260.49 600.173C265.906 599.091 265.906 599.09 271.322 598.008L274.459 598.024C271.077 598.993 267.846 600.428 264.86 602.288C263.794 602.288 262.727 603.354 261.661 604.42H257.039C256.46 604.348 255.872 604.407 255.318 604.591C254.764 604.775 254.259 605.081 253.839 605.486H233.93C232.133 605.236 230.353 604.88 228.597 604.42C226.8 604.17 225.02 603.814 223.265 603.354C221.132 602.288 220.065 602.288 217.932 601.222C215.799 600.156 215.799 600.156 214.732 600.156C213.666 600.156 213.666 599.09 212.599 599.09V595.893H213.31Z" fill="black"/>
<path d="M282.636 595.893L283.703 596.959L282.636 598.024C281.738 598.762 280.598 599.142 279.437 599.09C278.37 599.09 277.303 600.156 276.237 600.156C275.17 600.156 274.104 601.222 271.971 601.222C269.838 601.222 268.771 602.288 266.638 603.354C264.795 603.188 262.943 603.559 261.305 604.42C262.372 603.354 263.438 602.288 264.505 602.288C267.491 600.428 270.721 598.993 274.104 598.024L275.17 596.959H279.437C279.989 596.349 280.75 595.969 281.57 595.893H282.636Z" fill="black"/>
<path d="M346.629 21.3198H614.334V614.014H346.629" stroke="#E5202F" stroke-width="0.6"/>
<path d="M303.967 21.3199L360.495 0V41.5739L303.967 21.3199Z" fill="#E5202F"/>
<path d="M303.967 614.014L360.495 593.76V635.334L303.967 614.014Z" fill="#E5202F"/>
</g>
<defs>
<clipPath id="clip0_404_88">
<rect width="617" height="743" fill="white"/>
</clipPath>
</defs>
</svg>
