<svg width="44" height="43" viewBox="0 0 44 43" fill="currentColor"  xmlns="http://www.w3.org/2000/svg">
<path fill-rule="evenodd" clip-rule="evenodd" d="M41.1131 38.8695C41.1846 38.9897 41.1488 39.1436 41.0332 39.2133C40.4459 39.5674 39.4922 39.8473 38.2901 40.0669C37.0804 40.2878 35.5929 40.4519 33.919 40.5612C30.5706 40.7798 26.4602 40.78 22.3017 40.5712C18.1432 40.3623 13.9306 39.9441 10.378 39.3241C8.60186 39.0141 6.98705 38.6531 5.62472 38.2413C4.26601 37.8306 3.14306 37.3649 2.36077 36.8391C2.24573 36.7618 2.21114 36.6055 2.28351 36.49C2.35588 36.3746 2.50781 36.3437 2.62285 36.421C3.34335 36.9053 4.41077 37.3537 5.75176 37.7591C7.08913 38.1634 8.68335 38.5203 10.4473 38.8282C13.975 39.4438 18.167 39.8604 22.3118 40.0686C26.4564 40.2768 30.5477 40.2762 33.8736 40.059C35.5369 39.9504 37.0047 39.788 38.1902 39.5715C39.3833 39.3536 40.2648 39.0852 40.7743 38.778C40.8899 38.7083 41.0416 38.7493 41.1131 38.8695Z" />
<path fill-rule="evenodd" clip-rule="evenodd" d="M30.6303 24.1901C30.6725 24.0596 30.8124 23.988 30.9428 24.0304L31.8348 24.3202C31.9652 24.3626 32.0366 24.5028 31.9944 24.6333C31.9521 24.7639 31.8122 24.8354 31.6818 24.7931L30.7898 24.5033C30.6595 24.4609 30.588 24.3207 30.6303 24.1901Z" />
<path fill-rule="evenodd" clip-rule="evenodd" d="M28.4514 23.5643C28.4936 23.4337 28.6336 23.3622 28.7639 23.4046L29.6559 23.6944C29.7863 23.7367 29.8577 23.8769 29.8155 24.0075C29.7733 24.1381 29.6334 24.2096 29.503 24.1673L28.6119 23.8777C28.4815 23.8354 28.4092 23.6949 28.4514 23.5643Z" />
<path fill-rule="evenodd" clip-rule="evenodd" d="M26.5695 23.035C26.6118 22.9044 26.7517 22.8329 26.8821 22.8753L27.4023 23.0443C27.5327 23.0866 27.6041 23.2268 27.5619 23.3574C27.5196 23.488 27.3797 23.5595 27.2493 23.5171L26.7291 23.3481C26.5987 23.3058 26.5273 23.1656 26.5695 23.035Z" />
<path fill-rule="evenodd" clip-rule="evenodd" d="M24.9079 22.0891C24.9835 21.9759 25.1363 21.9495 25.2492 22.0302C25.3224 22.0824 25.3755 22.1167 25.4256 22.1491C25.4421 22.1598 25.4583 22.1702 25.4748 22.181C25.5428 22.2257 25.6067 22.2711 25.6857 22.3444C25.7878 22.4391 25.7979 22.5984 25.7082 22.7001C25.6185 22.8018 25.4631 22.8074 25.361 22.7127C25.31 22.6654 25.2712 22.6374 25.2176 22.6022C25.2052 22.5941 25.1916 22.5853 25.1768 22.5758C25.1256 22.5427 25.0595 22.5 24.9756 22.4401C24.8627 22.3595 24.8324 22.2023 24.9079 22.0891Z" />
<path fill-rule="evenodd" clip-rule="evenodd" d="M21.907 17.447C22.0348 17.4055 22.175 17.4798 22.2201 17.6129C22.26 17.7307 22.2752 17.788 22.2833 17.8241C22.2854 17.8277 22.2879 17.8321 22.291 17.8375C22.3606 17.9598 22.3227 18.1132 22.2063 18.1804C22.09 18.2475 21.9392 18.2028 21.8696 18.0806C21.8686 18.0787 21.8675 18.0768 21.8663 18.0748C21.856 18.0568 21.843 18.0339 21.8337 18.0138C21.8167 17.9767 21.8105 17.9464 21.8078 17.9329L21.8074 17.931L21.8072 17.9297C21.8052 17.9197 21.7983 17.8849 21.757 17.7631C21.712 17.63 21.7791 17.4885 21.907 17.447Z" />
<path fill-rule="evenodd" clip-rule="evenodd" d="M5.90572 19.4474C6.03539 19.493 6.10851 19.6368 6.06903 19.7687L6.06866 19.77L6.06755 19.774L6.06393 19.7881C6.06097 19.7999 6.05725 19.8152 6.05277 19.8342C6.04382 19.8722 6.03234 19.9225 6.01861 19.9838C5.99118 20.1063 5.95533 20.2704 5.91383 20.4623C5.83085 20.8461 5.72574 21.3395 5.6212 21.831C5.60009 21.9303 5.57901 22.0294 5.55814 22.1276C5.47568 22.5155 5.39653 22.8878 5.33233 23.1875C5.25405 23.553 5.1938 23.831 5.17929 23.8794L5.06465 24.2622C5.15558 25.3672 5.50146 26.6508 6.27663 27.4254L6.27755 27.4263C6.97115 28.1263 7.80675 28.6521 8.68101 29.116C9.63827 29.6101 10.825 30.1847 11.8003 30.6062C11.9269 30.6609 11.9903 30.8093 11.9419 30.9376C11.8934 31.0659 11.7515 31.1255 11.6249 31.0708C10.6358 30.6433 9.43766 30.063 8.47302 29.5651L8.47048 29.5638C7.57767 29.0901 6.68904 28.5355 5.94105 27.7807C5.0196 26.8596 4.65942 25.3928 4.5714 24.2359C4.569 24.2043 4.57236 24.1728 4.58129 24.143L4.70946 23.7151L4.71002 23.7129C4.71108 23.7087 4.71475 23.6938 4.72183 23.6629C4.72968 23.6286 4.74013 23.5816 4.75289 23.5235C4.77837 23.4075 4.8126 23.2488 4.85278 23.0612C4.91689 22.7619 4.99593 22.3901 5.07838 22.0023C5.09926 21.9041 5.12036 21.8048 5.14149 21.7055C5.24601 21.214 5.3513 20.7198 5.43448 20.3351C5.51578 19.959 5.57972 19.6693 5.59945 19.6035C5.63893 19.4717 5.77605 19.4018 5.90572 19.4474Z" />
<path fill-rule="evenodd" clip-rule="evenodd" d="M13.8766 13.6212C14.0108 13.6058 14.1356 13.7055 14.1552 13.844L15.123 20.675C15.1765 21.2486 15.508 21.9223 15.9889 22.2948L15.9956 22.2999C16.788 22.956 17.0587 23.1246 17.9767 23.6751L17.9803 23.6773C18.7349 24.1468 19.7756 24.5919 20.6927 24.984C20.7814 25.022 20.8689 25.0594 20.9548 25.0963L20.9626 25.0996C25.3973 27.1827 29.9446 28.0902 34.6543 28.8156C34.7437 28.796 34.8294 28.8066 34.8861 28.8172C34.9641 28.8318 35.0357 28.8568 35.0734 28.87L35.0765 28.8711C35.118 28.8856 35.1473 28.9079 35.1578 28.9161C35.1721 28.9273 35.1842 28.9386 35.1931 28.9473C35.211 28.9649 35.229 28.9852 35.2455 29.0047C35.2792 29.0446 35.3205 29.0977 35.3668 29.1598C35.4601 29.2848 35.5833 29.4585 35.7254 29.6644C36.0102 30.0769 36.3765 30.626 36.7432 31.1891C37.1098 31.7522 37.4778 32.331 37.7658 32.8028C37.9097 33.0385 38.0346 33.2491 38.1296 33.4185C38.2201 33.5797 38.2957 33.7244 38.3271 33.8174C38.3307 33.8278 38.3335 33.8385 38.3357 33.8493C38.3529 33.9333 38.3705 34.05 38.3399 34.1517C38.3216 34.2124 38.2776 34.2937 38.1832 34.3358C38.1233 34.3625 38.0654 34.3633 38.0188 34.3556C36.9491 34.4047 35.8454 34.3956 34.7787 34.3867C34.4891 34.3843 34.2022 34.3819 33.9195 34.3807L33.9184 34.3807L33.9105 34.3808C31.7318 34.389 29.5287 34.3974 27.2757 33.9999L27.268 33.9985C26.7096 33.8814 25.9179 33.6833 25.2965 33.4662L24.4547 33.1722C21.9769 32.2297 19.4716 31.4321 16.8262 31.1186L16.8151 31.1173C15.414 30.8854 14.0519 30.7207 12.6452 30.5508C12.3731 30.518 12.0993 30.4849 11.8232 30.4511C11.7358 30.4414 11.6496 30.4318 11.5643 30.4223C10.0675 30.2559 8.86946 30.1228 7.31765 29.6548L7.3074 29.6517L7.29924 29.6486C6.80959 29.4776 6.10767 29.2324 5.50646 28.8825C4.9141 28.5377 4.33989 28.0457 4.24124 27.3494C4.23666 27.3171 4.23819 27.2845 4.24568 27.2533C4.24577 27.2512 4.24585 27.2483 4.24587 27.2444C4.24594 27.2269 4.24486 27.2054 4.24316 27.1741L4.24299 27.1709C4.24151 27.1437 4.23955 27.1076 4.2397 27.0734C4.23979 27.0516 4.24057 27.0188 4.24646 26.9828L4.20309 24.3728C4.20265 24.3464 4.20627 24.3202 4.21381 24.2951L4.27671 24.0865C4.27935 24.0778 4.2827 24.0684 4.28627 24.06L4.57269 23.3885C4.6264 23.2626 4.77095 23.2087 4.89554 23.2682C5.02014 23.3277 5.0776 23.4781 5.02388 23.604L4.74283 24.2629L4.69511 24.4212L4.73821 27.0202C4.73857 27.0418 4.73621 27.0633 4.73122 27.0841C4.73113 27.0862 4.73105 27.0891 4.73103 27.093C4.73096 27.1105 4.73204 27.132 4.73374 27.1633L4.73391 27.1665C4.73539 27.1937 4.73735 27.2298 4.7372 27.264C4.73713 27.2811 4.73664 27.3048 4.7336 27.3316C4.81183 27.7558 5.18583 28.1247 5.73753 28.4458C6.2915 28.7682 6.9495 28.9993 7.44621 29.1728C8.95161 29.6263 10.1087 29.7549 11.6091 29.9218C11.692 29.931 11.7759 29.9404 11.8611 29.9499L11.8636 29.9502C12.1384 29.9838 12.4115 30.0168 12.6834 30.0496C14.0883 30.2192 15.4609 30.3849 16.8715 30.6182C19.572 30.939 22.1184 31.7517 24.6081 32.6986L25.4403 32.9893C26.0327 33.1962 26.7998 33.3887 27.3465 33.5035C29.5522 33.8923 31.7147 33.8846 33.9016 33.8763H33.9035C34.1911 33.8775 34.4813 33.8799 34.7731 33.8824C35.7823 33.8907 36.8108 33.8993 37.8137 33.8589C37.7879 33.808 37.7524 33.7415 37.706 33.6588C37.6154 33.4975 37.4943 33.2931 37.352 33.0599C37.0675 32.594 36.7025 32.0198 36.3375 31.4593C35.9726 30.8988 35.6091 30.3539 35.3278 29.9466C35.187 29.7426 35.0681 29.575 34.9806 29.4578C34.9382 29.401 34.9052 29.3588 34.8819 29.3309C34.8591 29.3238 34.8363 29.3175 34.814 29.3133C34.7952 29.3098 34.7824 29.3089 34.7749 29.3091M34.7749 29.3091C34.7719 29.3092 34.7713 29.3093 34.7713 29.3093C34.7713 29.3093 34.777 29.3083 34.7841 29.3051M34.7749 29.3091C34.7361 29.3244 34.6935 29.3291 34.6516 29.3227C29.915 28.5946 25.2929 27.6805 20.7749 25.559C20.6893 25.5223 20.6017 25.4849 20.5125 25.4467C19.6046 25.0587 18.528 24.5985 17.7381 24.1074C16.8103 23.5509 16.5151 23.3671 15.6982 22.691C15.0941 22.2212 14.7013 21.4119 14.6342 20.7123L13.669 13.8997C13.6494 13.7612 13.7423 13.6366 13.8766 13.6212" />
<path fill-rule="evenodd" clip-rule="evenodd" d="M8.15481 1.38703C8.38491 1.51923 8.62822 1.76477 8.84086 2.02087C9.0625 2.2878 9.27186 2.59209 9.42513 2.85768L9.43088 2.86764C10.0604 4.07804 10.0394 5.35843 9.75193 6.5628C9.46614 7.76032 8.91011 8.90957 8.43749 9.87529C8.26611 10.2935 8.14342 10.6313 8.0732 11.0312C8.00253 11.4337 7.98308 11.911 8.03411 12.6044C8.04432 12.7431 7.94272 12.8609 7.80718 12.8674C7.67164 12.8739 7.55348 12.7667 7.54327 12.6279C7.4903 11.9081 7.5084 11.3857 7.58863 10.9288C7.66888 10.4718 7.80939 10.0922 7.9858 9.66219C7.98786 9.65719 7.99007 9.65226 7.99244 9.64741C8.46892 8.67386 9.00179 7.56923 9.27352 6.4306C9.54391 5.29761 9.54897 4.15805 9.0001 3.0991C8.86172 2.86004 8.67052 2.58231 8.46935 2.34003C8.26172 2.08995 8.06351 1.90222 7.91593 1.81996C7.9077 1.81538 7.89972 1.81032 7.89202 1.80483C7.76852 1.71673 7.67372 1.66704 7.44882 1.61232C7.45867 1.73184 7.46695 1.87515 7.47405 2.03453C7.49377 2.47728 7.50522 3.06448 7.51314 3.65982C7.51798 4.02377 7.52153 4.39312 7.52481 4.73544C7.5269 4.9527 7.52888 5.15907 7.53102 5.34628C7.53667 5.84066 7.54353 6.1827 7.55386 6.27066C7.55531 6.28301 7.55587 6.29542 7.55553 6.30779C7.52039 7.59216 7.46267 8.96452 7.26311 10.2111C7.18443 10.7025 7.07999 11.1865 6.97822 11.6581C6.9511 11.7838 6.92416 11.9086 6.89795 12.0325C6.77776 12.6005 6.67183 13.1524 6.62324 13.7023C6.65067 13.7599 6.67886 13.827 6.70659 13.8941C6.71917 13.9246 6.7321 13.9562 6.74546 13.9888C6.7795 14.072 6.81639 14.1621 6.85786 14.2587C6.9733 14.5276 7.11423 14.8226 7.28489 15.067C7.3649 15.1816 7.34068 15.3382 7.2308 15.4167C7.12092 15.4953 6.96698 15.4661 6.88697 15.3515C6.685 15.0623 6.52725 14.7276 6.40799 14.4498C6.36464 14.3488 6.32505 14.2521 6.29053 14.1677C6.2776 14.1362 6.26538 14.1063 6.25394 14.0786C6.20887 13.9695 6.17959 13.9035 6.16076 13.8709C6.13436 13.8252 6.12239 13.7725 6.12651 13.7204C6.17465 13.1115 6.29056 12.5091 6.41671 11.9129C6.44384 11.7847 6.4714 11.657 6.4989 11.5295C6.60027 11.0596 6.70096 10.5928 6.77727 10.1162C6.9702 8.91111 7.02787 7.57496 7.06304 6.2961C7.05006 6.15486 7.04397 5.78809 7.03882 5.33791C7.03666 5.14862 7.03467 4.94149 7.03258 4.72398C7.02931 4.38277 7.02579 4.01601 7.02096 3.65242C7.01304 3.05745 7.00166 2.47723 6.98233 2.04319C6.97262 1.82533 6.96112 1.64936 6.94769 1.5283C6.94225 1.47932 6.93705 1.44455 6.93269 1.42194C6.89869 1.36607 6.88551 1.29757 6.90077 1.23019C6.92962 1.10272 7.05046 1.02237 7.17783 1.04596C7.68593 1.14003 7.89357 1.20301 8.15481 1.38703Z" />
<path fill-rule="evenodd" clip-rule="evenodd" d="M18.3262 11.0794C18.3515 11.1778 18.3181 11.28 18.2411 11.3395L14.7798 14.0123C14.7476 14.0372 14.7095 14.0532 14.669 14.0587L9.40499 14.7765L6.34002 19.385C6.29326 19.4553 6.21378 19.4947 6.12951 19.4892C6.04524 19.4837 5.96797 19.4342 5.92487 19.3581C5.87363 19.2676 5.85242 19.1774 5.85479 19.0892C5.8564 19.0292 5.86938 18.9758 5.87959 18.9399C5.94729 17.8633 6.01645 16.7747 6.18429 15.6407C6.18518 15.6347 6.18627 15.6288 6.18758 15.6229L6.18856 15.6185C6.43307 14.5168 6.67988 13.4048 7.0053 12.3188L7.00932 12.3053C7.11396 11.956 7.18705 11.7121 7.3685 11.424C7.37875 11.4077 7.39087 11.3928 7.40461 11.3795C7.42999 11.3551 7.46285 11.2973 7.52161 11.1826C7.52419 11.1776 7.52687 11.1723 7.52963 11.1669C7.57199 11.0839 7.63478 10.9608 7.71723 10.8745C8.02982 10.4658 8.38838 10.2343 8.80857 10.1152L8.82114 10.1117C9.11979 10.0449 9.49201 10.0102 10.0112 10.0302C10.333 10.0182 10.6588 10.0507 10.9794 10.0938C11.1069 10.1109 11.2311 10.1293 11.3544 10.1475C11.5527 10.1769 11.7488 10.2059 11.9527 10.2288L11.9568 10.2293C12.8458 10.3447 13.7185 10.4136 14.5812 10.4816C14.7534 10.4951 14.9251 10.5087 15.0965 10.5225C16.1235 10.6056 17.1362 10.7006 18.1246 10.8871C18.2216 10.9055 18.3009 10.9811 18.3262 11.0794ZM6.40922 18.3711L9.05526 14.3925C9.09274 14.3362 9.15172 14.2991 9.21832 14.29L14.525 13.5664L17.4784 11.2857C16.6984 11.1658 15.8987 11.0926 15.0763 11.026C14.907 11.0123 14.7366 10.9989 14.5653 10.9854C13.7031 10.9174 12.8169 10.8476 11.9154 10.7306C11.7063 10.707 11.4932 10.6756 11.2878 10.6453C11.1664 10.6274 11.0476 10.6098 10.9339 10.5946C10.6183 10.5522 10.322 10.5239 10.039 10.5352C10.0327 10.5354 10.0264 10.5354 10.02 10.5352C9.53056 10.5158 9.19966 10.5489 8.94898 10.6043C8.62602 10.697 8.35158 10.8726 8.09929 11.2064C8.09183 11.2163 8.08363 11.2256 8.07476 11.2341C8.04938 11.2586 8.01652 11.3163 7.95776 11.431C7.95518 11.4361 7.9525 11.4413 7.94974 11.4467C7.90889 11.5268 7.84905 11.6441 7.7709 11.7298C7.63638 11.9488 7.58006 12.1329 7.47489 12.4839C7.156 13.5481 6.91316 14.6408 6.66833 15.7438C6.53646 16.6375 6.46679 17.504 6.40922 18.3711Z" />
<path fill-rule="evenodd" clip-rule="evenodd" d="M10.2848 2.71836C10.8638 3.50823 11.2067 4.45969 11.3518 5.17515C11.3543 5.18771 11.356 5.20042 11.3567 5.21316L11.3571 5.22189C11.383 5.702 11.4103 6.20758 11.3352 6.76069C11.2947 7.48509 11.1626 8.50957 10.4484 9.7285C10.4142 9.82516 10.357 9.92297 10.3011 10.0158C10.2848 10.0427 10.2679 10.0704 10.2504 10.0992C10.1953 10.1895 10.1336 10.2904 10.0649 10.4134C9.99837 10.5323 9.84867 10.5697 9.73051 10.4969C9.61235 10.4241 9.57046 10.2687 9.63696 10.1498C9.71072 10.0179 9.77897 9.90613 9.83468 9.8149C9.85135 9.78759 9.8669 9.76213 9.88114 9.73852C9.94816 9.62735 9.97784 9.56966 9.98912 9.5321C9.99485 9.51301 10.0028 9.49477 10.0128 9.47779C10.6889 8.33322 10.8083 7.38317 10.8456 6.70339C10.846 6.69636 10.8466 6.68936 10.8476 6.68241C10.9163 6.18406 10.8935 5.72527 10.8674 5.24207C10.7317 4.58549 10.415 3.7193 9.89577 3.01148L9.89376 3.00874C9.31965 2.20475 8.40488 1.52121 7.2057 1.54103C7.0703 1.54326 6.95475 1.43207 6.94761 1.29267C6.94046 1.15327 7.04444 1.03845 7.17984 1.03622C8.58513 1.013 9.64211 1.81896 10.2848 2.71836Z" />
<path fill-rule="evenodd" clip-rule="evenodd" d="M16.3688 11.4721C16.5045 11.4807 16.6114 11.6003 16.6077 11.7392C16.6038 11.8829 16.6079 12.0681 16.6195 12.2275C16.6253 12.3074 16.6328 12.3767 16.6411 12.4289C16.6453 12.4551 16.6492 12.4736 16.6522 12.4851L16.6531 12.4884C16.6698 12.5226 16.679 12.5601 16.6799 12.5981C16.6821 12.6994 16.6841 12.8014 16.686 12.9041C16.699 13.5959 16.7125 14.318 16.8382 15.0801C16.8392 15.0861 16.8399 15.0922 16.8405 15.0983C17.0141 16.958 17.7131 18.7014 18.7563 20.1147L18.7599 20.1196C20.0149 21.9045 21.8517 23.1525 23.7844 24.2094C24.5754 24.639 25.428 25.0869 26.3931 25.4235C27.5988 25.8441 28.976 26.248 30.2215 26.5297L30.2305 26.5318C31.1496 26.7764 32.0156 26.9267 32.8931 27.0787L32.9054 27.0808C33.5402 27.2244 34.1354 27.3579 34.6919 27.3357C34.8272 27.3303 34.9449 27.4388 34.9547 27.5779C34.9646 27.717 34.8628 27.8342 34.7274 27.8396C34.1017 27.8645 33.4477 27.7165 32.8319 27.5772L32.8211 27.5748C31.9493 27.4238 31.0661 27.2707 30.1267 27.021C28.8623 26.7347 27.469 26.3259 26.2491 25.9004C25.2425 25.5493 24.359 25.0839 23.5657 24.6531C21.6139 23.5858 19.6918 22.2918 18.3664 20.408C17.2705 18.9225 16.5362 17.0922 16.3522 15.1387C16.2213 14.3398 16.2073 13.5809 16.1945 12.8936C16.1929 12.808 16.1914 12.7236 16.1896 12.6404C16.1847 12.6255 16.1809 12.6119 16.1779 12.6005C16.169 12.5668 16.162 12.5303 16.1562 12.4941C16.1446 12.4216 16.1359 12.3361 16.1295 12.2482C16.1166 12.0721 16.1121 11.8696 16.1164 11.7083C16.1202 11.5694 16.2332 11.4636 16.3688 11.4721Z" />
<path fill-rule="evenodd" clip-rule="evenodd" d="M22.7742 21.3143C22.85 21.2012 23.0028 21.1751 23.1156 21.2559L23.7308 21.6965C23.8436 21.7773 23.8737 21.9345 23.7979 22.0476C23.7222 22.1606 23.5694 22.1868 23.4565 22.106L22.8414 21.6654C22.7286 21.5846 22.6985 21.4274 22.7742 21.3143Z" />
<path fill-rule="evenodd" clip-rule="evenodd" d="M24.5665 22.3918C24.6424 22.2782 24.7958 22.2498 24.9092 22.3285C25.0788 22.4461 25.269 22.5116 25.4981 22.5885C25.6282 22.6321 25.7003 22.7738 25.6593 22.9049C25.6182 23.036 25.4794 23.1069 25.3493 23.0632C25.3452 23.0619 25.3411 23.0605 25.337 23.0591C25.1204 22.9864 24.8675 22.9016 24.6344 22.74C24.521 22.6613 24.4906 22.5055 24.5665 22.3918Z" />
<path fill-rule="evenodd" clip-rule="evenodd" d="M26.4229 23.2338C26.4651 23.1033 26.605 23.0317 26.7354 23.0741L27.4042 23.2914C27.5345 23.3337 27.606 23.4739 27.5637 23.6045C27.5215 23.7351 27.3816 23.8066 27.2512 23.7643L26.5824 23.547C26.4521 23.5046 26.3806 23.3644 26.4229 23.2338Z" />
<path fill-rule="evenodd" clip-rule="evenodd" d="M28.2805 23.8374C28.3227 23.7068 28.4627 23.6352 28.593 23.6776L29.5594 23.9916C29.6897 24.0339 29.7612 24.1741 29.7189 24.3047C29.6767 24.4353 29.5368 24.5068 29.4064 24.4645L28.4401 24.1505C28.3097 24.1081 28.2383 23.9679 28.2805 23.8374Z" />
<path fill-rule="evenodd" clip-rule="evenodd" d="M31.9792 24.672C31.9676 24.8097 31.8482 24.9095 31.7124 24.8949C31.539 24.8763 31.3731 24.8399 31.2218 24.8067L31.2163 24.8055C31.0594 24.7711 30.9175 24.7402 30.7728 24.7246C30.6371 24.71 30.5364 24.5866 30.548 24.4489C30.5596 24.3112 30.6791 24.2114 30.8148 24.226C30.9882 24.2446 31.1541 24.281 31.3055 24.3142L31.3109 24.3154C31.4678 24.3499 31.6098 24.3807 31.7544 24.3963C31.8901 24.4109 31.9908 24.5343 31.9792 24.672Z" />
<path fill-rule="evenodd" clip-rule="evenodd" d="M32.685 24.8844C32.7244 24.7526 32.8616 24.6827 32.9912 24.7283C33.3295 24.8473 33.5675 25.0156 33.7248 25.1618C33.8766 25.2774 33.9535 25.4222 34.0041 25.5435C34.0207 25.5832 34.0374 25.6282 34.0515 25.6661C34.0575 25.6822 34.063 25.6971 34.0679 25.7097C34.0867 25.7588 34.1029 25.7963 34.121 25.8283C34.1348 25.8528 34.1447 25.8793 34.1503 25.9067C34.165 25.9798 34.1929 26.0786 34.2252 26.1922L34.2272 26.1993C34.2559 26.3002 34.2881 26.4135 34.3077 26.5071C34.37 26.7268 34.4405 26.987 34.5104 27.2452L34.5107 27.2464C34.582 27.5096 34.6527 27.7706 34.7147 27.9888C34.7166 27.9954 34.7182 28.002 34.7195 28.0087C34.7333 28.0767 34.7411 28.1443 34.747 28.1945C34.7492 28.2135 34.7511 28.23 34.753 28.2431C34.7609 28.2994 34.7743 28.3689 34.8145 28.4887C34.8593 28.622 34.7919 28.7634 34.6639 28.8044C34.536 28.8455 34.396 28.7708 34.3512 28.6375C34.3009 28.4878 34.2798 28.3866 34.2672 28.297C34.2618 28.2588 34.2587 28.2312 34.2561 28.2072C34.2521 28.1722 34.2491 28.1448 34.241 28.1033C34.1787 27.8837 34.1083 27.6238 34.0385 27.366L34.0382 27.3648C33.9669 27.1016 33.8962 26.8406 33.8342 26.6224C33.8324 26.6158 33.8308 26.6092 33.8294 26.6025C33.8146 26.5295 33.7867 26.4306 33.7545 26.317L33.7525 26.31C33.7267 26.2194 33.6982 26.1188 33.6784 26.0316C33.6509 25.9778 33.6296 25.9253 33.6121 25.8794C33.6031 25.856 33.5956 25.8358 33.5887 25.8172C33.5769 25.7853 33.5669 25.7582 33.5542 25.728C33.5192 25.644 33.4872 25.5961 33.4375 25.56C33.4285 25.5534 33.4199 25.5463 33.4117 25.5386C33.3019 25.4348 33.1214 25.3017 32.8483 25.2056C32.7186 25.16 32.6455 25.0162 32.685 24.8844Z" />
<path fill-rule="evenodd" clip-rule="evenodd" d="M21.3695 19.8403C21.4593 19.7392 21.6145 19.7348 21.7162 19.8306L22.1085 20.2001C22.1276 20.2181 22.144 20.239 22.1571 20.262C22.1627 20.2719 22.1681 20.2787 22.2013 20.31L22.2051 20.3136C22.2381 20.3446 22.2953 20.3984 22.3426 20.4818C22.412 20.604 22.3736 20.7573 22.257 20.8242C22.1404 20.8912 21.9896 20.8465 21.9203 20.7243C21.9147 20.7145 21.9093 20.7076 21.8761 20.6763L21.8722 20.6727C21.8447 20.6468 21.8002 20.605 21.7587 20.5432L21.391 20.1969C21.2893 20.1011 21.2797 19.9415 21.3695 19.8403Z" />
<path fill-rule="evenodd" clip-rule="evenodd" d="M20.2716 18.0217C20.3882 17.9551 20.5388 18.0005 20.6079 18.123L20.9952 18.8095C21.0002 18.8183 20.9975 18.8136 20.9959 18.8107L21.0525 18.9111C21.1217 19.0337 21.0832 19.187 20.9666 19.2536C20.85 19.3202 20.6994 19.2748 20.6303 19.1522L20.1857 18.3641C20.1166 18.2416 20.155 18.0882 20.2716 18.0217Z" />
<path fill-rule="evenodd" clip-rule="evenodd" d="M19.1897 11.7345C18.9727 11.4515 18.6065 11.1942 18.2777 11.1423C18.263 11.14 18.2486 11.1364 18.2345 11.1314C18.1274 11.0938 17.9128 11.0809 17.7507 11.0966C17.6163 11.1097 17.493 11.0078 17.4753 10.8689C17.4575 10.7301 17.5521 10.6069 17.6865 10.5938C17.8717 10.5758 18.1526 10.5819 18.3553 10.6467C18.8373 10.7306 19.3052 11.0805 19.5775 11.4398C19.5808 11.4441 19.5839 11.4485 19.5869 11.453C19.8298 11.8175 19.9195 12.2353 19.9576 12.6339C19.9767 12.8341 19.9833 13.0356 19.9877 13.2281C19.9887 13.2699 19.9895 13.311 19.9904 13.3517C19.9934 13.5015 19.9964 13.6443 20.0039 13.7834C20.0042 13.7904 20.0043 13.7974 20.0042 13.8044C19.9796 14.7191 20.092 15.4515 20.3181 16.3925L20.3203 16.4018C20.3502 16.5496 20.4321 16.7929 20.5288 16.9635C20.5981 17.0859 20.5598 17.2393 20.4434 17.3061C20.3269 17.3729 20.1762 17.3278 20.1069 17.2054C19.9798 16.981 19.8807 16.6865 19.8407 16.4919C19.6094 15.5285 19.4882 14.7508 19.5132 13.7821C19.5056 13.6366 19.5025 13.4861 19.4995 13.3387C19.4986 13.2993 19.4978 13.26 19.497 13.2211C19.4926 13.0305 19.4863 12.8449 19.4691 12.6647C19.4347 12.3057 19.3587 11.9916 19.1897 11.7345Z" />
<path fill-rule="evenodd" clip-rule="evenodd" d="M33.6299 25.9373C33.6164 25.9359 33.609 25.9353 33.609 25.9353V25.9353C33.4734 25.93 33.3635 25.8126 33.3636 25.6733C33.3638 25.5339 33.4738 25.4253 33.6094 25.4307C33.6563 25.4326 33.7754 25.4482 33.9277 25.4699C34.0881 25.4927 34.3038 25.5251 34.5583 25.5648C35.0672 25.6442 35.7331 25.753 36.4247 25.8733C37.7956 26.1117 39.3033 26.4012 39.8645 26.5984C40.3236 26.7598 40.6103 27.0764 40.7995 27.4569C40.9821 27.8243 41.0783 28.2607 41.1629 28.6782C41.4609 29.9735 41.6258 31.4905 41.2245 32.8293C41.2181 32.8507 41.2089 32.8709 41.1972 32.8896C41.1081 33.031 41.0315 33.1219 40.9705 33.1807C40.9399 33.2102 40.913 33.2318 40.8903 33.2476C40.8789 33.2555 40.8685 33.2619 40.8593 33.2672C40.8547 33.2698 40.8503 33.2721 40.8463 33.2742L40.8404 33.2771L40.8377 33.2784L40.8364 33.279L40.8354 33.2794C40.8354 33.2794 40.835 33.2796 40.7299 33.0475L40.8354 33.2794C40.4608 33.4476 39.9804 33.5469 39.4666 33.6143C38.9516 33.682 38.3829 33.7199 37.8237 33.7573L37.8191 33.7576C37.6842 33.7666 37.5637 33.6611 37.55 33.5219C37.5362 33.3828 37.6343 33.2626 37.7692 33.2536C38.3334 33.216 38.888 33.1788 39.3867 33.1134C39.8803 33.0486 40.3002 32.9581 40.6102 32.822C40.6139 32.8189 40.6199 32.8139 40.6278 32.8062C40.6539 32.7811 40.7009 32.729 40.7646 32.6315C41.1162 31.4249 40.9731 30.0261 40.6846 28.7737L40.6831 28.7669C40.5969 28.3412 40.5116 27.9701 40.3641 27.6734C40.2226 27.3888 40.0295 27.184 39.7215 27.0757C39.2086 26.8954 37.75 26.6128 36.3604 26.3711C35.6717 26.2513 35.0087 26.143 34.5024 26.0641C34.2493 26.0246 34.0358 25.9925 33.8782 25.9701C33.7993 25.9588 33.7352 25.9501 33.6873 25.9441C33.6634 25.9411 33.6443 25.9388 33.6299 25.9373Z" />
<path fill-rule="evenodd" clip-rule="evenodd" d="M39.2335 28.77C37.8673 28.6011 34.649 28.245 34.3259 28.2092C34.1905 28.1942 34.0893 28.07 34.0999 27.9318C34.1105 27.7936 34.2289 27.6937 34.3644 27.7087C34.6879 27.7445 37.9147 28.1016 39.2821 28.2707L39.2895 28.2716C39.7777 28.3474 40.1735 28.674 40.4223 29.1064C40.4283 29.1169 40.4336 29.1278 40.4381 29.1391L41.4369 31.6099C41.4894 31.7397 41.4303 31.8853 41.305 31.9351C41.1796 31.9849 41.0355 31.9201 40.983 31.7903L39.9914 29.337C39.8049 29.0211 39.5352 28.8181 39.2335 28.77Z" />
<path fill-rule="evenodd" clip-rule="evenodd" d="M5.69723 30.5781C5.82033 30.6397 5.87252 30.79 5.81381 30.9138L5.68597 31.1835C5.60452 31.3555 5.48802 31.6015 5.34787 31.898C5.06755 32.4908 4.69263 33.2851 4.31411 34.0909C3.93555 34.8967 3.5536 35.7137 3.25917 36.352C3.11191 36.6713 2.98686 36.9452 2.89517 37.1504C2.84928 37.2531 2.81214 37.3378 2.7849 37.4019C2.77126 37.434 2.76046 37.4601 2.75245 37.4803C2.74844 37.4904 2.74536 37.4984 2.74307 37.5046L2.74049 37.5118L2.73966 37.5143C2.69865 37.6454 2.55997 37.7162 2.42991 37.6724C2.29984 37.6285 2.22764 37.4867 2.26865 37.3556C2.28859 37.2918 2.35574 37.1365 2.4447 36.9374C2.5376 36.7294 2.66362 36.4534 2.81116 36.1336C3.10633 35.4936 3.48886 34.6755 3.86756 33.8693C4.24631 33.063 4.62143 32.2684 4.90184 31.6753C5.04205 31.3787 5.1586 31.1326 5.24009 30.9605L5.36802 30.6906C5.36802 30.6906 5.36805 30.6905 5.58628 30.7998L5.36802 30.6906C5.42673 30.5669 5.57414 30.5164 5.69723 30.5781Z" />
<path fill-rule="evenodd" clip-rule="evenodd" d="M39.9022 32.9888C40.0319 33.0343 40.105 33.178 40.0654 33.3097L40.0646 33.3125C40.0653 33.3146 40.0663 33.3172 40.0676 33.3208C40.0712 33.3308 40.0777 33.3492 40.083 33.3712C40.0954 33.4228 40.0992 33.4855 40.0786 33.5541C40.0481 33.6558 39.9825 33.7238 39.9306 33.7664C39.8779 33.8096 39.8183 33.8434 39.7707 33.8688C39.7453 33.8824 39.7251 33.8928 39.7067 33.9022C39.6832 33.9143 39.6627 33.9248 39.6379 33.9387C39.6174 33.9501 39.6024 33.9595 39.5915 33.967C39.5952 33.9769 39.5991 33.9853 39.6024 33.9911C39.6163 34.0156 39.6262 34.042 39.6318 34.0695C39.7591 34.6972 40.1433 35.279 40.5683 35.9155C40.7746 36.2245 41.0152 36.5866 41.1616 36.9653C41.3105 37.3505 41.3727 37.7802 41.1905 38.209C41.137 38.335 40.9926 38.3888 40.868 38.3291C40.7434 38.2695 40.6858 38.119 40.7393 37.993C40.8527 37.7263 40.8253 37.4451 40.7061 37.1369C40.5845 36.8221 40.3785 36.5081 40.1667 36.1908C40.1616 36.1833 40.1566 36.1757 40.1515 36.1681C39.7511 35.5686 39.316 34.9171 39.1589 34.192C39.1238 34.1184 39.0967 34.0285 39.0918 33.9382C39.0868 33.8452 39.1064 33.6753 39.2555 33.5845C39.3012 33.5459 39.3507 33.516 39.3913 33.4932C39.4196 33.4774 39.4564 33.4584 39.4877 33.4422C39.5049 33.4333 39.5204 33.4253 39.5318 33.4192C39.5516 33.4086 39.5678 33.3994 39.5809 33.3914C39.5765 33.3695 39.573 33.3446 39.572 33.3169C39.5699 33.2604 39.5781 33.2035 39.5957 33.145C39.6353 33.0132 39.7725 32.9433 39.9022 32.9888ZM39.6233 33.3606L39.6226 33.3614Z" />
<path fill-rule="evenodd" clip-rule="evenodd" d="M22.2362 1.57487C22.0362 1.53285 21.8289 1.51541 21.6812 1.52973C21.657 1.53207 21.6326 1.5307 21.6086 1.52565C21.2069 1.44126 20.976 1.45306 20.6901 1.46768C20.5956 1.47251 20.4951 1.47764 20.3804 1.47972C20.2362 1.49353 20.0853 1.50433 19.9283 1.51556C19.6709 1.53398 19.3974 1.55355 19.1107 1.58949C18.6543 1.64672 18.2241 1.74052 17.8995 1.91358C17.8948 1.91612 17.8899 1.9185 17.885 1.92071C17.3566 2.15681 17.0586 2.61533 16.7216 3.14789C16.1931 4.05806 15.8158 5.02561 15.4921 6.10065C15.2945 6.75694 15.0846 7.45725 15.0262 8.20644L15.0258 8.21125C14.9844 8.63888 14.9434 9.06143 14.9188 9.42907C14.9023 9.67507 14.8938 9.8877 14.896 10.0564L16.6668 10.1069C16.6934 8.42282 16.9108 6.88909 17.1935 5.67059C17.1947 5.66534 17.1961 5.66013 17.1977 5.65498L17.2058 5.62784C17.3733 5.07136 17.5365 4.52923 17.8491 4.11476C18.6943 2.86724 20.4306 2.49193 22.4245 2.61887C22.4955 2.49239 22.5781 2.32322 22.6294 2.15273C22.6995 1.92 22.6844 1.78038 22.6362 1.70879C22.5634 1.66603 22.4211 1.61373 22.2362 1.57487ZM22.3183 1.08069C22.5407 1.12742 22.7809 1.20474 22.9333 1.31502C22.9472 1.32511 22.9601 1.3366 22.9719 1.34931C23.241 1.64057 23.1806 2.04653 23.0992 2.31713C23.0108 2.61059 22.8569 2.88327 22.7683 3.02325C22.7215 3.0973 22.6389 3.13879 22.5516 3.13221C20.5209 2.9792 18.9626 3.36359 18.2524 4.41725L18.2449 4.42848C17.989 4.76541 17.847 5.22296 17.6698 5.81162C17.3821 7.05399 17.1632 8.63828 17.1556 10.376C17.1549 10.514 17.0463 10.622 16.9118 10.6181L14.6662 10.5541C14.5411 10.5505 14.4353 10.451 14.4205 10.3229C14.3933 10.0876 14.4038 9.7483 14.4287 9.37683C14.4539 9.00085 14.4955 8.57117 14.5367 8.14642C14.5999 7.33934 14.8247 6.5928 15.0194 5.94611L15.0224 5.93625C15.3535 4.83633 15.7449 3.82887 16.2997 2.87426L16.3043 2.86637C16.3088 2.85923 16.3135 2.85217 16.318 2.84499C16.6401 2.3358 17.0044 1.75996 17.6684 1.46021C18.0691 1.24851 18.5658 1.14738 19.0344 1.08861C19.3276 1.05185 19.6337 1.02968 19.9037 1.01011C20.0599 0.998796 20.2041 0.988353 20.3267 0.976466C20.333 0.975854 20.3394 0.975496 20.3457 0.975391C20.4401 0.973838 20.5301 0.969154 20.6205 0.964458C20.9128 0.949259 21.2075 0.933935 21.6556 1.02426C21.8595 1.00998 22.1016 1.03517 22.3183 1.08069Z" />
<path fill-rule="evenodd" clip-rule="evenodd" d="M21.0749 9.32595C21.1831 9.25489 21.3295 9.28494 21.4082 9.39438C21.5937 9.65224 21.6964 9.96727 21.7575 10.2663C21.8174 10.5599 21.8408 10.8572 21.8544 11.1028C21.9619 11.6423 21.9668 12.2213 21.9714 12.7704L21.9715 12.7841C21.9716 12.7915 21.9713 12.7989 21.9707 12.8063C21.9526 13.0379 21.9587 13.1781 21.9704 13.4488C21.9775 13.6131 21.9867 13.8256 21.9938 14.1359C22.0099 14.2296 22.0105 14.3286 22.0115 14.5043C22.0117 14.5366 22.0119 14.5716 22.0123 14.6097C22.0146 14.8895 22.0214 15.3722 22.0571 16.2676C22.0627 16.4068 21.9572 16.5205 21.8216 16.5216C21.686 16.5226 21.5716 16.4106 21.566 16.2714C21.5301 15.3707 21.5232 14.8825 21.5208 14.5972C21.5205 14.5634 21.5202 14.5329 21.52 14.5052C21.5183 14.2854 21.518 14.2465 21.5081 14.1982C21.505 14.1829 21.5033 14.1673 21.5029 14.1518C21.4966 13.8699 21.4879 13.6621 21.4807 13.4926C21.4682 13.1956 21.4606 13.0158 21.4799 12.7606C21.4752 12.1939 21.4692 11.6587 21.3696 11.1712C21.3671 11.1586 21.3654 11.1459 21.3647 11.1331C21.3515 10.8899 21.3301 10.616 21.2765 10.3538C21.2596 10.2708 21.2398 10.1909 21.2168 10.115C21.2132 10.1191 21.2097 10.1232 21.2062 10.1272C21.1673 10.1719 21.1186 10.2248 21.0763 10.271C21.0492 10.3005 21.0247 10.3272 21.0069 10.3471C20.9791 10.3783 20.9592 10.4021 20.946 10.4199C20.9425 10.4246 20.9401 10.4281 20.9384 10.4305C20.9256 10.4636 20.9058 10.4933 20.8804 10.5176C20.5415 10.8415 20.3732 11.1411 20.2527 11.5398C20.1237 11.9665 20.0739 12.7356 20.1867 13.6422C20.2988 14.543 20.5685 15.5529 21.0556 16.4593C21.122 16.5829 21.0799 16.7351 20.9615 16.7991C20.8431 16.8632 20.6933 16.8149 20.6269 16.6913C20.1027 15.7156 19.8175 14.6402 19.6992 13.6896C19.5816 12.7446 19.6256 11.8961 19.7828 11.376C19.9225 10.9138 20.1256 10.5481 20.5062 10.1752C20.522 10.1465 20.5389 10.1228 20.5514 10.106C20.5774 10.0709 20.6086 10.0345 20.639 10.0004C20.6699 9.96568 20.6977 9.93555 20.7252 9.90583C20.7604 9.86763 20.7951 9.83011 20.8348 9.78444C20.9003 9.70932 20.947 9.64767 20.9715 9.60143C20.9726 9.59941 20.9736 9.5975 20.9745 9.5957C20.9484 9.49361 20.9862 9.38417 21.0749 9.32595Z" />
<path fill-rule="evenodd" clip-rule="evenodd" d="M22.4258 2.48894C22.5608 2.51078 22.6549 2.63931 22.6361 2.77602L21.6945 9.62866C21.6758 9.76537 21.5511 9.85849 21.4162 9.83665C21.2812 9.81481 21.187 9.68628 21.2058 9.54957L22.1474 2.69693C22.1662 2.56022 22.2908 2.4671 22.4258 2.48894Z" />
<path fill-rule="evenodd" clip-rule="evenodd" d="M23.338 22.4302C23.4326 22.5336 23.4305 22.6933 23.3334 22.7868C23.2842 22.8343 23.2365 22.8911 23.206 22.9456C23.1769 22.9977 23.1771 23.0226 23.1772 23.0256V23.0256C23.2227 23.2504 23.3931 23.4117 23.6056 23.4395C23.7518 23.4416 23.8642 23.3465 23.8938 23.248C23.9333 23.1162 24.0705 23.0463 24.2001 23.0918C24.3298 23.1374 24.4029 23.2812 24.3634 23.413C24.2661 23.7375 23.9484 23.9578 23.5965 23.9439C23.5907 23.9437 23.5849 23.9432 23.5791 23.9426C23.1404 23.8932 22.787 23.5573 22.6966 23.111C22.6619 22.9397 22.7195 22.7868 22.7781 22.682C22.839 22.5729 22.921 22.4796 22.9908 22.4123C23.0879 22.3188 23.2433 22.3268 23.338 22.4302Z" />
<path fill-rule="evenodd" clip-rule="evenodd" d="M26.9348 34.8398L27.6157 35.9169C27.7647 36.1759 27.7807 36.4649 27.6415 36.7101C27.508 36.9455 27.2548 37.1002 26.9442 37.1687L26.9393 37.1697C25.9262 37.3707 23.7054 37.4441 20.4137 36.991L20.4066 36.99C16.9676 36.4128 15.4981 35.6758 14.5414 35.1904L14.5389 35.1891C14.2666 35.0471 14.0681 34.8101 13.9796 34.5509C13.892 34.2946 13.9087 33.9971 14.0991 33.7721L15.3985 31.9566L15.7985 32.2617L14.486 34.0956L14.4781 34.1045C14.4213 34.1693 14.4002 34.2705 14.4436 34.3975C14.4871 34.5249 14.5922 34.6583 14.7508 34.7414C15.6709 35.2083 17.092 35.9256 20.4686 36.4926C23.7318 36.9415 25.89 36.8616 26.8294 36.6759C27.0533 36.6261 27.1679 36.5293 27.2141 36.4479C27.2544 36.3769 27.2622 36.2849 27.1958 36.1671L26.5239 35.1043L26.9348 34.8398Z" />
<path fill-rule="evenodd" clip-rule="evenodd" d="M40.888 38.8298C41.0238 38.8303 41.1369 38.9434 41.1406 39.0825L41.1879 40.8513C41.2 41.3863 40.8032 41.7419 40.3409 41.9758C39.8671 42.2157 39.2368 42.3755 38.5966 42.4857C37.5252 42.6701 36.3663 42.7242 35.7479 42.753C35.6259 42.7587 35.5249 42.7634 35.4498 42.7679C30.9294 43.0348 26.3109 42.808 21.7256 42.5132C16.8952 42.2088 11.9735 41.8776 7.14115 40.9665L7.13986 40.9663C6.97456 40.9342 6.7974 40.9022 6.61198 40.8687C5.97592 40.754 5.24271 40.6217 4.5579 40.4068C3.67449 40.1297 2.81033 39.6984 2.30253 38.9309C2.29946 38.9263 2.29654 38.9216 2.29377 38.9168L2.29172 38.9132C2.26477 38.8663 2.21503 38.7797 2.17858 38.683C2.14743 38.6003 2.11006 38.4703 2.1367 38.3345L2.12331 36.7618C2.12213 36.6228 2.23127 36.5126 2.36709 36.5156C2.50291 36.5187 2.61398 36.6339 2.61516 36.773L2.62881 38.3767C2.62901 38.4007 2.62587 38.4245 2.61949 38.4473C2.61949 38.4473 2.61971 38.4515 2.62022 38.4552C2.62199 38.4685 2.62689 38.4881 2.63677 38.5144C2.65613 38.5657 2.68463 38.6171 2.71158 38.6642C3.11986 39.276 3.84156 39.6599 4.68864 39.9257C5.3407 40.1302 6.031 40.2549 6.66277 40.369C6.85353 40.4035 7.03895 40.437 7.21637 40.4714C12.0148 41.376 16.9078 41.706 21.741 42.0105C26.3246 42.3052 30.9176 42.5302 35.4061 42.2652C35.4872 42.2603 35.5935 42.2553 35.7203 42.2493C36.3441 42.2201 37.4628 42.1676 38.5006 41.989C39.1264 41.8813 39.7015 41.7308 40.1122 41.523C40.5344 41.3093 40.7013 41.0799 40.6962 40.8476V40.8476L40.6489 39.0808C40.6452 38.9417 40.7522 38.8293 40.888 38.8298Z" />
<path fill-rule="evenodd" clip-rule="evenodd" d="M26.1722 34.7225C26.1473 34.8579 26.0183 34.9459 25.884 34.9191C25.3358 34.8099 24.5587 34.6248 23.9489 34.4216C23.8187 34.3783 23.7467 34.2369 23.788 34.1059C23.8294 33.9749 23.9684 33.9039 24.0986 33.9473C24.6816 34.1416 25.437 34.3219 25.974 34.4289C26.1083 34.4557 26.197 34.5871 26.1722 34.7225Z" />
<path fill-rule="evenodd" clip-rule="evenodd" d="M22.635 34.3161C21.7727 34.0095 20.9086 33.7024 20.0529 33.4628C18.7696 33.1035 17.4705 32.8115 16.1333 32.6507L16.1273 32.65C15.1839 32.5132 14.2303 32.4103 13.2658 32.3063C13.0645 32.2846 12.8628 32.2628 12.6606 32.2407C11.4917 32.1128 10.3096 31.9728 9.12781 31.7594L9.12512 31.7589C8.9004 31.7157 8.66595 31.6766 8.42353 31.6362C8.39668 31.6317 8.36974 31.6272 8.3427 31.6227C8.07285 31.5776 7.79465 31.5304 7.5182 31.4745C6.9692 31.3636 6.41333 31.2163 5.9209 30.974C4.99993 30.5764 4.71624 29.7139 4.60014 28.9956C4.57803 28.8588 4.6692 28.7316 4.80378 28.7115C4.93835 28.6914 5.06537 28.786 5.08747 28.9228C5.19636 29.5966 5.43585 30.2263 6.1127 30.516L6.12523 30.5213C6.56151 30.7369 7.07023 30.8751 7.60675 30.9835C7.87418 31.0376 8.14503 31.0836 8.4149 31.1287C8.44193 31.1332 8.46897 31.1377 8.496 31.1422C8.73694 31.1824 8.97709 31.2225 9.20771 31.2667C10.3711 31.4768 11.5383 31.6152 12.7053 31.7429C12.9058 31.7648 13.1064 31.7865 13.3069 31.8081C14.2707 31.912 15.2339 32.0159 16.1861 32.1538C17.5546 32.3186 18.8784 32.6168 20.1768 32.9803C21.0483 33.2243 21.9415 33.5417 22.8137 33.8517C23.241 34.0036 23.6633 34.1537 24.0755 34.2925C24.2056 34.3363 24.2778 34.4781 24.2368 34.6092C24.1958 34.7404 24.0571 34.8112 23.9271 34.7674C23.4976 34.6228 23.0665 34.4695 22.635 34.3161Z" />
<path fill-rule="evenodd" clip-rule="evenodd" d="M39.8193 34.1022C39.8628 34.2353 39.7938 34.376 39.6651 34.4164C39.1855 34.567 38.7295 34.6453 38.2049 34.696C37.5816 34.7897 36.9809 34.8135 36.3946 34.8367L36.3871 34.837C35.7979 34.8604 35.2033 34.884 34.5329 34.8813C34.2292 34.8931 33.9137 34.8808 33.6093 34.8689L33.6044 34.8687C33.3092 34.8572 33.0245 34.8462 32.7531 34.8547L32.6017 34.9218C32.5719 34.9351 32.5396 34.9419 32.5067 34.9421C30.3338 34.9504 28.065 34.9329 25.897 34.5661C25.7624 34.5433 25.6679 34.4136 25.6859 34.2764C25.704 34.1391 25.8277 34.0464 25.9623 34.0691C28.0679 34.4254 30.2804 34.4463 32.4397 34.4385L32.5875 34.373C32.6147 34.3609 32.644 34.3541 32.6739 34.3529C32.9792 34.3408 33.2966 34.3532 33.6028 34.3652L33.6077 34.3654C33.9191 34.3775 34.219 34.3891 34.5038 34.3778L34.5143 34.3774C35.1756 34.3801 35.7625 34.3571 36.3546 34.3336C36.9481 34.3101 37.527 34.2869 38.1247 34.1967L38.1374 34.1948C38.6425 34.1461 39.0661 34.073 39.5077 33.9343C39.6363 33.8939 39.7759 33.9691 39.8193 34.1022Z" />
<path fill-rule="evenodd" clip-rule="evenodd" d="M30.1169 37.4117L30.3544 37.4948L32.1935 38.6822C32.2727 38.722 32.3266 38.7914 32.3519 38.8664C32.3782 38.9442 32.3721 39.0193 32.3548 39.0768C32.3375 39.1343 32.3014 39.199 32.2378 39.2453C32.184 39.2845 32.1149 39.3062 32.0409 39.299C30.6538 39.4324 28.9462 39.5291 26.9388 39.5207L26.7943 39.5201L26.7203 39.39L26.9313 39.2684C26.7203 39.39 26.7203 39.39 26.7203 39.39L26.7198 39.3891L26.7192 39.388L26.7177 39.3853L26.7138 39.378C26.7108 39.3724 26.7071 39.3651 26.703 39.3565C26.6949 39.3394 26.6843 39.3153 26.6746 39.2866C26.6591 39.2406 26.6282 39.1336 26.6625 39.0197L26.6741 38.9813L27.5615 37.7276V37.7276C27.573 37.7053 27.5927 37.6733 27.6242 37.6431C27.6569 37.6117 27.7036 37.5811 27.765 37.5675C27.8077 37.5579 27.8502 37.5583 27.8907 37.5658C28.72 37.5514 29.4648 37.5109 30.058 37.4207L30.1169 37.4117ZM27.2664 39.0166C28.8997 39.0137 30.3235 38.9409 31.5261 38.8378L30.1543 37.9521L30.0876 37.9287C29.4789 38.0167 28.7382 38.0555 27.9366 38.0698L27.2664 39.0166Z" />
<path fill-rule="evenodd" clip-rule="evenodd" d="M26.3824 38.106C26.4271 38.1847 26.4513 38.3003 26.418 38.4109L26.404 38.4575L25.4566 39.621C25.4447 39.6424 25.4264 39.6697 25.3992 39.696C25.3665 39.7273 25.3199 39.758 25.2584 39.7717C25.2136 39.7817 25.1691 39.7809 25.1269 39.7723C23.9548 39.749 22.6346 39.673 21.2423 39.571L21.2101 39.5687L21.1793 39.5579C21.0725 39.5205 20.9943 39.4408 20.9485 39.36C20.9037 39.2812 20.8695 39.1643 20.906 39.043L20.9234 38.9849L21.9091 37.9869C21.9208 37.968 21.9369 37.9463 21.9588 37.9252C21.9914 37.8939 22.0381 37.8632 22.0996 37.8495C22.1472 37.8389 22.1946 37.8405 22.2392 37.8507C23.5892 37.9488 24.9582 37.9816 26.0316 37.9795C26.0647 37.9633 26.1041 37.9533 26.1492 37.955C26.2301 37.9582 26.2879 37.9983 26.318 38.0253C26.3492 38.0533 26.3697 38.0836 26.3824 38.106ZM25.0932 39.2672L25.731 38.4838C24.7124 38.4794 23.4786 38.4444 22.2562 38.3566L21.5343 39.0875C22.811 39.1784 24.0166 39.2451 25.0932 39.2672Z" />
<path fill-rule="evenodd" clip-rule="evenodd" d="M21.0349 38.2912C21.0342 38.2935 21.0331 38.297 21.0331 38.297L21.0172 38.3497L20.0068 39.4672C20.003 39.4768 19.9987 39.4869 19.9939 39.4968C19.9774 39.5311 19.9367 39.6029 19.8497 39.6417C19.7539 39.6845 19.6619 39.6621 19.6019 39.6341C19.5729 39.6206 19.5458 39.6035 19.5208 39.5849L15.635 38.99L15.6135 38.9825C15.5587 38.9634 15.4977 38.9277 15.4511 38.8644C15.4044 38.8011 15.3896 38.7339 15.3868 38.6825C15.3826 38.6049 15.4063 38.5288 15.4148 38.5016C15.4156 38.4993 15.4166 38.4958 15.4166 38.4958L15.4352 38.4343L16.7653 37.1599L16.8534 37.1906C16.8687 37.1854 16.8873 37.18 16.9077 37.1765C16.9554 37.1682 17.0053 37.1705 17.0562 37.185C18.0805 37.389 19.4234 37.6283 20.7857 37.7984L20.8115 37.8016L20.8362 37.8103C20.891 37.8294 20.952 37.8651 20.9987 37.9284C21.0453 37.9917 21.0601 38.0589 21.0629 38.1102C21.0671 38.1879 21.0434 38.264 21.0349 38.2912ZM20.4189 38.2573C19.1609 38.0902 17.9415 37.8716 16.9929 37.6828C16.9773 37.6886 16.9571 37.6951 16.9346 37.6994L16.0507 38.5462L19.6583 39.0985L20.4189 38.2573Z" />
<path fill-rule="evenodd" clip-rule="evenodd" d="M11.6802 35.8318C11.6827 35.8327 11.685 35.8335 11.6869 35.8341L11.6958 35.8372L11.7043 35.8409C12.584 36.2223 13.8358 36.7329 15.6003 37.1945L15.6097 37.197L15.6189 37.2002C15.6734 37.2191 15.7343 37.2544 15.7809 37.3173C15.8275 37.3802 15.8424 37.4472 15.8452 37.4986C15.8495 37.5761 15.8256 37.6521 15.8172 37.679C15.8165 37.6812 15.8154 37.6847 15.8154 37.6847L15.7951 37.7516L14.5225 38.8643C14.486 38.9157 14.4396 38.9463 14.4087 38.9628C14.359 38.9895 14.3067 39.0033 14.2639 39.0106C14.1899 39.0234 14.0924 39.0254 14.0067 39.0002C12.2856 38.6308 10.4808 38.2334 9.3192 37.9066L9.31203 37.9046L9.30497 37.9022C9.20842 37.8686 9.1267 37.7965 9.08216 37.7188C9.06992 37.6974 9.05271 37.6623 9.04477 37.6172C9.03704 37.5734 9.03349 37.4874 9.09319 37.4093C9.13708 37.3519 9.19307 37.3275 9.23858 37.3178L11.2563 35.9098C11.2771 35.8817 11.3037 35.8564 11.3369 35.8361C11.4013 35.7968 11.4665 35.7916 11.5097 35.7932C11.579 35.796 11.6496 35.8209 11.6802 35.8318ZM11.5575 36.3181C12.3986 36.682 13.5745 37.16 15.1958 37.603L14.152 38.5155C14.1457 38.516 14.1393 38.5161 14.1333 38.5159C14.1301 38.5158 14.1262 38.5154 14.1262 38.5154L14.1186 38.5128L14.1038 38.5096C12.5606 38.1784 10.9651 37.8279 9.82505 37.5271L11.5575 36.3181Z" />
<path fill-rule="evenodd" clip-rule="evenodd" d="M21.6697 21.2064C21.7278 21.3345 21.6755 21.483 21.553 21.538C21.4348 21.5911 21.3697 21.6873 21.3688 21.7975C21.419 22.007 21.5788 22.1576 21.7779 22.1904C21.8882 22.1735 22.0107 22.1138 22.1011 21.9942C22.1828 21.8861 22.3367 21.8699 22.4449 21.9581C22.5531 22.0462 22.5745 22.2053 22.4928 22.3134C22.3088 22.5568 22.051 22.6735 21.8176 22.6962C21.8011 22.6978 21.7844 22.6977 21.7678 22.6958C21.3283 22.6464 20.9744 22.3097 20.8839 21.8625C20.8814 21.85 20.8797 21.8373 20.8791 21.8245C20.8595 21.4622 21.0752 21.194 21.3428 21.0739C21.4653 21.0189 21.6116 21.0782 21.6697 21.2064Z" />
<path fill-rule="evenodd" clip-rule="evenodd" d="M28.209 24.6674C28.3445 24.6763 28.4514 24.7962 28.4477 24.9353C28.4353 25.3953 28.0793 25.6982 27.641 25.7408C27.6245 25.7424 27.6078 25.7423 27.5912 25.7405C27.154 25.6914 26.8016 25.3572 26.7114 24.9128C26.6835 24.7755 26.7685 24.6449 26.9012 24.6212C27.0339 24.5975 27.1641 24.6896 27.192 24.827C27.2361 25.0444 27.3985 25.2022 27.6027 25.2353C27.8419 25.203 27.9527 25.0548 27.9568 24.9032C27.9605 24.7641 28.0734 24.6585 28.209 24.6674Z" />
<path fill-rule="evenodd" clip-rule="evenodd" d="M30.3878 25.2933C30.5234 25.3022 30.6302 25.4222 30.6265 25.5613C30.6141 26.0212 30.2582 26.3242 29.8198 26.3668C29.8033 26.3684 29.7867 26.3682 29.7701 26.3664C29.3328 26.3173 28.9805 25.9831 28.8903 25.5387C28.8818 25.4968 28.8836 25.4537 28.8957 25.4135L28.9802 25.1322C29.0198 25.0005 29.1571 24.9301 29.2868 24.9756C29.4165 25.0211 29.4896 25.1648 29.45 25.2965L29.3858 25.5104C29.4448 25.6978 29.5959 25.8311 29.7816 25.8613C30.0207 25.8289 30.1315 25.6807 30.1356 25.5291C30.1394 25.39 30.2523 25.2844 30.3878 25.2933Z" />
<path fill-rule="evenodd" clip-rule="evenodd" d="M32.6151 25.7705C32.7507 25.7794 32.8575 25.8994 32.8538 26.0385C32.8414 26.4985 32.4855 26.8014 32.0471 26.844C32.0306 26.8456 32.014 26.8455 31.9974 26.8436C31.5601 26.7945 31.2078 26.4603 31.1176 26.016C31.0897 25.8786 31.1747 25.748 31.3074 25.7243C31.4401 25.7006 31.5703 25.7928 31.5982 25.9301C31.6423 26.1476 31.8046 26.3053 32.0089 26.3385C32.248 26.3062 32.3588 26.1579 32.3629 26.0063C32.3667 25.8672 32.4796 25.7617 32.6151 25.7705Z" />
<path fill-rule="evenodd" clip-rule="evenodd" d="M21.7023 16.5742L19.1467 17.6013L19.3441 18.1327L21.9729 17.4357L21.7037 16.5745L21.7023 16.5742ZM21.8518 16.0987C21.9503 16.1334 22.0617 16.205 22.1291 16.3241C22.1384 16.3405 22.146 16.3579 22.1516 16.3759L22.4492 17.328C22.5035 17.4443 22.5067 17.5828 22.4459 17.7015C22.38 17.8302 22.2563 17.9051 22.1138 17.9247L19.5149 18.6137C19.4768 18.6422 19.434 18.6588 19.3948 18.6661C19.3213 18.6798 19.2532 18.6647 19.2056 18.648C19.1115 18.6149 19.003 18.5411 18.9378 18.426C18.9308 18.4137 18.9249 18.4008 18.9199 18.3875L18.6902 17.7692C18.6328 17.6526 18.6332 17.5267 18.6634 17.4259C18.6956 17.3184 18.7706 17.2094 18.8934 17.1542L18.9018 17.1504L21.5103 16.1023C21.6279 16.0515 21.7547 16.0646 21.8518 16.0987Z" />
<path fill-rule="evenodd" clip-rule="evenodd" d="M23.0036 19.9045L21.5753 21.4712L22.0168 21.8884L23.6075 20.5937L23.0036 19.9045ZM23.3236 19.5295C23.2886 19.4776 23.2407 19.4317 23.1784 19.4015C23.1074 19.3672 23.039 19.3636 22.987 19.3687C22.9028 19.3769 22.821 19.414 22.7792 19.4329C22.7761 19.4344 22.7732 19.4357 22.7705 19.4369C22.7414 19.4499 22.7153 19.4689 22.6937 19.4926L21.182 21.1508C21.1377 21.1804 21.0961 21.2228 21.0688 21.2827C21.0319 21.3635 21.0363 21.4428 21.0474 21.4977C21.0649 21.5842 21.1132 21.6685 21.1365 21.7091C21.1383 21.7124 21.1401 21.7154 21.1416 21.718C21.1546 21.7411 21.171 21.762 21.1902 21.7801L21.7046 22.2662C21.8015 22.3965 21.9506 22.4265 22.0417 22.425C22.0978 22.4241 22.1589 22.4123 22.2153 22.3843C22.2502 22.367 22.2964 22.3364 22.3329 22.2867L23.9865 20.9408C24.0376 20.9112 24.0873 20.8655 24.1184 20.7974C24.1553 20.7165 24.1509 20.6372 24.1397 20.5824C24.1222 20.4959 24.074 20.4116 24.0507 20.371C24.0488 20.3677 24.0471 20.3647 24.0456 20.362C24.0367 20.3462 24.0261 20.3314 24.0142 20.3178L23.3236 19.5295Z" />
<path fill-rule="evenodd" clip-rule="evenodd" d="M24.2695 21.1273L23.2529 22.8827L23.7196 23.246C23.736 23.2345 23.7571 23.2175 23.7829 23.1929L25.0978 21.7823L24.2695 21.1273ZM24.1508 20.631C24.2319 20.6169 24.3404 20.6156 24.4319 20.6477C24.4583 20.657 24.4831 20.6707 24.5054 20.6883L25.3905 21.3883C25.4521 21.423 25.4934 21.4724 25.5187 21.5108C25.5517 21.5608 25.5724 21.6141 25.5853 21.6596C25.6083 21.7405 25.6231 21.8564 25.5929 21.957C25.5821 21.993 25.5635 22.0257 25.5383 22.0527L24.13 23.5635C24.0592 23.6317 23.9815 23.6916 23.8977 23.7292C23.8123 23.7675 23.7032 23.7893 23.5878 23.7487C23.562 23.7397 23.5377 23.7264 23.5159 23.7094L22.9774 23.2902C22.9152 23.2554 22.8735 23.2056 22.848 23.167C22.815 23.117 22.7943 23.0637 22.7814 23.0182C22.7584 22.9373 22.7436 22.8214 22.7738 22.7208C22.7793 22.7024 22.7869 22.6847 22.7965 22.6682L23.862 20.8283C23.8989 20.7465 23.9636 20.7018 24.0038 20.68C24.054 20.6528 24.1071 20.6386 24.1508 20.631Z" />
<path fill-rule="evenodd" clip-rule="evenodd" d="M25.8999 22.4543L25.3643 23.9811L25.8521 24.2169L26.7845 22.8358L25.8999 22.4543ZM25.7128 21.9564C25.8193 21.9263 25.9355 21.9389 26.0468 21.978C26.0523 21.9799 26.0577 21.982 26.063 21.9843L27.0513 22.4106C27.1539 22.4498 27.2294 22.528 27.2743 22.6072C27.3196 22.6871 27.3539 22.805 27.3173 22.9271C27.3101 22.9509 27.2995 22.9734 27.2858 22.9937L26.2117 24.5847C26.1683 24.6793 26.0838 24.7534 25.9784 24.7769C25.913 24.7915 25.8378 24.7865 25.7652 24.7508C25.7259 24.7314 25.6924 24.7056 25.6644 24.6761L25.1244 24.4151C25.0249 24.3751 24.9516 24.2985 24.9076 24.221C24.8623 24.1411 24.828 24.0231 24.8646 23.901L24.8679 23.8901L25.4648 22.1892C25.5054 22.0631 25.6064 21.9865 25.7128 21.9564Z" />
<path fill-rule="evenodd" clip-rule="evenodd" d="M28.6526 22.9288C28.6582 22.9303 28.6637 22.9321 28.6692 22.934C28.7607 22.9661 28.8479 23.0361 28.906 23.0992C28.9373 23.1332 28.9726 23.1784 28.9986 23.2323C29.0222 23.2817 29.0556 23.3756 29.0238 23.4818L29.0205 23.4928L28.4214 25.1991C28.4088 25.235 28.3882 25.2672 28.3613 25.2931C28.2903 25.3614 28.2127 25.4216 28.1288 25.4592C28.0433 25.4975 27.934 25.5193 27.8186 25.4788L27.1143 25.2316C27.0064 25.1938 26.9274 25.1131 26.881 25.0313C26.8383 24.956 26.8053 24.8469 26.8323 24.7323L27.1163 22.9282C27.118 22.9169 27.1206 22.9058 27.1238 22.8949C27.1605 22.7728 27.2524 22.6991 27.3325 22.6632C27.4119 22.6276 27.5155 22.6123 27.6199 22.6458L28.6526 22.9288ZM28.521 23.4104L27.5812 23.1528L27.3254 24.7782L27.929 24.9901C27.9408 24.9835 27.9576 24.9723 27.9792 24.9543L28.521 23.4104Z" />
<path fill-rule="evenodd" clip-rule="evenodd" d="M30.8319 23.5543C30.8375 23.5558 30.843 23.5575 30.8484 23.5595C30.9399 23.5916 31.0271 23.6616 31.0851 23.7246C31.1164 23.7586 31.1517 23.8038 31.1776 23.8577C31.2013 23.9071 31.2347 24.001 31.2028 24.1072L31.1994 24.1186L30.6244 25.7464C30.5891 25.8595 30.5186 25.9734 30.3891 26.0314C30.2626 26.0881 30.1295 26.0687 30.0204 26.0304L29.317 25.7834C29.2091 25.7456 29.1301 25.6649 29.0837 25.5831C29.0412 25.508 29.0083 25.3993 29.0349 25.2852L29.2968 23.5553C29.2986 23.5435 29.3012 23.5319 29.3046 23.5206C29.3413 23.3985 29.4331 23.3248 29.5131 23.2889C29.5925 23.2533 29.696 23.238 29.8004 23.2715L30.8319 23.5543ZM30.6998 24.0358L29.7627 23.7789L29.5278 25.33L30.1637 25.5532V25.5532L30.6998 24.0358Z" />
<path fill-rule="evenodd" clip-rule="evenodd" d="M33.0857 24.2035C33.0912 24.205 33.0968 24.2067 33.1022 24.2086C33.1937 24.2408 33.2807 24.3108 33.3386 24.3737C33.3699 24.4077 33.4051 24.4528 33.431 24.5068C33.4546 24.5561 33.488 24.65 33.4561 24.756C33.4526 24.7679 33.4482 24.7794 33.4429 24.7905L32.7393 26.2816C32.6987 26.3902 32.6135 26.457 32.5386 26.4906C32.4568 26.5273 32.3491 26.5424 32.2413 26.5046L31.5396 26.2581C31.4318 26.2202 31.3529 26.1395 31.3066 26.0578C31.2633 25.9814 31.2301 25.8703 31.2593 25.7541L31.5554 24.1954C31.557 24.1868 31.5591 24.1784 31.5616 24.1701C31.5982 24.0481 31.6898 23.9745 31.7698 23.9386C31.849 23.903 31.9525 23.8877 32.0568 23.9212L33.0857 24.2035ZM32.9408 24.6815L32.015 24.4275L31.7532 25.8056L32.3169 26.0036L32.9408 24.6815Z" />
<path fill-rule="evenodd" clip-rule="evenodd" d="M41.1131 38.8695C41.1846 38.9897 41.1488 39.1436 41.0332 39.2133C40.4459 39.5674 39.4922 39.8473 38.2901 40.0669C37.0804 40.2878 35.5929 40.4519 33.919 40.5612C30.5706 40.7798 26.4602 40.78 22.3017 40.5712C18.1432 40.3623 13.9306 39.9441 10.378 39.3241C8.60186 39.0141 6.98705 38.6531 5.62472 38.2413C4.26601 37.8306 3.14306 37.3649 2.36077 36.8391C2.24573 36.7618 2.21114 36.6055 2.28351 36.49C2.35588 36.3746 2.50781 36.3437 2.62285 36.421C3.34335 36.9053 4.41077 37.3537 5.75176 37.7591C7.08913 38.1634 8.68335 38.5203 10.4473 38.8282C13.975 39.4438 18.167 39.8604 22.3118 40.0686C26.4564 40.2768 30.5477 40.2762 33.8736 40.059C35.5369 39.9504 37.0047 39.788 38.1902 39.5715C39.3833 39.3536 40.2648 39.0852 40.7743 38.778C40.8899 38.7083 41.0416 38.7493 41.1131 38.8695Z" />
<path fill-rule="evenodd" clip-rule="evenodd" d="M23.502 20.6693C23.603 20.5798 23.7584 20.5938 23.849 20.7005C23.9371 20.8041 23.9576 20.8208 23.9815 20.84C23.9875 20.8448 23.994 20.85 24.0011 20.8555C24.0417 20.8876 24.1024 20.9355 24.221 21.0466C24.3229 21.142 24.3328 21.3016 24.2432 21.403C24.1536 21.5044 23.9983 21.5092 23.8964 21.4137C23.7937 21.3175 23.7463 21.2801 23.7079 21.2498C23.7006 21.244 23.6935 21.2384 23.6865 21.2328C23.6259 21.1841 23.581 21.1394 23.4834 21.0245C23.3927 20.9178 23.4011 20.7587 23.502 20.6693Z" />
<path fill-rule="evenodd" clip-rule="evenodd" d="M22.4119 19.0432C22.5285 18.9765 22.6791 19.0218 22.7483 19.1443C22.7937 19.2247 22.8439 19.2916 22.9054 19.3731L22.9086 19.3773C22.9676 19.4554 23.0373 19.5476 23.1014 19.6611C23.1706 19.7836 23.1322 19.9369 23.0156 20.0036C22.899 20.0702 22.7484 20.0249 22.6792 19.9024C22.6339 19.8221 22.5837 19.7551 22.5221 19.6737L22.5189 19.6695C22.4599 19.5914 22.3902 19.4992 22.3261 19.3856C22.2569 19.2631 22.2954 19.1098 22.4119 19.0432Z" />
<path fill-rule="evenodd" clip-rule="evenodd" d="M5.90572 19.4474C6.03539 19.493 6.10851 19.6368 6.06903 19.7687L6.06866 19.77L6.06755 19.774L6.06393 19.7881C6.06097 19.7999 6.05725 19.8152 6.05277 19.8342C6.04382 19.8722 6.03234 19.9225 6.01861 19.9838C5.99118 20.1063 5.95533 20.2704 5.91383 20.4623C5.83085 20.8461 5.72574 21.3395 5.6212 21.831C5.60009 21.9303 5.57901 22.0294 5.55814 22.1276C5.47568 22.5155 5.39653 22.8878 5.33233 23.1875C5.25405 23.553 5.1938 23.831 5.17929 23.8794L5.06465 24.2622C5.15558 25.3672 5.50146 26.6508 6.27663 27.4254L6.27755 27.4263C6.97115 28.1263 7.80675 28.6521 8.68101 29.116C9.63827 29.6101 10.825 30.1847 11.8003 30.6062C11.9269 30.6609 11.9903 30.8093 11.9419 30.9376C11.8934 31.0659 11.7515 31.1255 11.6249 31.0708C10.6358 30.6433 9.43766 30.063 8.47302 29.5651L8.47048 29.5638C7.57767 29.0901 6.68904 28.5355 5.94105 27.7807C5.0196 26.8596 4.65942 25.3928 4.5714 24.2359C4.569 24.2043 4.57236 24.1728 4.58129 24.143L4.70946 23.7151L4.71002 23.7129C4.71108 23.7087 4.71475 23.6938 4.72183 23.6629C4.72968 23.6286 4.74013 23.5816 4.75289 23.5235C4.77837 23.4075 4.8126 23.2488 4.85278 23.0612C4.91689 22.7619 4.99593 22.3901 5.07838 22.0023C5.09926 21.9041 5.12036 21.8048 5.14149 21.7055C5.24601 21.214 5.3513 20.7198 5.43448 20.3351C5.51578 19.959 5.57972 19.6693 5.59945 19.6035C5.63893 19.4717 5.77605 19.4018 5.90572 19.4474Z" />
<path fill-rule="evenodd" clip-rule="evenodd" d="M13.8766 13.6212C14.0108 13.6058 14.1356 13.7055 14.1552 13.844L15.123 20.675C15.1765 21.2486 15.508 21.9223 15.9889 22.2948L15.9956 22.2999C16.788 22.956 17.0587 23.1246 17.9767 23.6751L17.9803 23.6773C18.7349 24.1468 19.7756 24.5919 20.6927 24.984C20.7814 25.022 20.8689 25.0594 20.9548 25.0963L20.9626 25.0996C25.3973 27.1827 29.9446 28.0902 34.6543 28.8156C34.7437 28.796 34.8294 28.8066 34.8861 28.8172C34.9641 28.8318 35.0357 28.8568 35.0734 28.87L35.0765 28.8711C35.118 28.8856 35.1473 28.9079 35.1578 28.9161C35.1721 28.9273 35.1842 28.9386 35.1931 28.9473C35.211 28.9649 35.229 28.9852 35.2455 29.0047C35.2792 29.0446 35.3205 29.0977 35.3668 29.1598C35.4601 29.2848 35.5833 29.4585 35.7254 29.6644C36.0102 30.0769 36.3765 30.626 36.7432 31.1891C37.1098 31.7522 37.4778 32.331 37.7658 32.8028C37.9097 33.0385 38.0346 33.2491 38.1296 33.4185C38.2201 33.5797 38.2957 33.7244 38.3271 33.8174C38.3307 33.8278 38.3335 33.8385 38.3357 33.8493C38.3529 33.9333 38.3705 34.05 38.3399 34.1517C38.3216 34.2124 38.2776 34.2937 38.1832 34.3358C38.1233 34.3625 38.0654 34.3633 38.0188 34.3556C36.9491 34.4047 35.8454 34.3956 34.7787 34.3867C34.4891 34.3843 34.2022 34.3819 33.9195 34.3807L33.9184 34.3807L33.9105 34.3808C31.7318 34.389 29.5287 34.3974 27.2757 33.9999L27.268 33.9985C26.7096 33.8814 25.9179 33.6833 25.2965 33.4662L24.4547 33.1722C21.9769 32.2297 19.4716 31.4321 16.8262 31.1186L16.8151 31.1173C15.414 30.8854 14.0519 30.7207 12.6452 30.5508C12.3731 30.518 12.0993 30.4849 11.8232 30.4511C11.7358 30.4414 11.6496 30.4318 11.5643 30.4223C10.0675 30.2559 8.86946 30.1228 7.31765 29.6548L7.3074 29.6517L7.29924 29.6486C6.80959 29.4776 6.10767 29.2324 5.50646 28.8825C4.9141 28.5377 4.33989 28.0457 4.24124 27.3494C4.23666 27.3171 4.23819 27.2845 4.24568 27.2533C4.24577 27.2512 4.24585 27.2483 4.24587 27.2444C4.24594 27.2269 4.24486 27.2054 4.24316 27.1741L4.24299 27.1709C4.24151 27.1437 4.23955 27.1076 4.2397 27.0734C4.23979 27.0516 4.24057 27.0188 4.24646 26.9828L4.20309 24.3728C4.20265 24.3464 4.20627 24.3202 4.21381 24.2951L4.27671 24.0865C4.27935 24.0778 4.2827 24.0684 4.28627 24.06L4.57269 23.3885C4.6264 23.2626 4.77095 23.2087 4.89554 23.2682C5.02014 23.3277 5.0776 23.4781 5.02388 23.604L4.74283 24.2629L4.69511 24.4212L4.73821 27.0202C4.73857 27.0418 4.73621 27.0633 4.73122 27.0841C4.73113 27.0862 4.73105 27.0891 4.73103 27.093C4.73096 27.1105 4.73204 27.132 4.73374 27.1633L4.73391 27.1665C4.73539 27.1937 4.73735 27.2298 4.7372 27.264C4.73713 27.2811 4.73664 27.3048 4.7336 27.3316C4.81183 27.7558 5.18583 28.1247 5.73753 28.4458C6.2915 28.7682 6.9495 28.9993 7.44621 29.1728C8.95161 29.6263 10.1087 29.7549 11.6091 29.9218C11.692 29.931 11.7759 29.9404 11.8611 29.9499L11.8636 29.9502C12.1384 29.9838 12.4115 30.0168 12.6834 30.0496C14.0883 30.2192 15.4609 30.3849 16.8715 30.6182C19.572 30.939 22.1184 31.7517 24.6081 32.6986L25.4403 32.9893C26.0327 33.1962 26.7998 33.3887 27.3465 33.5035C29.5522 33.8923 31.7147 33.8846 33.9016 33.8763H33.9035C34.1911 33.8775 34.4813 33.8799 34.7731 33.8824C35.7823 33.8907 36.8108 33.8993 37.8137 33.8589C37.7879 33.808 37.7524 33.7415 37.706 33.6588C37.6154 33.4975 37.4943 33.2931 37.352 33.0599C37.0675 32.594 36.7025 32.0198 36.3375 31.4593C35.9726 30.8988 35.6091 30.3539 35.3278 29.9466C35.187 29.7426 35.0681 29.575 34.9806 29.4578C34.9382 29.401 34.9052 29.3588 34.8819 29.3309C34.8591 29.3238 34.8363 29.3175 34.814 29.3133C34.7952 29.3098 34.7824 29.3089 34.7749 29.3091M34.7749 29.3091C34.7719 29.3092 34.7713 29.3093 34.7713 29.3093C34.7713 29.3093 34.777 29.3083 34.7841 29.3051M34.7749 29.3091C34.7361 29.3244 34.6935 29.3291 34.6516 29.3227C29.915 28.5946 25.2929 27.6805 20.7749 25.559C20.6893 25.5223 20.6017 25.4849 20.5125 25.4467C19.6046 25.0587 18.528 24.5985 17.7381 24.1074C16.8103 23.5509 16.5151 23.3671 15.6982 22.691C15.0941 22.2212 14.7013 21.4119 14.6342 20.7123L13.669 13.8997C13.6494 13.7612 13.7423 13.6366 13.8766 13.6212" />
<path fill-rule="evenodd" clip-rule="evenodd" d="M8.15481 1.38703C8.38491 1.51923 8.62822 1.76477 8.84086 2.02087C9.0625 2.2878 9.27186 2.59209 9.42513 2.85768L9.43088 2.86764C10.0604 4.07804 10.0394 5.35843 9.75193 6.5628C9.46614 7.76032 8.91011 8.90957 8.43749 9.87529C8.26611 10.2935 8.14342 10.6313 8.0732 11.0312C8.00253 11.4337 7.98308 11.911 8.03411 12.6044C8.04432 12.7431 7.94272 12.8609 7.80718 12.8674C7.67164 12.8739 7.55348 12.7667 7.54327 12.6279C7.4903 11.9081 7.5084 11.3857 7.58863 10.9288C7.66888 10.4718 7.80939 10.0922 7.9858 9.66219C7.98786 9.65719 7.99007 9.65226 7.99244 9.64741C8.46892 8.67386 9.00179 7.56923 9.27352 6.4306C9.54391 5.29761 9.54897 4.15805 9.0001 3.0991C8.86172 2.86004 8.67052 2.58231 8.46935 2.34003C8.26172 2.08995 8.06351 1.90222 7.91593 1.81996C7.9077 1.81538 7.89972 1.81032 7.89202 1.80483C7.76852 1.71673 7.67372 1.66704 7.44882 1.61232C7.45867 1.73184 7.46695 1.87515 7.47405 2.03453C7.49377 2.47728 7.50522 3.06448 7.51314 3.65982C7.51798 4.02377 7.52153 4.39312 7.52481 4.73544C7.5269 4.9527 7.52888 5.15907 7.53102 5.34628C7.53667 5.84066 7.54353 6.1827 7.55386 6.27066C7.55531 6.28301 7.55587 6.29542 7.55553 6.30779C7.52039 7.59216 7.46267 8.96452 7.26311 10.2111C7.18443 10.7025 7.07999 11.1865 6.97822 11.6581C6.9511 11.7838 6.92416 11.9086 6.89795 12.0325C6.77776 12.6005 6.67183 13.1524 6.62324 13.7023C6.65067 13.7599 6.67886 13.827 6.70659 13.8941C6.71917 13.9246 6.7321 13.9562 6.74546 13.9888C6.7795 14.072 6.81639 14.1621 6.85786 14.2587C6.9733 14.5276 7.11423 14.8226 7.28489 15.067C7.3649 15.1816 7.34068 15.3382 7.2308 15.4167C7.12092 15.4953 6.96698 15.4661 6.88697 15.3515C6.685 15.0623 6.52725 14.7276 6.40799 14.4498C6.36464 14.3488 6.32505 14.2521 6.29053 14.1677C6.2776 14.1362 6.26538 14.1063 6.25394 14.0786C6.20887 13.9695 6.17959 13.9035 6.16076 13.8709C6.13436 13.8252 6.12239 13.7725 6.12651 13.7204C6.17465 13.1115 6.29056 12.5091 6.41671 11.9129C6.44384 11.7847 6.4714 11.657 6.4989 11.5295C6.60027 11.0596 6.70096 10.5928 6.77727 10.1162C6.9702 8.91111 7.02787 7.57496 7.06304 6.2961C7.05006 6.15486 7.04397 5.78809 7.03882 5.33791C7.03666 5.14862 7.03467 4.94149 7.03258 4.72398C7.02931 4.38277 7.02579 4.01601 7.02096 3.65242C7.01304 3.05745 7.00166 2.47723 6.98233 2.04319C6.97262 1.82533 6.96112 1.64936 6.94769 1.5283C6.94225 1.47932 6.93705 1.44455 6.93269 1.42194C6.89869 1.36607 6.88551 1.29757 6.90077 1.23019C6.92962 1.10272 7.05046 1.02237 7.17783 1.04596C7.68593 1.14003 7.89357 1.20301 8.15481 1.38703Z" />
<path fill-rule="evenodd" clip-rule="evenodd" d="M18.3262 11.0794C18.3515 11.1778 18.3181 11.28 18.2411 11.3395L14.7798 14.0123C14.7476 14.0372 14.7095 14.0532 14.669 14.0587L9.40499 14.7765L6.34002 19.385C6.29326 19.4553 6.21378 19.4947 6.12951 19.4892C6.04524 19.4837 5.96797 19.4342 5.92487 19.3581C5.87363 19.2676 5.85242 19.1774 5.85479 19.0892C5.8564 19.0292 5.86938 18.9758 5.87959 18.9399C5.94729 17.8633 6.01645 16.7747 6.18429 15.6407C6.18518 15.6347 6.18627 15.6288 6.18758 15.6229L6.18856 15.6185C6.43307 14.5168 6.67988 13.4048 7.0053 12.3188L7.00932 12.3053C7.11396 11.956 7.18705 11.7121 7.3685 11.424C7.37875 11.4077 7.39087 11.3928 7.40461 11.3795C7.42999 11.3551 7.46285 11.2973 7.52161 11.1826C7.52419 11.1776 7.52687 11.1723 7.52963 11.1669C7.57199 11.0839 7.63478 10.9608 7.71723 10.8745C8.02982 10.4658 8.38838 10.2343 8.80857 10.1152L8.82114 10.1117C9.11979 10.0449 9.49201 10.0102 10.0112 10.0302C10.333 10.0182 10.6588 10.0507 10.9794 10.0938C11.1069 10.1109 11.2311 10.1293 11.3544 10.1475C11.5527 10.1769 11.7488 10.2059 11.9527 10.2288L11.9568 10.2293C12.8458 10.3447 13.7185 10.4136 14.5812 10.4816C14.7534 10.4951 14.9251 10.5087 15.0965 10.5225C16.1235 10.6056 17.1362 10.7006 18.1246 10.8871C18.2216 10.9055 18.3009 10.9811 18.3262 11.0794ZM6.40922 18.3711L9.05526 14.3925C9.09274 14.3362 9.15172 14.2991 9.21832 14.29L14.525 13.5664L17.4784 11.2857C16.6984 11.1658 15.8987 11.0926 15.0763 11.026C14.907 11.0123 14.7366 10.9989 14.5653 10.9854C13.7031 10.9174 12.8169 10.8476 11.9154 10.7306C11.7063 10.707 11.4932 10.6756 11.2878 10.6453C11.1664 10.6274 11.0476 10.6098 10.9339 10.5946C10.6183 10.5522 10.322 10.5239 10.039 10.5352C10.0327 10.5354 10.0264 10.5354 10.02 10.5352C9.53056 10.5158 9.19966 10.5489 8.94898 10.6043C8.62602 10.697 8.35158 10.8726 8.09929 11.2064C8.09183 11.2163 8.08363 11.2256 8.07476 11.2341C8.04938 11.2586 8.01652 11.3163 7.95776 11.431C7.95518 11.4361 7.9525 11.4413 7.94974 11.4467C7.90889 11.5268 7.84905 11.6441 7.7709 11.7298C7.63638 11.9488 7.58006 12.1329 7.47489 12.4839C7.156 13.5481 6.91316 14.6408 6.66833 15.7438C6.53646 16.6375 6.46679 17.504 6.40922 18.3711Z" />
<path fill-rule="evenodd" clip-rule="evenodd" d="M10.2848 2.71836C10.8638 3.50823 11.2067 4.45969 11.3518 5.17515C11.3543 5.18771 11.356 5.20042 11.3567 5.21316L11.3571 5.22189C11.383 5.702 11.4103 6.20758 11.3352 6.76069C11.2947 7.48509 11.1626 8.50957 10.4484 9.7285C10.4142 9.82516 10.357 9.92297 10.3011 10.0158C10.2848 10.0427 10.2679 10.0704 10.2504 10.0992C10.1953 10.1895 10.1336 10.2904 10.0649 10.4134C9.99837 10.5323 9.84867 10.5697 9.73051 10.4969C9.61235 10.4241 9.57046 10.2687 9.63696 10.1498C9.71072 10.0179 9.77897 9.90613 9.83468 9.8149C9.85135 9.78759 9.8669 9.76213 9.88114 9.73852C9.94816 9.62735 9.97784 9.56966 9.98912 9.5321C9.99485 9.51301 10.0028 9.49477 10.0128 9.47779C10.6889 8.33322 10.8083 7.38317 10.8456 6.70339C10.846 6.69636 10.8466 6.68936 10.8476 6.68241C10.9163 6.18406 10.8935 5.72527 10.8674 5.24207C10.7317 4.58549 10.415 3.7193 9.89577 3.01148L9.89376 3.00874C9.31965 2.20475 8.40488 1.52121 7.2057 1.54103C7.0703 1.54326 6.95475 1.43207 6.94761 1.29267C6.94046 1.15327 7.04444 1.03845 7.17984 1.03622C8.58513 1.013 9.64211 1.81896 10.2848 2.71836Z" />
<path fill-rule="evenodd" clip-rule="evenodd" d="M16.3688 11.4721C16.5045 11.4807 16.6114 11.6003 16.6077 11.7392C16.6038 11.8829 16.6079 12.0681 16.6195 12.2275C16.6253 12.3074 16.6328 12.3767 16.6411 12.4289C16.6453 12.4551 16.6492 12.4736 16.6522 12.4851L16.6531 12.4884C16.6698 12.5226 16.679 12.5601 16.6799 12.5981C16.6821 12.6994 16.6841 12.8014 16.686 12.9041C16.699 13.5959 16.7125 14.318 16.8382 15.0801C16.8392 15.0861 16.8399 15.0922 16.8405 15.0983C17.0141 16.958 17.7131 18.7014 18.7563 20.1147L18.7599 20.1196C20.0149 21.9045 21.8517 23.1525 23.7844 24.2094C24.5754 24.639 25.428 25.0869 26.3931 25.4235C27.5988 25.8441 28.976 26.248 30.2215 26.5297L30.2305 26.5318C31.1496 26.7764 32.0156 26.9267 32.8931 27.0787L32.9054 27.0808C33.5402 27.2244 34.1354 27.3579 34.6919 27.3357C34.8272 27.3303 34.9449 27.4388 34.9547 27.5779C34.9646 27.717 34.8628 27.8342 34.7274 27.8396C34.1017 27.8645 33.4477 27.7165 32.8319 27.5772L32.8211 27.5748C31.9493 27.4238 31.0661 27.2707 30.1267 27.021C28.8623 26.7347 27.469 26.3259 26.2491 25.9004C25.2425 25.5493 24.359 25.0839 23.5657 24.6531C21.6139 23.5858 19.6918 22.2918 18.3664 20.408C17.2705 18.9225 16.5362 17.0922 16.3522 15.1387C16.2213 14.3398 16.2073 13.5809 16.1945 12.8936C16.1929 12.808 16.1914 12.7236 16.1896 12.6404C16.1847 12.6255 16.1809 12.6119 16.1779 12.6005C16.169 12.5668 16.162 12.5303 16.1562 12.4941C16.1446 12.4216 16.1359 12.3361 16.1295 12.2482C16.1166 12.0721 16.1121 11.8696 16.1164 11.7083C16.1202 11.5694 16.2332 11.4636 16.3688 11.4721Z" />
<path fill-rule="evenodd" clip-rule="evenodd" d="M22.4655 17.9605L23.0619 18.7973C23.0672 18.8048 23.0722 18.8126 23.0768 18.8207C23.1464 18.9438 23.1481 19.08 23.1158 19.1879C23.0844 19.2927 23.0125 19.3988 22.8955 19.4554L21.6761 20.1261L20.889 20.5967C20.8433 20.6463 20.7842 20.6731 20.7314 20.6829C20.6577 20.6966 20.5895 20.6815 20.5418 20.6647C20.4534 20.6336 20.3524 20.5668 20.2863 20.4637L19.8911 19.9647C19.8476 19.9324 19.8161 19.8931 19.7948 19.8583C19.7602 19.8019 19.7402 19.739 19.7332 19.6782C19.7209 19.5717 19.7477 19.4011 19.9004 19.3138L21.7712 17.8617C22.0049 17.6481 22.3287 17.7391 22.4655 17.9605ZM22.0836 18.2632L20.2761 19.6662L20.6541 20.1435L21.4284 19.6805L22.6248 19.0227L22.0836 18.2632Z" />
<path fill-rule="evenodd" clip-rule="evenodd" d="M19.1897 11.7345C18.9727 11.4515 18.6065 11.1942 18.2777 11.1423C18.263 11.14 18.2486 11.1364 18.2345 11.1314C18.1274 11.0938 17.9128 11.0809 17.7507 11.0966C17.6163 11.1097 17.493 11.0078 17.4753 10.8689C17.4575 10.7301 17.5521 10.6069 17.6865 10.5938C17.8717 10.5758 18.1526 10.5819 18.3553 10.6467C18.8373 10.7306 19.3052 11.0805 19.5775 11.4398C19.5808 11.4441 19.5839 11.4485 19.5869 11.453C19.8298 11.8175 19.9195 12.2353 19.9576 12.6339C19.9767 12.8341 19.9833 13.0356 19.9877 13.2281C19.9887 13.2699 19.9895 13.311 19.9904 13.3517C19.9934 13.5015 19.9964 13.6443 20.0039 13.7834C20.0042 13.7904 20.0043 13.7974 20.0042 13.8044C19.9796 14.7191 20.092 15.4515 20.3181 16.3925L20.3203 16.4018C20.3502 16.5496 20.4321 16.7929 20.5288 16.9635C20.5981 17.0859 20.5598 17.2393 20.4434 17.3061C20.3269 17.3729 20.1762 17.3278 20.1069 17.2054C19.9798 16.981 19.8807 16.6865 19.8407 16.4919C19.6094 15.5285 19.4882 14.7508 19.5132 13.7821C19.5056 13.6366 19.5025 13.4861 19.4995 13.3387C19.4986 13.2993 19.4978 13.26 19.497 13.2211C19.4926 13.0305 19.4863 12.8449 19.4691 12.6647C19.4347 12.3057 19.3587 11.9916 19.1897 11.7345Z" />
<path fill-rule="evenodd" clip-rule="evenodd" d="M33.6299 25.9373C33.6164 25.9359 33.609 25.9353 33.609 25.9353V25.9353C33.4734 25.93 33.3635 25.8126 33.3636 25.6733C33.3638 25.5339 33.4738 25.4253 33.6094 25.4307C33.6563 25.4326 33.7754 25.4482 33.9277 25.4699C34.0881 25.4927 34.3038 25.5251 34.5583 25.5648C35.0672 25.6442 35.7331 25.753 36.4247 25.8733C37.7956 26.1117 39.3033 26.4012 39.8645 26.5984C40.3236 26.7598 40.6103 27.0764 40.7995 27.4569C40.9821 27.8243 41.0783 28.2607 41.1629 28.6782C41.4609 29.9735 41.6258 31.4905 41.2245 32.8293C41.2181 32.8507 41.2089 32.8709 41.1972 32.8896C41.1081 33.031 41.0315 33.1219 40.9705 33.1807C40.9399 33.2102 40.913 33.2318 40.8903 33.2476C40.8789 33.2555 40.8685 33.2619 40.8593 33.2672C40.8547 33.2698 40.8503 33.2721 40.8463 33.2742L40.8404 33.2771L40.8377 33.2784L40.8364 33.279L40.8354 33.2794C40.8354 33.2794 40.835 33.2796 40.7299 33.0475L40.8354 33.2794C40.4608 33.4476 39.9804 33.5469 39.4666 33.6143C38.9516 33.682 38.3829 33.7199 37.8237 33.7573L37.8191 33.7576C37.6842 33.7666 37.5637 33.6611 37.55 33.5219C37.5362 33.3828 37.6343 33.2626 37.7692 33.2536C38.3334 33.216 38.888 33.1788 39.3867 33.1134C39.8803 33.0486 40.3002 32.9581 40.6102 32.822C40.6139 32.8189 40.6199 32.8139 40.6278 32.8062C40.6539 32.7811 40.7009 32.729 40.7646 32.6315C41.1162 31.4249 40.9731 30.0261 40.6846 28.7737L40.6831 28.7669C40.5969 28.3412 40.5116 27.9701 40.3641 27.6734C40.2226 27.3888 40.0295 27.184 39.7215 27.0757C39.2086 26.8954 37.75 26.6128 36.3604 26.3711C35.6717 26.2513 35.0087 26.143 34.5024 26.0641C34.2493 26.0246 34.0358 25.9925 33.8782 25.9701C33.7993 25.9588 33.7352 25.9501 33.6873 25.9441C33.6634 25.9411 33.6443 25.9388 33.6299 25.9373Z" />
<path fill-rule="evenodd" clip-rule="evenodd" d="M39.2335 28.77C37.8673 28.6011 34.649 28.245 34.3259 28.2092C34.1905 28.1942 34.0893 28.07 34.0999 27.9318C34.1105 27.7936 34.2289 27.6937 34.3644 27.7087C34.6879 27.7445 37.9147 28.1016 39.2821 28.2707L39.2895 28.2716C39.7777 28.3474 40.1735 28.674 40.4223 29.1064C40.4283 29.1169 40.4336 29.1278 40.4381 29.1391L41.4369 31.6099C41.4894 31.7397 41.4303 31.8853 41.305 31.9351C41.1796 31.9849 41.0355 31.9201 40.983 31.7903L39.9914 29.337C39.8049 29.0211 39.5352 28.8181 39.2335 28.77Z" />
<path fill-rule="evenodd" clip-rule="evenodd" d="M22.2362 1.57487C22.0362 1.53285 21.8289 1.51541 21.6812 1.52973C21.657 1.53207 21.6326 1.5307 21.6086 1.52565C21.2069 1.44126 20.976 1.45306 20.6901 1.46768C20.5956 1.47251 20.4951 1.47764 20.3804 1.47972C20.2362 1.49353 20.0853 1.50433 19.9283 1.51556C19.6709 1.53398 19.3974 1.55355 19.1107 1.58949C18.6543 1.64672 18.2241 1.74052 17.8995 1.91358C17.8948 1.91612 17.8899 1.9185 17.885 1.92071C17.3566 2.15681 17.0586 2.61533 16.7216 3.14789C16.1931 4.05806 15.8158 5.02561 15.4921 6.10065C15.2945 6.75694 15.0846 7.45725 15.0262 8.20644L15.0258 8.21125C14.9844 8.63888 14.9434 9.06143 14.9188 9.42907C14.9023 9.67507 14.8938 9.8877 14.896 10.0564L16.6668 10.1069C16.6934 8.42282 16.9108 6.88909 17.1935 5.67059C17.1947 5.66534 17.1961 5.66013 17.1977 5.65498L17.2058 5.62784C17.3733 5.07136 17.5365 4.52923 17.8491 4.11476C18.6943 2.86724 20.4306 2.49193 22.4245 2.61887C22.4955 2.49239 22.5781 2.32322 22.6294 2.15273C22.6995 1.92 22.6844 1.78038 22.6362 1.70879C22.5634 1.66603 22.4211 1.61373 22.2362 1.57487ZM22.3183 1.08069C22.5407 1.12742 22.7809 1.20474 22.9333 1.31502C22.9472 1.32511 22.9601 1.3366 22.9719 1.34931C23.241 1.64057 23.1806 2.04653 23.0992 2.31713C23.0108 2.61059 22.8569 2.88327 22.7683 3.02325C22.7215 3.0973 22.6389 3.13879 22.5516 3.13221C20.5209 2.9792 18.9626 3.36359 18.2524 4.41725L18.2449 4.42848C17.989 4.76541 17.847 5.22296 17.6698 5.81162C17.3821 7.05399 17.1632 8.63828 17.1556 10.376C17.1549 10.514 17.0463 10.622 16.9118 10.6181L14.6662 10.5541C14.5411 10.5505 14.4353 10.451 14.4205 10.3229C14.3933 10.0876 14.4038 9.7483 14.4287 9.37683C14.4539 9.00085 14.4955 8.57117 14.5367 8.14642C14.5999 7.33934 14.8247 6.5928 15.0194 5.94611L15.0224 5.93625C15.3535 4.83633 15.7449 3.82887 16.2997 2.87426L16.3043 2.86637C16.3088 2.85923 16.3135 2.85217 16.318 2.84499C16.6401 2.3358 17.0044 1.75996 17.6684 1.46021C18.0691 1.24851 18.5658 1.14738 19.0344 1.08861C19.3276 1.05185 19.6337 1.02968 19.9037 1.01011C20.0599 0.998796 20.2041 0.988353 20.3267 0.976466C20.333 0.975854 20.3394 0.975496 20.3457 0.975391C20.4401 0.973838 20.5301 0.969154 20.6205 0.964458C20.9128 0.949259 21.2075 0.933935 21.6556 1.02426C21.8595 1.00998 22.1016 1.03517 22.3183 1.08069Z" />
<path fill-rule="evenodd" clip-rule="evenodd" d="M21.0749 9.32595C21.1831 9.25489 21.3295 9.28494 21.4082 9.39438C21.5937 9.65224 21.6964 9.96727 21.7575 10.2663C21.8174 10.5599 21.8408 10.8572 21.8544 11.1028C21.9619 11.6423 21.9668 12.2213 21.9714 12.7704L21.9715 12.7841C21.9716 12.7915 21.9713 12.7989 21.9707 12.8063C21.9526 13.0379 21.9587 13.1781 21.9704 13.4488C21.9775 13.6131 21.9867 13.8256 21.9938 14.1359C22.0099 14.2296 22.0105 14.3286 22.0115 14.5043C22.0117 14.5366 22.0119 14.5716 22.0123 14.6097C22.0146 14.8895 22.0214 15.3722 22.0571 16.2676C22.0627 16.4068 21.9572 16.5205 21.8216 16.5216C21.686 16.5226 21.5716 16.4106 21.566 16.2714C21.5301 15.3707 21.5232 14.8825 21.5208 14.5972C21.5205 14.5634 21.5202 14.5329 21.52 14.5052C21.5183 14.2854 21.518 14.2465 21.5081 14.1982C21.505 14.1829 21.5033 14.1673 21.5029 14.1518C21.4966 13.8699 21.4879 13.6621 21.4807 13.4926C21.4682 13.1956 21.4606 13.0158 21.4799 12.7606C21.4752 12.1939 21.4692 11.6587 21.3696 11.1712C21.3671 11.1586 21.3654 11.1459 21.3647 11.1331C21.3515 10.8899 21.3301 10.616 21.2765 10.3538C21.2596 10.2708 21.2398 10.1909 21.2168 10.115C21.2132 10.1191 21.2097 10.1232 21.2062 10.1272C21.1673 10.1719 21.1186 10.2248 21.0763 10.271C21.0492 10.3005 21.0247 10.3272 21.0069 10.3471C20.9791 10.3783 20.9592 10.4021 20.946 10.4199C20.9425 10.4246 20.9401 10.4281 20.9384 10.4305C20.9256 10.4636 20.9058 10.4933 20.8804 10.5176C20.5415 10.8415 20.3732 11.1411 20.2527 11.5398C20.1237 11.9665 20.0739 12.7356 20.1867 13.6422C20.2988 14.543 20.5685 15.5529 21.0556 16.4593C21.122 16.5829 21.0799 16.7351 20.9615 16.7991C20.8431 16.8632 20.6933 16.8149 20.6269 16.6913C20.1027 15.7156 19.8175 14.6402 19.6992 13.6896C19.5816 12.7446 19.6256 11.8961 19.7828 11.376C19.9225 10.9138 20.1256 10.5481 20.5062 10.1752C20.522 10.1465 20.5389 10.1228 20.5514 10.106C20.5774 10.0709 20.6086 10.0345 20.639 10.0004C20.6699 9.96568 20.6977 9.93555 20.7252 9.90583C20.7604 9.86763 20.7951 9.83011 20.8348 9.78444C20.9003 9.70932 20.947 9.64767 20.9715 9.60143C20.9726 9.59941 20.9736 9.5975 20.9745 9.5957C20.9484 9.49361 20.9862 9.38417 21.0749 9.32595Z" />
<path fill-rule="evenodd" clip-rule="evenodd" d="M22.4258 2.48894C22.5608 2.51078 22.6549 2.63931 22.6361 2.77602L21.6945 9.62866C21.6758 9.76537 21.5511 9.85849 21.4162 9.83665C21.2812 9.81481 21.187 9.68628 21.2058 9.54957L22.1474 2.69693C22.1662 2.56022 22.2908 2.4671 22.4258 2.48894Z" />
<path fill-rule="evenodd" clip-rule="evenodd" d="M25.2332 23.877C25.3528 23.8206 25.4033 23.6741 25.346 23.5474C25.2881 23.4193 25.1417 23.36 25.0191 23.4149C24.9124 23.4628 24.8206 23.5624 24.7618 23.662C24.7016 23.7639 24.6458 23.9169 24.6802 24.0865C24.7705 24.5318 25.1233 24.8669 25.5613 24.9161C25.5671 24.9168 25.5729 24.9172 25.5787 24.9175C25.7789 24.9254 25.9554 24.8388 26.0841 24.7312C26.2127 24.6238 26.3182 24.4756 26.3658 24.3169C26.4053 24.1851 26.3322 24.0414 26.2025 23.9959C26.0729 23.9504 25.9357 24.0203 25.8961 24.1521C25.8801 24.2053 25.835 24.2773 25.7662 24.3348C25.7009 24.3893 25.6366 24.4126 25.5871 24.4131C25.3756 24.385 25.2061 24.2245 25.1607 24.001V24.001C25.1607 24.001 25.1602 23.9964 25.1628 23.9851C25.166 23.9718 25.1728 23.9544 25.184 23.9355C25.1951 23.9166 25.2082 23.9002 25.2201 23.8885C25.2272 23.8814 25.2332 23.877 25.2332 23.877Z" />
<path fill-rule="evenodd" clip-rule="evenodd" d="M26.9348 34.8398L27.6157 35.9169C27.7647 36.1759 27.7807 36.4649 27.6415 36.7101C27.508 36.9455 27.2548 37.1002 26.9442 37.1687L26.9393 37.1697C25.9262 37.3707 23.7054 37.4441 20.4137 36.991L20.4066 36.99C16.9676 36.4128 15.4981 35.6758 14.5414 35.1904L14.5389 35.1891C14.2666 35.0471 14.0681 34.8101 13.9796 34.5509C13.892 34.2946 13.9087 33.9971 14.0991 33.7721L15.3985 31.9566L15.7985 32.2617L14.486 34.0956L14.4781 34.1045C14.4213 34.1693 14.4002 34.2705 14.4436 34.3975C14.4871 34.5249 14.5922 34.6583 14.7508 34.7414C15.6709 35.2083 17.092 35.9256 20.4686 36.4926C23.7318 36.9415 25.89 36.8616 26.8294 36.6759C27.0533 36.6261 27.1679 36.5293 27.2141 36.4479C27.2544 36.3769 27.2622 36.2849 27.1958 36.1671L26.5239 35.1043L26.9348 34.8398Z" />
<path fill-rule="evenodd" clip-rule="evenodd" d="M19.3211 17.5281C19.3113 17.6668 19.1939 17.7668 19.0587 17.7516C18.9691 17.7415 18.924 17.7693 18.894 17.8052C18.8596 17.8462 18.8299 17.9185 18.8226 18.0204C18.8776 18.2355 19.048 18.3871 19.2572 18.4106C19.2755 18.4127 19.2935 18.4168 19.3111 18.423C19.3319 18.4303 19.3436 18.4318 19.3489 18.4321C19.3533 18.4323 19.3556 18.4318 19.3582 18.431C19.3664 18.4284 19.39 18.4176 19.4406 18.3689C19.5376 18.2753 19.693 18.2833 19.7876 18.3867C19.8823 18.4901 19.8804 18.6498 19.7833 18.7434C19.7141 18.8102 19.6286 18.8793 19.5191 18.9141C19.4107 18.9485 19.3025 18.9424 19.1954 18.9093C18.7669 18.8493 18.4245 18.516 18.3355 18.0765C18.3316 18.057 18.3299 18.0372 18.3304 18.0175C18.3356 17.8229 18.389 17.6202 18.5171 17.4673C18.6528 17.3052 18.8538 17.2225 19.0938 17.2495C19.229 17.2648 19.3308 17.3895 19.3211 17.5281Z" />
<path fill-rule="evenodd" clip-rule="evenodd" d="M40.888 38.8298C41.0238 38.8303 41.1369 38.9434 41.1406 39.0825L41.1879 40.8513C41.2 41.3863 40.8032 41.7419 40.3409 41.9758C39.8671 42.2157 39.2368 42.3755 38.5966 42.4857C37.5252 42.6701 36.3663 42.7242 35.7479 42.753C35.6259 42.7587 35.5249 42.7634 35.4498 42.7679C30.9294 43.0348 26.3109 42.808 21.7256 42.5132C16.8952 42.2088 11.9735 41.8776 7.14115 40.9665L7.13986 40.9663C6.97456 40.9342 6.7974 40.9022 6.61198 40.8687C5.97592 40.754 5.24271 40.6217 4.5579 40.4068C3.67449 40.1297 2.81033 39.6984 2.30253 38.9309C2.29946 38.9263 2.29654 38.9216 2.29377 38.9168L2.29172 38.9132C2.26477 38.8663 2.21503 38.7797 2.17858 38.683C2.14743 38.6003 2.11006 38.4703 2.1367 38.3345L2.12331 36.7618C2.12213 36.6228 2.23127 36.5126 2.36709 36.5156C2.50291 36.5187 2.61398 36.6339 2.61516 36.773L2.62881 38.3767C2.62901 38.4007 2.62587 38.4245 2.61949 38.4473C2.61949 38.4473 2.61971 38.4515 2.62022 38.4552C2.62199 38.4685 2.62689 38.4881 2.63677 38.5144C2.65613 38.5657 2.68463 38.6171 2.71158 38.6642C3.11986 39.276 3.84156 39.6599 4.68864 39.9257C5.3407 40.1302 6.031 40.2549 6.66277 40.369C6.85353 40.4035 7.03895 40.437 7.21637 40.4714C12.0148 41.376 16.9078 41.706 21.741 42.0105C26.3246 42.3052 30.9176 42.5302 35.4061 42.2652C35.4872 42.2603 35.5935 42.2553 35.7203 42.2493C36.3441 42.2201 37.4628 42.1676 38.5006 41.989C39.1264 41.8813 39.7015 41.7308 40.1122 41.523C40.5344 41.3093 40.7013 41.0799 40.6962 40.8476V40.8476L40.6489 39.0808C40.6452 38.9417 40.7522 38.8293 40.888 38.8298Z" />
<path fill-rule="evenodd" clip-rule="evenodd" d="M26.1722 34.7225C26.1473 34.8579 26.0183 34.9459 25.884 34.9191C25.3358 34.8099 24.5587 34.6248 23.9489 34.4216C23.8187 34.3783 23.7467 34.2369 23.788 34.1059C23.8294 33.9749 23.9684 33.9039 24.0986 33.9473C24.6816 34.1416 25.437 34.3219 25.974 34.4289C26.1083 34.4557 26.197 34.5871 26.1722 34.7225Z" />
<path fill-rule="evenodd" clip-rule="evenodd" d="M22.635 34.3161C21.7727 34.0095 20.9086 33.7024 20.0529 33.4628C18.7696 33.1035 17.4705 32.8115 16.1333 32.6507L16.1273 32.65C15.1839 32.5132 14.2303 32.4103 13.2658 32.3063C13.0645 32.2846 12.8628 32.2628 12.6606 32.2407C11.4917 32.1128 10.3096 31.9728 9.12781 31.7594L9.12512 31.7589C8.9004 31.7157 8.66595 31.6766 8.42353 31.6362C8.39668 31.6317 8.36974 31.6272 8.3427 31.6227C8.07285 31.5776 7.79465 31.5304 7.5182 31.4745C6.9692 31.3636 6.41333 31.2163 5.9209 30.974C4.99993 30.5764 4.71624 29.7139 4.60014 28.9956C4.57803 28.8588 4.6692 28.7316 4.80378 28.7115C4.93835 28.6914 5.06537 28.786 5.08747 28.9228C5.19636 29.5966 5.43585 30.2263 6.1127 30.516L6.12523 30.5213C6.56151 30.7369 7.07023 30.8751 7.60675 30.9835C7.87418 31.0376 8.14503 31.0836 8.4149 31.1287C8.44193 31.1332 8.46897 31.1377 8.496 31.1422C8.73694 31.1824 8.97709 31.2225 9.20771 31.2667C10.3711 31.4768 11.5383 31.6152 12.7053 31.7429C12.9058 31.7648 13.1064 31.7865 13.3069 31.8081C14.2707 31.912 15.2339 32.0159 16.1861 32.1538C17.5546 32.3186 18.8784 32.6168 20.1768 32.9803C21.0483 33.2243 21.9415 33.5417 22.8137 33.8517C23.241 34.0036 23.6633 34.1537 24.0755 34.2925C24.2056 34.3363 24.2778 34.4781 24.2368 34.6092C24.1958 34.7404 24.0571 34.8112 23.9271 34.7674C23.4976 34.6228 23.0665 34.4695 22.635 34.3161Z" />
<path fill-rule="evenodd" clip-rule="evenodd" d="M39.8193 34.1022C39.8628 34.2353 39.7938 34.376 39.6651 34.4164C39.1855 34.567 38.7295 34.6453 38.2049 34.696C37.5816 34.7897 36.9809 34.8135 36.3946 34.8367L36.3871 34.837C35.7979 34.8604 35.2033 34.884 34.5329 34.8813C34.2292 34.8931 33.9137 34.8808 33.6093 34.8689L33.6044 34.8687C33.3092 34.8572 33.0245 34.8462 32.7531 34.8547L32.6017 34.9218C32.5719 34.9351 32.5396 34.9419 32.5067 34.9421C30.3338 34.9504 28.065 34.9329 25.897 34.5661C25.7624 34.5433 25.6679 34.4136 25.6859 34.2764C25.704 34.1391 25.8277 34.0464 25.9623 34.0691C28.0679 34.4254 30.2804 34.4463 32.4397 34.4385L32.5875 34.373C32.6147 34.3609 32.644 34.3541 32.6739 34.3529C32.9792 34.3408 33.2966 34.3532 33.6028 34.3652L33.6077 34.3654C33.9191 34.3775 34.219 34.3891 34.5038 34.3778L34.5143 34.3774C35.1756 34.3801 35.7625 34.3571 36.3546 34.3336C36.9481 34.3101 37.527 34.2869 38.1247 34.1967L38.1374 34.1948C38.6425 34.1461 39.0661 34.073 39.5077 33.9343C39.6363 33.8939 39.7759 33.9691 39.8193 34.1022Z" />
<path fill-rule="evenodd" clip-rule="evenodd" d="M30.1169 37.4117L30.3544 37.4948L32.1935 38.6822C32.2727 38.722 32.3266 38.7914 32.3519 38.8664C32.3782 38.9442 32.3721 39.0193 32.3548 39.0768C32.3375 39.1343 32.3014 39.199 32.2378 39.2453C32.184 39.2845 32.1149 39.3062 32.0409 39.299C30.6538 39.4324 28.9462 39.5291 26.9388 39.5207L26.7943 39.5201L26.7203 39.39L26.9313 39.2684C26.7203 39.39 26.7203 39.39 26.7203 39.39L26.7198 39.3891L26.7192 39.388L26.7177 39.3853L26.7138 39.378C26.7108 39.3724 26.7071 39.3651 26.703 39.3565C26.6949 39.3394 26.6843 39.3153 26.6746 39.2866C26.6591 39.2406 26.6282 39.1336 26.6625 39.0197L26.6741 38.9813L27.5615 37.7276V37.7276C27.573 37.7053 27.5927 37.6733 27.6242 37.6431C27.6569 37.6117 27.7036 37.5811 27.765 37.5675C27.8077 37.5579 27.8502 37.5583 27.8907 37.5658C28.72 37.5514 29.4648 37.5109 30.058 37.4207L30.1169 37.4117ZM27.2664 39.0166C28.8997 39.0137 30.3235 38.9409 31.5261 38.8378L30.1543 37.9521L30.0876 37.9287C29.4789 38.0167 28.7382 38.0555 27.9366 38.0698L27.2664 39.0166Z" />
<path fill-rule="evenodd" clip-rule="evenodd" d="M26.3824 38.106C26.4271 38.1847 26.4513 38.3003 26.418 38.4109L26.404 38.4575L25.4566 39.621C25.4447 39.6424 25.4264 39.6697 25.3992 39.696C25.3665 39.7273 25.3199 39.758 25.2584 39.7717C25.2136 39.7817 25.1691 39.7809 25.1269 39.7723C23.9548 39.749 22.6346 39.673 21.2423 39.571L21.2101 39.5687L21.1793 39.5579C21.0725 39.5205 20.9943 39.4408 20.9485 39.36C20.9037 39.2812 20.8695 39.1643 20.906 39.043L20.9234 38.9849L21.9091 37.9869C21.9208 37.968 21.9369 37.9463 21.9588 37.9252C21.9914 37.8939 22.0381 37.8632 22.0996 37.8495C22.1472 37.8389 22.1946 37.8405 22.2392 37.8507C23.5892 37.9488 24.9582 37.9816 26.0316 37.9795C26.0647 37.9633 26.1041 37.9533 26.1492 37.955C26.2301 37.9582 26.2879 37.9983 26.318 38.0253C26.3492 38.0533 26.3697 38.0836 26.3824 38.106ZM25.0932 39.2672L25.731 38.4838C24.7124 38.4794 23.4786 38.4444 22.2562 38.3566L21.5343 39.0875C22.811 39.1784 24.0166 39.2451 25.0932 39.2672Z" />
<path fill-rule="evenodd" clip-rule="evenodd" d="M21.0349 38.2912C21.0342 38.2935 21.0331 38.297 21.0331 38.297L21.0172 38.3497L20.0068 39.4672C20.003 39.4768 19.9987 39.4869 19.9939 39.4968C19.9774 39.5311 19.9367 39.6029 19.8497 39.6417C19.7539 39.6845 19.6619 39.6621 19.6019 39.6341C19.5729 39.6206 19.5458 39.6035 19.5208 39.5849L15.635 38.99L15.6135 38.9825C15.5587 38.9634 15.4977 38.9277 15.4511 38.8644C15.4044 38.8011 15.3896 38.7339 15.3868 38.6825C15.3826 38.6049 15.4063 38.5288 15.4148 38.5016C15.4156 38.4993 15.4166 38.4958 15.4166 38.4958L15.4352 38.4343L16.7653 37.1599L16.8534 37.1906C16.8687 37.1854 16.8873 37.18 16.9077 37.1765C16.9554 37.1682 17.0053 37.1705 17.0562 37.185C18.0805 37.389 19.4234 37.6283 20.7857 37.7984L20.8115 37.8016L20.8362 37.8103C20.891 37.8294 20.952 37.8651 20.9987 37.9284C21.0453 37.9917 21.0601 38.0589 21.0629 38.1102C21.0671 38.1879 21.0434 38.264 21.0349 38.2912ZM20.4189 38.2573C19.1609 38.0902 17.9415 37.8716 16.9929 37.6828C16.9773 37.6886 16.9571 37.6951 16.9346 37.6994L16.0507 38.5462L19.6583 39.0985L20.4189 38.2573Z" />
<path fill-rule="evenodd" clip-rule="evenodd" d="M11.6802 35.8318C11.6827 35.8327 11.685 35.8335 11.6869 35.8341L11.6958 35.8372L11.7043 35.8409C12.584 36.2223 13.8358 36.7329 15.6003 37.1945L15.6097 37.197L15.6189 37.2002C15.6734 37.2191 15.7343 37.2544 15.7809 37.3173C15.8275 37.3802 15.8424 37.4472 15.8452 37.4986C15.8495 37.5761 15.8256 37.6521 15.8172 37.679C15.8165 37.6812 15.8154 37.6847 15.8154 37.6847L15.7951 37.7516L14.5225 38.8643C14.486 38.9157 14.4396 38.9463 14.4087 38.9628C14.359 38.9895 14.3067 39.0033 14.2639 39.0106C14.1899 39.0234 14.0924 39.0254 14.0067 39.0002C12.2856 38.6308 10.4808 38.2334 9.3192 37.9066L9.31203 37.9046L9.30497 37.9022C9.20842 37.8686 9.1267 37.7965 9.08216 37.7188C9.06992 37.6974 9.05271 37.6623 9.04477 37.6172C9.03704 37.5734 9.03349 37.4874 9.09319 37.4093C9.13708 37.3519 9.19307 37.3275 9.23858 37.3178L11.2563 35.9098C11.2771 35.8817 11.3037 35.8564 11.3369 35.8361C11.4013 35.7968 11.4665 35.7916 11.5097 35.7932C11.579 35.796 11.6496 35.8209 11.6802 35.8318ZM11.5575 36.3181C12.3986 36.682 13.5745 37.16 15.1958 37.603L14.152 38.5155C14.1457 38.516 14.1393 38.5161 14.1333 38.5159C14.1301 38.5158 14.1262 38.5154 14.1262 38.5154L14.1186 38.5128L14.1038 38.5096C12.5606 38.1784 10.9651 37.8279 9.82505 37.5271L11.5575 36.3181Z" />
<path fill-rule="evenodd" clip-rule="evenodd" d="M20.4201 19.3954C20.4379 19.5342 20.3433 19.6574 20.2089 19.6705C19.9962 19.6912 19.9241 19.8246 19.922 19.9295C19.9726 20.1404 20.1339 20.2917 20.3346 20.3237C20.5115 20.3055 20.5902 20.2875 20.6383 20.2411C20.7354 20.1475 20.8908 20.1555 20.9854 20.2589C21.08 20.3624 21.0781 20.5221 20.9811 20.6156C20.8017 20.7885 20.5524 20.8121 20.3957 20.8269C20.3875 20.8277 20.3796 20.8285 20.372 20.8292C20.3555 20.8308 20.3388 20.8307 20.3222 20.8288C19.882 20.7792 19.5276 20.4419 19.437 19.9939C19.4344 19.9814 19.4328 19.9687 19.4321 19.9559C19.412 19.5818 19.6685 19.2141 20.1446 19.1677C20.2789 19.1546 20.4023 19.2565 20.4201 19.3954Z" />
<path fill-rule="evenodd" clip-rule="evenodd" d="M28.209 24.6674C28.3445 24.6763 28.4514 24.7962 28.4477 24.9353C28.4353 25.3953 28.0793 25.6982 27.641 25.7408C27.6245 25.7424 27.6078 25.7423 27.5912 25.7405C27.154 25.6914 26.8016 25.3572 26.7114 24.9128C26.7029 24.8709 26.7048 24.8278 26.7169 24.7875L26.8014 24.5063C26.8409 24.3746 26.9783 24.3042 27.108 24.3497C27.2377 24.3952 27.3108 24.5388 27.2712 24.6706L27.207 24.8841C27.2661 25.0715 27.417 25.2052 27.6027 25.2353C27.8419 25.203 27.9527 25.0548 27.9568 24.9032C27.9605 24.7641 28.0734 24.6585 28.209 24.6674Z" />
<path fill-rule="evenodd" clip-rule="evenodd" d="M30.3878 25.2933C30.5234 25.3022 30.6302 25.4222 30.6265 25.5613C30.6141 26.0212 30.2582 26.3242 29.8198 26.3668C29.8033 26.3684 29.7867 26.3682 29.7701 26.3664C29.3328 26.3173 28.9805 25.9831 28.8903 25.5387C28.8624 25.4014 28.9474 25.2708 29.0801 25.2471C29.2128 25.2234 29.343 25.3155 29.3709 25.4529C29.415 25.6703 29.5773 25.8281 29.7816 25.8613C30.0207 25.8289 30.1315 25.6807 30.1356 25.5291C30.1394 25.39 30.2523 25.2844 30.3878 25.2933Z" />
<path fill-rule="evenodd" clip-rule="evenodd" d="M31.6423 25.7684C31.7503 25.7068 31.7953 25.5699 31.7427 25.4507C31.6865 25.3234 31.5403 25.2645 31.4162 25.319C31.1493 25.4362 31.1179 25.7506 31.1619 25.9646C31.1898 26.1007 31.3206 26.1902 31.454 26.1645C31.5873 26.1389 31.6728 26.0078 31.6448 25.8717C31.6343 25.8204 31.6378 25.7856 31.6423 25.7684Z" />
<path fill-rule="evenodd" clip-rule="evenodd" d="M21.7023 16.5742L19.1467 17.6013L19.3441 18.1327L21.9729 17.4357L21.7037 16.5745L21.7023 16.5742ZM21.8518 16.0987C21.9503 16.1334 22.0617 16.205 22.1291 16.3241C22.1384 16.3405 22.146 16.3579 22.1516 16.3759L22.4492 17.328C22.5035 17.4443 22.5067 17.5828 22.4459 17.7015C22.38 17.8302 22.2563 17.9051 22.1138 17.9247L19.5149 18.6137C19.4768 18.6422 19.434 18.6588 19.3948 18.6661C19.3213 18.6798 19.2532 18.6647 19.2056 18.648C19.1115 18.6149 19.003 18.5411 18.9378 18.426C18.9308 18.4137 18.9249 18.4008 18.9199 18.3875L18.6902 17.7692C18.6328 17.6526 18.6332 17.5267 18.6634 17.4259C18.6956 17.3184 18.7706 17.2094 18.8934 17.1542L18.9018 17.1504L21.5103 16.1023C21.6279 16.0515 21.7547 16.0646 21.8518 16.0987Z" />
<path fill-rule="evenodd" clip-rule="evenodd" d="M22.0635 18.2798L20.2751 19.6678L20.6175 20.1001L22.534 19.0649L22.0847 18.2711C22.0787 18.2733 22.0719 18.2761 22.0635 18.2798ZM22.0731 17.7609C22.2025 17.7587 22.3216 17.8131 22.4273 17.9131C22.4464 17.9312 22.4628 17.9521 22.4759 17.9752L22.9802 18.8661C23.0498 18.9892 23.0515 19.1255 23.0192 19.2334C22.9877 19.3386 22.9154 19.445 22.7978 19.5016L20.8137 20.5733C20.7928 20.5982 20.7664 20.621 20.7331 20.6388C20.6504 20.6831 20.565 20.6755 20.5027 20.6536C20.4003 20.6176 20.3291 20.5364 20.2849 20.4649L19.8607 19.9293C19.8521 19.9185 19.8444 19.9071 19.8377 19.8951C19.7865 19.8047 19.7653 19.7145 19.7676 19.6263C19.7696 19.5522 19.789 19.488 19.799 19.4548C19.7996 19.4528 19.8007 19.4492 19.8007 19.4492C19.8153 19.4007 19.844 19.3585 19.8831 19.3281L21.781 17.8551C21.7956 17.8438 21.8114 17.8342 21.8282 17.8267C21.8307 17.8256 21.8334 17.8243 21.8363 17.823C21.8806 17.8029 21.9694 17.7626 22.0731 17.7609Z" />
<path fill-rule="evenodd" clip-rule="evenodd" d="M23.0036 19.9045L21.5753 21.4712L22.0168 21.8884L23.6075 20.5937L23.0036 19.9045ZM23.3236 19.5295C23.2886 19.4776 23.2407 19.4317 23.1784 19.4015C23.1074 19.3672 23.039 19.3636 22.987 19.3687C22.9028 19.3769 22.821 19.414 22.7792 19.4329C22.7761 19.4344 22.7732 19.4357 22.7705 19.4369C22.7414 19.4499 22.7153 19.4689 22.6937 19.4926L21.182 21.1508C21.1377 21.1804 21.0961 21.2228 21.0688 21.2827C21.0319 21.3635 21.0363 21.4428 21.0474 21.4977C21.0649 21.5842 21.1132 21.6685 21.1365 21.7091C21.1383 21.7124 21.1401 21.7154 21.1416 21.718C21.1546 21.7411 21.171 21.762 21.1902 21.7801L21.7046 22.2662C21.8015 22.3965 21.9506 22.4265 22.0417 22.425C22.0978 22.4241 22.1589 22.4123 22.2153 22.3843C22.2502 22.367 22.2964 22.3364 22.3329 22.2867L23.9865 20.9408C24.0376 20.9112 24.0873 20.8655 24.1184 20.7974C24.1553 20.7165 24.1509 20.6372 24.1397 20.5824C24.1222 20.4959 24.074 20.4116 24.0507 20.371C24.0488 20.3677 24.0471 20.3647 24.0456 20.362C24.0367 20.3462 24.0261 20.3314 24.0142 20.3178L23.3236 19.5295Z" />
<path fill-rule="evenodd" clip-rule="evenodd" d="M24.2695 21.1273L23.2529 22.8827L23.7196 23.246C23.736 23.2345 23.7571 23.2175 23.7829 23.1929L25.0978 21.7823L24.2695 21.1273ZM24.1508 20.631C24.2319 20.6169 24.3404 20.6156 24.4319 20.6477C24.4583 20.657 24.4831 20.6707 24.5054 20.6883L25.3905 21.3883C25.4521 21.423 25.4934 21.4724 25.5187 21.5108C25.5517 21.5608 25.5724 21.6141 25.5853 21.6596C25.6083 21.7405 25.6231 21.8564 25.5929 21.957C25.5821 21.993 25.5635 22.0257 25.5383 22.0527L24.13 23.5635C24.0592 23.6317 23.9815 23.6916 23.8977 23.7292C23.8123 23.7675 23.7032 23.7893 23.5878 23.7487C23.562 23.7397 23.5377 23.7264 23.5159 23.7094L22.9774 23.2902C22.9152 23.2554 22.8735 23.2056 22.848 23.167C22.815 23.117 22.7943 23.0637 22.7814 23.0182C22.7584 22.9373 22.7436 22.8214 22.7738 22.7208C22.7793 22.7024 22.7869 22.6847 22.7965 22.6682L23.862 20.8283C23.8989 20.7465 23.9636 20.7018 24.0038 20.68C24.054 20.6528 24.1071 20.6386 24.1508 20.631Z" />
<path fill-rule="evenodd" clip-rule="evenodd" d="M25.8999 22.4543L25.3643 23.9811L25.8521 24.2169L26.7845 22.8358L25.8999 22.4543ZM25.7128 21.9564C25.8193 21.9263 25.9355 21.9389 26.0468 21.978C26.0523 21.9799 26.0577 21.982 26.063 21.9843L27.0513 22.4106C27.1539 22.4498 27.2294 22.528 27.2743 22.6072C27.3196 22.6871 27.3539 22.805 27.3173 22.9271C27.3101 22.9509 27.2995 22.9734 27.2858 22.9937L26.2117 24.5847C26.1683 24.6793 26.0838 24.7534 25.9784 24.7769C25.913 24.7915 25.8378 24.7865 25.7652 24.7508C25.7259 24.7314 25.6924 24.7056 25.6644 24.6761L25.1244 24.4151C25.0249 24.3751 24.9516 24.2985 24.9076 24.221C24.8623 24.1411 24.828 24.0231 24.8646 23.901L24.8679 23.8901L25.4648 22.1892C25.5054 22.0631 25.6064 21.9865 25.7128 21.9564Z" />
<path fill-rule="evenodd" clip-rule="evenodd" d="M28.6526 22.9288C28.6582 22.9303 28.6637 22.9321 28.6692 22.934C28.7607 22.9661 28.8479 23.0361 28.906 23.0992C28.9373 23.1332 28.9726 23.1784 28.9986 23.2323C29.0222 23.2817 29.0556 23.3756 29.0238 23.4818L29.0205 23.4928L28.4214 25.1991C28.4088 25.235 28.3882 25.2672 28.3613 25.2931C28.2903 25.3614 28.2127 25.4216 28.1288 25.4592C28.0433 25.4975 27.934 25.5193 27.8186 25.4788L27.1143 25.2316C27.0064 25.1938 26.9274 25.1131 26.881 25.0313C26.8383 24.956 26.8053 24.8469 26.8323 24.7323L27.1163 22.9282C27.118 22.9169 27.1206 22.9058 27.1238 22.8949C27.1605 22.7728 27.2524 22.6991 27.3325 22.6632C27.4119 22.6276 27.5155 22.6123 27.6199 22.6458L28.6526 22.9288ZM28.521 23.4104L27.5812 23.1528L27.3254 24.7782L27.929 24.9901C27.9408 24.9835 27.9576 24.9723 27.9792 24.9543L28.521 23.4104Z" />
<path fill-rule="evenodd" clip-rule="evenodd" d="M30.8319 23.5543C30.8375 23.5558 30.843 23.5575 30.8484 23.5595C30.9399 23.5916 31.0271 23.6616 31.0851 23.7246C31.1164 23.7586 31.1517 23.8038 31.1776 23.8577C31.2013 23.9071 31.2347 24.001 31.2028 24.1072L31.1994 24.1186L30.6244 25.7464C30.5891 25.8595 30.5186 25.9734 30.3891 26.0314C30.2626 26.0881 30.1295 26.0687 30.0204 26.0304L29.317 25.7834C29.2091 25.7456 29.1301 25.6649 29.0837 25.5831C29.0412 25.508 29.0083 25.3993 29.0349 25.2852L29.2968 23.5553C29.2986 23.5435 29.3012 23.5319 29.3046 23.5206C29.3413 23.3985 29.4331 23.3248 29.5131 23.2889C29.5925 23.2533 29.696 23.238 29.8004 23.2715L30.8319 23.5543ZM30.6998 24.0358L29.7627 23.7789L29.5278 25.33L30.1637 25.5532V25.5532L30.6998 24.0358Z" />
<path fill-rule="evenodd" clip-rule="evenodd" d="M33.0857 24.2035C33.0912 24.205 33.0968 24.2067 33.1022 24.2086C33.1937 24.2408 33.2807 24.3108 33.3386 24.3737C33.3699 24.4077 33.4051 24.4528 33.431 24.5068C33.4546 24.5561 33.488 24.65 33.4561 24.756C33.4526 24.7679 33.4482 24.7794 33.4429 24.7905L32.7393 26.2816C32.6987 26.3902 32.6135 26.457 32.5386 26.4906C32.4568 26.5273 32.3491 26.5424 32.2413 26.5046L31.5396 26.2581C31.4318 26.2202 31.3529 26.1395 31.3066 26.0578C31.2633 25.9814 31.2301 25.8703 31.2593 25.7541L31.5554 24.1954C31.557 24.1868 31.5591 24.1784 31.5616 24.1701C31.5982 24.0481 31.6898 23.9745 31.7698 23.9386C31.849 23.903 31.9525 23.8877 32.0568 23.9212L33.0857 24.2035ZM32.9408 24.6815L32.015 24.4275L31.7532 25.8056L32.3169 26.0036L32.9408 24.6815Z" />
<path fill-rule="evenodd" clip-rule="evenodd" d="M25.863 17.9272C27.5165 20.1699 30.1708 21.7278 33.8435 22.5783L33.7307 23.0654C29.9812 22.1971 27.2056 20.5908 25.4605 18.224C23.7148 15.8562 23.026 12.7621 23.3815 8.96986L23.8793 9.01653C23.5317 12.7246 24.2101 15.6854 25.863 17.9272Z" />
<path fill-rule="evenodd" clip-rule="evenodd" d="M0.985352 27.6296C3.69844 22.3585 4.62323 17.0998 3.77355 11.9245L4.26695 11.8435C5.1361 17.1374 4.18581 22.5041 1.42992 27.8584L0.985352 27.6296Z" />
<path fill-rule="evenodd" clip-rule="evenodd" d="M42.3088 27.2822C41.9708 26.2135 41.242 25.4039 40.0846 24.8439L40.3024 24.3938C41.567 25.0057 42.4008 25.9149 42.7855 27.1315C43.1669 28.3375 43.0978 29.8166 42.6223 31.5599L42.1399 31.4283C42.602 29.734 42.6501 28.3614 42.3088 27.2822Z" />
</svg>
