<svg width="54" height="48" viewBox="0 0 54 48"  xmlns="http://www.w3.org/2000/svg">
<path d="M14.0815 33.8154L13.8717 33.6794C13.8126 33.7706 13.8191 33.8896 13.888 33.9738L14.0815 33.8154ZM50.3148 45.1172C50.4459 45.0738 50.517 44.9324 50.4736 44.8013C50.4302 44.6702 50.2888 44.5991 50.1577 44.6425L50.3148 45.1172ZM44.6259 28.8791C44.5094 28.805 44.3549 28.8395 44.2808 28.956C44.2068 29.0725 44.2412 29.227 44.3577 29.3011L44.6259 28.8791ZM45.1564 29.7958C45.2766 29.8638 45.4291 29.8214 45.4971 29.7012C45.565 29.581 45.5227 29.4285 45.4025 29.3606L45.1564 29.7958ZM42.7297 27.6687C42.6119 27.5967 42.458 27.6338 42.386 27.7516C42.314 27.8694 42.3511 28.0233 42.469 28.0953L42.7297 27.6687ZM42.7811 27.9936L42.9128 27.7812L42.9125 27.781L42.7811 27.9936ZM43.2457 28.5842C43.3619 28.6589 43.5166 28.6252 43.5912 28.5091C43.6659 28.3929 43.6322 28.2382 43.5161 28.1636L43.2457 28.5842ZM41.1459 26.662C41.0352 26.5794 40.8786 26.6023 40.796 26.713C40.7135 26.8237 40.7364 26.9803 40.847 27.0628L41.1459 26.662ZM41.3177 27.3877C41.4337 27.4627 41.5884 27.4294 41.6634 27.3135C41.7383 27.1975 41.7051 27.0428 41.5891 26.9678L41.3177 27.3877ZM39.822 25.388C39.7358 25.2801 39.5785 25.2625 39.4706 25.3486C39.3627 25.4348 39.3451 25.5921 39.4313 25.7L39.822 25.388ZM39.7726 26.0953C39.8668 26.1963 40.025 26.2018 40.126 26.1077C40.227 26.0135 40.2325 25.8553 40.1384 25.7544L39.7726 26.0953ZM38.1019 20.4282C38.1002 20.2901 37.9869 20.1796 37.8488 20.1813C37.7108 20.183 37.6002 20.2963 37.602 20.4344L38.1019 20.4282ZM37.6063 20.7245C37.5973 20.8622 37.7017 20.9812 37.8395 20.9902C37.9773 20.9992 38.0963 20.8948 38.1053 20.757L37.6063 20.7245ZM20.2054 21.7358L20.4141 21.8735L20.4145 21.8728L20.2054 21.7358ZM20.0571 21.964L20.2788 22.0796L20.2808 22.0755L20.0571 21.964ZM20.0139 22.0835L19.7723 22.0194L19.7721 22.0202L20.0139 22.0835ZM20.1582 25.6391L20.3792 25.5222L20.3792 25.5221L20.1582 25.6391ZM21.9452 27.83L21.7734 28.0117L21.7736 28.0118L21.9452 27.83ZM24.236 30.1763C24.3426 30.2641 24.5002 30.2488 24.5879 30.1422C24.6757 30.0356 24.6604 29.8781 24.5538 29.7903L24.236 30.1763ZM20.2356 22.1426C20.3254 22.0377 20.3132 21.8799 20.2083 21.7901C20.1034 21.7003 19.9456 21.7125 19.8558 21.8174L20.2356 22.1426ZM19.5403 22.5704L19.3504 22.4078L19.3503 22.4078L19.5403 22.5704ZM19.4233 22.7783L19.6608 22.8564L19.6611 22.8555L19.4233 22.7783ZM18.5821 25.3381L18.8115 25.4375C18.8145 25.4305 18.8172 25.4234 18.8196 25.4161L18.5821 25.3381ZM18.4943 25.6242L18.7409 25.6649L18.7409 25.6649L18.4943 25.6242ZM20.57 28.2802L20.4409 28.4943L20.441 28.4943L20.57 28.2802ZM24.5563 30.0557L24.6428 29.8211L24.6428 29.8211L24.5563 30.0557ZM29.1242 31.8383L29.0262 32.0686L29.0365 32.0724L29.1242 31.8383ZM35.7998 35.5926L35.6547 35.7962L35.6553 35.7966L35.7998 35.5926ZM36.5073 36.0769L36.3723 36.2872L36.3728 36.2876L36.5073 36.0769ZM38.2303 37.0203L38.3311 36.7916L38.3309 36.7915L38.2303 37.0203ZM44.4241 38.8827L44.3678 39.1263L44.3678 39.1263L44.4241 38.8827ZM48.3812 39.7539L48.3414 40.0007L48.3415 40.0008L48.3812 39.7539ZM48.5191 39.6092L48.7652 39.6528C48.7681 39.6369 48.7693 39.6208 48.769 39.6047L48.5191 39.6092ZM47.0882 34.2451L46.9901 34.4751L46.9904 34.4752L47.0882 34.2451ZM46.8141 34.1194L46.7192 34.3507L46.7196 34.3509L46.8141 34.1194ZM34.8669 27.3556L35.029 27.1652L35.0289 27.1652L34.8669 27.3556ZM32.4915 25.2452L32.3065 25.4133L32.3065 25.4133L32.4915 25.2452ZM31.0048 23.4148L31.212 23.2748L31.2119 23.2747L31.0048 23.4148ZM30.6265 21.4295L30.8712 21.4808L30.8721 21.4762L30.6265 21.4295ZM25.54 11.6929L25.7499 11.829L25.7539 11.8224L25.54 11.6929ZM26.8478 9.12937L27.0342 9.29603L27.0342 9.29596L26.8478 9.12937ZM29.8454 3.03838L30.0932 3.00513L30.0931 3.00472L29.8454 3.03838ZM29.2284 1.4384L29.4199 1.2778L29.4196 1.27736L29.2284 1.4384ZM28.5105 1L28.5699 0.757148C28.4436 0.726276 28.3147 0.797396 28.2734 0.920721C28.2322 1.04405 28.2924 1.17839 28.4119 1.22971L28.5105 1ZM27.1046 5.68597L27.3407 5.76825L27.3407 5.7682L27.1046 5.68597ZM25.6829 9.26636L25.4562 9.16106L25.4561 9.16113L25.6829 9.26636ZM23.9565 12.4532L23.7263 12.3558C23.7078 12.3995 23.7021 12.4476 23.7099 12.4944L23.9565 12.4532ZM23.8784 14.0473C23.9105 14.1816 24.0454 14.2644 24.1797 14.2323C24.314 14.2002 24.3968 14.0652 24.3646 13.931L23.8784 14.0473ZM26.7318 14.0754L26.7555 13.8266C26.6862 13.8199 26.6172 13.8426 26.5652 13.889L26.7318 14.0754ZM35.9735 12.7997L36.0738 13.0286C36.1645 12.9889 36.2232 12.8994 36.2235 12.8004C36.2238 12.7014 36.1657 12.6116 36.0752 12.5713L35.9735 12.7997ZM30.4108 10.8082L30.3205 11.0414L30.3207 11.0414L30.4108 10.8082ZM28.6873 10.1921L28.6254 10.4343L28.6255 10.4343L28.6873 10.1921ZM27.687 10.0688L27.698 10.3186L27.6981 10.3185L27.687 10.0688ZM26.5822 10.4815L26.7356 10.6789L26.7365 10.6782L26.5822 10.4815ZM26.1006 10.9414L26.2845 11.1108L26.2849 11.1103L26.1006 10.9414ZM23.7532 14.6588L23.5323 14.5418L23.5322 14.5419L23.7532 14.6588ZM22.4053 17.7374L22.6358 17.8344L22.6367 17.8322L22.4053 17.7374ZM27.9876 9.90882C27.8874 10.0038 27.8832 10.1621 27.9782 10.2622C28.0732 10.3624 28.2315 10.3666 28.3316 10.2716L27.9876 9.90882ZM28.707 9.57678L28.5349 9.39545L28.5342 9.39617L28.707 9.57678ZM30.4173 7.02239L30.1866 6.92612L30.1865 6.92629L30.4173 7.02239ZM30.8781 5.58316L30.632 5.53916L30.6319 5.53968L30.8781 5.58316ZM30.714 3.14186L30.4775 3.22286L30.4775 3.22292L30.714 3.14186ZM34.841 13.4618C34.8739 13.3277 34.7919 13.1923 34.6578 13.1594C34.5238 13.1264 34.3884 13.2085 34.3554 13.3425L34.841 13.4618ZM34.3532 14.2814L34.1127 14.2131L34.1126 14.2138L34.3532 14.2814ZM33.6503 16.7856L33.4063 16.7314L33.4063 16.7315L33.6503 16.7856ZM33.8319 22.302L33.5936 22.3776L33.5937 22.3777L33.8319 22.302ZM37.3725 27.5702L37.1968 27.7481L37.197 27.7483L37.3725 27.5702ZM39.4735 29.367L39.3274 29.5698L39.3274 29.5698L39.4735 29.367ZM42.8168 31.3612L42.9304 31.1386L42.9304 31.1386L42.8168 31.3612ZM45.2036 32.5158L45.312 32.2905L45.3117 32.2904L45.2036 32.5158ZM46.8199 33.4402C46.9544 33.4712 47.0886 33.3872 47.1196 33.2527C47.1506 33.1181 47.0667 32.9839 46.9322 32.9529L46.8199 33.4402ZM38.0747 25.0302C38.1636 25.1358 38.3214 25.1494 38.427 25.0605C38.5326 24.9716 38.5462 24.8139 38.4573 24.7082L38.0747 25.0302ZM38.0445 24.1501C37.9703 24.0337 37.8158 23.9994 37.6993 24.0736C37.5829 24.1478 37.5486 24.3023 37.6228 24.4188L38.0445 24.1501ZM39.5795 26.4247C39.6891 26.5087 39.846 26.4879 39.93 26.3783C40.014 26.2687 39.9932 26.1118 39.8836 26.0278L39.5795 26.4247ZM39.3519 25.5969C39.2471 25.507 39.0893 25.519 38.9993 25.6238C38.9094 25.7286 38.9215 25.8864 39.0263 25.9763L39.3519 25.5969ZM41.2289 27.5933C41.343 27.671 41.4985 27.6414 41.5762 27.5273C41.6539 27.4131 41.6243 27.2576 41.5101 27.1799L41.2289 27.5933ZM40.9549 26.8005C40.8412 26.7221 40.6855 26.7506 40.6071 26.8643C40.5287 26.9779 40.5573 27.1336 40.6709 27.212L40.9549 26.8005ZM43.1148 28.8644C43.2331 28.9356 43.3867 28.8974 43.4579 28.7791C43.5291 28.6607 43.4908 28.5071 43.3725 28.436L43.1148 28.8644ZM42.5554 27.8999C42.4419 27.8213 42.2861 27.8496 42.2075 27.9631C42.1289 28.0765 42.1571 28.2323 42.2706 28.3109L42.5554 27.8999ZM45.1351 29.8672C45.2589 29.9282 45.4088 29.8772 45.4698 29.7534C45.5308 29.6295 45.4798 29.4796 45.356 29.4186L45.1351 29.8672ZM44.4721 29.0034C44.3468 28.9455 44.1982 29.0001 44.1403 29.1255C44.0824 29.2508 44.137 29.3994 44.2623 29.4573L44.4721 29.0034ZM46.8502 33.5992L46.6005 33.5868L46.6004 33.5872L46.8502 33.5992ZM46.9568 32.0965L47.2064 32.111L47.2064 32.1103L46.9568 32.0965ZM46.9702 31.4846L46.7202 31.4884L46.7202 31.4884L46.9702 31.4846ZM46.8341 30.8081L47.0543 30.6898L47.0539 30.689L46.8341 30.8081ZM46.5107 30.0977C46.4013 30.0136 46.2443 30.0342 46.1602 30.1436C46.0761 30.2531 46.0966 30.4101 46.2061 30.4942L46.5107 30.0977ZM37.0554 22.3898C36.9963 22.265 36.8473 22.2117 36.7225 22.2707C36.5977 22.3298 36.5444 22.4789 36.6035 22.6037L37.0554 22.3898ZM37.0838 22.9683L37.3028 22.8478L37.3028 22.8477L37.0838 22.9683ZM37.0046 23.345C37.0703 23.4664 37.222 23.5116 37.3434 23.4459C37.4649 23.3801 37.51 23.2284 37.4443 23.107L37.0046 23.345ZM36.5243 20.4994C36.5049 20.3627 36.3783 20.2677 36.2416 20.2871C36.1049 20.3065 36.0098 20.4331 36.0292 20.5698L36.5243 20.4994ZM36.3039 20.7058L36.0572 20.7462L36.0573 20.7469L36.3039 20.7058ZM36.1836 21.3826C36.215 21.5171 36.3494 21.6006 36.4839 21.5692C36.6183 21.5379 36.7019 21.4034 36.6705 21.269L36.1836 21.3826ZM35.8992 12.6091C35.7639 12.5814 35.6318 12.6686 35.6041 12.8039C35.5764 12.9391 35.6636 13.0713 35.7989 13.099L35.8992 12.6091ZM36.3504 13.0222L36.4454 12.7909L36.4438 12.7903L36.3504 13.0222ZM37.1324 13.9137L36.8923 13.9834L36.8924 13.9837L37.1324 13.9137ZM36.7476 16.0977L36.5104 16.0186L36.5104 16.0186L36.7476 16.0977ZM36.1813 18.6616L35.9333 18.6288L35.9326 18.6366L36.1813 18.6616ZM35.9147 19.3226C35.9187 19.4606 36.0338 19.5693 36.1719 19.5652C36.3099 19.5612 36.4185 19.446 36.4144 19.308L35.9147 19.3226ZM47.0423 31.0402C46.9117 30.9953 46.7695 31.0648 46.7246 31.1953C46.6797 31.3259 46.7492 31.4682 46.8798 31.513L47.0423 31.0402ZM52.4396 33.8132L52.5839 33.6091L52.5823 33.608L52.4396 33.8132ZM52.9414 35.8667L53.1895 35.8975L53.1895 35.8975L52.9414 35.8667ZM51.7316 39.7341L51.9017 39.9173C51.917 39.9031 51.9305 39.8869 51.9419 39.8693L51.7316 39.7341ZM51.3635 39.9703L51.4 40.2176L51.4024 40.2172L51.3635 39.9703ZM48.5089 39.5167C48.3721 39.4983 48.2463 39.5944 48.2279 39.7312C48.2096 39.8681 48.3056 39.9939 48.4425 40.0122L48.5089 39.5167ZM46.9179 33.342C46.7849 33.3049 46.647 33.3827 46.6099 33.5157C46.5729 33.6487 46.6506 33.7865 46.7836 33.8236L46.9179 33.342ZM51.3947 35.2867L51.4843 35.0533L51.4842 35.0532L51.3947 35.2867ZM52.0697 36.1849L52.3195 36.1718L52.3188 36.1641L52.0697 36.1849ZM51.9585 38.8409C51.9657 38.9788 52.0833 39.0847 52.2212 39.0775C52.3591 39.0703 52.465 38.9526 52.4578 38.8148L51.9585 38.8409ZM19.0091 28.4497C19.0997 28.3455 19.0886 28.1876 18.9844 28.097C18.8802 28.0064 18.7223 28.0175 18.6317 28.1217L19.0091 28.4497ZM50.9514 40.1132C50.9929 39.9815 50.9199 39.8411 50.7882 39.7995C50.6565 39.758 50.5161 39.831 50.4745 39.9627L50.9514 40.1132ZM50.6425 40.2438L50.8567 40.3728L50.8582 40.3702L50.6425 40.2438ZM50.1744 40.4539L50.3158 40.6601L50.3163 40.6597L50.1744 40.4539ZM50.0318 40.7583L50.2788 40.7968L50.2789 40.7965L50.0318 40.7583ZM50.3473 42.8324L50.107 42.9015L50.1071 42.9019L50.3473 42.8324ZM50.0711 44.7178C49.9855 44.8262 50.0041 44.9834 50.1125 45.0689C50.2209 45.1545 50.3781 45.1359 50.4636 45.0275L50.0711 44.7178ZM32.8191 11.6484L32.5785 11.5806C32.5425 11.7084 32.6127 11.8421 32.7383 11.885L32.8191 11.6484ZM33.6177 9.67599L33.8433 9.78377L33.8434 9.78369L33.6177 9.67599ZM34.7026 7.74393L34.9119 7.88056L34.9121 7.88031L34.7026 7.74393ZM36.8129 5.16874L36.6404 4.98779L36.6401 4.98799L36.8129 5.16874ZM38.3783 4.18937L38.32 3.94625L38.3196 3.94635L38.3783 4.18937ZM40.8713 4.3145L40.9166 4.06864L40.9161 4.06854L40.8713 4.3145ZM42.0375 4.60528L42.1191 4.36897L42.1189 4.3689L42.0375 4.60528ZM43.082 5.22516L42.8602 5.34064L42.8605 5.34109L43.082 5.22516ZM37.7807 6.82116L37.9372 7.01608L37.9374 7.01596L37.7807 6.82116ZM36.7415 8.06693L36.9531 8.20001L36.9532 8.19989L36.7415 8.06693ZM34.787 12.3206L34.7062 12.5572C34.8347 12.6011 34.9748 12.5344 35.0217 12.4069L34.787 12.3206ZM38.532 17.0296L38.2926 16.9574L38.2925 16.9577L38.532 17.0296ZM38.9292 15.745L39.1676 15.8201L39.1677 15.8199L38.9292 15.745ZM39.3612 14.179L39.1171 14.125L39.117 14.1252L39.3612 14.179ZM39.4703 12.6278L39.7077 12.5493C39.6644 12.4184 39.5234 12.3472 39.3924 12.3902C39.2614 12.4332 39.1899 12.5741 39.2326 12.7052L39.4703 12.6278ZM38.7406 13.2321L38.6116 13.0179L38.6115 13.018L38.7406 13.2321ZM37.7667 14.1724L37.9762 14.3089L37.9763 14.3087L37.7667 14.1724ZM36.6954 19.1925C36.7174 19.3288 36.8457 19.4215 36.9821 19.3995C37.1184 19.3775 37.211 19.2492 37.189 19.1128L36.6954 19.1925ZM39.246 12.5151C39.1867 12.6398 39.2397 12.789 39.3643 12.8483C39.489 12.9076 39.6382 12.8546 39.6975 12.73L39.246 12.5151ZM38.5757 26.4363C38.6574 26.3249 38.6334 26.1685 38.522 26.0868C38.4107 26.0051 38.2543 26.0291 38.1726 26.1405L38.5757 26.4363ZM37.7219 26.5046L37.7947 26.2655L37.7947 26.2655L37.7219 26.5046ZM37.3278 25.7661L37.0888 25.6928L37.0888 25.6928L37.3278 25.7661ZM37.7696 25.6212C37.8981 25.5707 37.9612 25.4255 37.9107 25.297C37.8601 25.1686 37.715 25.1054 37.5865 25.156L37.7696 25.6212ZM26.2096 33.9815L26.3544 34.1854L26.3621 34.1799L26.3693 34.1739L26.2096 33.9815ZM26.2088 35.0569L26.3816 34.8763L26.3816 34.8763L26.2088 35.0569ZM31.1574 38.1218L31.0552 38.3501L31.0643 38.3538L31.1574 38.1218ZM37.2532 39.7653L37.2601 39.5154L37.2601 39.5154L37.2532 39.7653ZM38.0312 38.987L38.2769 38.9407L38.2769 38.9407L38.0312 38.987ZM50.5101 44.9216C50.5506 44.7896 50.4764 44.6498 50.3444 44.6092C50.2124 44.5687 50.0726 44.6429 50.0321 44.7749L50.5101 44.9216ZM49.7277 46.6188L49.9667 46.6922L49.9667 46.6922L49.7277 46.6188ZM43.8641 46.9823L43.8202 47.2284L43.8202 47.2284L43.8641 46.9823ZM30.841 43.63L30.7682 43.8691L30.841 43.63ZM17.3881 38.8026L17.2825 39.0292L17.2825 39.0292L17.3881 38.8026ZM13.576 35.8417L13.3343 35.9055L13.3343 35.9056L13.576 35.8417ZM13.5836 35.4025L13.8226 35.4759L13.8226 35.4759L13.5836 35.4025ZM14.3076 33.8954C14.3481 33.7634 14.274 33.6236 14.142 33.5831C14.01 33.5426 13.8701 33.6167 13.8296 33.7487L14.3076 33.8954ZM35.348 36.571L35.2064 36.7771L35.2135 36.7817L35.348 36.571ZM37.071 37.5144L37.1718 37.2857L37.1716 37.2856L37.071 37.5144ZM18.9021 26.5472C18.9245 26.411 18.8322 26.2824 18.696 26.26C18.5597 26.2376 18.4311 26.3299 18.4088 26.4662L18.9021 26.5472ZM19.1585 28.596L18.992 28.7825L18.992 28.7825L19.1585 28.596ZM21.9426 30.074L21.8413 30.3026L21.8414 30.3026L21.9426 30.074ZM28.4452 32.5877L28.3508 32.8192L28.3509 32.8192L28.4452 32.5877ZM32.0133 34.3395L31.8834 34.5531L31.8834 34.5531L32.0133 34.3395ZM50.241 40.7116C50.3775 40.6913 50.4718 40.5642 50.4516 40.4276C50.4314 40.291 50.3042 40.1967 50.1677 40.217L50.241 40.7116ZM48.7343 40.4412L48.7606 40.1926L48.7604 40.1926L48.7343 40.4412ZM46.947 40.2016L46.9903 39.9554L46.9901 39.9554L46.947 40.2016ZM45.1794 39.8322L45.2362 39.5887L45.2361 39.5887L45.1794 39.8322ZM43.4226 39.4135L43.4795 39.17L43.4792 39.1699L43.4226 39.4135ZM43.2651 39.3769L43.3217 39.1333L43.3214 39.1333L43.2651 39.3769ZM36.7543 42.2946L36.8125 42.0515L36.8122 42.0514L36.7543 42.2946ZM41.6887 43.2499L41.6541 43.4975L41.6545 43.4976L41.6887 43.2499ZM41.7666 43.1042L41.5798 43.2704L41.5804 43.2711L41.7666 43.1042ZM40.4111 41.5811L40.224 41.747L40.2243 41.7473L40.4111 41.5811ZM40.3018 41.5237L40.2712 41.7719L40.2718 41.7719L40.3018 41.5237ZM38.1292 41.1701L38.0804 41.4153L38.0808 41.4153L38.1292 41.1701ZM37.9896 41.2009L37.8413 40.9996L37.841 40.9998L37.9896 41.2009ZM36.7217 42.1377L36.87 42.3391L36.8703 42.3388L36.7217 42.1377ZM31.3096 40.7778L31.3847 40.5393L31.3841 40.5391L31.3096 40.7778ZM34.9766 41.8451L35.041 41.6035L35.0408 41.6035L34.9766 41.8451ZM35.123 41.8193L35.2654 42.0248L35.2656 42.0246L35.123 41.8193ZM36.3779 40.9475L36.5205 41.1528L36.5212 41.1523L36.3779 40.9475ZM36.3485 40.79L36.2885 41.0327L36.2888 41.0327L36.3485 40.79ZM32.6845 39.7533L32.6094 39.9918L32.6095 39.9918L32.6845 39.7533ZM32.5325 39.7755L32.3923 39.5685L32.3922 39.5686L32.5325 39.7755ZM31.286 40.6206L31.1457 40.4137L31.1455 40.4139L31.286 40.6206ZM29.9433 40.2623L29.8038 40.0548L29.8037 40.0549L29.9433 40.2623ZM31.2366 39.3921L31.3761 39.5996L31.3763 39.5995L31.2366 39.3921ZM31.2189 39.2371L31.1287 39.4702L31.1288 39.4703L31.2189 39.2371ZM27.8314 37.8061L27.9388 37.5803L27.9383 37.5801L27.8314 37.8061ZM27.6668 37.8131L27.7928 38.029L27.7933 38.0287L27.6668 37.8131ZM26.1976 38.6705L26.3235 38.8865L26.3236 38.8864L26.1976 38.6705ZM26.209 38.8277L26.3032 38.5961L26.3028 38.5959L26.209 38.8277ZM29.7778 40.2792L29.8723 40.0478L29.872 40.0476L29.7778 40.2792ZM20.4947 35.9952L20.6226 35.7804L20.6223 35.7802L20.4947 35.9952ZM24.6246 38.0894L24.5182 38.3156L24.5186 38.3158L24.6246 38.0894ZM24.9416 38.0812L25.059 38.302L25.0591 38.3019L24.9416 38.0812ZM26.5025 37.2507L26.3853 37.0298L26.385 37.03L26.5025 37.2507ZM26.5022 37.0958L26.3823 37.3151L26.3833 37.3156L26.5022 37.0958ZM23.225 34.8561L23.0654 35.0485L23.0661 35.0491L23.225 34.8561ZM23.0474 34.828L22.9554 34.5955L22.955 34.5957L23.0474 34.828ZM20.5079 35.8379L20.6002 36.0703L20.6003 36.0702L20.5079 35.8379ZM37.1362 24.8819C37.2381 24.7887 37.2451 24.6305 37.1519 24.5287C37.0587 24.4268 36.9005 24.4198 36.7987 24.513L37.1362 24.8819ZM36.3921 24.8275L36.465 24.5884L36.465 24.5884L36.3921 24.8275ZM35.9982 24.0894L36.2372 24.1627L36.2372 24.1627L35.9982 24.0894ZM36.5305 23.9222C36.6678 23.9079 36.7676 23.785 36.7533 23.6477C36.739 23.5104 36.6161 23.4106 36.4787 23.4249L36.5305 23.9222ZM42.0681 28.9858C42.1086 28.8538 42.0344 28.7139 41.9024 28.6734C41.7704 28.6329 41.6306 28.7071 41.5901 28.8391L42.0681 28.9858ZM41.0881 29.3052L41.0153 29.5444L41.0881 29.3052ZM40.694 28.5667L40.455 28.4934L40.455 28.4934L40.694 28.5667ZM44.002 30.1835C44.0425 30.0515 43.9683 29.9117 43.8363 29.8712C43.7044 29.8307 43.5645 29.9048 43.524 30.0368L44.002 30.1835ZM43.0218 30.5029L42.9489 30.742L42.9489 30.742L43.0218 30.5029ZM42.628 29.7645L42.389 29.6911L42.389 29.6911L42.628 29.7645ZM42.9642 29.685C43.0662 29.5919 43.0735 29.4338 42.9804 29.3318C42.8874 29.2298 42.7293 29.2225 42.6273 29.3155L42.9642 29.685ZM45.9388 31.213C45.9793 31.081 45.9051 30.9411 45.7731 30.9006C45.6411 30.8601 45.5013 30.9343 45.4608 31.0663L45.9388 31.213ZM44.9588 31.5324L44.886 31.7715L44.9588 31.5324ZM44.5647 30.7939L44.8037 30.8672L44.8037 30.8672L44.5647 30.7939ZM34.9997 20.3502L34.7508 20.3738L34.7509 20.3741L34.9997 20.3502ZM34.937 19.688L35.1859 19.6645L35.1859 19.6642L34.937 19.688ZM35.1179 19.4812L35.1564 19.7282L35.1571 19.7281L35.1179 19.4812ZM38.1747 19.2025L38.4246 19.2061C38.4248 19.1971 38.4244 19.188 38.4236 19.1789L38.1747 19.2025ZM38.1601 20.2161L37.9101 20.2125C37.91 20.2214 37.9103 20.2304 37.9112 20.2394L38.1601 20.2161ZM37.9502 20.4258L37.9588 20.6756L37.9589 20.6756L37.9502 20.4258ZM35.2164 20.5196L35.2078 20.2698L35.2077 20.2698L35.2164 20.5196ZM36.573 24.6331L36.7919 24.5124L36.7916 24.5119L36.573 24.6331ZM36.2546 24.0587L36.0359 24.1798L36.036 24.1799L36.2546 24.0587ZM36.3128 23.8136L36.1773 23.6035L36.1771 23.6037L36.3128 23.8136ZM38.2696 22.5515L38.1344 22.3412L38.1341 22.3414L38.2696 22.5515ZM38.5308 22.6207L38.7608 22.5227C38.7573 22.5146 38.7534 22.5066 38.7491 22.4989L38.5308 22.6207ZM38.9181 23.5298L38.6881 23.6278C38.6914 23.6356 38.6951 23.6432 38.6992 23.6506L38.9181 23.5298ZM38.8381 23.787L38.9422 24.0143L38.9434 24.0137L38.8381 23.787ZM36.8123 24.7144L36.7083 24.4871L36.7074 24.4875L36.8123 24.7144ZM37.8458 26.3869L38.041 26.2307L38.0409 26.2306L37.8458 26.3869ZM37.4353 25.8745L37.2397 26.0303L37.2402 26.0309L37.4353 25.8745ZM37.4435 25.6296L37.2738 25.4461L37.2737 25.4462L37.4435 25.6296ZM39.0469 24.1475L39.2166 24.3311L39.2167 24.331L39.0469 24.1475ZM39.3062 24.1795L39.5165 24.0442C39.5118 24.037 39.5068 24.03 39.5015 24.0233L39.3062 24.1795ZM39.8799 25.0709L39.6697 25.2062C39.6744 25.2136 39.6796 25.2208 39.6851 25.2276L39.8799 25.0709ZM39.8536 25.3298L39.9862 25.5419L39.9935 25.537L39.8536 25.3298ZM38.087 26.4333L37.9545 26.2211L37.9462 26.2267L38.087 26.4333ZM39.5848 27.9106L39.421 28.0995L39.4215 28.1L39.5848 27.9106ZM39.0886 27.4804L38.9246 27.6692L38.9248 27.6693L39.0886 27.4804ZM39.0409 27.2513L39.2425 27.3991L39.2436 27.3976L39.0409 27.2513ZM40.122 25.7538L39.9207 25.6055L39.9193 25.6075L40.122 25.7538ZM40.3701 25.7537L40.2068 25.943L40.21 25.9456L40.3701 25.7537ZM41.1575 26.4106L41.3212 26.2216L41.3177 26.2186L41.1575 26.4106ZM41.1915 26.6553L41.3614 26.8387L41.3654 26.8349L41.1915 26.6553ZM39.8195 27.9261L39.6496 27.7427L39.6464 27.7458L39.8195 27.9261ZM41.3878 29.1527L41.2567 29.3656L41.2569 29.3657L41.3878 29.1527ZM40.8282 28.8082L40.9593 28.5953L40.9591 28.5952L40.8282 28.8082ZM40.7441 28.5899L40.5222 28.4746L40.5214 28.4761L40.7441 28.5899ZM41.6031 26.9371L41.8249 27.0524L41.8255 27.0512L41.6031 26.9371ZM41.8479 26.8969L41.9789 26.684L41.9788 26.6839L41.8479 26.8969ZM42.6829 27.4108L42.5519 27.6237L42.5521 27.6238L42.6829 27.4108ZM42.7563 27.6467L42.9549 27.7986L42.9568 27.7961L42.7563 27.6467ZM41.6216 29.13L41.423 28.978L41.4208 28.9809L41.6216 29.13ZM43.3395 30.3167L43.4709 30.104L43.4705 30.1038L43.3395 30.3167ZM42.7799 29.9722L42.911 29.7594L42.9108 29.7593L42.7799 29.9722ZM42.6954 29.7541L42.918 29.868L42.9193 29.8653L42.6954 29.7541ZM43.4946 28.1448L43.2718 28.0314L43.2707 28.0336L43.4946 28.1448ZM43.7394 28.1046L43.6083 28.3175L43.6084 28.3175L43.7394 28.1046ZM44.5747 28.6186L44.7058 28.4057L44.7057 28.4056L44.5747 28.6186ZM44.6481 28.8545L44.8484 29.004L44.8488 29.0035L44.6481 28.8545ZM43.5732 30.294L43.3729 30.1444L43.3725 30.1449L43.5732 30.294ZM45.3065 31.33L45.4379 31.1173L45.4376 31.1171L45.3065 31.33ZM44.747 30.9856L44.878 30.7727L44.8777 30.7725L44.747 30.9856ZM44.6627 30.7674L44.4408 30.6524L44.4402 30.6536L44.6627 30.7674ZM45.4009 29.3439L45.6228 29.459L45.6237 29.4574L45.4009 29.3439ZM45.6455 29.3034L45.7766 29.0905L45.7761 29.0902L45.6455 29.3034ZM46.4807 29.8176L46.6118 29.6047L46.6118 29.6047L46.4807 29.8176ZM46.5544 30.0536L46.7489 30.211L46.7552 30.2025L46.5544 30.0536ZM45.5403 31.3073L45.3457 31.1499L45.3396 31.1582L45.5403 31.3073ZM38.8323 23.805C38.774 23.6798 38.6253 23.6255 38.5002 23.6838C38.375 23.742 38.3207 23.8907 38.3789 24.0159L38.8323 23.805ZM38.6276 24.4657C38.6987 24.5841 38.8523 24.6224 38.9706 24.5513C39.089 24.4802 39.1273 24.3266 39.0562 24.2083L38.6276 24.4657ZM38.2203 22.0304C38.184 21.8972 38.0466 21.8186 37.9134 21.8549C37.7801 21.8911 37.7016 22.0285 37.7379 22.1618L38.2203 22.0304ZM37.9131 22.7135C37.9595 22.8435 38.1025 22.9113 38.2326 22.8649C38.3626 22.8185 38.4304 22.6755 38.384 22.5454L37.9131 22.7135ZM38.1576 22.0494L38.0922 21.8081L38.0907 21.8085L38.1576 22.0494ZM38.2896 21.8041L38.0453 21.8574C38.0474 21.867 38.0501 21.8765 38.0533 21.8858L38.2896 21.8041ZM38.0812 20.8501L38.3255 20.7968C38.3234 20.7871 38.3207 20.7777 38.3175 20.7683L38.0812 20.8501ZM37.8254 20.7381L37.9223 20.9686L37.9223 20.9685L37.8254 20.7381ZM35.565 21.6882L35.6615 21.9189L35.6619 21.9187L35.565 21.6882ZM35.4575 21.9251L35.6938 21.8434L35.6937 21.8431L35.4575 21.9251ZM35.6749 22.554L35.9112 22.4724L35.9112 22.4723L35.6749 22.554ZM35.9058 22.6744L35.971 22.9157L35.9726 22.9153L35.9058 22.6744ZM40.2442 27.8763C40.3161 27.7585 40.2788 27.6046 40.1609 27.5327C40.043 27.4609 39.8892 27.4982 39.8173 27.616L40.2442 27.8763ZM39.3503 28.0042L39.4231 27.7651L39.4231 27.7651L39.3503 28.0042ZM38.9567 27.2659L38.7177 27.1925L38.7177 27.1925L38.9567 27.2659ZM39.3829 27.1274C39.5089 27.0709 39.5653 26.9229 39.5087 26.797C39.4522 26.671 39.3043 26.6147 39.1783 26.6712L39.3829 27.1274ZM35.4498 20.8038C35.5764 20.7485 35.6342 20.6012 35.579 20.4746C35.5238 20.3481 35.3764 20.2903 35.2499 20.3455L35.4498 20.8038ZM34.9386 20.5985L35.0114 20.3593L35.0114 20.3593L34.9386 20.5985ZM35.1635 19.6914C35.2956 19.7316 35.4353 19.6572 35.4755 19.5251C35.5158 19.393 35.4413 19.2533 35.3092 19.2131L35.1635 19.6914ZM36.1526 22.889C36.2747 22.8244 36.3213 22.6731 36.2567 22.5511C36.1921 22.429 36.0408 22.3824 35.9188 22.447L36.1526 22.889ZM35.5837 22.7114L35.6565 22.4722L35.5837 22.7114ZM35.1896 21.9729L34.9506 21.8995L34.9506 21.8995L35.1896 21.9729ZM35.7075 21.8222C35.8396 21.8625 35.9793 21.788 36.0195 21.6559C36.0597 21.5238 35.9853 21.3841 35.8532 21.3439L35.7075 21.8222ZM41.0436 28.4756C41.1505 28.3883 41.1663 28.2308 41.0789 28.1239C40.9915 28.0169 40.834 28.0011 40.7271 28.0885L41.0436 28.4756ZM44.9242 30.6758C45.0461 30.611 45.0923 30.4596 45.0274 30.3377C44.9626 30.2158 44.8112 30.1696 44.6893 30.2344L44.9242 30.6758ZM22.5817 14.7173H22.8317V14.2173H22.5817V14.7173ZM7.55097 14.2173H7.30097V14.7173H7.55097V14.2173ZM19.5144 17.7775H19.7644V17.2775H19.5144V17.7775ZM1 17.2775H0.75V17.7775H1V17.2775ZM18.8898 20.8377H19.1398V20.3377H18.8898V20.8377ZM8.18925 20.3377H7.93925V20.8377H8.18925V20.3377ZM15.8147 23.8978H16.0647V23.3978H15.8147V23.8978ZM5.11417 23.3978H4.86417V23.8978H5.11417V23.3978ZM13.888 33.9738C14.468 34.6825 15.3966 35.4067 16.5683 36.1277C17.7435 36.8508 19.1784 37.5798 20.7851 38.2939C23.9987 39.7221 27.9146 41.0971 31.847 42.2489C35.7795 43.4007 39.7348 44.3311 43.0284 44.8685C44.6749 45.1372 46.1602 45.3083 47.3967 45.359C48.6259 45.4093 49.6353 45.3422 50.3148 45.1172L50.1577 44.6425C49.568 44.8378 48.6343 44.9093 47.4172 44.8594C46.2075 44.8098 44.7436 44.6418 43.1089 44.375C39.84 43.8417 35.9051 42.9164 31.9875 41.769C28.0698 40.6215 24.1759 39.2537 20.9882 37.837C19.3942 37.1286 17.9806 36.4096 16.8304 35.7018C15.6767 34.9919 14.803 34.3023 14.2749 33.6571L13.888 33.9738ZM44.3577 29.3011C44.8828 29.6348 44.6631 29.5169 45.1564 29.7958L45.4025 29.3606C44.9226 29.0892 45.1803 29.2314 44.6259 28.8791L44.3577 29.3011ZM42.469 28.0953C42.5287 28.1318 42.5888 28.1687 42.6496 28.2063L42.9125 27.781C42.8508 27.7428 42.79 27.7055 42.7297 27.6687L42.469 28.0953ZM42.6493 28.2061C42.8421 28.3257 43.0419 28.4532 43.2457 28.5842L43.5161 28.1636C43.3117 28.0322 43.1092 27.903 42.9128 27.7812L42.6493 28.2061ZM40.847 27.0628C41.0252 27.1957 41.1332 27.2685 41.3177 27.3877L41.5891 26.9678C41.4109 26.8526 41.3127 26.7863 41.1459 26.662L40.847 27.0628ZM39.4313 25.7C39.5676 25.8706 39.6235 25.9354 39.7726 26.0953L40.1384 25.7544C39.9978 25.6036 39.9502 25.5485 39.822 25.388L39.4313 25.7ZM37.602 20.4344C37.6039 20.5923 37.6075 20.6388 37.6099 20.6671C37.6104 20.6732 37.6102 20.6714 37.6101 20.6689C37.6099 20.6651 37.61 20.6629 37.61 20.6644C37.6098 20.6711 37.6089 20.6845 37.6063 20.7245L38.1053 20.757C38.1075 20.7221 38.1091 20.698 38.1097 20.6811C38.1106 20.655 38.1093 20.6388 38.1081 20.6247C38.1071 20.613 38.1038 20.5797 38.1019 20.4282L37.602 20.4344ZM22.143 17.8605C22.0981 17.9479 21.5866 18.8438 21.0676 19.7477C20.8096 20.1969 20.5517 20.6446 20.3525 20.9889C20.2529 21.1611 20.1681 21.3072 20.1054 21.4146C20.074 21.4684 20.0483 21.5121 20.0291 21.5444C20.0195 21.5606 20.0117 21.5736 20.0058 21.5834C20.0028 21.5883 20.0005 21.5921 19.9987 21.595C19.9968 21.5981 19.9961 21.5991 19.9963 21.5989L20.4145 21.8728C20.4669 21.7929 20.9888 20.8887 21.5012 19.9966C22.0144 19.103 22.5359 18.19 22.5878 18.0887L22.143 17.8605ZM19.9967 21.5982C19.9689 21.6404 19.9459 21.6722 19.9155 21.7169C19.8889 21.756 19.8579 21.8032 19.8333 21.8525L20.2808 22.0755C20.2893 22.0586 20.3039 22.035 20.3289 21.9982C20.3502 21.967 20.3849 21.9178 20.4141 21.8735L19.9967 21.5982ZM19.8354 21.8484C19.802 21.9125 19.7856 21.9691 19.7723 22.0194L20.2556 22.1476C20.2663 22.1073 20.2715 22.0936 20.2788 22.0796L19.8354 21.8484ZM19.7721 22.0202C19.4776 23.1444 19.3463 24.6389 19.9373 25.756L20.3792 25.5221C19.878 24.5748 19.9706 23.2355 20.2558 22.1469L19.7721 22.0202ZM19.9373 25.7559C20.3954 26.6221 21.0909 27.3662 21.7734 28.0117L22.117 27.6484C21.4452 27.013 20.7983 26.3143 20.3792 25.5222L19.9373 25.7559ZM21.7736 28.0118C22.5023 28.6995 23.4338 29.5159 24.236 30.1763L24.5538 29.7903C23.7593 29.1362 22.8364 28.3273 22.1168 27.6482L21.7736 28.0118ZM19.8558 21.8174L19.3504 22.4078L19.7302 22.7329L20.2356 22.1426L19.8558 21.8174ZM19.3503 22.4078C19.2773 22.4932 19.2207 22.5927 19.1855 22.7011L19.6611 22.8555C19.6754 22.8113 19.6989 22.7695 19.7302 22.7329L19.3503 22.4078ZM19.1858 22.7003L18.3446 25.26L18.8196 25.4161L19.6608 22.8564L19.1858 22.7003ZM18.3527 25.2387C18.3073 25.3435 18.2681 25.4593 18.2476 25.5836L18.7409 25.6649C18.753 25.5918 18.7773 25.5163 18.8115 25.4375L18.3527 25.2387ZM18.2476 25.5836C18.1351 26.2659 18.5179 26.8828 18.9719 27.3599C19.4335 27.8449 20.0209 28.2412 20.4409 28.4943L20.699 28.0661C20.2935 27.8217 19.7503 27.4525 19.3341 27.0152C18.9103 26.5699 18.668 26.1075 18.7409 25.6649L18.2476 25.5836ZM20.441 28.4943C21.8356 29.3345 22.968 29.7361 24.4698 30.2902L24.6428 29.8211C23.1353 29.2649 22.0469 28.878 20.699 28.066L20.441 28.4943ZM24.4698 30.2902C26.0031 30.856 27.5272 31.4308 29.0263 32.0683L29.222 31.6082C27.7111 30.9657 26.1775 30.3873 24.6428 29.8211L24.4698 30.2902ZM29.0365 32.0724C31.4228 32.9657 33.5715 34.3121 35.6547 35.7962L35.9448 35.389C33.8483 33.8954 31.6583 32.52 29.2118 31.6041L29.0365 32.0724ZM35.6553 35.7966C35.8961 35.9672 36.1076 36.1174 36.3723 36.2872L36.6424 35.8665C36.3887 35.7036 36.186 35.5599 35.9443 35.3886L35.6553 35.7966ZM36.3728 36.2876C36.8807 36.6118 37.5899 37.0118 38.1296 37.2492L38.3309 36.7915C37.8221 36.5677 37.1363 36.1817 36.6418 35.8661L36.3728 36.2876ZM38.1294 37.2491C40.1306 38.131 42.2718 38.6415 44.3678 39.1263L44.4804 38.6391C42.38 38.1533 40.283 37.6518 38.3311 36.7916L38.1294 37.2491ZM44.3678 39.1263C45.6662 39.4265 47.002 39.7844 48.3414 40.0007L48.4211 39.5071C47.1038 39.2943 45.8018 38.9447 44.4804 38.6391L44.3678 39.1263ZM48.3415 40.0008C48.3504 40.0022 48.4827 40.0342 48.6024 39.9505C48.7139 39.8725 48.749 39.7445 48.7652 39.6528L48.2729 39.5656C48.2679 39.5938 48.2639 39.6008 48.2661 39.5961C48.2688 39.5904 48.2822 39.5643 48.3159 39.5407C48.3521 39.5154 48.3889 39.5087 48.4116 39.5079C48.4274 39.5073 48.4388 39.51 48.4209 39.5071L48.3415 40.0008ZM48.769 39.6047C48.7674 39.5139 48.7421 39.3605 48.7079 39.1847C48.672 39.0005 48.6215 38.7683 48.5611 38.5063C48.4402 37.9821 48.2783 37.3326 48.111 36.6977C47.9439 36.063 47.7707 35.4404 47.6274 34.9702C47.5559 34.7357 47.4907 34.5356 47.4366 34.3898C47.4099 34.3177 47.3838 34.2533 47.3592 34.2029C47.3472 34.1783 47.3324 34.1505 47.3148 34.1248C47.306 34.1119 47.2934 34.0949 47.2767 34.0778C47.262 34.0627 47.2318 34.0345 47.186 34.015L46.9904 34.4752C46.9503 34.4582 46.9264 34.4347 46.9184 34.4266C46.9086 34.4164 46.9032 34.4086 46.9021 34.407C46.9001 34.404 46.9027 34.4075 46.9099 34.4222C46.9237 34.4505 46.9431 34.497 46.9678 34.5637C47.0167 34.6956 47.0785 34.8846 47.1491 35.116C47.2899 35.5777 47.4612 36.1936 47.6275 36.8251C47.7938 37.4563 47.9544 38.1006 48.0739 38.6187C48.1337 38.8779 48.1828 39.104 48.2171 39.2803C48.253 39.4649 48.2684 39.5743 48.2691 39.6136L48.769 39.6047ZM47.1863 34.0152C47.1548 34.0018 47.117 33.9834 47.0668 33.9594C47.0198 33.9369 46.9643 33.9107 46.9086 33.888L46.7196 34.3509C46.7604 34.3675 46.8042 34.3881 46.8512 34.4105C46.8951 34.4315 46.9461 34.4563 46.9901 34.4751L47.1863 34.0152ZM46.909 33.8881C42.6232 32.1304 38.5532 30.1657 35.029 27.1652L34.7049 27.5459C38.2904 30.5987 42.4195 32.5873 46.7192 34.3507L46.909 33.8881ZM35.0289 27.1652C34.273 26.5219 33.3136 25.7783 32.6765 25.0771L32.3065 25.4133C32.9723 26.1462 33.979 26.9282 34.7049 27.546L35.0289 27.1652ZM32.6765 25.0771C32.0016 24.3343 31.7858 24.1237 31.212 23.2748L30.7977 23.5548C31.3937 24.4365 31.6316 24.6705 32.3065 25.4133L32.6765 25.0771ZM31.2119 23.2747C30.8632 22.7591 30.7527 22.0455 30.8712 21.4808L30.3818 21.3782C30.238 22.0638 30.3668 22.9176 30.7978 23.5548L31.2119 23.2747ZM30.8721 21.4762L32.1752 14.6179L31.684 14.5246L30.3809 21.3828L30.8721 21.4762ZM25.7836 11.7491C25.9366 11.0855 26.0981 10.6457 26.2922 10.2893C26.4863 9.9328 26.7194 9.64797 27.0342 9.29603L26.6615 8.9627C26.3404 9.32166 26.0757 9.64132 25.8531 10.0502C25.6303 10.4592 25.4557 10.9457 25.2964 11.6368L25.7836 11.7491ZM27.0342 9.29596C27.7571 8.48717 28.6022 7.53694 29.2242 6.48777C29.8472 5.43707 30.2618 4.26215 30.0932 3.00513L29.5976 3.07163C29.7456 4.17432 29.3866 5.23357 28.7941 6.23277C28.2008 7.23351 27.3888 8.14891 26.6614 8.96277L27.0342 9.29596ZM30.0931 3.00472C30.0089 2.3851 29.7423 1.6623 29.4199 1.2778L29.0368 1.59901C29.2781 1.88691 29.5211 2.50863 29.5977 3.07203L30.0931 3.00472ZM29.4196 1.27736C29.2282 1.05014 29.02 0.946606 28.6091 0.770264L28.4119 1.22974C28.8265 1.40765 28.9305 1.47282 29.0371 1.59945L29.4196 1.27736ZM28.4119 1.22971C28.3495 1.20292 28.3151 1.1577 28.2986 1.12813C28.2827 1.09982 28.2773 1.07579 28.2754 1.06587C28.2716 1.04639 28.2732 1.03662 28.2727 1.04661C28.2718 1.06314 28.2674 1.09812 28.2559 1.15632C28.2337 1.26948 28.1925 1.43412 28.1361 1.6384C28.0238 2.04504 27.8573 2.58767 27.6806 3.1436C27.3273 4.25478 26.937 5.40713 26.8685 5.60374L27.3407 5.7682C27.4107 5.56717 27.8025 4.41049 28.1571 3.29509C28.3343 2.73772 28.5032 2.18766 28.618 1.77144C28.6752 1.56429 28.7205 1.38497 28.7465 1.25276C28.7592 1.18828 28.7693 1.12524 28.772 1.0723C28.7733 1.04755 28.7739 1.01017 28.7662 0.970708C28.7625 0.951602 28.7391 0.826089 28.6092 0.770291L28.4119 1.22971ZM26.8685 5.60369C26.4474 6.81201 25.9927 8.00574 25.4562 9.16106L25.9097 9.37166C26.4558 8.19557 26.9167 6.9848 27.3407 5.76825L26.8685 5.60369ZM25.4561 9.16113C25.2079 9.69597 24.9018 10.202 24.5906 10.7259C24.282 11.2454 23.9695 11.781 23.7263 12.3558L24.1867 12.5507C24.4151 12.011 24.7111 11.5021 25.0205 10.9812C25.3272 10.4647 25.6485 9.9345 25.9097 9.37159L25.4561 9.16113ZM23.7099 12.4944C23.7164 12.533 23.7219 12.6052 23.7284 12.7174C23.7345 12.8231 23.741 12.9572 23.7508 13.1006C23.7702 13.3874 23.8033 13.7339 23.8784 14.0473L24.3646 13.931C24.2997 13.6597 24.2686 13.3473 24.2496 13.0668C24.2401 12.9266 24.234 12.8 24.2276 12.6887C24.2215 12.5837 24.2149 12.4825 24.2031 12.412L23.7099 12.4944ZM26.708 14.3243L31.9059 14.8202L31.9533 14.3224L26.7555 13.8266L26.708 14.3243ZM32.0299 14.8003L36.0738 13.0286L35.8732 12.5707L31.8293 14.3423L32.0299 14.8003ZM36.0752 12.5713C35.2035 12.183 34.2882 11.8696 33.355 11.5612C32.4186 11.2518 31.4653 10.9477 30.5009 10.575L30.3207 11.0414C31.2998 11.4198 32.2686 11.7288 33.1981 12.036C34.1307 12.3442 35.025 12.6509 35.8718 13.028L36.0752 12.5713ZM30.5011 10.5751C29.9321 10.3547 29.3268 10.0972 28.7491 9.94986L28.6255 10.4343C29.1651 10.572 29.7274 10.8115 30.3205 11.0414L30.5011 10.5751ZM28.7492 9.94987C28.3816 9.85601 28.0141 9.804 27.6759 9.81904L27.6981 10.3185C27.9726 10.3063 28.289 10.3484 28.6254 10.4343L28.7492 9.94987ZM27.6761 9.81903C27.2021 9.83978 26.8002 9.99289 26.428 10.2848L26.7365 10.6782C27.0291 10.4488 27.3313 10.3346 27.698 10.3186L27.6761 9.81903ZM26.4288 10.2841C26.2384 10.4321 26.06 10.6158 25.9164 10.7724L26.2849 11.1103C26.4237 10.9589 26.5793 10.8004 26.7356 10.6789L26.4288 10.2841ZM25.9168 10.772C25.7064 11.0003 25.5474 11.1982 25.3262 11.5634L25.7539 11.8224C25.9564 11.4879 26.0949 11.3166 26.2845 11.1108L25.9168 10.772ZM25.3303 11.5569C24.7019 12.526 24.078 13.5109 23.5323 14.5418L23.9742 14.7758C24.5088 13.7658 25.1222 12.7969 25.7498 11.8289L25.3303 11.5569ZM23.5322 14.5419C22.9987 15.5506 22.5962 16.6124 22.174 17.6426L22.6367 17.8322C23.0659 16.7848 23.4555 15.7564 23.9742 14.7757L23.5322 14.5419ZM22.1749 17.6404C22.1483 17.7038 22.0742 17.8588 22.1244 18.0409L22.6064 17.9082C22.608 17.9139 22.6062 17.9167 22.6082 17.908C22.6094 17.9025 22.6118 17.8943 22.6166 17.8816C22.6215 17.8683 22.6274 17.8543 22.6358 17.8344L22.1749 17.6404ZM22.5319 18.1611L26.8983 14.2619L26.5652 13.889L22.1989 17.7881L22.5319 18.1611ZM28.3316 10.2716C28.6327 9.98612 28.7705 9.86205 28.8799 9.75739L28.5342 9.39617C28.4157 9.50955 28.3095 9.60349 27.9876 9.90882L28.3316 10.2716ZM28.8792 9.7581C29.9247 8.7657 30.3581 7.81489 30.6481 7.11849L30.1865 6.92629C29.9078 7.59567 29.507 8.47274 28.5349 9.39545L28.8792 9.7581ZM30.648 7.11866C30.8809 6.56049 31.0339 6.13888 31.1243 5.62664L30.6319 5.53968C30.5511 5.9973 30.415 6.37867 30.1866 6.92612L30.648 7.11866ZM31.1242 5.62717C31.2562 4.88917 31.2597 3.96274 30.9505 3.06079L30.4775 3.22292C30.7532 4.02728 30.7526 4.86488 30.632 5.53916L31.1242 5.62717ZM30.9505 3.06085C30.6095 2.06539 29.8741 1.07588 28.5699 0.757148L28.4512 1.24285C29.54 1.50895 30.1728 2.33328 30.4775 3.22286L30.9505 3.06085ZM34.3554 13.3425C34.2876 13.6186 34.1477 14.0898 34.1127 14.2131L34.5937 14.3496C34.6251 14.2393 34.7704 13.7493 34.841 13.4618L34.3554 13.3425ZM34.1126 14.2138C33.9075 14.9435 33.6027 15.8455 33.4063 16.7314L33.8944 16.8397C34.0873 15.9696 34.3783 15.1167 34.5939 14.349L34.1126 14.2138ZM33.4063 16.7315C32.9723 18.6923 33.0485 20.6591 33.5936 22.3776L34.0702 22.2264C33.5538 20.5983 33.478 18.7214 33.8944 16.8396L33.4063 16.7315ZM33.5937 22.3777C34.2688 24.5038 35.657 26.2267 37.1968 27.7481L37.5482 27.3924C36.031 25.8932 34.7093 24.2389 34.0702 22.2264L33.5937 22.3777ZM37.197 27.7483C37.8325 28.375 38.5006 28.9746 39.3274 29.5698L39.6195 29.1641C38.8197 28.5882 38.1714 28.007 37.548 27.3922L37.197 27.7483ZM39.3274 29.5698C40.3166 30.282 41.5274 30.9838 42.7031 31.5839L42.9304 31.1386C41.7687 30.5455 40.5816 29.8566 39.6195 29.1641L39.3274 29.5698ZM42.7031 31.5839C43.5101 31.9958 44.3043 32.3622 45.0956 32.7413L45.3117 32.2904C44.5118 31.9072 43.7299 31.5467 42.9304 31.1386L42.7031 31.5839ZM45.0953 32.7411C45.6608 33.0131 46.268 33.313 46.8199 33.4402L46.9322 32.9529C46.4471 32.8412 45.8974 32.5721 45.312 32.2905L45.0953 32.7411ZM38.4573 24.7082C38.3053 24.5277 38.1668 24.3421 38.0445 24.1501L37.6228 24.4188C37.7585 24.6318 37.9105 24.8351 38.0747 25.0302L38.4573 24.7082ZM39.8836 26.0278C39.6871 25.8774 39.5351 25.7541 39.3519 25.5969L39.0263 25.9763C39.2166 26.1397 39.3759 26.2688 39.5795 26.4247L39.8836 26.0278ZM41.5101 27.1799C41.3241 27.0534 41.1388 26.9274 40.9549 26.8005L40.6709 27.212C40.8564 27.34 41.0432 27.467 41.2289 27.5933L41.5101 27.1799ZM43.3725 28.436C43.0933 28.268 42.826 28.0875 42.5554 27.8999L42.2706 28.3109C42.5436 28.5001 42.8215 28.688 43.1148 28.8644L43.3725 28.436ZM45.356 29.4186C45.047 29.2665 44.75 29.1318 44.4721 29.0034L44.2623 29.4573C44.5444 29.5876 44.8333 29.7186 45.1351 29.8672L45.356 29.4186ZM47.0629 34.1444C47.0888 33.8859 47.093 33.7545 47.0999 33.6113L46.6004 33.5872C46.5935 33.732 46.5898 33.8508 46.5654 34.0944L47.0629 34.1444ZM47.0998 33.6117C47.1106 33.3968 47.1303 33.1386 47.151 32.874C47.1715 32.6112 47.193 32.342 47.2064 32.111L46.7072 32.082C46.6942 32.3068 46.6732 32.57 46.6525 32.8351C46.6319 33.0984 46.6116 33.3636 46.6005 33.5868L47.0998 33.6117ZM47.2064 32.1103C47.219 31.884 47.2234 31.6926 47.2202 31.4807L46.7202 31.4884C46.7233 31.6871 46.7192 31.8666 46.7072 32.0827L47.2064 32.1103ZM47.2202 31.4807C47.2169 31.2631 47.2053 30.971 47.0543 30.6898L46.6139 30.9264C46.7027 31.0919 46.717 31.2753 46.7202 31.4884L47.2202 31.4807ZM47.0539 30.689C46.9315 30.4633 46.731 30.267 46.5107 30.0977L46.2061 30.4942C46.4014 30.6442 46.5398 30.7899 46.6143 30.9273L47.0539 30.689ZM36.6035 22.6037C36.6981 22.8037 36.7618 22.9017 36.8647 23.0888L37.3028 22.8477C37.186 22.6355 37.1415 22.5717 37.0554 22.3898L36.6035 22.6037ZM36.8647 23.0887C36.9095 23.1702 36.9566 23.2565 37.0046 23.345L37.4443 23.107C37.3957 23.0173 37.3481 22.9301 37.3028 22.8478L36.8647 23.0887ZM36.0292 20.5698C36.042 20.6593 36.0437 20.6643 36.0572 20.7462L36.5506 20.6654C36.536 20.5764 36.536 20.5819 36.5243 20.4994L36.0292 20.5698ZM36.0573 20.7469C36.0933 20.9633 36.1356 21.1771 36.1836 21.3826L36.6705 21.269C36.6252 21.0747 36.5849 20.8714 36.5505 20.6647L36.0573 20.7469ZM35.7989 13.099C35.9749 13.135 36.1357 13.2052 36.2569 13.254L36.4438 12.7903C36.3397 12.7483 36.1301 12.6564 35.8992 12.6091L35.7989 13.099ZM36.2554 13.2534C36.5583 13.3778 36.7993 13.6631 36.8923 13.9834L37.3725 13.844C37.2411 13.3912 36.902 12.9785 36.4454 12.7909L36.2554 13.2534ZM36.8924 13.9837C36.9723 14.2577 36.9475 14.5716 36.8614 14.9256C36.7743 15.2834 36.6366 15.6403 36.5104 16.0186L36.9847 16.1768C37.101 15.8283 37.2536 15.4286 37.3472 15.0438C37.4418 14.6552 37.4881 14.2405 37.3724 13.8437L36.8924 13.9837ZM36.5104 16.0186C36.2114 16.9155 36.0535 17.7232 35.9335 18.6288L36.4291 18.6945C36.5464 17.8096 36.6987 17.0348 36.9847 16.1768L36.5104 16.0186ZM35.9326 18.6366C35.9126 18.8351 35.9073 19.0698 35.9147 19.3226L36.4144 19.308C36.4075 19.0693 36.4129 18.8574 36.43 18.6867L35.9326 18.6366ZM46.8798 31.513C46.8798 31.513 46.8799 31.5131 46.8803 31.5132C46.8806 31.5133 46.8811 31.5135 46.8817 31.5137C46.8829 31.5141 46.8845 31.5147 46.8865 31.5155C46.8907 31.517 46.896 31.5191 46.9027 31.5217C46.916 31.5268 46.9334 31.5337 46.9549 31.5423C46.9977 31.5595 47.0551 31.5829 47.1254 31.6119C47.2658 31.6698 47.4562 31.7495 47.6819 31.8451C48.1334 32.0364 48.7247 32.2912 49.3377 32.5634C49.9509 32.8357 50.5843 33.1248 51.1202 33.3848C51.662 33.6477 52.0875 33.8729 52.2968 34.0185L52.5823 33.608C52.336 33.4367 51.8757 33.1956 51.3385 32.935C50.7953 32.6715 50.1563 32.3799 49.5406 32.1065C48.3155 31.5624 47.1623 31.0814 47.0423 31.0402L46.8798 31.513ZM52.2952 34.0173C52.5513 34.1984 52.6744 34.4407 52.7237 34.7441C52.7749 35.0588 52.7443 35.4258 52.6933 35.8359L53.1895 35.8975C53.2403 35.4889 53.2812 35.0571 53.2172 34.6638C53.1514 34.2591 52.9727 33.884 52.5839 33.6091L52.2952 34.0173ZM52.6933 35.8358C52.5306 37.1447 52.213 38.5237 51.5214 39.5988L51.9419 39.8693C52.6948 38.6989 53.0239 37.2299 53.1895 35.8975L52.6933 35.8358ZM51.5616 39.5508C51.4524 39.6521 51.395 39.693 51.3653 39.7101C51.3525 39.7174 51.347 39.719 51.3462 39.7193C51.3442 39.7199 51.3414 39.7207 51.3246 39.7233L51.4024 40.2172C51.454 40.2091 51.5225 40.1963 51.6139 40.1439C51.6932 40.0984 51.7836 40.027 51.9017 39.9173L51.5616 39.5508ZM51.3269 39.723C50.9878 39.7731 50.5578 39.76 50.067 39.7133C49.5776 39.6667 49.0486 39.589 48.5089 39.5167L48.4425 40.0122C48.9728 40.0833 49.5176 40.1632 50.0196 40.2111C50.5201 40.2587 50.9991 40.2769 51.4 40.2176L51.3269 39.723ZM46.7836 33.8236C46.9317 33.8649 47.7265 34.1598 48.6684 34.5156C49.6007 34.8678 50.6551 35.271 51.3052 35.5201L51.4842 35.0532C50.8339 34.804 49.7785 34.4004 48.845 34.0479C47.9211 33.6989 47.0941 33.3911 46.9179 33.342L46.7836 33.8236ZM51.3051 35.5201C51.5952 35.6314 51.7948 35.8976 51.8206 36.2057L52.3188 36.1641C52.2771 35.6645 51.9532 35.2332 51.4843 35.0533L51.3051 35.5201ZM51.82 36.1979L51.9585 38.8409L52.4578 38.8148L52.3194 36.1718L51.82 36.1979ZM14.2912 33.9514C14.2909 33.9519 14.2922 33.9499 14.2961 33.9446C14.2997 33.9396 14.3046 33.9331 14.3109 33.9248C14.3237 33.9081 14.3407 33.8865 14.3621 33.8598C14.4048 33.8066 14.4626 33.7362 14.5337 33.6507C14.6758 33.4799 14.8686 33.2518 15.0951 32.9857C15.5481 32.4537 16.1339 31.7725 16.7139 31.1003C17.2938 30.4282 17.8676 29.7655 18.2965 29.2709C18.5109 29.0235 18.6891 28.8182 18.8136 28.6748C18.8759 28.603 18.9248 28.5467 18.9581 28.5084C18.9748 28.4892 18.9875 28.4745 18.9961 28.4647C19.0004 28.4597 19.0037 28.456 19.0059 28.4535C19.0069 28.4522 19.0078 28.4513 19.0083 28.4506C19.0086 28.4503 19.0088 28.4501 19.0089 28.4499C19.009 28.4498 19.0091 28.4498 19.0091 28.4497C19.0091 28.4497 19.0091 28.4497 18.8204 28.2857C18.6317 28.1217 18.6317 28.1217 18.6317 28.1217C18.6317 28.1218 18.6316 28.1218 18.6315 28.1219C18.6314 28.1221 18.6312 28.1223 18.6309 28.1226C18.6304 28.1233 18.6295 28.1242 18.6284 28.1255C18.6263 28.128 18.623 28.1318 18.6187 28.1367C18.6101 28.1466 18.5973 28.1613 18.5806 28.1805C18.5473 28.2189 18.4984 28.2752 18.4361 28.347C18.3115 28.4905 18.1332 28.6959 17.9187 28.9433C17.4897 29.4382 16.9156 30.1012 16.3353 30.7736C15.7551 31.4461 15.1684 32.1283 14.7144 32.6616C14.4875 32.9281 14.2932 33.158 14.1493 33.331C14.0119 33.4961 13.9065 33.6257 13.8717 33.6794L14.2912 33.9514ZM50.4745 39.9627C50.4644 39.995 50.4561 40.0221 50.4492 40.0446C50.4422 40.0677 50.4372 40.0841 50.4328 40.0977C50.4237 40.1261 50.4226 40.1245 50.4268 40.1175L50.8582 40.3702C50.8833 40.3273 50.8979 40.2849 50.9089 40.2504C50.9147 40.2325 50.9209 40.2119 50.9275 40.1904C50.9343 40.1682 50.942 40.143 50.9514 40.1132L50.4745 39.9627ZM50.4283 40.1149C50.4388 40.0974 50.4495 40.0945 50.4387 40.1001C50.4257 40.1067 50.4033 40.1148 50.3617 40.1258C50.3309 40.1339 50.2658 40.1493 50.2187 40.1634C50.1667 40.179 50.097 40.2036 50.0324 40.2482L50.3163 40.6597C50.3155 40.6603 50.3181 40.6584 50.3264 40.6549C50.3347 40.6513 50.3462 40.6472 50.3624 40.6423C50.402 40.6304 50.4302 40.6249 50.4898 40.6091C50.5706 40.5877 50.7563 40.5395 50.8567 40.3728L50.4283 40.1149ZM50.0329 40.2478C49.8409 40.3796 49.8023 40.6064 49.7847 40.7202L50.2789 40.7965C50.2874 40.7412 50.2962 40.7046 50.3064 40.6794C50.3157 40.6567 50.3208 40.6566 50.3158 40.6601L50.0329 40.2478ZM49.7848 40.7198C49.6714 41.4475 49.9064 42.2034 50.107 42.9015L50.5876 42.7634C50.3766 42.0293 50.186 41.3922 50.2788 40.7968L49.7848 40.7198ZM50.1071 42.9019C50.3187 43.6332 50.4602 44.2247 50.0711 44.7178L50.4636 45.0275C51.036 44.3021 50.7841 43.4427 50.5874 42.7629L50.1071 42.9019ZM33.0597 11.7162C33.1659 11.3395 33.4887 10.5261 33.8433 9.78377L33.3922 9.56822C33.0327 10.3206 32.6959 11.1637 32.5785 11.5806L33.0597 11.7162ZM33.8434 9.78369C34.1763 9.08617 34.5324 8.46216 34.9119 7.88056L34.4932 7.60731C34.1021 8.20657 33.7351 8.84986 33.3921 9.5683L33.8434 9.78369ZM34.9121 7.88031C35.5339 6.92506 36.2132 6.08755 36.9856 5.34949L36.6401 4.98799C35.8364 5.75601 35.1331 6.62428 34.4931 7.60755L34.9121 7.88031ZM36.9854 5.3497C37.4306 4.92522 37.8715 4.56895 38.437 4.43238L38.3196 3.94635C37.6172 4.11599 37.095 4.55444 36.6404 4.98779L36.9854 5.3497ZM38.4366 4.43248C38.7931 4.34704 39.2163 4.34526 39.6452 4.38382C40.0721 4.42221 40.4869 4.49864 40.8266 4.56046L40.9161 4.06854C40.5799 4.00735 40.1431 3.92657 39.6899 3.88583C39.2387 3.84526 38.7533 3.84242 38.32 3.94625L38.4366 4.43248ZM40.826 4.56036C41.2283 4.63446 41.4916 4.68168 41.9561 4.84165L42.1189 4.3689C41.6175 4.19623 41.3239 4.14367 40.9166 4.06864L40.826 4.56036ZM41.9559 4.84158C42.1451 4.9069 42.355 4.98687 42.5322 5.08095C42.7203 5.18076 42.8248 5.27267 42.8602 5.34064L43.3037 5.10968C43.1933 4.89779 42.9681 4.74622 42.7666 4.6393C42.5544 4.52663 42.315 4.4366 42.1191 4.36897L41.9559 4.84158ZM42.8605 5.34109C42.8989 5.41447 42.8841 5.55402 42.724 5.77864C42.5785 5.98267 42.3713 6.1716 42.2402 6.27852L42.5562 6.66601C42.702 6.5471 42.9482 6.32547 43.1311 6.0689C43.2993 5.83293 43.488 5.46185 43.3035 5.10924L42.8605 5.34109ZM42.4782 6.23542C40.6457 5.61626 38.8508 5.63952 37.624 6.62636L37.9374 7.01596C38.9711 6.18443 40.5577 6.11431 42.3182 6.70911L42.4782 6.23542ZM37.6241 6.62625C37.198 6.9685 36.8546 7.41681 36.5298 7.93396L36.9532 8.19989C37.2651 7.70327 37.5737 7.30809 37.9372 7.01608L37.6241 6.62625ZM36.5299 7.93384C35.8266 9.05212 35.1661 10.5663 34.5524 12.2343L35.0217 12.4069C35.6316 10.7492 36.2779 9.27379 36.9531 8.20001L36.5299 7.93384ZM34.8679 12.084L32.8999 11.4118L32.7383 11.885L34.7062 12.5572L34.8679 12.084ZM38.1687 19.1067C38.6619 17.4452 38.722 17.266 38.7714 17.1015L38.2925 16.9577C38.2451 17.1156 38.1823 17.3038 37.6894 18.9645L38.1687 19.1067ZM38.7714 17.1017C39.0063 16.3221 39.0518 16.1878 39.1676 15.8201L38.6907 15.6699C38.5752 16.0367 38.5286 16.1742 38.2926 16.9574L38.7714 17.1017ZM39.1677 15.8199C39.3308 15.3009 39.4866 14.7723 39.6053 14.2327L39.117 14.1252C39.003 14.6434 38.8523 15.1555 38.6907 15.6701L39.1677 15.8199ZM39.6053 14.2329C39.6553 14.0067 39.7254 13.7208 39.7611 13.4356C39.7968 13.1507 39.8027 12.8369 39.7077 12.5493L39.2329 12.7062C39.2939 12.8905 39.297 13.118 39.265 13.3735C39.233 13.6289 39.1706 13.8826 39.1171 14.125L39.6053 14.2329ZM39.2326 12.7052C39.2167 12.6564 39.2294 12.619 39.2335 12.6095C39.2366 12.6023 39.2354 12.6084 39.2178 12.6275C39.1827 12.6656 39.1208 12.7147 39.0383 12.7695C38.8629 12.8862 38.7052 12.9615 38.6116 13.0179L38.8695 13.4463C38.9001 13.4279 39.1402 13.3022 39.3151 13.1859C39.4078 13.1243 39.5092 13.049 39.5853 12.9665C39.6233 12.9253 39.6648 12.872 39.6925 12.8079C39.7212 12.7415 39.7404 12.6497 39.708 12.5503L39.2326 12.7052ZM38.6115 13.018C38.1462 13.2983 37.8614 13.5685 37.5572 14.0361L37.9763 14.3087C38.2385 13.9057 38.4678 13.6883 38.8696 13.4462L38.6115 13.018ZM37.5573 14.036C37.2639 14.4864 36.9685 15.2651 36.7859 16.1741C36.6025 17.0874 36.5282 18.1563 36.6954 19.1925L37.189 19.1128C37.0335 18.1491 37.1015 17.1421 37.2761 16.2725C37.4516 15.3986 37.7299 14.6871 37.9762 14.3089L37.5573 14.036ZM42.1724 6.36485L39.246 12.5151L39.6975 12.73L42.6239 6.57968L42.1724 6.36485ZM38.1726 26.1405C38.0888 26.2546 37.9382 26.3092 37.7947 26.2655L37.6491 26.7438C38.0014 26.8511 38.3699 26.7167 38.5757 26.4363L38.1726 26.1405ZM37.7947 26.2655C37.613 26.2101 37.5118 26.019 37.5668 25.8395L37.0888 25.6928C36.9522 26.1381 37.2042 26.6083 37.6491 26.7438L37.7947 26.2655ZM37.5668 25.8395C37.5985 25.7362 37.6746 25.6586 37.7696 25.6212L37.5865 25.156C37.3566 25.2465 37.1673 25.4372 37.0888 25.6928L37.5668 25.8395ZM27.9135 32.2423L26.05 33.7892L26.3693 34.1739L28.2329 32.6271L27.9135 32.2423ZM26.0649 33.7777C25.8205 33.9512 25.692 34.211 25.6921 34.487C25.6922 34.759 25.8163 35.0272 26.0359 35.2375L26.3816 34.8763C26.2463 34.7467 26.1921 34.604 26.1921 34.4868C26.1921 34.3735 26.2416 34.2655 26.3544 34.1854L26.0649 33.7777ZM26.0359 35.2375C26.7639 35.9344 27.9713 36.9686 31.0552 38.3499L31.2596 37.8936C28.2249 36.5344 27.066 35.5314 26.3816 34.8763L26.0359 35.2375ZM31.0643 38.3538C34.1105 39.5763 36.2523 39.9876 37.2462 40.0152L37.2601 39.5154C36.349 39.4901 34.2693 39.1012 31.2505 37.8897L31.0643 38.3538ZM37.2462 40.0152C37.56 40.024 37.8446 39.9176 38.0405 39.7207C38.2388 39.5214 38.3333 39.2404 38.2769 38.9407L37.7855 39.0333C37.8109 39.1681 37.7703 39.2834 37.686 39.3681C37.5993 39.4552 37.4539 39.5208 37.2601 39.5154L37.2462 40.0152ZM38.2769 38.9407L38.0517 37.7459L37.5604 37.8385L37.7855 39.0333L38.2769 38.9407ZM50.0321 44.7749L49.4887 46.5455L49.9667 46.6922L50.5101 44.9216L50.0321 44.7749ZM49.4887 46.5455C49.4099 46.8023 49.1557 46.9942 48.6863 47.1068C48.2244 47.2177 47.6242 47.2324 46.9883 47.1925C45.7183 47.1128 44.3935 46.8227 43.9079 46.7361L43.8202 47.2284C44.2793 47.3102 45.6496 47.6095 46.957 47.6915C47.6098 47.7325 48.2687 47.7213 48.803 47.593C49.3298 47.4666 49.8089 47.2065 49.9667 46.6922L49.4887 46.5455ZM43.908 46.7361C39.5132 45.9524 35.1929 44.6941 30.9139 43.3908L30.7682 43.8691C35.048 45.1726 39.3934 46.4389 43.8202 47.2284L43.908 46.7361ZM30.9139 43.3908C26.3707 42.0071 21.7873 40.5761 17.4936 38.576L17.2825 39.0292C21.6123 41.0462 26.2276 42.4862 30.7682 43.8691L30.9139 43.3908ZM17.4936 38.576C16.806 38.2556 15.9818 37.9177 15.267 37.4631C14.5526 37.0087 14.0007 36.4692 13.8177 35.7777L13.3343 35.9056C13.5656 36.7795 14.247 37.4069 14.9987 37.885C15.75 38.3628 16.6247 38.7228 17.2825 39.0292L17.4936 38.576ZM13.8177 35.7778C13.7912 35.6774 13.7928 35.5729 13.8226 35.4759L13.3446 35.3292C13.2867 35.5178 13.2846 35.7175 13.3343 35.9055L13.8177 35.7778ZM13.8226 35.4759L14.3076 33.8954L13.8296 33.7487L13.3446 35.3292L13.8226 35.4759ZM35.2135 36.7817C35.7217 37.106 36.4308 37.506 36.9703 37.7433L37.1716 37.2856C36.663 37.0619 35.9772 36.6759 35.4825 36.3602L35.2135 36.7817ZM18.4088 26.4662C18.2845 27.2225 18.2899 28.1557 18.992 28.7825L19.325 28.4095C18.8276 27.9655 18.7832 27.2715 18.9021 26.5472L18.4088 26.4662ZM18.992 28.7825C19.3898 29.1374 19.8845 29.4189 20.3826 29.6592C20.8765 29.8975 21.4029 30.1083 21.8413 30.3026L22.0439 29.8455C21.5799 29.6398 21.0863 29.4436 20.5998 29.2089C20.1174 28.9761 19.6714 28.7185 19.3249 28.4094L18.992 28.7825ZM21.8414 30.3026C22.9125 30.7769 24.0067 31.1883 25.098 31.5895C26.1913 31.9914 27.2799 32.3825 28.3508 32.8192L28.5396 32.3562C27.4584 31.9153 26.3588 31.5203 25.2705 31.1202C24.1801 30.7193 23.099 30.3127 22.0438 29.8454L21.8414 30.3026ZM28.3509 32.8192C29.5718 33.3168 30.7651 33.8726 31.8834 34.5531L32.1433 34.1259C30.9942 33.4267 29.7745 32.8595 28.5395 32.3562L28.3509 32.8192ZM31.8834 34.5531C33.0196 35.244 34.0983 36.0158 35.2064 36.777L35.4896 36.3649C34.392 35.611 33.295 34.8263 32.1432 34.1259L31.8834 34.5531ZM50.1677 40.217C49.7179 40.2836 49.2464 40.2439 48.7606 40.1926L48.708 40.6898C49.1913 40.7409 49.721 40.7886 50.241 40.7116L50.1677 40.217ZM48.7604 40.1926C48.1666 40.1301 47.5725 40.0577 46.9903 39.9554L46.9038 40.4478C47.5025 40.5531 48.1098 40.6269 48.7081 40.6898L48.7604 40.1926ZM46.9901 39.9554C46.4036 39.8527 45.8203 39.725 45.2362 39.5887L45.1226 40.0756C45.7105 40.2129 46.3041 40.3429 46.9039 40.4479L46.9901 39.9554ZM45.2361 39.5887C44.6341 39.4484 44.0858 39.3119 43.4795 39.17L43.3656 39.6569C43.9317 39.7893 44.552 39.9427 45.1227 40.0756L45.2361 39.5887ZM43.4792 39.1699L43.3217 39.1333L43.2085 39.6204L43.366 39.657L43.4792 39.1699ZM43.3214 39.1333C41.2207 38.6474 39.1235 38.1458 37.1718 37.2857L36.9701 37.7432C38.9711 38.625 41.1126 39.1356 43.2087 39.6204L43.3214 39.1333ZM36.6962 42.5378C38.62 42.9977 40.2783 43.3057 41.6541 43.4975L41.7232 43.0023C40.365 42.8129 38.7225 42.5081 36.8125 42.0515L36.6962 42.5378ZM41.6545 43.4976C41.9641 43.5404 42.1644 43.1736 41.9528 42.9374L41.5804 43.2711C41.4782 43.157 41.5759 42.982 41.7229 43.0023L41.6545 43.4976ZM41.9533 42.938L40.5978 41.4149L40.2243 41.7473L41.5798 43.2704L41.9533 42.938ZM40.5981 41.4152C40.5297 41.3381 40.4357 41.2881 40.3317 41.2755L40.2718 41.7719C40.2532 41.7697 40.2358 41.7603 40.224 41.747L40.5981 41.4152ZM40.3323 41.2756C39.709 41.1988 38.9892 41.0848 38.1776 40.9248L38.0808 41.4153C38.9031 41.5775 39.6349 41.6935 40.2712 41.7719L40.3323 41.2756ZM38.1779 40.9249C38.0613 40.9017 37.9384 40.9281 37.8413 40.9996L38.1379 41.4022C38.1203 41.4151 38.0998 41.4191 38.0804 41.4153L38.1779 40.9249ZM37.841 40.9998L36.5732 41.9367L36.8703 42.3388L38.1382 41.4019L37.841 40.9998ZM36.5735 41.9364C36.3386 42.1093 36.4202 42.4722 36.6965 42.5379L36.8122 42.0514C36.9425 42.0824 36.9842 42.255 36.87 42.3391L36.5735 41.9364ZM31.2346 41.0162C32.5297 41.4237 33.7718 41.7833 34.9123 42.0867L35.0408 41.6035C33.9079 41.3021 32.6729 40.9446 31.3847 40.5393L31.2346 41.0162ZM34.9121 42.0866C35.0343 42.1192 35.163 42.0958 35.2654 42.0248L34.9806 41.6138C34.9973 41.6022 35.0196 41.5978 35.041 41.6035L34.9121 42.0866ZM35.2656 42.0246L36.5205 41.1528L36.2352 40.7422L34.9803 41.614L35.2656 42.0246ZM36.5212 41.1523C36.7591 40.9858 36.6909 40.6167 36.4082 40.5472L36.2888 41.0327C36.1536 40.9995 36.1211 40.8221 36.2345 40.7427L36.5212 41.1523ZM36.4084 40.5473C35.3444 40.2846 34.0239 39.9129 32.7596 39.5149L32.6095 39.9918C33.8825 40.3926 35.2132 40.7672 36.2885 41.0327L36.4084 40.5473ZM32.7597 39.5149C32.6356 39.4758 32.5003 39.4954 32.3923 39.5685L32.6727 39.9825C32.654 39.9952 32.6306 39.9985 32.6094 39.9918L32.7597 39.5149ZM32.3922 39.5686L31.1457 40.4137L31.4263 40.8276L32.6728 39.9824L32.3922 39.5686ZM31.1455 40.4139C30.9098 40.574 30.9667 40.9326 31.2351 41.0164L31.3841 40.5391C31.5116 40.5789 31.5401 40.7502 31.4265 40.8274L31.1455 40.4139ZM30.0829 40.4697L31.3761 39.5996L31.097 39.1847L29.8038 40.0548L30.0829 40.4697ZM31.3763 39.5995C31.605 39.4454 31.5617 39.1015 31.3089 39.0038L31.1288 39.4703C31.0087 39.4239 30.9866 39.2591 31.0969 39.1848L31.3763 39.5995ZM31.309 39.0039C30.0373 38.5123 28.852 38.0144 27.9388 37.5803L27.7241 38.0319C28.6525 38.4732 29.8502 38.9761 31.1287 39.4702L31.309 39.0039ZM27.9383 37.5801C27.8115 37.5201 27.6628 37.5255 27.5402 37.5975L27.7933 38.0287C27.7715 38.0415 27.7453 38.0419 27.7246 38.0321L27.9383 37.5801ZM27.5408 37.5972L26.0716 38.4546L26.3236 38.8864L27.7928 38.029L27.5408 37.5972ZM26.0717 38.4545C25.8284 38.5963 25.8557 38.9545 26.1153 39.0595L26.3028 38.5959C26.4269 38.6461 26.4406 38.8182 26.3235 38.8865L26.0717 38.4545ZM26.1148 39.0593L29.6836 40.5108L29.872 40.0476L26.3032 38.5961L26.1148 39.0593ZM29.6832 40.5107C29.815 40.5645 29.9647 40.5492 30.0829 40.4696L29.8037 40.0549C29.824 40.0412 29.8499 40.0386 29.8723 40.0478L29.6832 40.5107ZM20.3668 36.21C21.4016 36.8262 23.0028 37.6029 24.5182 38.3156L24.731 37.8632C23.2123 37.1489 21.6331 36.3821 20.6226 35.7804L20.3668 36.21ZM24.5186 38.3158C24.6909 38.3965 24.8909 38.3913 25.059 38.302L24.8243 37.8605C24.7949 37.8761 24.7603 37.8769 24.7306 37.863L24.5186 38.3158ZM25.0591 38.3019L26.6199 37.4714L26.385 37.03L24.8242 37.8605L25.0591 38.3019ZM26.6196 37.4715C26.8619 37.343 26.8545 37.0021 26.6212 36.8759L26.3833 37.3156C26.2736 37.2563 26.2668 37.0927 26.3853 37.0298L26.6196 37.4715ZM26.6221 36.8764C25.0663 36.026 24.0835 35.2393 23.384 34.6631L23.0661 35.0491C23.7764 35.6342 24.7868 36.443 26.3823 37.3151L26.6221 36.8764ZM23.3846 34.6637C23.2646 34.5641 23.0998 34.5384 22.9554 34.5955L23.1393 35.0604C23.1147 35.0702 23.0865 35.066 23.0654 35.0485L23.3846 34.6637ZM22.955 34.5957L20.4155 35.6056L20.6003 36.0702L23.1398 35.0603L22.955 34.5957ZM20.4156 35.6056C20.1577 35.708 20.1227 36.0652 20.3671 36.2102L20.6223 35.7802C20.741 35.8507 20.7215 36.022 20.6002 36.0703L20.4156 35.6056ZM36.7987 24.513C36.7116 24.5927 36.5859 24.6252 36.465 24.5884L36.3193 25.0667C36.6156 25.1569 36.9237 25.0764 37.1362 24.8819L36.7987 24.513ZM36.465 24.5884C36.2833 24.533 36.1822 24.342 36.2372 24.1627L35.7592 24.016C35.6227 24.461 35.8743 24.9312 36.3193 25.0667L36.465 24.5884ZM36.2372 24.1627C36.2786 24.028 36.3965 23.9362 36.5305 23.9222L36.4787 23.4249C36.1531 23.4588 35.8617 23.682 35.7592 24.016L36.2372 24.1627ZM41.5901 28.8391C41.5348 29.0191 41.343 29.1215 41.1609 29.0661L41.0153 29.5444C41.4599 29.6798 41.9316 29.4305 42.0681 28.9858L41.5901 28.8391ZM41.1609 29.0661C40.9792 29.0107 40.878 28.8195 40.933 28.6401L40.455 28.4934C40.3184 28.9387 40.5704 29.4089 41.0153 29.5444L41.1609 29.0661ZM43.524 30.0368C43.4688 30.2168 43.277 30.3193 43.0946 30.2637L42.9489 30.742C43.3938 30.8775 43.8655 30.6283 44.002 30.1835L43.524 30.0368ZM43.0946 30.2637C42.9132 30.2085 42.8119 30.0173 42.867 29.8378L42.389 29.6911C42.2523 30.1363 42.5042 30.6066 42.9489 30.742L43.0946 30.2637ZM42.867 29.8378C42.8855 29.7773 42.9196 29.7256 42.9642 29.685L42.6273 29.3155C42.5196 29.4136 42.435 29.5412 42.389 29.6911L42.867 29.8378ZM45.4608 31.0663C45.4055 31.2463 45.2137 31.3487 45.0316 31.2932L44.886 31.7715C45.3306 31.907 45.8023 31.6577 45.9388 31.213L45.4608 31.0663ZM45.0316 31.2932C44.8499 31.2379 44.7487 31.0467 44.8037 30.8672L44.3257 30.7206C44.1891 31.1658 44.4411 31.636 44.886 31.7715L45.0316 31.2932ZM35.2486 20.3267L35.1859 19.6645L34.6881 19.7116L34.7508 20.3738L35.2486 20.3267ZM35.1859 19.6642C35.1884 19.6904 35.1781 19.7097 35.1703 19.7186C35.163 19.727 35.157 19.7281 35.1564 19.7282L35.0795 19.2341C34.8649 19.2675 34.6636 19.455 34.6881 19.7119L35.1859 19.6642ZM35.1571 19.7281L37.9682 19.2825L37.8899 18.7887L35.0788 19.2342L35.1571 19.7281ZM37.9674 19.2826C37.9671 19.2827 37.9619 19.2834 37.9534 19.2777C37.9444 19.2716 37.9285 19.2545 37.9258 19.2262L38.4236 19.1789C38.3967 18.8958 38.1234 18.7525 37.8907 18.7886L37.9674 19.2826ZM37.9247 19.1989L37.9101 20.2125L38.4101 20.2197L38.4246 19.2061L37.9247 19.1989ZM37.9112 20.2394C37.9085 20.2106 37.9211 20.1909 37.9287 20.1834C37.9358 20.1763 37.941 20.176 37.9415 20.1759L37.9589 20.6756C38.1939 20.6675 38.4355 20.4755 38.409 20.1928L37.9112 20.2394ZM37.9416 20.1759L35.2078 20.2698L35.225 20.7695L37.9588 20.6756L37.9416 20.1759ZM35.2077 20.2698C35.2085 20.2697 35.2147 20.2698 35.2234 20.2767C35.2326 20.2839 35.2461 20.3007 35.2486 20.3264L34.7509 20.3741C34.7754 20.63 35.0073 20.7771 35.2251 20.7695L35.2077 20.2698ZM36.7916 24.5119L36.4733 23.9375L36.036 24.1799L36.3543 24.7543L36.7916 24.5119ZM36.4733 23.9376C36.4866 23.9615 36.4833 24.0011 36.4486 24.0235L36.1771 23.6037C35.9814 23.7303 35.9275 23.9839 36.0359 24.1798L36.4733 23.9376ZM36.4483 24.0237L38.4051 22.7616L38.1341 22.3414L36.1773 23.6035L36.4483 24.0237ZM38.4049 22.7617C38.3665 22.7864 38.3265 22.7678 38.3125 22.7426L38.7491 22.4989C38.6294 22.2846 38.3503 22.2023 38.1344 22.3412L38.4049 22.7617ZM38.3008 22.7187L38.6881 23.6278L39.1481 23.4319L38.7608 22.5227L38.3008 22.7187ZM38.6992 23.6506C38.685 23.6248 38.6906 23.5799 38.7328 23.5602L38.9434 24.0137C39.1771 23.9052 39.2557 23.6242 39.137 23.4091L38.6992 23.6506ZM38.734 23.5597L36.7083 24.4871L36.9164 24.9417L38.9422 24.0143L38.734 23.5597ZM36.7074 24.4875C36.7435 24.4708 36.7783 24.4877 36.7919 24.5124L36.354 24.7538C36.4627 24.9508 36.7069 25.0386 36.9173 24.9413L36.7074 24.4875ZM38.0409 26.2306L37.6304 25.7182L37.2402 26.0309L37.6507 26.5432L38.0409 26.2306ZM37.6308 25.7188C37.6369 25.7264 37.6421 25.7384 37.6416 25.7544C37.641 25.7708 37.6338 25.7941 37.6133 25.8131L37.2737 25.4462C37.0977 25.6091 37.1094 25.8666 37.2397 26.0303L37.6308 25.7188ZM37.6132 25.8132L39.2166 24.3311L38.8772 23.964L37.2738 25.4461L37.6132 25.8132ZM39.2167 24.331C39.194 24.3521 39.1664 24.357 39.1479 24.3547C39.13 24.3525 39.1177 24.344 39.111 24.3356L39.5015 24.0233C39.3584 23.8444 39.0733 23.7823 38.877 23.9641L39.2167 24.331ZM39.096 24.3147L39.6697 25.2062L40.0901 24.9356L39.5165 24.0442L39.096 24.3147ZM39.6851 25.2276C39.6782 25.219 39.6724 25.2046 39.6742 25.186C39.6762 25.1666 39.6876 25.1402 39.7138 25.1225L39.9935 25.537C40.2163 25.3866 40.2188 25.0933 40.0746 24.9141L39.6851 25.2276ZM39.7212 25.1177L37.9546 26.2212L38.2195 26.6453L39.9861 25.5418L39.7212 25.1177ZM37.9462 26.2267C37.9695 26.2108 37.9935 26.2093 38.0088 26.2122C38.0238 26.2151 38.0345 26.2226 38.041 26.2307L37.6506 26.5431C37.7816 26.7068 38.0307 26.7742 38.2278 26.6398L37.9462 26.2267ZM39.7486 27.7217L39.2523 27.2915L38.9248 27.6693L39.421 28.0995L39.7486 27.7217ZM39.2525 27.2917C39.2541 27.2931 39.2606 27.2994 39.2639 27.3151C39.2672 27.3311 39.2675 27.365 39.2425 27.3991L38.8393 27.1035C38.6914 27.3052 38.7854 27.5483 38.9246 27.6692L39.2525 27.2917ZM39.2436 27.3976L40.3247 25.9002L39.9193 25.6075L38.8382 27.105L39.2436 27.3976ZM40.3232 25.9021C40.2943 25.9415 40.2546 25.9506 40.235 25.9506C40.2165 25.9506 40.2083 25.9442 40.2069 25.943L40.5334 25.5643C40.3847 25.4361 40.0901 25.3756 39.9207 25.6056L40.3232 25.9021ZM40.21 25.9456L40.9974 26.6025L41.3177 26.2186L40.5303 25.5617L40.21 25.9456ZM40.9938 26.5995C40.9921 26.598 40.984 26.5902 40.9813 26.5708C40.9785 26.5503 40.9827 26.5095 41.0176 26.4757L41.3654 26.8349C41.5711 26.6358 41.4711 26.3514 41.3212 26.2216L40.9938 26.5995ZM41.0216 26.4719L39.6497 27.7427L39.9894 28.1095L41.3614 26.8387L41.0216 26.4719ZM39.6464 27.7458C39.6766 27.7168 39.7094 27.7129 39.7248 27.7139C39.7399 27.7149 39.7466 27.7201 39.7481 27.7213L39.4215 28.1C39.5611 28.2203 39.8136 28.2784 39.9927 28.1065L39.6464 27.7458ZM41.5188 28.9398L40.9593 28.5953L40.6972 29.0211L41.2567 29.3656L41.5188 28.9398ZM40.9591 28.5952C40.9611 28.5964 40.9685 28.6016 40.9743 28.6165C40.9802 28.6318 40.9861 28.6655 40.9667 28.7036L40.5214 28.4761C40.4071 28.6999 40.5408 28.925 40.6974 29.0212L40.9591 28.5952ZM40.9659 28.7052L41.8249 27.0524L41.3812 26.8218L40.5222 28.4746L40.9659 28.7052ZM41.8255 27.0512C41.8036 27.0939 41.7664 27.1096 41.7464 27.1129C41.7277 27.116 41.7184 27.1107 41.7169 27.1098L41.9788 26.6839C41.8105 26.5804 41.5108 26.5692 41.3806 26.823L41.8255 27.0512ZM41.7168 27.1098L42.5519 27.6237L42.8139 27.1979L41.9789 26.684L41.7168 27.1098ZM42.5521 27.6238C42.5507 27.6229 42.5413 27.6167 42.5354 27.5977C42.5291 27.5774 42.5268 27.5363 42.5559 27.4973L42.9568 27.7961C43.1285 27.5657 42.9824 27.3013 42.8137 27.1977L42.5521 27.6238ZM42.5578 27.4948L41.423 28.978L41.8201 29.2819L42.9549 27.7986L42.5578 27.4948ZM41.4208 28.9809C41.4461 28.9468 41.4785 28.9375 41.4941 28.936C41.5093 28.9345 41.5169 28.9386 41.5187 28.9397L41.2569 29.3657C41.4131 29.4617 41.6732 29.4798 41.8223 29.279L41.4208 28.9809ZM43.4705 30.1038L42.911 29.7594L42.6489 30.1851L43.2084 30.5296L43.4705 30.1038ZM42.9108 29.7593C42.9127 29.7604 42.92 29.7654 42.9257 29.7802C42.9315 29.7952 42.9378 29.8292 42.918 29.8679L42.4729 29.6402C42.3581 29.8645 42.4932 30.0895 42.649 30.1852L42.9108 29.7593ZM42.9193 29.8653L43.7185 28.256L43.2707 28.0336L42.4715 29.6429L42.9193 29.8653ZM43.7174 28.2582C43.6952 28.3018 43.6575 28.3174 43.6378 28.3206C43.6193 28.3236 43.6101 28.3185 43.6083 28.3175L43.8705 27.8917C43.7031 27.7886 43.4018 27.7761 43.2719 28.0314L43.7174 28.2582ZM43.6084 28.3175L44.4437 28.8315L44.7057 28.4056L43.8704 27.8917L43.6084 28.3175ZM44.4436 28.8314C44.4417 28.8303 44.4327 28.824 44.4269 28.8055C44.4209 28.786 44.4181 28.7449 44.4474 28.7054L44.8488 29.0035C45.0197 28.7734 44.8738 28.5091 44.7058 28.4057L44.4436 28.8314ZM44.4478 28.7049L43.3729 30.1444L43.7735 30.4436L44.8484 29.004L44.4478 28.7049ZM43.3725 30.1449C43.3977 30.111 43.4299 30.1016 43.4455 30.1001C43.4609 30.0986 43.4688 30.1027 43.4709 30.104L43.208 30.5294C43.365 30.6264 43.6251 30.6434 43.7739 30.443L43.3725 30.1449ZM45.4376 31.1171L44.878 30.7727L44.6159 31.1984L45.1755 31.5429L45.4376 31.1171ZM44.8777 30.7725C44.8796 30.7736 44.8871 30.7788 44.8929 30.7939C44.8988 30.8093 44.9048 30.8431 44.8853 30.8813L44.4402 30.6536C44.3257 30.8771 44.4592 31.1023 44.6162 31.1986L44.8777 30.7725ZM44.8846 30.8825L45.6228 29.459L45.1789 29.2288L44.4408 30.6524L44.8846 30.8825ZM45.6237 29.4574C45.6016 29.5007 45.564 29.5164 45.5443 29.5196C45.5257 29.5227 45.5165 29.5176 45.5149 29.5166L45.7761 29.0902C45.6086 28.9876 45.3079 28.9756 45.1781 29.2305L45.6237 29.4574ZM45.5144 29.5163L46.3496 30.0305L46.6118 29.6047L45.7766 29.0905L45.5144 29.5163ZM46.3496 30.0305C46.348 30.0295 46.339 30.0233 46.3332 30.0049C46.3271 29.9853 46.3243 29.9441 46.3535 29.9047L46.7552 30.2025C46.9262 29.9717 46.7792 29.7078 46.6118 29.6047L46.3496 30.0305ZM46.36 29.8964L45.3459 31.1501L45.7346 31.4645L46.7487 30.2108L46.36 29.8964ZM45.3396 31.1582C45.3647 31.1243 45.3969 31.1149 45.4126 31.1134C45.428 31.1119 45.4359 31.1161 45.4379 31.1173L45.1751 31.5427C45.3321 31.6397 45.5922 31.6568 45.741 31.4563L45.3396 31.1582ZM38.3789 24.0159C38.4918 24.2587 38.493 24.2417 38.6276 24.4657L39.0562 24.2083C38.9141 23.9718 38.9311 24.0175 38.8323 23.805L38.3789 24.0159ZM37.7379 22.1618C37.7937 22.3668 37.8461 22.5259 37.9131 22.7135L38.384 22.5454C38.32 22.3662 38.2718 22.2197 38.2203 22.0304L37.7379 22.1618ZM38.223 22.2907C38.4664 22.2247 38.6103 21.9664 38.5258 21.7223L38.0533 21.8858C38.0407 21.8493 38.0632 21.816 38.0922 21.8081L38.223 22.2907ZM38.5338 21.7507L38.3255 20.7968L37.837 20.9035L38.0453 21.8574L38.5338 21.7507ZM38.3175 20.7683C38.2332 20.5249 37.9611 20.4097 37.7284 20.5077L37.9223 20.9685C37.8949 20.9801 37.8574 20.9678 37.845 20.9319L38.3175 20.7683ZM37.7285 20.5076L35.4682 21.4578L35.6619 21.9187L37.9223 20.9686L37.7285 20.5076ZM35.4686 21.4576C35.2558 21.5466 35.1445 21.7858 35.2213 22.0071L35.6937 21.8431C35.7052 21.8761 35.6877 21.9079 35.6615 21.9189L35.4686 21.4576ZM35.2212 22.0068L35.4386 22.6357L35.9112 22.4723L35.6938 21.8434L35.2212 22.0068ZM35.4386 22.6356C35.5151 22.8572 35.7498 22.9755 35.971 22.9157L35.8405 22.4331C35.8669 22.4259 35.8999 22.4395 35.9112 22.4724L35.4386 22.6356ZM39.8173 27.616C39.7379 27.7462 39.5767 27.8118 39.4231 27.7651L39.2775 28.2434C39.6538 28.358 40.0486 28.1972 40.2442 27.8763L39.8173 27.616ZM39.4231 27.7651C39.2417 27.7098 39.1406 27.5188 39.1957 27.3392L38.7177 27.1925C38.5813 27.6372 38.8322 28.1078 39.2775 28.2434L39.4231 27.7651ZM39.1957 27.3392C39.2258 27.2413 39.2954 27.1666 39.3829 27.1274L39.1783 26.6712C38.9647 26.767 38.7917 26.9514 38.7177 27.1925L39.1957 27.3392ZM35.2499 20.3455C35.1769 20.3773 35.0932 20.3842 35.0114 20.3593L34.8658 20.8377C35.066 20.8986 35.2722 20.8813 35.4498 20.8038L35.2499 20.3455ZM35.0114 20.3593C34.8296 20.304 34.7286 20.1131 34.7838 19.9334L34.3058 19.7867C34.1692 20.2318 34.4204 20.702 34.8658 20.8377L35.0114 20.3593ZM34.7838 19.9334C34.8481 19.7239 35.0093 19.6445 35.1635 19.6914L35.3092 19.2131C34.8368 19.0692 34.4332 19.3715 34.3058 19.7867L34.7838 19.9334ZM35.9188 22.447C35.8406 22.4884 35.7475 22.4999 35.6565 22.4722L35.5108 22.9505C35.7335 23.0183 35.9627 22.9895 36.1526 22.889L35.9188 22.447ZM35.6565 22.4722C35.4746 22.4168 35.3735 22.2258 35.4286 22.0462L34.9506 21.8995C34.814 22.3448 35.0656 22.8149 35.5108 22.9505L35.6565 22.4722ZM35.4286 22.0462C35.4509 21.9734 35.4996 21.9001 35.5571 21.856C35.609 21.8162 35.6564 21.8067 35.7075 21.8222L35.8532 21.3439C35.6191 21.2726 35.407 21.341 35.2528 21.4592C35.1043 21.5732 35.0001 21.7382 34.9506 21.8995L35.4286 22.0462ZM40.933 28.6401C40.9537 28.5729 40.9927 28.5172 41.0436 28.4756L40.7271 28.0885C40.6028 28.1901 40.5057 28.3284 40.455 28.4934L40.933 28.6401ZM44.8037 30.8672C44.8439 30.7364 44.8763 30.7013 44.9242 30.6758L44.6893 30.2344C44.4694 30.3515 44.3814 30.5391 44.3257 30.7206L44.8037 30.8672ZM38.0907 21.8085L35.8389 22.4335L35.9726 22.9153L38.2245 22.2903L38.0907 21.8085ZM22.5817 14.2173H7.55097V14.7173H22.5817V14.2173ZM19.5144 17.2775H1V17.7775H19.5144V17.2775ZM18.8898 20.3377H8.18925V20.8377H18.8898V20.3377ZM15.8147 23.3978H5.11417V23.8978H15.8147V23.3978Z" />
</svg>
