<svg width="284" height="555" viewBox="0 0 284 555" fill="none" xmlns="http://www.w3.org/2000/svg">
<g clip-path="url(#clip0_511_60)">
<path d="M284 131.299C283.193 130.493 282.386 130.493 281.58 130.493C280.773 129.688 279.159 128.882 278.352 128.882C275.932 128.077 273.511 128.077 271.091 127.271C266.25 126.466 262.216 125.66 257.375 124.855C252.534 124.049 247.693 123.244 242.852 122.438H235.591C234.784 122.438 233.171 121.633 232.364 121.633H231.557L230.75 120.022L229.943 119.216V118.411C229.943 117.605 229.943 115.994 229.136 115.189C229.136 111.967 228.33 108.745 228.33 106.328C227.523 101.495 225.909 97.4673 225.102 93.4398V84.5791C224.296 82.9681 224.296 81.357 224.296 79.746H223.489C223.489 84.5791 222.682 88.6067 222.682 93.4398V99.8839C222.682 102.3 223.489 103.911 223.489 106.328C224.296 111.161 225.102 115.189 225.102 119.216C225.909 121.633 225.909 124.049 226.716 125.66C226.716 126.466 227.523 128.077 227.523 128.882C228.33 133.716 229.136 138.549 229.943 142.576C230.75 146.604 230.75 149.826 231.557 153.853C232.364 157.075 232.364 160.298 233.171 163.52C233.977 170.769 233.977 178.019 233.977 185.269V196.546C233.977 199.768 233.171 202.99 233.171 207.017C233.171 213.462 232.364 219.906 231.557 226.35C231.557 229.572 230.75 232.794 230.75 236.016C229.943 237.627 229.943 238.433 229.943 240.849C228.33 245.682 227.523 252.126 225.909 257.765C225.102 264.209 223.489 271.459 221.875 278.708C219.455 292.402 216.227 306.901 214.614 320.595C213.807 327.845 213.807 335.9 213.807 343.149C213.807 347.177 214.614 351.205 214.614 354.427C214.614 356.843 214.614 358.454 215.421 360.065V364.093C215.421 367.315 215.421 370.537 216.227 373.759C217.034 380.203 218.648 386.647 221.068 392.286C223.489 397.925 225.102 404.369 227.523 410.007C228.33 412.424 229.943 415.646 231.557 418.062V419.673C232.364 422.09 232.364 423.701 233.171 425.312C233.977 428.534 234.784 431.756 235.591 434.978C236.398 438.2 236.398 440.617 236.398 443.839C237.205 446.255 237.205 449.478 236.398 452.7C235.591 455.116 234.784 458.338 233.977 460.755C232.364 463.171 230.75 465.588 229.136 467.199C227.523 468.81 225.909 469.615 223.489 471.226C222.682 472.032 221.875 472.032 221.068 472.837C220.261 472.032 219.455 472.837 217.841 472.837H212.193C208.966 473.643 205.739 473.643 201.705 473.643C198.477 473.643 195.25 473.643 191.216 472.837C187.989 472.032 183.955 472.032 180.727 471.226H159.75C155.716 471.226 152.489 471.226 149.261 472.032C146.034 472.837 142.807 473.643 139.58 474.448C137.159 475.254 135.546 476.06 133.125 477.671H131.511C128.284 479.282 125.864 480.087 122.636 480.087C120.216 480.893 117.796 480.893 114.568 480.893C110.534 481.698 107.307 482.504 104.08 482.504C100.046 483.309 96.8182 482.504 93.591 482.504H83.1023C79.8751 483.309 75.841 483.309 72.6137 484.92L71.8069 485.726C69.3864 485.726 66.966 486.531 64.5455 487.337C62.9319 488.142 61.3182 488.142 59.7046 488.948H55.6705C55.1326 488.948 54.5948 488.679 54.0569 488.142H53.2501L52.4432 487.337H51.6364L50.8296 486.531L50.0228 485.726L49.216 484.115H48.4092L47.6023 482.504V481.698H46.7955V476.865H47.6023L48.4092 476.059V475.254H49.216C51.6364 473.643 54.8637 473.643 58.091 472.837C59.7046 472.837 61.3182 472.032 62.1251 471.226C63.7387 471.226 65.3523 469.615 66.966 468.81L67.7728 468.004V467.199C64.5455 468.81 61.3182 468.81 57.2842 468.81C54.8637 468.81 51.6364 468.81 48.4092 469.615C45.9887 469.615 43.5682 471.226 41.9546 473.643V472.837L42.7614 472.032C42.7614 471.495 43.0304 470.958 43.5682 470.421C44.1061 469.884 44.644 469.615 45.1819 469.615C46.7955 468.81 47.6023 468.81 48.4092 468.81C50.0228 468.004 51.6364 468.004 52.4432 468.004C54.0569 467.199 55.6705 466.393 56.4773 466.393C58.091 465.588 58.8978 464.782 59.7046 463.977L58.8978 463.171C58.091 463.171 56.4773 463.171 55.6705 463.977C54.0569 463.977 52.4432 464.782 50.8296 464.782H48.4092L49.216 463.977C52.4432 461.56 55.6705 459.949 58.8978 458.338C62.9319 456.727 66.1592 455.116 70.1932 454.311L71.0001 453.505C74.2273 453.505 77.4546 452.7 79.8751 451.894C83.1023 450.283 86.3296 449.478 88.7501 447.866C94.3978 445.45 100.046 441.422 104.886 437.395C110.534 433.367 115.375 429.34 121.023 425.312C126.671 421.284 132.318 417.257 137.159 413.229C146.034 406.785 154.102 397.925 158.136 386.647C159.75 381.009 160.557 375.37 160.557 369.732V368.12C161.364 360.065 161.364 352.01 160.557 344.761C159.75 335.9 158.943 327.845 158.136 318.984C156.523 310.929 154.102 302.874 151.682 294.013C150.068 285.958 147.648 277.903 146.034 269.042C142 252.126 138.773 235.21 136.352 218.295C134.739 204.601 133.125 190.907 133.125 177.213V166.742C132.318 164.325 132.318 161.103 132.318 158.686C132.318 150.631 132.318 142.576 131.511 134.521C131.511 129.688 131.511 124.855 130.705 120.022V111.967C129.898 111.161 129.898 109.55 129.898 108.745C129.091 104.717 128.284 101.495 127.477 98.2729C126.671 95.0508 125.864 91.0232 125.057 87.8012C125.057 84.5791 124.25 81.357 123.443 78.135V70.8853C122.636 60.4136 124.25 50.7475 128.284 41.8868C129.091 39.4702 130.705 37.0537 132.318 34.6372V33.8316L133.125 33.0261C133.932 32.2206 134.739 32.2206 134.739 31.4151C135.546 29.8041 136.352 28.9985 137.159 28.193C137.966 25.7765 139.58 23.3599 141.193 21.7489L142 20.1379L142.807 19.3324L145.227 16.9158L147.648 14.4993L148.455 13.6938L149.261 12.8882H150.068C150.875 12.0827 151.682 11.2772 152.489 11.2772L154.102 10.4717L154.909 9.66618H155.716C158.136 8.86067 160.557 8.05515 162.977 8.05515H163.784L165.398 7.24964H173.466C177.5 6.44412 180.727 6.44412 184.761 6.44412C199.284 6.44412 213.807 7.24964 228.33 7.24964C242.046 6.44412 256.568 5.63861 271.091 6.44412C271.898 7.24964 273.511 7.24964 275.125 7.24964H279.966C281.58 7.24964 281.58 5.63861 279.966 4.83309C278.352 4.83309 276.739 4.02758 275.125 4.02758C274.318 4.02758 273.511 3.22206 273.511 3.22206H269.477C266.25 2.41655 262.216 2.41655 258.989 1.61103C251.727 1.61103 244.466 0.805515 237.205 0.805515H215.421C208.966 0.805515 200.898 0 194.443 0C186.375 0 179.114 0 171.852 0.805515C166.205 0.805515 159.75 0.805515 153.296 3.22206C145.227 6.44412 138.773 12.8882 133.932 20.1379V20.9434C130.705 24.1655 128.284 28.9985 125.864 33.0261C122.636 38.6647 121.023 43.4978 119.409 49.1364C117.796 55.5806 116.989 62.0247 116.989 68.4688C116.989 77.3295 118.602 85.3846 120.216 94.2453C121.023 98.2729 121.83 103.106 122.636 107.134C123.443 110.356 124.25 114.383 125.864 117.605V128.882C126.671 137.743 126.671 145.798 126.671 154.659C126.671 171.575 126.671 189.296 128.284 206.212C130.705 223.128 133.125 240.849 136.352 257.765C138.773 265.82 140.386 274.681 142.807 282.736C144.421 291.597 146.841 299.652 149.261 307.707C151.682 318.179 152.489 327.845 153.296 338.316C154.102 347.177 154.102 355.232 155.716 363.287C154.909 366.509 154.909 368.926 154.909 372.148C154.102 377.787 152.489 384.231 150.068 389.064C144.421 400.341 134.739 407.591 125.057 414.84C120.216 418.062 115.375 421.284 110.534 425.312C105.693 428.534 101.659 432.562 96.8182 435.784C92.7842 438.2 87.9432 440.617 83.9092 443.033C81.4887 444.644 79.0682 445.45 76.6478 446.255C75.841 447.061 75.0342 447.061 73.4205 447.866C71.8069 448.672 70.1932 448.672 67.7728 449.477C63.7387 450.283 59.7046 451.894 55.6705 453.505C51.6364 455.116 48.4092 456.727 45.9887 459.144C44.3751 459.949 43.5682 461.56 41.9546 463.171C41.9546 463.977 41.1478 465.588 41.1478 466.393C39.5342 467.199 38.7273 468.81 37.9205 470.421C37.1137 471.226 37.1137 472.032 37.1137 473.643C36.3069 474.448 36.3069 476.06 36.3069 477.671C36.3069 479.282 37.1137 480.087 37.9205 480.893C38.7273 481.698 39.5342 483.309 40.341 484.115H41.1478C42.7614 487.337 45.1819 490.559 48.4092 492.975C53.2501 496.197 60.5114 495.392 65.3523 493.781C68.5796 492.975 72.6137 491.364 74.2273 488.948H83.9092C91.1705 488.948 97.6251 489.753 104.886 488.948C108.114 488.948 111.341 488.142 115.375 487.337C118.602 487.337 121.83 487.337 125.057 486.531C127.477 485.726 130.705 485.726 133.125 484.115C134.739 484.115 136.352 483.309 137.159 482.504C138.773 481.698 140.386 480.893 141.193 479.282C142.807 478.476 145.227 478.476 147.648 477.671C154.102 476.06 160.557 476.059 167.011 476.059C174.273 476.059 181.534 476.06 187.989 477.671C195.25 479.282 202.511 479.282 209.773 478.476C212.193 478.476 214.614 477.671 217.034 477.671C217.841 476.865 218.648 476.865 220.261 476.865C220.261 476.865 221.068 476.865 221.875 476.059C224.296 476.059 226.716 475.254 229.136 474.448C234.784 471.226 238.011 466.393 240.432 460.755C242.852 455.116 243.659 448.672 242.852 442.228C242.046 435.784 241.239 429.34 238.818 422.895C238.011 421.284 237.205 420.479 236.398 418.868V417.257C235.591 414.84 234.784 411.618 233.171 409.202C232.364 405.98 231.557 403.563 230.75 400.341C229.136 397.925 228.33 394.702 227.523 391.48C225.102 385.842 223.489 379.398 221.875 372.954C221.875 370.537 221.068 367.315 221.068 364.093V355.232C220.261 352.01 220.261 347.983 220.261 344.761V323.012C221.068 315.762 221.875 309.318 223.489 302.068C225.102 295.624 225.909 288.374 227.523 281.93C229.136 274.681 230.75 267.431 232.364 260.181C233.171 256.154 233.977 252.126 233.977 248.904C234.784 247.293 234.784 245.682 234.784 243.266C235.591 240.849 236.398 237.627 236.398 235.21C237.205 231.183 238.011 227.961 238.818 224.739C239.625 217.489 239.625 210.239 239.625 202.99C240.432 188.491 240.432 173.991 238.818 160.298C238.011 153.048 237.205 146.604 235.591 139.354C234.784 135.327 233.977 131.299 233.171 127.271H235.591C237.205 127.271 239.625 127.271 242.046 128.077C246.886 128.077 251.727 128.882 256.568 128.882C260.602 129.688 265.443 130.493 269.477 130.493C271.898 130.493 274.318 130.493 276.739 131.299H279.966C280.773 132.104 281.58 132.105 282.386 132.105H283.193L284 131.299V131.299Z" fill="#322116"/>
<path d="M72.6135 527.612C73.4203 527.612 78.2613 529.223 80.6817 529.223C82.2953 530.029 89.5567 531.64 91.9772 531.64H96.8181C96.8181 531.64 97.6249 530.834 97.6249 530.029C96.8181 528.418 96.0113 527.612 95.2044 526.001C94.3976 525.196 91.1703 522.779 91.1703 521.974C90.3635 521.974 89.5567 521.168 88.7499 521.168C87.9431 521.168 85.5226 521.974 83.909 521.974C83.1022 522.779 75.8408 524.39 74.2272 525.196C73.4203 525.196 71.8067 526.001 71.8067 526.807C71.8067 526.807 71.8067 527.612 72.6135 527.612V527.612ZM102.466 527.612C103.273 528.418 105.693 531.64 107.307 532.446C108.92 532.446 112.954 533.251 114.568 533.251H119.409C120.216 533.251 121.829 532.446 120.216 531.64C118.602 530.834 116.182 530.029 114.568 529.223C112.148 528.418 106.5 526.807 104.079 526.001C102.466 525.196 101.659 525.196 101.659 526.001C101.659 526.001 101.659 526.807 102.466 527.612ZM127.477 528.418C129.898 529.223 138.773 532.446 142 532.446C145.227 532.446 146.841 533.251 149.261 531.64C152.489 530.029 156.523 527.612 157.329 526.807C158.136 526.807 158.136 526.001 156.523 526.001H152.489C150.875 526.001 131.511 526.807 129.898 526.807C128.284 526.807 125.057 526.807 127.477 528.418V528.418ZM162.977 532.446C163.784 532.446 171.045 531.64 172.659 531.64C173.466 530.834 174.273 530.834 175.079 530.029C175.886 529.223 179.114 522.779 179.92 521.974C179.92 521.168 179.92 520.363 179.114 520.363C178.307 521.168 167.011 527.612 163.784 529.223L162.17 530.835C162.17 531.64 161.364 532.446 162.977 532.446V532.446ZM183.954 512.308C184.761 511.502 184.761 510.697 183.148 509.086C182.341 507.475 171.045 488.142 170.239 486.531C169.432 485.726 167.011 484.115 166.204 483.309V484.115C162.977 484.115 158.943 484.92 154.102 486.531C141.193 488.948 123.443 494.586 102.466 497.003L100.852 497.808C100.852 497.808 92.784 513.113 91.9772 513.919C91.1703 514.724 91.9772 515.53 91.9772 515.53C91.9772 515.53 104.886 520.363 108.114 521.168C110.534 522.779 114.568 521.974 116.182 521.974C117.795 521.974 143.614 521.168 143.614 521.168C143.614 521.168 163.784 520.363 165.398 520.363C167.011 520.363 170.239 519.557 172.659 518.752C174.273 518.752 180.727 513.919 180.727 513.919C180.727 513.919 183.148 513.113 183.954 512.308V512.308ZM183.148 530.029C183.954 530.029 198.477 526.001 199.284 525.196C200.091 525.196 201.704 524.39 200.898 522.779C200.091 521.974 198.477 521.168 197.67 521.168C196.057 520.363 192.023 514.724 190.409 516.335C190.409 516.335 184.761 523.585 182.341 530.029H183.148V530.029ZM4.84081 516.335C5.64763 514.724 12.909 500.225 13.7158 499.419C13.7158 498.614 15.3294 496.197 16.1363 494.586C16.1363 493.781 14.5226 492.975 14.5226 492.975C13.7158 492.17 14.5226 490.559 14.5226 490.559L13.7158 489.753C12.909 487.337 8.8749 480.893 11.2954 464.782C13.7158 451.088 19.3635 452.7 33.0794 450.283C41.1476 449.477 48.409 447.866 56.4772 446.255C56.4772 444.644 57.284 443.839 57.284 443.033C58.8976 441.422 61.3181 440.617 62.9317 441.422C63.7385 442.228 64.5454 443.033 65.3522 443.839C66.9658 443.033 69.3863 442.228 72.6135 441.422H71.8067C71.8067 439.006 73.4203 436.589 75.8408 436.589C77.4544 435.784 79.8749 437.395 79.8749 439.006C81.4885 439.006 82.2953 438.2 83.1022 438.2C83.909 437.395 84.7158 437.395 85.5226 437.395C84.7158 434.978 85.5226 432.562 87.9431 431.756C89.5567 430.951 91.9772 431.756 92.784 433.367C95.2044 432.562 96.8181 431.756 99.2385 430.145C98.4317 427.729 99.2385 425.312 100.852 424.506C102.466 423.701 104.079 424.506 105.693 425.312C107.307 424.506 108.92 422.895 110.534 421.284C109.727 419.673 110.534 417.257 112.148 416.451C113.761 414.84 115.375 415.646 116.989 416.451C117.795 414.84 118.602 414.035 119.409 413.229C118.602 411.618 118.602 409.202 120.216 407.591C121.829 406.785 123.443 405.98 125.057 406.785L126.67 405.174C125.864 403.563 125.864 401.952 126.67 400.341L127.477 399.536C126.67 398.73 126.67 397.924 126.67 396.313C126.67 393.897 129.091 392.286 131.511 393.091H133.125C137.159 378.592 134.739 349.594 133.932 337.511C132.318 323.817 128.284 298.846 128.284 294.818C128.284 290.791 142.807 286.763 158.136 297.235C172.659 308.512 172.659 349.594 172.659 349.594H174.273C191.216 349.594 215.42 349.594 221.875 348.788C230.75 346.371 218.648 329.456 219.454 319.789C219.454 309.318 223.489 286.763 229.943 287.569C235.591 288.374 233.977 291.596 234.784 310.929C236.398 330.261 239.625 367.315 240.432 380.203C242.045 392.286 241.239 395.508 241.239 395.508C241.239 395.508 243.659 412.424 247.693 422.09C251.727 431.756 254.954 442.228 253.341 451.894C252.534 461.56 250.114 470.421 245.273 475.254L244.466 476.059L243.659 476.865C244.466 478.476 242.852 480.087 242.852 480.087L256.568 509.086C256.568 509.086 261.409 517.141 262.216 521.168C263.023 524.39 261.409 523.585 260.602 525.196C260.602 527.612 259.795 533.251 258.182 537.279C256.568 540.501 253.341 542.917 251.727 543.723C242.852 546.945 224.295 549.361 221.068 549.361C208.159 550.972 167.818 550.972 167.011 550.972C137.966 550.167 95.2044 549.361 94.3976 549.361C68.5794 548.556 48.409 547.75 46.7954 546.945C28.2385 545.334 18.5567 539.695 16.1363 538.89C3.22718 530.029 4.84081 521.168 4.84081 521.168C3.22718 519.557 4.03399 517.141 4.84081 516.335V516.335Z" fill="#272626"/>
<path d="M72.6136 527.613L73.4205 523.585C74.2273 523.585 79.0682 525.196 81.4886 526.002C82.2954 526.002 90.3636 527.613 91.9773 527.613H96.0114L96.8182 531.64L96.0114 527.613V530.029L95.2045 528.418C95.2045 527.613 96.0114 527.613 96.0114 527.613V530.029L95.2045 528.418L96.8182 530.835H93.5909C93.5909 529.224 94.3977 528.418 95.2045 528.418L96.8182 530.835H96.0114L93.5909 531.64V530.835H96.0114L93.5909 531.64C93.5909 530.835 92.7841 530.029 91.9773 528.418C91.1705 528.418 88.75 525.196 87.9432 525.196L88.75 523.585V525.196H87.9432L88.75 523.585V525.196C87.9432 525.196 86.3295 526.002 85.5227 526.002C83.9091 526.807 76.6477 528.418 75.8409 529.224H74.2273L73.4205 527.613L74.2273 529.224L73.4205 527.613L74.2273 529.224L72.6136 526.807H75.8409C75.8409 528.418 75.0341 529.224 74.2273 529.224L72.6136 526.807L75.0341 525.196C75.8409 525.196 75.8409 526.807 75.8409 526.807H72.6136L75.0341 525.196L72.6136 526.807L73.4205 523.585C74.2273 523.585 74.2273 524.391 75.0341 525.196L72.6136 526.807L73.4205 523.585L72.6136 527.613L71 531.64C71 531.64 69.3864 530.835 68.5795 530.029C67.7727 528.418 67.7727 527.613 67.7727 526.807V526.002C68.5795 522.78 70.1932 521.974 71 521.974C71.8068 521.974 72.6136 521.168 73.4205 521.168C75.0341 521.168 81.4886 518.752 83.1023 518.752C84.7159 517.946 87.1364 517.141 88.75 517.141C91.1704 517.141 92.7841 517.946 93.5909 519.557C94.3977 519.557 96.8182 522.78 98.4318 524.391C98.4318 524.391 100.045 526.002 100.852 528.418C101.659 529.224 101.659 530.029 101.659 530.835C101.659 532.446 100.852 534.057 99.2386 534.862C98.4318 535.668 97.625 535.668 96.8182 535.668H91.1705C88.75 534.862 81.4886 534.057 79.0682 533.251C77.4545 533.251 72.6136 531.64 71 531.64L72.6136 527.613V527.613ZM102.466 527.613L105.693 525.196C105.693 525.196 106.5 526.002 107.307 527.613C107.845 527.613 108.114 527.881 108.114 528.418H108.92L108.114 529.224V528.418H108.92L108.114 529.224V528.418C108.92 528.418 113.761 529.224 114.568 529.224H119.409V531.64L118.602 529.224H119.409V531.64L118.602 529.224L119.409 533.251L118.602 529.224L120.216 531.64L117.795 529.224H118.602L120.216 531.64L117.795 529.224L120.216 532.446H116.989C116.989 530.835 117.795 530.029 117.795 529.224L120.216 532.446L117.795 534.862C116.989 534.862 116.989 534.057 116.989 532.446H120.216L117.795 534.862L119.409 533.251L117.795 534.862L119.409 533.251L117.795 534.862C116.989 534.862 114.568 534.057 112.955 533.251C111.341 532.446 104.886 530.029 103.273 530.029L102.466 529.224V526.002L104.08 529.224H102.466V526.002L104.08 529.224L102.466 526.002L105.693 526.807C105.693 527.613 104.886 528.418 104.08 529.224L102.466 526.002L105.693 526.807L103.273 526.002H105.693V526.807L103.273 526.002L105.693 525.196V526.002H103.273L105.693 525.196L102.466 527.613L99.2386 530.029C98.4318 529.224 97.625 527.613 97.625 526.002V525.196C97.625 523.585 99.2386 522.78 100.045 521.974C100.852 521.169 101.659 521.168 102.466 521.168C103.273 521.168 104.08 521.974 105.693 521.974C107.307 522.78 113.761 524.391 116.182 525.196C117.795 526.002 120.216 526.807 121.83 528.418C122.636 529.224 124.25 529.224 125.057 532.446C125.057 534.057 123.443 535.668 122.636 535.668C121.023 537.279 120.216 536.473 120.216 537.279H114.568C112.955 537.279 108.92 536.473 106.5 535.668C103.273 534.862 102.466 534.057 101.659 532.446C100.045 531.64 99.2386 530.029 99.2386 530.029L102.466 527.613V527.613ZM127.477 528.418L129.898 524.391C130.705 525.196 140.386 528.418 142 528.418H147.648C150.068 526.807 154.102 524.391 154.909 524.391H154.102L156.523 526.002H154.102V524.391L156.523 526.002H157.33L155.716 529.224C154.909 529.224 153.295 527.613 154.102 526.002H157.33L155.716 529.224L156.523 527.613V530.029L155.716 529.224L156.523 527.613V530.029H152.489C150.875 530.029 131.511 530.835 129.898 530.835H128.284V528.418L129.091 530.835H128.284V528.418L129.091 530.835L127.477 527.613H130.705C130.705 529.224 129.091 530.835 129.091 530.835L127.477 527.613L129.898 524.391C129.898 525.196 130.705 526.002 130.705 527.613H127.477L129.898 524.391L128.284 526.002L129.898 524.391L128.284 526.002L129.898 524.391L127.477 528.418L125.864 531.64C125.057 530.835 123.443 530.835 122.636 527.613C122.636 526.002 123.443 524.391 124.25 524.391C125.864 523.317 127.208 522.779 128.284 522.779H129.898C131.511 522.779 150.068 521.974 151.682 521.974H159.75C160.557 522.78 162.17 524.391 162.17 526.002C161.364 529.224 160.557 529.224 159.75 530.029C158.136 531.64 154.102 534.057 151.682 534.862C149.261 536.473 146.841 536.473 145.227 536.473H141.193C137.159 535.668 129.091 533.251 125.864 531.64L127.477 528.418V528.418ZM162.977 532.446V528.418C163.784 528.418 171.045 527.613 171.852 527.613L172.659 528.418L171.852 527.613L172.659 528.418L171.852 527.613L172.659 528.418L171.852 527.613L172.659 528.418L171.852 527.613L175.886 520.363L178.307 521.168H175.886V520.363L178.307 521.168H179.114L176.693 522.779C175.886 521.974 175.886 521.168 175.886 521.168H179.114L176.693 522.779L179.92 521.168V524.391C179.114 524.391 177.5 524.391 176.693 522.779L179.92 521.168V521.974L180.727 524.391H179.92V521.974L180.727 524.391C179.114 525.196 168.625 530.835 166.205 532.446L163.784 529.224L167.011 532.446L164.591 534.057L162.17 530.835L165.398 533.251L162.977 531.64H166.205L165.398 533.251L162.977 531.64H162.17L164.591 528.418C165.398 529.224 166.205 530.835 166.205 531.64H162.17L164.591 528.418L162.977 530.835V528.418H164.591L162.977 530.835V536.473C162.17 536.473 160.557 536.473 159.75 535.668C158.943 534.862 158.136 533.251 158.136 531.64C158.136 529.224 158.943 529.224 158.943 528.418H159.75L161.364 526.002C165.398 523.585 175.886 517.946 177.5 517.141C178.307 517.141 178.307 516.335 179.92 516.335C180.727 516.335 182.341 517.141 183.148 518.752C183.955 519.557 183.955 520.363 183.955 521.168C183.955 521.974 183.955 522.78 183.148 523.585C182.341 525.196 179.92 530.835 178.307 532.446C177.5 534.057 174.273 535.668 172.659 535.668C171.045 535.668 164.591 536.473 162.977 536.473V532.446V532.446ZM183.955 512.308L180.727 509.086L182.341 510.697H179.92L180.727 509.086L182.341 510.697H181.534L180.727 511.502C180.727 511.502 179.92 511.502 179.92 510.697H181.534L180.727 511.502H179.92C179.114 509.891 176.693 505.058 173.466 499.42C170.239 494.586 167.011 488.948 167.011 488.948C167.011 488.948 166.205 488.142 165.398 488.142V487.337L166.205 484.92L165.398 487.337L166.205 484.92L165.398 487.337L166.205 483.309L167.011 487.337H166.205C163.784 488.142 159.75 488.948 154.909 489.753C142.807 492.975 124.25 498.614 102.466 501.031V497.003L103.273 501.031L102.466 501.836L100.852 497.809L104.886 499.42C104.886 499.42 96.8182 514.724 95.2045 516.335L94.3977 515.53H96.0114L95.2045 516.335L94.3977 515.53H93.5909L96.0114 514.724V515.53H93.5909L96.0114 514.724L91.9773 515.53L93.5909 512.308C93.5909 512.308 106.5 516.335 108.92 517.946H116.182C118.602 517.946 143.614 517.141 143.614 517.141C143.614 517.141 162.977 516.335 165.398 516.335C166.205 516.335 170.239 515.53 171.045 515.53C171.045 515.53 173.466 513.919 175.08 513.113C176.693 511.502 179.114 510.697 179.114 510.697L179.92 509.891C180.727 509.891 180.727 509.086 180.727 509.086L183.955 512.308L186.375 515.53C184.761 516.335 183.148 517.141 182.341 517.141L180.727 513.919L183.148 517.141C183.148 517.141 181.534 518.752 179.114 519.557C177.5 521.168 175.08 521.974 173.466 522.779C171.045 523.585 167.818 524.391 165.398 524.391C163.784 524.391 143.614 525.196 143.614 525.196C143.614 525.196 119.409 526.002 116.182 526.002H113.761C112.148 526.002 108.92 526.002 106.5 525.196C103.273 524.391 90.3636 519.557 90.3636 519.557L88.75 518.752L87.9432 517.141V515.53C87.9432 513.919 87.9432 513.113 88.75 511.502C88.75 511.502 91.1705 507.475 93.5909 503.447C95.2045 499.42 97.625 495.392 97.625 495.392L98.4318 494.586L101.659 493.781C122.636 491.364 140.386 484.92 153.295 482.504C158.136 480.893 162.17 480.087 165.398 480.087H166.205L167.011 479.282V480.087C169.432 480.087 170.239 480.893 171.045 481.698C171.852 482.504 172.659 483.309 173.466 484.115C174.273 485.726 176.693 490.559 179.92 495.392C183.148 501.031 186.375 505.864 187.182 506.669C187.182 508.28 187.989 509.086 187.989 510.697C187.989 512.308 187.182 514.724 186.375 515.53L183.955 512.308V512.308ZM183.148 530.029V526.807L182.341 526.002H183.148V526.807L182.341 526.002C184.761 526.002 197.67 521.974 198.477 521.974L199.284 525.196L197.67 521.974L198.477 522.779L197.67 521.974L198.477 522.779L197.67 521.974L199.284 523.585H196.864C196.864 521.974 197.67 521.974 197.67 521.974L199.284 523.585H200.091L197.67 525.196C197.67 525.196 196.864 524.391 196.864 523.585H200.091L197.67 525.196C197.67 525.196 196.864 524.391 196.057 524.391L197.67 521.168L196.057 524.391C193.636 523.585 193.636 521.974 192.023 521.168C191.485 520.631 190.947 520.363 190.409 520.363L191.216 518.752V520.363H190.409L191.216 518.752V517.946L192.83 519.557C192.023 519.557 191.216 520.363 191.216 520.363V517.946L192.83 519.557L190.409 516.335L193.636 518.752C193.636 518.752 187.989 526.002 185.568 531.64L182.341 530.029L186.375 529.224L182.341 530.029L184.761 526.807C185.568 527.613 186.375 528.418 186.375 529.224L182.341 530.029L184.761 526.807L183.148 529.224V526.002C183.148 526.002 183.955 526.002 184.761 526.807L183.148 529.224V526.002V530.029L183.955 534.057H183.148C181.534 534.057 180.727 534.057 179.92 533.251C178.307 532.446 178.307 530.835 178.307 530.029V528.418C181.534 521.168 186.375 513.919 187.182 513.919V513.113C188.795 512.308 189.602 512.308 191.216 512.308C194.443 512.308 196.057 513.919 197.67 515.53C198.477 515.53 198.477 516.335 199.284 517.141L198.477 518.752L199.284 517.141L198.477 518.752L199.284 517.141C200.091 517.946 202.511 518.752 204.125 520.363C204.932 521.168 204.932 522.78 204.932 523.585C204.932 526.002 204.125 527.613 203.318 527.613C202.511 528.418 201.705 529.224 200.898 529.224C200.091 529.224 196.057 530.835 192.83 531.64C188.795 532.446 185.568 534.057 183.955 534.057L183.148 530.029V530.029ZM4.84091 516.335L1.61364 513.919C2.42045 513.113 9.68182 498.614 9.68182 497.809C10.4886 497.003 10.4886 496.198 11.2955 495.392C11.2955 495.392 11.2955 494.586 12.1023 494.586V493.781L12.9091 494.586H12.1023V493.781L12.9091 494.586H12.1023H14.5227L12.1023 496.198V494.586H14.5227L12.1023 496.198L10.4886 494.586V488.948L14.5227 490.559L11.2955 492.975L10.4886 492.17C8.875 489.753 6.45454 484.115 6.45454 475.254C6.45454 472.032 6.45455 468.004 7.26136 463.977C8.875 456.727 11.2955 451.894 16.1364 449.478C20.9773 447.061 25.8182 447.061 33.0795 446.256C40.3409 445.45 47.6023 444.645 55.6704 442.228L56.4773 446.256L52.4432 445.45C52.4432 443.839 53.25 442.228 54.0568 441.422C55.6705 439.006 58.0909 437.395 61.3182 437.395C62.125 437.395 63.7386 437.395 65.3523 438.2C66.9659 439.006 67.7727 440.617 68.5795 442.228L65.3523 443.839L63.7386 439.811C66.1591 439.006 68.5795 439.006 71 438.2L72.6136 441.422L68.5795 442.228L71.8068 441.422L68.5795 442.228C68.0417 441.691 67.7727 441.154 67.7727 440.617C67.7727 436.589 71 433.367 75.0341 432.562H76.6477C79.875 432.562 82.2954 434.173 83.9091 437.395L79.875 439.006L79.0682 434.978C79.875 434.978 80.6818 434.978 81.4886 434.173C82.2954 434.173 83.1023 433.367 83.9091 433.367L85.5227 437.395L81.4886 438.2V435.784C80.6818 432.562 83.1023 429.34 87.1364 427.729H89.5568C91.9773 427.729 94.3977 429.34 96.0114 431.756L92.7841 433.367L91.1705 430.145C92.7841 429.34 95.2045 427.729 96.8182 426.923L99.2386 430.145L95.2045 431.756C94.3977 430.951 94.3977 429.34 94.3977 428.534C94.3977 426.118 96.0114 422.896 99.2386 421.285C100.045 420.479 101.659 420.479 102.466 420.479C104.886 420.479 107.307 421.285 108.92 422.896L105.693 425.312L103.273 422.09C104.886 421.285 106.5 419.674 108.114 418.868L110.534 421.285L107.307 423.701C106.5 422.09 106.5 421.285 106.5 419.674C106.5 417.257 107.307 414.035 110.534 412.424C111.341 411.618 112.955 411.618 114.568 411.618C116.182 411.618 117.795 411.618 118.602 412.424L116.989 416.452L113.761 413.229C114.568 412.424 116.182 411.618 116.989 410.813L119.409 413.229L116.182 415.646C115.375 414.035 114.568 412.424 114.568 410.813C114.568 408.396 116.182 405.98 117.795 404.369C119.409 403.563 121.023 402.758 123.443 402.758C124.25 402.758 125.864 402.758 126.67 403.563L125.057 406.785L121.83 404.369L123.443 402.758L126.67 405.174L123.443 406.785C122.636 405.98 121.83 404.369 121.83 402.758C121.83 401.147 122.636 399.536 123.443 398.73V397.925L124.25 397.119L127.477 399.536L124.25 401.952C123.443 401.147 122.636 398.73 122.636 397.119V395.508C123.443 391.481 126.67 389.064 130.705 389.064H133.125V393.092L129.091 392.286C130.705 386.647 131.511 378.592 131.511 369.732C131.511 357.649 129.898 344.761 129.898 337.511C128.284 323.817 124.25 299.652 124.25 294.819C125.057 291.597 127.477 289.986 129.898 288.375C132.318 287.569 135.545 286.764 138.773 286.764C145.227 286.764 152.489 288.375 160.557 294.013C169.432 301.263 172.659 314.151 174.273 325.428C176.693 337.511 176.693 347.983 176.693 349.594H172.659L171.852 345.566H174.273C191.216 345.566 215.42 345.566 221.068 344.761V343.955C221.068 342.344 219.455 338.317 218.648 333.483C217.034 329.456 215.42 324.623 215.42 319.79V318.984C215.42 314.151 216.227 306.096 217.841 298.846C219.455 294.819 220.261 291.597 221.875 289.18C223.489 285.958 225.909 283.542 229.943 283.542H230.75C232.364 283.542 234.784 284.347 236.398 285.958C238.011 289.18 238.011 291.597 238.818 294.819V310.929C240.432 329.456 243.659 367.315 244.466 379.398C245.273 385.036 245.273 389.064 245.273 391.481V396.314L241.239 395.508L245.273 394.703C245.273 394.703 247.693 411.618 250.92 420.479C254.955 429.34 258.182 438.2 258.182 447.867C258.182 449.478 257.375 451.089 257.375 451.894C256.568 462.366 254.148 472.032 248.5 477.671L247.693 478.476L246.886 479.282H246.08L245.273 480.087L243.659 476.865L246.886 474.449C247.693 475.254 247.693 476.865 247.693 477.671C247.693 482.504 244.466 483.309 244.466 483.309L242.852 480.087L246.08 478.476L260.602 507.475L256.568 509.086L259.795 507.475C260.602 507.475 264.636 515.53 266.25 519.557V522.779C266.25 524.391 265.443 526.002 264.636 526.807L263.023 526.002H264.636V526.807L263.023 526.002H264.636C264.636 527.613 263.83 534.057 261.409 538.89C258.989 542.917 255.761 545.334 253.341 546.945C242.852 550.973 224.295 553.389 221.875 553.389C212.193 555 192.023 555 179.114 555H167.011C137.966 554.195 95.2045 553.389 93.5909 553.389C68.5795 552.584 48.4091 551.778 45.9886 550.973C27.4318 549.362 16.9432 543.723 14.5227 542.112C3.22727 534.862 0.806818 526.807 0.806818 522.779C0.806818 521.168 0.806818 520.363 1.61364 520.363L4.84091 521.168L2.42045 524.391C0.806818 522.78 0 520.363 0 518.752C0 516.335 0.806818 514.724 1.61364 513.919L4.84091 516.335L8.875 517.946C8.06818 517.946 8.06818 518.752 8.06818 518.752H6.45454L7.26136 517.946L8.06818 518.752H6.45454L7.26136 517.946L9.68182 519.557L8.875 521.974V522.779C8.875 524.391 9.68182 529.224 18.5568 534.862C20.1705 536.473 29.0455 541.306 46.7955 542.917C48.4091 543.723 68.5795 544.528 94.3977 545.334C95.2045 545.334 137.966 546.139 167.011 546.945H179.114C192.023 546.945 212.193 546.945 221.068 545.334C223.489 545.334 242.045 542.917 250.114 539.695L251.727 543.723L249.307 539.695C250.92 539.695 253.341 537.279 254.148 535.668L254.955 534.862L254.148 535.668C255.761 533.251 256.568 526.807 256.568 525.196V524.391C257.375 522.78 258.989 521.974 258.989 521.168L259.795 521.974H258.182C258.989 521.974 258.989 521.168 258.989 521.168L259.795 521.974H258.182L259.795 522.779H258.182V521.974L259.795 522.779H258.182V521.974C258.182 521.169 256.568 517.946 255.761 515.53C254.148 513.113 253.341 511.502 253.341 511.502L237.205 478.476L240.432 476.865L241.239 477.671H239.625L240.432 476.865L241.239 477.671L239.625 478.476V477.671H241.239L239.625 478.476L238.011 474.449L242.045 472.838L242.852 472.032L245.273 475.254L242.852 472.032C246.08 468.81 248.5 460.755 249.307 451.089C250.114 450.283 250.114 448.672 250.114 447.867C250.114 439.811 247.693 431.756 243.659 423.701C239.625 413.229 237.205 396.314 237.205 395.508V394.703V380.203C235.591 368.121 232.364 330.261 230.75 310.929V292.402L229.943 291.597V290.791H230.75V291.597C230.212 291.597 229.943 291.328 229.943 290.791H230.75V291.597H229.943C226.716 295.624 223.489 311.735 222.682 319.79C222.682 322.206 224.295 327.039 225.909 331.067C227.523 335.9 229.136 339.928 229.136 343.955C229.136 347.177 226.716 352.01 222.682 352.816C214.614 353.621 191.216 353.621 174.273 353.621H172.659L168.625 354.427V349.594C168.625 347.983 168.625 337.511 166.205 327.039C164.591 315.762 160.557 304.485 155.716 300.457C149.261 296.43 142.807 294.819 138.773 294.819C136.352 294.819 133.932 294.819 133.125 295.624C132.318 295.624 132.318 296.43 132.318 296.43L130.705 294.819H132.318V296.43L130.705 294.819H132.318C132.318 298.041 136.352 323.012 137.966 337.511C137.966 344.761 139.58 357.649 139.58 369.732C139.58 378.592 138.773 387.453 137.159 393.897L135.545 397.119H130.705L132.318 399.536L129.898 403.563L126.67 400.341L129.898 402.758L131.511 405.174L129.898 407.591C129.36 408.128 128.822 408.665 128.284 409.202L125.864 412.424L123.443 410.813H122.636L125.057 413.229L122.636 415.646C121.83 417.257 120.216 418.063 119.409 418.868L116.989 421.285L114.568 419.674L116.182 422.896L112.955 424.507C111.341 426.118 109.727 427.729 108.114 428.534L104.886 430.951L102.466 428.534V429.34L103.273 431.756L100.852 433.367C99.2386 434.978 96.8182 435.784 94.3977 437.395L91.1705 439.006L89.5568 435.784H88.75L90.3636 439.811L87.1364 440.617C86.3295 441.422 85.5227 441.422 84.7159 441.422C83.1023 442.228 82.2954 442.228 81.4886 443.034L78.2614 443.839L76.6477 440.617H75.8409V441.422L76.6477 444.645L73.4205 445.45C71 446.256 68.5795 447.061 66.1591 447.867L62.9318 448.672L61.3182 445.45H60.5114V449.478L57.2841 450.283C49.2159 451.894 41.9545 453.505 33.8864 454.311C26.625 455.116 21.7841 455.922 19.3636 456.727C17.75 457.533 16.9432 459.144 15.3295 465.588C14.5227 469.616 14.5227 472.032 14.5227 475.254C14.5227 483.309 16.9432 486.531 16.9432 487.337L13.7159 489.753L16.9432 487.337H17.75L18.5568 488.948V491.364L17.75 492.17H15.3295L17.75 490.559C18.5568 491.364 17.75 491.364 17.75 492.17H15.3295L17.75 490.559L16.1364 491.364L17.75 490.559L16.1364 491.364L17.75 490.559C17.75 490.559 19.3636 491.364 20.1705 494.586C20.1705 495.123 19.9015 495.392 19.3636 495.392C19.3636 497.003 18.5568 497.809 18.5568 499.42L16.9432 501.031C16.9432 502.642 8.875 516.335 8.875 517.946L4.84091 516.335V516.335Z" fill="#272626"/>
<path d="M72.6136 527.612C73.4204 527.612 78.2613 528.418 80.6818 529.223C82.2954 530.029 89.5568 530.834 91.9772 531.64H96.8181C96.8181 531.64 98.4318 530.834 97.625 530.029C96.8181 528.418 96.0113 526.807 95.2045 526.001C94.3977 525.196 91.1704 521.974 91.1704 521.974C90.3636 521.168 89.5568 521.168 88.7499 521.168C87.9431 521.168 85.5227 521.974 83.909 521.974C83.1022 522.779 75.8409 524.39 74.2272 525.196C73.4204 525.196 71.8068 526.001 71.8068 526.001C71.8068 526.807 71.8068 527.612 72.6136 527.612V527.612ZM102.466 527.612C103.273 528.418 105.693 531.64 107.307 531.64C108.92 532.445 112.955 532.446 114.568 532.446C116.182 532.446 119.409 533.251 119.409 533.251C120.216 532.446 121.829 532.445 120.216 531.64C118.602 530.834 116.182 530.029 114.568 529.223C112.148 528.418 106.5 526.001 104.079 526.001C102.466 525.196 101.659 525.196 101.659 525.196C101.659 525.733 101.928 526.538 102.466 527.612ZM127.477 527.612C129.898 529.223 138.773 532.446 142 532.446C145.227 532.446 146.841 532.445 149.261 531.64C152.489 530.029 156.523 527.612 157.329 526.807C157.329 526.001 158.136 525.196 156.523 525.196C154.909 525.196 154.102 526.001 152.489 526.001C150.068 526.001 131.511 526.807 129.898 526.807C128.284 526.807 125.057 526.807 127.477 527.612V527.612ZM162.977 532.446C163.784 532.446 171.045 531.64 171.852 531.64C173.466 530.834 174.273 530.834 175.08 530.029C175.886 529.223 179.114 522.779 179.92 521.974C179.92 521.168 179.92 520.363 179.114 520.363C178.307 521.168 167.011 526.807 163.784 529.223L162.17 530.834C162.17 531.64 161.364 532.446 162.977 532.446V532.446ZM183.955 512.308C184.761 511.502 184.761 510.697 183.148 509.086C182.341 507.475 171.045 488.142 170.239 486.531C169.432 485.726 167.011 484.115 166.204 483.309H165.398C162.977 484.115 158.943 484.92 154.102 485.726C141.193 488.948 123.443 494.586 102.466 497.003L100.852 497.808C100.852 497.808 92.784 513.113 91.9772 513.919V515.53C91.9772 515.53 104.886 520.363 108.114 521.168C110.534 521.974 114.568 521.974 116.182 521.974C117.795 521.974 143.614 521.168 143.614 521.168C143.614 521.168 162.977 520.363 165.398 520.363C167.011 520.363 170.239 519.557 171.852 518.752C174.273 517.946 180.727 513.919 180.727 513.919C180.727 513.919 183.148 513.113 183.955 512.308V512.308ZM183.148 530.029C183.954 530.029 198.477 526.001 199.284 525.196C200.091 525.196 201.704 524.39 200.898 522.779C200.091 521.974 198.477 521.168 197.67 520.363C196.057 520.363 192.023 514.724 189.602 516.335C189.602 516.335 184.761 523.585 182.341 529.223C182.341 529.223 182.341 530.029 183.148 530.029V530.029ZM4.84087 515.53C5.64768 514.724 12.909 500.225 13.7159 499.419C14.5227 498.614 16.1363 496.197 16.1363 494.586C16.1363 493.781 14.5227 492.975 14.5227 492.17C13.7159 492.17 14.5227 489.753 14.5227 489.753H13.7159C12.909 487.337 8.87496 480.087 11.2954 464.782C13.7159 451.088 19.3636 451.894 33.8863 450.283C41.1477 449.477 48.409 447.866 56.4772 446.255C57.284 444.644 57.284 443.839 57.284 443.033C58.8977 441.422 61.3181 440.617 63.7386 441.422C64.5454 442.228 64.5454 443.033 65.3522 443.839C67.7727 443.033 70.1931 442.228 72.6136 441.422C71.8068 439.006 73.4204 436.589 75.8409 436.589C77.4545 435.784 79.875 437.395 80.6818 439.006C81.4886 439.006 82.2954 438.2 83.1022 438.2C83.909 437.395 84.7159 437.395 85.5227 437.395C84.7159 434.978 86.3295 432.562 87.9431 431.756C89.5568 430.951 91.9772 431.756 92.784 433.367C95.2045 432.562 96.8181 431.756 99.2386 430.145C98.4318 427.729 99.2386 425.312 100.852 424.506C102.466 423.701 104.886 424.506 105.693 425.312C107.307 424.506 108.92 422.895 110.534 421.284C109.727 419.673 110.534 417.257 112.148 416.451C113.761 414.84 115.375 415.646 116.989 416.451C117.795 414.84 118.602 414.035 119.409 413.229C118.602 411.618 118.602 409.202 120.216 407.591C121.829 406.785 123.443 406.785 125.057 406.785L126.67 405.174C125.864 403.563 125.864 401.952 126.67 400.341L127.477 399.535C126.67 398.73 126.67 397.924 126.67 396.313C126.67 393.897 129.091 392.286 131.511 393.091H133.125C137.159 378.592 134.739 349.594 133.932 337.511C132.318 323.817 128.284 298.846 128.284 295.624C128.284 291.596 142.807 286.763 158.136 298.041C172.659 308.512 172.659 350.399 172.659 350.399L174.273 349.594C191.216 349.594 215.42 349.594 221.068 348.788C230.75 347.177 218.648 330.261 218.648 319.789C219.454 309.318 223.489 286.763 229.943 287.569C235.591 288.374 233.977 292.402 234.784 310.929C236.398 330.261 239.625 367.315 240.432 380.203C241.239 392.286 241.239 395.508 241.239 395.508C241.239 395.508 243.659 412.424 247.693 422.09C251.727 431.756 254.148 442.228 253.341 451.894C252.534 461.56 250.114 470.421 245.273 475.254L244.466 476.059H242.852C244.466 478.476 242.045 480.087 242.045 480.087L256.568 509.086C256.568 509.086 261.409 517.141 262.216 520.363C263.023 524.39 260.602 523.585 260.602 525.196C260.602 526.807 259.795 533.251 257.375 537.279C255.761 539.695 253.341 542.112 251.727 543.723C242.045 546.945 224.295 549.361 221.068 549.361C207.352 550.972 167.818 550.972 167.011 550.167C137.966 550.167 95.2045 549.361 94.3977 549.361C68.5795 548.556 48.409 546.945 46.7954 546.945C28.2386 545.334 18.5568 539.695 16.9431 538.084C3.22723 530.029 5.64768 521.168 5.64768 521.168C3.22723 519.557 4.84087 517.141 4.84087 515.53V515.53Z" fill="white"/>
<path d="M82.2953 499.42C77.2527 499.285 72.6135 499.218 68.1088 499.151C45.854 498.816 29.7177 498.614 14.1192 490.492L13.9175 490.358C13.9175 490.358 7.19401 483.376 10.4885 464.648C12.7745 451.626 18.1533 451.089 29.9866 449.88C31.1969 449.746 32.4743 449.612 33.819 449.478C48.2745 447.8 60.9146 445.249 82.8332 437.462C104.348 429.81 123.174 411.216 129.965 397.589C136.352 386.916 134.47 357.985 133.394 342.411C133.259 340.599 133.192 338.988 133.058 337.578C132.385 331.604 131.175 323.549 130.099 315.762C128.687 305.76 127.41 297.168 127.41 294.819C127.41 293.745 128.351 292.671 130.032 291.798C135.075 289.314 146.774 288.71 158.607 297.37C172.592 307.439 173.399 344.089 173.466 349.057C179.382 348.923 186.173 348.855 192.897 348.855C205.335 348.788 217.034 348.721 220.934 347.983C222.144 347.781 223.018 347.312 223.489 346.506C225.035 343.888 223.018 338.182 221.068 332.678C219.454 328.113 217.841 323.415 217.841 319.79C218.513 311.198 221.606 292.134 226.985 287.771C227.926 286.965 229.002 286.629 230.01 286.764C235.053 287.502 235.12 290.724 235.255 300.323C235.255 303.142 235.389 306.633 235.524 310.862C235.86 315.292 236.33 320.662 236.868 326.435C238.549 345.902 240.566 370.202 241.171 380.136C241.978 392.085 241.978 395.374 241.978 395.508C241.978 395.508 244.399 412.29 248.365 421.755C252.87 432.495 254.82 442.966 254.08 451.961C253.408 459.681 251.458 470.153 245.81 475.791C240.701 480.893 213.874 484.115 192.023 484.115C187.787 484.115 184.425 484.115 181.534 484.115C169.633 484.048 167.146 483.981 154.237 486.599C150.875 487.404 147.042 488.411 142.941 489.485C127.141 493.714 105.559 499.487 82.2281 499.487L82.2953 499.42ZM14.9933 489.082C30.2556 497.003 46.123 497.204 68.1088 497.54C72.5463 497.54 77.2527 497.674 82.2953 497.809C105.357 497.809 125.998 492.304 142.538 487.874C146.639 486.8 150.471 485.793 153.9 484.92C167.011 482.302 169.566 482.302 181.534 482.437C184.358 482.437 187.787 482.437 191.955 482.437C213.202 482.437 240.028 479.215 244.6 474.583C249.912 469.28 251.794 459.211 252.467 451.76C253.206 443.034 251.256 432.83 246.886 422.359C242.852 412.692 240.499 396.247 240.364 395.575C240.364 395.441 240.364 392.085 239.558 380.203C238.953 370.269 236.868 346.036 235.255 326.57C234.784 320.73 234.313 315.359 233.91 310.929C233.708 306.633 233.641 303.142 233.641 300.323C233.506 290.523 233.372 288.845 229.809 288.308C229.271 288.24 228.666 288.442 227.993 288.979C223.488 292.671 220.194 309.587 219.387 319.79C219.387 323.146 221.001 327.711 222.547 332.074C224.699 338.182 226.716 344.022 224.833 347.244C224.094 348.453 222.883 349.258 221.203 349.527C217.168 350.265 205.402 350.332 192.897 350.399C177.971 350.466 161.095 350.601 156.724 351.876C149.665 353.286 146.841 360.737 146.841 377.653C147.648 392.756 147.648 395.24 147.648 395.374H146.034C146.034 395.374 146.034 392.756 145.227 377.72C145.227 364.63 146.572 352.279 156.388 350.332C158.809 349.594 164.591 349.258 171.852 349.057C171.852 344.492 170.844 308.11 157.666 298.645C146.437 290.388 135.478 290.858 130.772 293.208C129.427 293.879 129.091 294.55 129.091 294.752C129.091 296.967 130.368 305.962 131.713 315.427C132.856 323.213 133.999 331.268 134.671 337.31C134.739 338.786 134.873 340.398 135.007 342.143C136.083 357.85 138.033 387.117 131.377 398.193C124.452 412.021 105.222 431.018 83.3711 438.805C61.2508 446.658 48.5434 449.209 33.9535 450.954C32.6088 451.089 31.3313 451.223 30.1211 451.357C18.4895 452.565 14.1864 452.968 12.1022 464.782C9.21106 481.497 14.3209 488.142 15.0605 488.948L14.9933 489.082Z" fill="#272626"/>
<path d="M54.0567 472.032V470.421C54.0567 470.421 58.427 470.018 94.9355 458.405C131.041 446.121 154.909 437.999 162.977 414.639C171.718 391.682 167.818 350.936 167.751 350.533L169.364 350.399C169.364 350.802 173.331 391.95 164.456 415.243C156.119 439.408 131.982 447.598 95.4062 460.016C58.427 471.83 54.3257 472.166 53.9895 472.166L54.0567 472.032Z" fill="#272626"/>
<path d="M66.2264 499.755C66.2264 499.755 51.6364 469.011 48.4764 460.218C45.1147 450.887 49.3505 447.396 49.5522 447.262L50.5607 448.538C50.5607 448.538 47.0645 451.625 50.0228 459.748C53.1828 468.474 67.5711 498.815 67.7728 499.151L66.2936 499.822L66.2264 499.755Z" fill="#272626"/>
<path d="M240.768 396.179C240.768 396.179 235.053 392.152 225.573 387.386C219.387 384.499 208.562 382.754 199.889 381.344C193.905 380.404 188.795 379.532 186.173 378.525C178.71 375.236 168.49 360.334 168.02 359.73L169.364 358.857C169.364 358.857 179.786 374.027 186.778 377.115C189.199 378.055 194.309 378.861 200.158 379.8C208.966 381.21 219.858 383.022 226.312 385.976C235.927 390.809 241.709 394.904 241.776 394.904L240.835 396.246L240.768 396.179Z" fill="#272626"/>
<path d="M156.523 351.205C156.523 351.205 158.943 319.789 147.648 309.318C136.352 299.652 129.091 304.485 129.091 304.485" stroke="#272626" stroke-width="0.24" stroke-miterlimit="10"/>
<path d="M167.011 551.778C137.159 550.972 95.0701 550.167 94.3977 550.167C75.1686 549.563 59.1667 548.556 51.4347 548.019C48.8797 547.884 47.1989 547.75 46.7955 547.75C27.7008 546.072 18.2206 540.366 16.4725 538.755C4.23579 531.573 4.43749 523.652 4.77367 521.504C3.02556 520.027 3.49621 518.08 3.83238 516.805C3.96685 516.335 4.03409 515.865 4.03409 515.53V515.194L4.30302 514.925C4.70643 514.455 6.85795 510.361 8.60605 507.072C11.0937 502.306 12.4384 499.889 12.9763 499.016C13.1108 498.547 13.447 498.01 13.9848 497.204C14.59 496.331 15.3968 495.19 15.3968 494.519C15.3968 494.385 15.0606 494.049 14.8589 493.848C14.5227 493.512 14.1193 493.109 13.9176 492.639C13.8504 492.639 13.7831 492.505 13.7159 492.438C13.2453 491.767 13.5142 490.424 13.8504 489.417L15.3968 489.954C15.2623 490.424 15.1278 490.961 15.0606 491.297H15.3968V492.102C15.3968 492.102 15.7329 492.572 15.9347 492.774C16.4053 493.244 17.0104 493.848 17.0104 494.519C17.0104 495.727 16.1364 497.003 15.3295 498.144C15.0606 498.614 14.59 499.218 14.59 499.419V499.755L14.3883 499.956C13.9848 500.426 11.8333 504.521 10.0852 507.81C7.59753 512.442 6.32007 514.858 5.71496 515.731C5.71496 516.201 5.58049 516.604 5.44602 517.073C5.10984 518.617 4.90814 519.557 6.11837 520.43L6.58901 520.765L6.45454 521.302C6.45454 521.302 4.43749 529.693 17.3466 537.278L17.4811 537.413C18.8258 538.755 28.1714 544.394 46.8627 546.072C47.2661 546.072 48.8125 546.139 51.5019 546.34C59.1667 546.81 75.2358 547.884 94.3977 548.488C95.4735 548.488 138.235 549.294 167.011 550.1C168.625 550.1 207.42 550.1 220.934 548.488C224.161 548.488 241.575 546.139 251.257 542.917C251.593 542.581 251.996 542.246 252.467 541.843C254.08 540.433 256.03 538.621 256.568 536.943C258.989 532.848 259.728 526.538 259.728 525.129C259.728 524.122 260.333 523.652 260.737 523.316C261.275 522.913 261.745 522.511 261.342 520.43C260.602 517.409 255.829 509.488 255.761 509.421L240.902 479.751L241.508 479.348C241.508 479.348 243.39 478.006 242.785 476.261L244.331 475.724C245.004 477.67 243.928 479.348 242.987 480.221L257.241 508.615C257.241 508.615 262.149 516.738 262.955 520.094C263.493 522.913 262.687 523.853 261.812 524.592C261.409 524.86 261.409 524.927 261.409 525.129C261.409 526.874 260.602 533.452 258.047 537.614C257.442 539.561 255.291 541.44 253.543 543.051C253.072 543.454 252.601 543.857 252.265 544.26L251.929 544.461C242.113 547.75 224.228 550.167 221.001 550.167C207.487 551.778 168.625 551.778 166.944 551.778H167.011Z" fill="#272626"/>
<path d="M183.148 530.835H181.198L181.601 529.761C184.022 523.317 188.728 516.201 188.93 515.933L189.132 515.731C191.149 514.389 193.569 516.47 195.519 518.081C196.259 518.685 197.334 519.625 197.671 519.625H197.939L198.208 519.893C198.545 520.229 199.15 520.632 199.688 521.034C200.293 521.437 200.965 521.907 201.436 522.31L201.57 522.511C201.974 523.317 201.974 524.189 201.57 524.861C201.1 525.599 200.225 526.002 199.486 526.136C196.998 527.478 183.887 530.969 183.081 530.969L183.148 530.835ZM190.14 516.94C189.468 517.947 185.77 523.719 183.551 529.157C186.039 528.62 197.671 525.33 198.746 524.592L199.015 524.324H199.284C199.284 524.324 200.024 524.189 200.225 523.854C200.225 523.787 200.36 523.585 200.225 523.25C199.889 522.914 199.351 522.578 198.814 522.243C198.276 521.907 197.738 521.504 197.267 521.101C196.46 520.9 195.586 520.162 194.443 519.222C193.031 518.081 191.216 516.47 190.14 516.94V516.94Z" fill="#272626"/>
<path d="M162.977 533.251C162.439 533.251 161.767 533.251 161.431 532.714C161.027 532.244 161.229 531.64 161.296 531.304C161.296 531.17 161.364 530.969 161.364 530.902V530.566L163.246 528.687C165.196 527.21 169.768 524.726 173.466 522.712C175.685 521.504 178.24 520.094 178.643 519.826L178.845 519.625H179.181C180.795 519.625 180.795 521.235 180.795 522.041V522.377L180.526 522.645C180.526 522.645 179.046 524.995 178.24 526.471C176.962 528.754 176.155 530.23 175.685 530.633C175.214 531.103 174.676 531.372 174.273 531.573C173.937 531.774 173.6 531.909 173.264 532.244L172.995 532.513H172.659C171.785 532.513 168.827 532.781 166.541 532.983C164.524 533.184 163.381 533.318 162.977 533.318V533.251ZM162.843 531.64H162.977C162.977 531.64 164.86 531.506 166.339 531.372C168.625 531.17 171.113 530.902 172.323 530.835C172.726 530.499 173.13 530.298 173.466 530.096C173.802 529.895 174.138 529.761 174.474 529.425C174.811 529.089 175.954 527.076 176.76 525.599C177.836 523.652 178.576 522.31 179.114 521.638C179.114 521.504 179.114 521.437 179.114 521.303C178.374 521.773 176.828 522.578 174.205 524.055C170.575 526.001 166.07 528.485 164.322 529.828L162.977 531.17C162.977 531.17 162.977 531.506 162.91 531.64H162.843Z" fill="#272626"/>
<path d="M142 533.251C138.571 533.251 129.763 530.029 127.141 528.351C126.603 528.15 125.729 527.814 125.864 527.009C125.998 526.069 127.007 526.002 129.965 526.002C130.705 526.002 134.873 525.867 139.378 525.666C144.958 525.465 151.211 525.196 152.556 525.196C153.228 525.196 153.699 525.062 154.304 524.861C154.909 524.659 155.649 524.391 156.59 524.391C157.397 524.391 157.868 524.659 158.136 524.928C158.54 525.263 158.742 525.733 158.742 526.203C158.742 526.874 158.338 527.411 157.8 527.546C156.523 528.62 152.556 530.902 149.732 532.312C147.11 533.184 145.429 533.184 142.135 533.184L142 533.251ZM129.158 527.613C132.453 529.224 139.378 531.64 142 531.64C145.227 531.64 146.707 531.64 148.993 530.902C152.22 529.291 156.052 526.941 156.725 526.27L156.926 526.069C156.926 526.069 156.657 526.069 156.523 526.069C155.85 526.069 155.313 526.203 154.775 526.404C154.17 526.606 153.43 526.874 152.489 526.874C151.144 526.874 144.891 527.143 139.378 527.344C134.671 527.546 130.637 527.68 129.898 527.68H129.158V527.613Z" fill="#272626"/>
<path d="M119.678 534.124L119.207 533.989C119.207 533.989 116.047 533.184 114.568 533.184C111.946 533.184 108.719 533.117 107.105 532.378C105.626 532.244 104.012 530.566 102.533 528.821C102.264 528.552 102.062 528.284 101.928 528.149L101.793 527.948L100.919 526.001C100.919 525.263 101.323 524.927 101.525 524.793C102.13 524.39 102.936 524.524 104.348 525.196C106.365 525.263 109.794 526.538 112.551 527.612C113.492 527.948 114.299 528.284 114.904 528.418H115.039C115.846 528.888 116.787 529.223 117.795 529.626C118.804 530.029 119.88 530.432 120.686 530.834C121.09 531.036 121.829 531.371 121.829 532.11C121.829 532.781 121.224 533.05 120.821 533.251C120.552 533.385 120.283 533.519 120.081 533.721L119.745 534.056L119.678 534.124ZM103.138 527.142C103.138 527.142 103.474 527.545 103.743 527.814C104.55 528.686 106.365 530.834 107.307 530.834H107.643C109.055 531.64 113.223 531.64 114.568 531.64C115.913 531.64 118.266 532.177 119.207 532.378C119.275 532.378 119.409 532.244 119.476 532.177C118.737 531.841 117.93 531.506 117.056 531.17C116.047 530.767 115.039 530.364 114.232 529.962C113.627 529.76 112.82 529.425 111.879 529.089C109.257 528.082 105.693 526.807 104.012 526.807H103.676C103.205 526.471 102.869 526.337 102.668 526.27L103.071 527.142H103.138Z" fill="#272626"/>
<path d="M97.1544 532.446H91.7084C90.6327 532.043 88.4812 531.707 86.3969 531.304C83.3713 530.767 81.4215 530.432 80.4802 530.029C78.8666 530.029 76.3789 529.358 74.5635 528.888C73.7567 528.686 72.8154 528.418 72.5465 528.418C70.9329 528.418 70.9329 526.807 70.9329 526.001V525.532L71.4035 525.33C71.4035 525.33 73.0171 524.525 73.9584 524.457C74.7652 524.055 76.4461 523.652 78.2615 523.115C80.0768 522.578 82.8334 521.84 83.2368 521.437L83.5058 521.168H83.842C84.716 521.168 85.859 520.9 86.8675 520.698C87.6743 520.497 88.2794 520.363 88.6829 520.363C89.5569 520.363 90.6327 520.363 91.7084 521.37L91.9774 521.638V521.974C92.1118 522.309 93.7927 523.719 94.5995 524.39C95.0702 524.793 95.5408 525.196 95.7425 525.397C96.6166 526.27 97.4234 527.881 98.2974 529.559L98.4319 529.962C98.4319 531.103 97.4906 532.043 97.3562 532.177L97.0872 532.446H97.1544ZM92.1118 530.835H96.4821C96.4821 530.835 96.751 530.365 96.8183 530.163C96.0787 528.686 95.3391 527.21 94.6668 526.538C94.4651 526.337 94.0616 526.001 93.591 525.599C91.6412 523.921 90.6999 523.048 90.4982 522.377C89.9603 521.974 89.4897 521.974 88.8173 521.974C88.5484 521.974 87.9433 522.108 87.3382 522.242C86.3969 522.444 85.2539 522.712 84.2454 522.779C83.5058 523.249 81.8921 523.719 78.8666 524.592C77.1185 525.062 75.3031 525.599 74.698 525.934H74.3618C74.3618 525.934 73.3533 526.27 72.7482 526.538C72.7482 526.74 72.7482 526.874 72.7482 526.941C73.0171 526.874 73.7567 527.008 75.0342 527.344C76.8495 527.814 79.27 528.418 80.6819 528.418H81.0181C81.7577 528.888 84.3798 529.358 86.6658 529.76C88.8173 530.163 90.9016 530.499 92.0446 530.835H92.1118Z" fill="#272626"/>
<path d="M116.182 522.779C114.434 522.779 110.4 522.779 107.845 521.907C104.685 521.101 92.1789 516.469 91.7083 516.268L91.1704 516.067V513.583L91.4393 513.314C92.0445 512.576 97.1543 503.178 100.18 497.406L101.592 498.144C99.8437 501.5 94.196 512.106 92.784 514.12V514.925C95.2045 515.865 105.559 519.624 108.315 520.363C110.669 521.168 114.703 521.168 116.182 521.168C117.661 521.168 143.345 520.363 143.614 520.363C144.42 520.363 163.044 519.557 165.398 519.557C166.877 519.557 170.037 518.752 172.39 518.013C173.869 517.275 180.189 513.314 180.257 513.247C181.265 512.845 182.879 512.24 183.349 511.771C183.686 511.435 184.022 511.166 182.543 509.69L182.408 509.488C182.005 508.683 178.979 503.447 176.021 498.345C172.995 493.109 170.171 488.142 169.566 487.001C169.163 486.665 168.423 486.061 167.751 485.591C166.877 484.92 166.07 484.316 165.667 483.913L166.81 482.772C167.146 483.108 167.953 483.712 168.759 484.316C169.633 484.92 170.44 485.524 170.844 485.994L170.978 486.195C171.382 487.001 174.474 492.371 177.5 497.54C180.458 502.641 183.282 507.474 183.82 508.616C185.03 509.891 186.039 511.368 184.56 512.912C183.618 513.851 181.265 514.657 180.996 514.724C180.929 514.791 174.676 518.685 173.062 519.49C170.575 520.296 167.213 521.168 165.465 521.168C163.112 521.168 143.883 521.974 143.681 521.974C142.605 521.974 117.795 522.779 116.249 522.779H116.182Z" fill="#272626"/>
<path d="M154.573 541.306C152.287 541.306 150.001 541.306 147.648 541.306C138.168 541.105 128.822 541.038 119.812 540.904C91.1031 540.568 66.2935 540.3 49.0814 537.279C18.5567 532.446 5.64765 522.243 5.177 521.84L6.18552 520.564C6.18552 520.564 19.3636 530.969 49.3503 535.668C66.4279 538.689 91.2376 538.957 119.88 539.293C128.889 539.36 138.168 539.494 147.715 539.695C150.001 539.695 152.287 539.695 154.506 539.695C242.382 539.695 259.93 524.726 260.132 524.592L261.207 525.8C260.468 526.472 243.054 541.374 154.64 541.374L154.573 541.306Z" fill="#272626"/>
<path d="M157.329 404.369C159.75 404.369 161.364 402.758 162.17 400.341C162.17 397.924 160.557 396.313 158.136 395.508C148.454 394.702 132.318 393.091 131.511 393.091C129.091 392.286 126.67 393.897 126.67 396.313C125.864 398.73 127.477 401.147 129.898 401.147C131.511 401.147 153.295 403.563 157.329 404.369V404.369Z" fill="#272626"/>
<path d="M148.455 418.062C150.068 418.062 151.682 418.062 152.489 416.451C153.296 414.84 152.489 411.618 150.875 410.813L132.318 399.535C130.705 397.924 128.284 398.73 126.671 400.341C125.864 402.757 125.864 405.174 128.284 406.785L146.034 418.062H148.455V418.062Z" fill="#272626"/>
<path d="M136.352 430.145C137.966 430.145 138.773 429.339 139.58 429.339C141.193 427.728 141.193 424.506 139.58 422.895C135.545 418.062 127.477 410.007 126.67 408.396C125.057 406.785 122.636 405.98 120.216 407.591C118.602 409.202 118.602 411.618 119.409 413.229C121.83 415.646 132.318 427.728 133.125 428.534C133.932 429.339 135.545 430.145 136.352 430.145V430.145Z" fill="#272626"/>
<path d="M124.25 439.811C125.057 439.811 125.864 439.811 125.864 439.006C128.284 438.2 129.091 434.978 127.477 433.367L117.795 417.257C116.989 415.646 114.568 414.84 112.148 416.451C110.534 417.257 109.727 419.673 110.534 422.09L120.216 437.395C121.023 439.006 122.636 439.811 124.25 439.811Z" fill="#272626"/>
<path d="M109.727 447.061H110.534C112.955 445.45 113.761 443.033 112.955 440.617L106.5 426.923C105.693 424.507 103.273 423.701 100.852 424.507C99.2386 426.118 98.4318 428.534 99.2386 430.951L104.886 444.645C105.693 446.256 108.114 447.867 109.727 447.061V447.061Z" fill="#272626"/>
<path d="M94.3978 453.505H95.2046C96.8182 452.7 98.4319 450.283 97.625 447.867L93.591 434.978C92.7841 432.562 90.3637 430.951 87.9432 431.756C85.5228 432.562 84.716 434.978 85.5228 437.395L89.5569 451.089C90.3637 452.7 92.7841 454.311 94.3978 453.505Z" fill="#272626"/>
<path d="M79.875 457.533C81.4887 457.533 83.1023 455.116 82.2955 452.7L80.6819 439.811C79.875 437.395 78.2614 435.784 75.841 436.589C73.4205 436.589 71.8069 439.006 72.6137 441.423L74.2273 454.311C75.0341 456.727 76.6478 458.338 79.0682 457.533H79.875V457.533Z" fill="#272626"/>
<path d="M61.3182 462.366H62.125C64.5454 462.366 66.1591 459.949 66.1591 457.533C65.3522 453.505 64.5454 448.672 65.3522 447.061C66.1591 444.644 65.3522 443.033 63.7386 441.422C61.3182 440.617 58.8977 441.422 57.2841 443.033C57.2841 443.839 55.6704 446.256 57.2841 459.144C58.0909 460.755 59.7045 462.366 61.3182 462.366Z" fill="#272626"/>
<path d="M84.7159 343.15H23.3977V33.0264H84.7159V38.665H29.0454V338.317H84.7159V343.15Z" fill="#E32330"/>
<path d="M120.216 340.733L74.2273 323.817V356.843L120.216 340.733Z" fill="#E32330"/>
<path d="M120.216 36.2483L74.2273 19.3325V52.3586L120.216 36.2483Z" fill="#E32330"/>
</g>
<defs>
<clipPath id="clip0_511_60">
<rect width="284" height="555" fill="white"/>
</clipPath>
</defs>
</svg>
