<svg width="713" height="312" viewBox="0 0 713 312" fill="none" xmlns="http://www.w3.org/2000/svg">
<path d="M561.969 228.201C561.969 225.209 558.228 225.209 558.228 228.201C558.228 230.446 556.731 299.281 555.235 303.77C554.486 305.266 554.486 308.259 553.738 312H559.724C559.724 309.755 560.473 306.763 560.473 303.77C561.221 306.763 561.969 309.755 561.969 312H567.956C567.207 308.259 567.207 305.266 566.459 303.77C564.962 299.281 561.969 230.446 561.969 228.201Z" fill="#231F20"/>
<path d="M482.65 104.748C480.405 112.23 478.909 118.964 478.16 124.201C477.412 127.194 474.419 133.928 473.67 140.662L469.929 157.87C467.684 164.604 463.943 178.072 462.446 187.05C462.446 189.295 460.949 209.496 462.446 218.475C463.194 220.719 463.943 223.712 463.943 227.453C462.446 222.216 460.201 215.482 457.208 211.741C451.97 205.755 445.235 199.022 444.487 191.54C443.739 184.058 443.739 190.043 447.48 178.072C449.725 169.094 451.97 158.619 453.467 150.388C453.467 150.388 456.46 137.669 457.208 133.928C457.956 130.187 460.201 115.223 459.453 118.216C459.453 119.712 461.698 107.741 461.698 100.259C462.446 94.2734 464.691 75.5684 464.691 72.5755C463.943 63.5971 469.929 54.6187 470.677 45.6403C471.426 35.9137 474.419 19.4532 474.419 14.964V15.7122L477.412 23.9424C478.16 26.9353 478.909 31.4245 480.405 33.6691C480.405 34.4173 481.153 35.1655 481.902 36.6619C484.147 44.1439 485.643 53.8705 486.391 64.3453C486.391 74.0719 484.147 98.0144 482.65 104.748ZM528.296 47.8849C523.058 48.6331 508.092 49.3813 502.854 46.3885C499.861 45.6403 497.616 44.8921 495.371 43.3957L494.623 42.6475C493.126 41.1511 490.133 40.4029 487.888 37.4101C485.643 35.9137 484.895 32.9209 484.147 29.9281C482.65 26.1871 481.902 19.4532 480.405 14.964C479.657 10.4748 478.16 10.4748 477.412 5.98561C476.664 5.23741 475.167 0.748201 474.419 0H470.677V15.7122C469.929 23.9424 467.684 39.6547 466.188 46.3885C464.691 53.1223 460.949 64.3453 460.949 68.8345C460.201 76.3165 458.705 96.518 459.453 98.7626C459.453 101.007 457.208 112.23 457.208 115.223C457.208 124.201 451.222 145.151 451.222 147.396C448.977 157.87 448.228 163.856 446.732 169.094C445.984 172.835 439.249 189.295 440.746 193.784C442.99 199.77 449.725 209.496 454.215 213.986C457.208 216.23 466.188 234.935 464.691 237.928C463.943 239.424 462.446 240.921 460.201 243.914C458.705 246.906 458.705 250.647 459.453 254.388C460.949 259.626 457.956 273.842 457.208 277.583C455.711 281.324 454.963 280.576 451.97 279.079C446.732 276.086 439.249 273.842 434.759 273.094C429.521 272.345 428.773 272.345 426.528 268.604C423.535 264.863 419.045 258.878 416.052 255.137C413.807 252.144 412.31 249.151 413.807 244.662C414.555 240.173 415.304 234.935 416.052 228.201C416.052 221.468 418.297 210.993 418.297 208.748C419.045 202.763 418.297 195.281 417.548 191.54C416.8 187.799 416.8 181.065 416.8 173.583V158.619C416.8 154.878 413.807 139.914 413.059 130.187C412.31 120.46 413.807 109.237 415.303 100.259C415.303 95.0216 416.052 80.8058 418.297 74.0719C419.793 68.8345 419.793 65.0935 420.542 59.8561C422.038 50.8777 430.269 25.4388 430.269 11.223C430.269 7.48201 429.521 3.74101 429.521 0C428.773 0.748201 427.276 0.748201 426.528 0.748201C426.528 3.74101 426.528 5.98561 425.78 7.48201C425.031 11.9712 426.528 21.6978 424.283 28.4317C420.542 44.8921 419.045 53.8705 418.297 57.6115C416.052 64.3453 416.052 71.8273 414.555 80.0576C413.059 91.2806 411.562 104 411.562 107.741C411.562 111.482 408.569 118.964 410.065 134.676C410.814 140.662 414.555 164.604 414.555 170.59C414.555 175.079 413.807 179.568 414.555 187.05C415.304 193.784 414.555 202.014 414.555 205.007C414.555 207.252 413.059 208.748 412.31 215.482C411.562 222.216 410.814 235.683 410.814 235.683C410.814 235.683 410.065 240.173 409.317 243.914C407.821 247.655 409.317 250.647 410.814 253.64C412.31 256.633 418.297 264.863 419.793 267.856C422.038 271.597 425.78 273.842 428.773 276.086C431.766 277.583 439.249 278.331 442.242 279.079C445.984 279.827 448.977 281.324 454.215 284.317C458.705 285.813 458.705 280.576 460.949 270.849C461.698 267.856 463.943 260.374 461.698 254.388C460.949 252.144 460.201 248.403 463.194 244.662C464.691 243.165 465.439 241.669 466.188 240.173C468.432 255.137 470.677 271.597 472.174 278.331C472.922 282.82 475.167 297.036 477.412 312H481.902C480.405 306.014 480.405 300.029 479.657 296.288C477.412 287.309 471.426 256.633 471.426 252.144C470.677 243.165 469.181 228.95 467.684 219.223C466.188 209.496 465.439 192.288 466.188 186.302C466.936 176.576 472.174 161.612 473.67 155.626C473.67 155.626 478.16 139.914 478.16 138.417C484.147 118.216 485.643 112.23 487.14 101.755C490.881 73.3237 489.385 68.0863 488.636 63.5971C488.636 56.8633 487.888 48.6331 486.391 41.1511C489.385 44.8921 493.126 47.8849 493.126 47.8849L497.616 49.3813C497.616 49.3813 501.357 50.8777 504.351 50.8777C508.092 51.6259 519.316 52.3741 525.303 50.8777C526.799 50.1295 531.289 47.8849 528.296 47.8849Z" fill="#231F20"/>
<path d="M555.235 157.122L518.568 135.424V145.899C503.602 145.899 492.378 145.151 482.65 142.906L478.16 141.41C469.181 139.165 463.194 136.173 459.453 133.18C460.201 132.432 468.432 128.691 474.419 126.446C474.419 125.698 475.167 124.201 475.167 124.201C475.915 119.712 477.412 113.727 478.909 105.496C468.432 109.986 450.473 118.216 450.473 121.957V142.158C450.473 151.885 464.691 157.87 479.657 160.863L484.147 161.612C500.609 164.604 517.072 164.604 517.072 164.604V174.331L555.235 157.122Z" fill="#E5202F"/>
<path d="M635.302 64.3453C636.05 53.8705 637.547 44.1439 639.792 36.6619C640.54 35.1655 641.288 34.4173 641.288 33.6691C642.785 31.4245 643.533 26.9353 644.282 23.9424L647.275 15.7122V14.964C647.275 19.4532 650.268 35.9137 651.016 45.6403C651.765 54.6187 657.751 63.5971 657.003 72.5755C657.003 75.5684 659.247 94.2734 659.996 100.259C659.996 107.741 662.241 119.712 662.241 118.216C661.492 115.223 663.737 130.187 664.486 133.928C665.234 137.669 668.227 150.388 668.227 150.388C669.724 158.619 671.969 169.094 674.213 178.072C677.955 190.043 677.955 184.058 677.207 191.54C676.458 199.022 669.724 205.755 664.486 211.741C661.492 215.482 659.248 222.216 657.751 227.453C657.751 223.712 658.499 220.719 659.247 218.475C660.744 209.496 659.247 189.295 659.247 187.05C657.751 178.072 654.009 164.604 651.765 157.87L648.023 140.662C647.275 133.928 644.282 127.194 643.533 124.201C642.785 118.964 641.288 112.23 639.044 104.748C637.547 98.0144 635.302 74.0719 635.302 64.3453ZM596.391 50.8777C602.377 52.3741 613.602 51.6259 617.343 50.8777C620.336 50.8777 624.078 49.3813 624.078 49.3813L628.567 47.8849C628.567 47.8849 632.309 44.8921 635.302 41.1511C633.805 48.6331 633.057 56.8633 633.057 63.5971C632.309 68.0863 630.812 73.3237 634.554 101.755C636.05 112.23 637.547 118.216 643.533 138.417C643.533 139.914 648.023 155.626 648.023 156.374C649.52 161.612 654.758 176.576 655.506 186.302C656.254 192.288 655.506 209.496 654.009 219.223C652.513 228.95 651.016 243.165 650.268 252.144C650.268 256.633 644.282 287.309 642.037 296.288C641.288 300.029 641.288 306.014 639.792 312H644.282C646.526 297.036 648.771 282.82 649.52 278.331C651.016 271.597 653.261 255.137 655.506 240.173C656.254 241.669 657.003 243.165 658.499 244.662C661.492 248.403 660.744 252.144 659.996 254.388C657.751 260.374 659.996 267.856 660.744 270.849C662.989 280.576 662.989 285.813 667.479 284.317C672.717 281.324 675.71 279.827 679.451 279.079C682.445 278.331 689.928 277.583 692.921 276.086C695.914 273.842 699.655 271.597 701.9 267.856C703.397 264.863 709.383 256.633 710.88 253.64C712.376 250.647 713.873 247.655 712.376 243.914C711.628 240.173 710.88 235.683 710.88 235.683C710.88 235.683 710.132 222.216 709.383 215.482C708.635 208.748 707.138 207.252 707.138 205.007C707.138 202.014 706.39 193.784 707.138 187.05C707.887 179.568 707.138 175.079 707.138 170.59C707.138 164.604 710.88 140.662 711.628 134.676C713.125 118.964 710.132 111.482 710.132 107.741C710.132 104 708.635 91.2806 707.138 80.0576C705.642 71.8273 705.642 64.3453 703.397 57.6115C702.649 53.8705 701.152 44.8921 697.411 28.4317C695.166 21.6978 696.662 11.9712 695.914 7.48201C695.166 5.98561 695.166 3.74101 695.166 0.748201C694.417 0.748201 692.921 0.748201 692.172 0V11.223C692.172 25.4388 699.655 50.8777 701.152 59.8561C701.9 65.0935 701.9 68.8345 703.397 74.0719C705.642 80.8058 706.39 95.0216 706.39 100.259C707.887 109.237 709.383 120.46 708.635 130.187C707.887 139.914 704.893 154.878 704.893 158.619V173.583C704.893 181.065 704.893 187.799 704.145 191.54C703.397 195.281 702.649 202.763 703.397 208.748C703.397 210.993 705.642 221.468 705.642 228.201C706.39 234.935 707.138 240.173 707.887 244.662C709.383 249.151 707.887 252.144 705.642 255.137C702.649 258.878 698.159 264.863 695.166 268.604C692.921 272.345 692.173 272.345 686.934 273.094C682.445 273.842 674.962 276.086 669.724 279.079C666.73 280.576 665.982 281.324 664.486 277.583C663.737 273.842 660.744 259.626 662.241 254.388C662.989 250.647 662.989 246.906 661.492 243.914C659.248 240.921 657.751 239.424 657.003 237.928C655.506 234.935 664.486 216.23 667.479 213.986C671.969 209.496 678.703 199.77 680.948 193.784C682.445 189.295 675.71 172.835 674.962 169.094C673.465 163.856 672.717 157.87 670.472 147.396C670.472 145.151 664.486 124.201 664.486 115.223C664.486 112.23 662.241 101.007 662.241 98.7626C662.989 96.518 661.492 76.3165 660.744 68.8345C660.744 64.3453 657.003 53.1223 655.506 46.3885C654.009 39.6547 651.765 23.9424 651.016 15.7122V0H647.275C646.527 0.748201 645.03 5.23741 644.282 5.98561C643.533 10.4748 642.037 10.4748 641.288 14.964C639.792 19.4532 639.044 26.1871 637.547 29.9281C636.799 32.9209 636.05 35.9137 633.805 37.4101C631.561 40.4029 628.567 41.1511 627.071 42.6475L626.323 43.3957C624.078 44.8921 621.833 45.6403 618.84 46.3885C613.602 49.3813 598.636 48.6331 593.398 47.8849C590.404 47.8849 594.894 50.1295 596.391 50.8777Z" fill="#231F20"/>
<path d="M566.459 157.122L603.125 135.424V145.899C618.091 145.899 629.316 145.151 639.044 142.906L643.533 141.41C652.513 139.165 658.499 136.173 662.241 133.18C661.492 132.432 653.261 128.691 647.275 126.446C647.275 125.698 646.527 124.201 646.527 124.201C645.778 119.712 644.282 113.727 642.785 105.496C653.261 109.986 671.22 118.216 671.22 121.957V142.158C671.22 151.885 657.003 157.87 642.037 160.863L637.547 161.612C621.085 164.604 604.622 164.604 604.622 164.604V174.331L566.459 157.122Z" fill="#E5202F"/>
<path d="M246.189 125.698C245.441 122.705 236.461 109.986 233.468 103.252C231.223 96.518 228.978 59.1079 230.475 53.8705C231.971 47.8849 249.93 13.4676 249.93 13.4676C251.427 22.446 252.924 32.1727 253.672 37.4101C254.42 48.6331 258.91 58.3597 259.658 62.1007C260.407 65.0935 259.658 71.0791 258.162 76.3165C256.665 82.3022 260.407 89.036 258.91 104C258.162 108.489 258.162 112.978 258.162 116.719C253.672 115.223 249.182 113.727 243.196 112.978L243.944 113.727C246.937 119.712 249.182 123.453 249.93 125.698V130.187C253.672 131.683 255.917 133.18 257.413 133.928V134.676C255.168 136.921 251.427 138.417 246.937 140.662C246.189 134.676 246.189 127.942 246.189 125.698ZM309.046 115.971C309.794 111.482 311.291 106.245 311.291 95.0216C311.291 84.5468 306.801 74.0719 305.304 69.5827C304.556 65.8417 303.059 63.5971 303.808 51.6259C303.808 39.6547 304.556 11.9712 304.556 8.97842C304.556 6.73381 304.556 5.23741 303.808 2.99281C302.311 2.2446 299.318 1.4964 299.318 1.4964V7.48201C298.57 10.4748 298.57 25.4388 298.57 29.9281V53.1223C298.57 53.1223 298.57 58.3597 299.318 62.1007C300.814 65.0935 300.814 67.3381 302.311 71.8273C303.059 77.0647 306.053 86.0432 306.053 89.7842C306.801 93.5252 306.052 101.007 305.304 106.245C303.808 111.482 304.556 130.187 305.304 135.424C305.304 141.41 306.052 145.151 305.304 157.122C303.808 169.094 298.57 190.791 298.57 196.029C298.57 196.029 295.576 219.223 297.073 224.46C297.073 226.705 300.066 237.18 300.814 243.914C301.563 250.647 302.311 255.885 303.808 260.374C305.304 264.863 304.556 267.856 302.311 270.849C299.318 274.59 295.576 281.324 293.331 285.065C291.087 288.806 290.338 289.554 285.849 290.302C281.359 291.05 273.876 294.043 269.386 297.036C267.141 298.532 265.645 300.029 264.148 295.54C263.4 292.547 259.658 278.331 260.407 272.345C261.155 269.353 261.155 264.863 258.91 262.619C256.665 259.626 255.168 258.129 254.42 256.633C252.924 253.64 260.407 234.935 262.651 231.942C267.141 227.453 272.379 217.727 274.624 210.993C276.869 202.014 275.372 182.561 275.372 182.561C275.372 182.561 272.379 168.345 270.134 161.612C269.386 159.367 267.889 153.381 266.393 146.647C267.141 145.151 267.141 144.403 267.141 142.906V124.201C267.141 121.957 264.896 119.712 261.903 118.216C261.903 109.237 263.4 93.5252 263.4 90.5324C262.651 86.7914 262.651 77.0647 263.4 71.8273C264.148 65.8417 264.148 60.6043 263.4 56.1151C263.4 51.6259 258.91 40.4029 258.91 35.9137C258.91 30.6763 254.42 15.7122 253.672 5.98561C253.672 4.48921 252.924 2.2446 252.924 0H248.434V0.748201C246.937 3.74101 243.944 10.4748 243.944 10.4748C243.944 10.4748 225.985 49.3813 225.237 53.1223C224.488 57.6115 225.985 98.7626 228.978 106.993C231.223 110.734 234.965 115.223 237.209 119.712C240.951 125.698 241.699 132.432 241.699 137.669V142.158C231.971 145.151 217.754 146.647 199.046 146.647V136.921L161.632 157.122L199.795 173.583V164.604C199.795 164.604 225.237 163.856 244.692 159.367C246.189 160.863 250.679 172.086 251.427 178.072C252.175 183.309 251.427 191.54 250.679 201.266C249.182 210.993 245.441 245.41 245.441 249.899C245.441 253.64 240.203 289.554 240.203 296.288C239.454 300.029 238.706 306.014 237.958 312H242.447C244.692 297.036 246.937 282.82 247.686 278.331C249.93 267.856 251.427 225.957 253.672 216.978C255.168 208 255.917 178.82 255.917 176.576C255.917 174.331 252.175 164.604 249.93 157.87C254.42 156.374 258.162 154.878 261.155 152.633C261.903 155.626 263.4 158.619 264.148 163.108C266.393 173.583 270.883 187.05 270.883 187.05C270.883 187.05 272.379 200.518 270.883 209.496C269.386 218.475 264.148 223.712 260.407 229.698C255.917 236.432 253.672 246.158 252.924 252.144C251.427 258.129 252.924 259.626 255.917 263.367C258.91 267.108 258.91 270.101 258.162 273.094C256.665 279.079 258.91 285.813 260.407 289.554C262.651 299.281 263.4 304.518 267.141 302.273C272.379 299.281 275.372 297.784 278.366 296.288C281.359 294.791 288.842 294.043 291.087 292.547C294.08 290.302 297.821 287.309 299.318 283.568C300.814 280.576 306.052 272.345 306.801 268.604C308.297 265.612 309.046 262.619 308.297 258.878C306.801 255.885 306.053 251.396 306.053 251.396C306.053 251.396 303.808 237.928 303.059 231.194C302.311 224.46 300.814 223.712 300.814 220.719C300.066 216.978 303.059 208 304.556 198.273C306.052 188.547 308.297 179.568 309.046 174.331C309.794 169.842 309.794 167.597 310.542 165.353V137.669C310.542 129.439 310.542 123.453 309.794 121.957C309.794 120.46 309.046 119.712 309.046 115.971Z" fill="#231F20"/>
<path d="M159.387 233.439C158.638 230.446 155.645 230.446 155.645 232.691C155.645 235.683 153.4 299.281 152.652 303.77C151.904 305.266 151.904 308.259 151.156 312H157.142C157.142 309.755 157.89 306.763 157.89 303.77C158.638 306.763 158.638 309.755 159.387 312H165.373C164.625 308.259 164.625 305.266 163.877 303.77C162.38 299.281 159.387 235.683 159.387 233.439Z" fill="#231F20"/>
<path d="M61.3602 108.489C59.8636 102.504 58.367 98.0144 57.6187 96.518C56.8704 94.2734 56.8704 91.2806 57.6187 89.7842C58.367 88.2878 58.367 85.295 58.367 81.554C57.6187 77.8129 56.8704 74.0719 56.8704 71.0791C56.8704 68.0863 59.8636 55.3669 61.3602 46.3885C62.1084 36.6619 63.605 19.4532 63.605 14.964C66.5982 20.9496 81.5641 51.6259 82.3124 53.8705C85.3056 62.8489 80.8158 98.0144 79.3192 104.748C77.8226 112.23 73.3329 118.216 72.5846 123.453C71.8363 126.446 71.088 133.928 70.3397 140.662C65.8499 138.417 62.1084 136.921 59.1153 134.676L59.8636 133.928C61.3602 132.432 64.3533 131.683 67.3465 130.187C68.0948 127.194 68.0948 124.201 68.8431 122.705C68.8431 119.712 70.3397 116.719 71.8363 113.727C68.0948 114.475 64.3533 115.223 61.3602 115.971V108.489ZM154.897 157.122L118.231 136.921V146.647C98.7749 146.647 84.5573 144.403 74.8295 141.41V137.669C74.8295 119.712 82.3124 112.23 83.809 101.755C88.2988 73.3237 89.047 57.6115 87.5505 53.1223C86.8022 49.3813 68.8431 10.4748 68.8431 10.4748C68.8431 10.4748 65.1016 1.4964 63.605 0H59.8636C60.6119 5.23741 60.6119 11.223 59.8636 15.7122C59.1153 23.9424 56.8704 39.6547 55.3738 46.3885C53.8772 53.1223 51.6323 63.5971 51.6323 68.0863C51.6323 72.5755 53.1289 80.0576 53.1289 85.295C53.1289 90.5324 52.3806 96.518 53.8772 98.7626C54.6255 100.259 55.3738 110.734 56.1221 118.216C52.3806 119.712 50.1357 121.957 50.1357 124.201V145.899C50.1357 147.396 49.3874 148.892 49.3874 151.137C47.1426 160.863 45.646 167.597 44.8977 169.094C41.9045 180.317 35.1698 200.518 37.4147 208C39.6596 214.734 46.3943 224.46 50.884 228.201C53.8772 231.194 62.8567 249.151 61.3602 252.144C59.8636 253.64 59.1153 255.137 56.8704 258.13C54.6255 261.122 54.6255 264.863 56.1221 268.604C57.6187 273.842 54.6255 288.806 53.1289 291.799C52.3806 296.288 50.884 294.791 48.6391 293.295C43.4011 291.05 35.9181 288.058 30.6801 288.058C26.1903 287.309 25.442 286.561 22.4488 282.82C20.204 279.079 15.7142 273.094 12.721 270.101C9.72783 266.36 8.97953 264.115 9.72783 258.878C11.2244 254.389 11.9727 249.899 11.9727 242.417C11.9727 235.683 14.2176 225.209 14.9659 222.964C15.7142 217.727 11.2244 210.993 10.4761 208C8.97953 199.77 10.4761 174.331 11.2244 169.842C11.9727 165.353 11.9727 160.863 11.9727 157.122C11.9727 154.13 6.73465 127.194 5.98636 117.468C5.23806 107.741 3.74147 101.755 5.98636 92.777C7.48295 83.7986 13.4693 73.3237 15.7142 66.5899C17.9591 60.6043 18.7074 60.6043 18.7074 60.6043V0C17.9591 0.748201 16.4625 0.748201 15.7142 0.748201C15.7142 3.74101 15.7142 5.98561 14.9659 7.48201C14.2176 11.9712 13.4693 26.1871 13.4693 33.6691C13.4693 40.4029 14.2176 56.8633 14.2176 56.8633C14.2176 56.8633 8.97953 68.0863 6.73465 74.8201C3.74147 82.3022 0 93.5252 0 96.518C0.748295 99.5108 2.99318 125.698 5.23806 141.41C8.23124 157.122 8.23124 159.367 7.48295 163.856C6.73465 168.345 5.23806 196.029 5.98636 203.511C7.48295 210.245 10.4761 216.978 10.4761 219.223C10.4761 221.468 9.72783 222.964 8.97954 230.446C8.23124 237.18 7.48295 249.899 7.48295 249.899C7.48295 249.899 5.98636 255.137 5.23806 258.13C4.48977 261.871 5.23806 264.863 7.48295 267.856C8.97953 270.849 14.2176 279.079 16.4625 282.82C17.9591 285.813 21.7005 288.806 25.442 290.302C28.4352 291.799 35.1698 292.547 38.9113 293.295C41.9045 294.791 44.8977 296.288 50.884 298.532C55.3738 300.777 55.3738 294.791 57.6187 285.813C58.367 282.072 59.8636 274.59 58.367 268.604C57.6187 266.36 56.8704 263.367 59.8636 259.626C62.8567 255.137 64.3533 253.64 62.8567 247.655C61.3602 241.669 58.367 231.942 53.1289 225.957C48.6391 219.971 41.1562 213.986 40.4079 206.504C40.4079 199.022 43.4011 189.295 47.8909 177.324C50.1357 169.842 52.3806 160.115 54.6255 151.137C57.6187 154.129 62.1084 155.626 66.5982 157.87C64.3533 164.604 60.6119 174.331 60.6119 176.576C60.6119 178.82 61.3602 208 62.8567 216.978C65.1016 225.957 66.5982 267.856 68.8431 278.331C69.5914 282.82 71.8363 297.036 74.0812 312H78.5709C77.0743 306.014 76.326 300.029 76.326 296.288C76.326 289.554 71.088 253.64 71.088 249.899C71.088 245.41 67.3465 210.993 65.8499 201.266C65.1016 191.54 64.3533 183.309 65.1016 178.072C65.8499 172.086 69.5914 160.863 71.088 159.367H71.8363C91.2919 163.856 116.734 164.604 116.734 164.604V173.583L154.897 157.122Z" fill="#231F20"/>
<path d="M154.897 157.87L117.482 135.424V146.647C102.516 146.647 91.2919 145.151 82.3124 142.906L77.0743 141.41C68.0948 139.165 64.3533 137.669 59.8636 134.676C60.6119 133.928 63.605 132.432 69.5914 130.187C69.5914 125.698 69.5914 123.453 71.088 119.712C72.5846 114.475 73.3329 114.475 75.5778 106.993C65.1016 110.734 48.6391 119.712 48.6391 123.453V142.158C48.6391 152.633 62.8567 157.87 78.5709 160.863L83.0607 162.36C99.5232 165.353 116.734 165.353 116.734 165.353V175.079L154.897 157.87Z" fill="#E5202F"/>
<path d="M161.632 157.87L198.298 135.424V146.647C214.012 146.647 225.237 145.151 234.216 142.906L239.454 141.41C248.434 139.165 252.175 137.669 256.665 134.676C255.168 133.928 255.168 132.432 249.182 130.187C249.182 125.698 246.937 122.705 245.441 119.712C243.944 114.475 243.196 114.475 240.951 106.993C251.427 110.734 267.889 119.712 267.889 123.453L267.141 142.158C267.141 152.633 253.672 157.87 237.958 160.863L233.468 162.36C217.005 165.353 199.795 165.353 199.795 165.353V175.079L161.632 157.87Z" fill="#E5202F"/>
</svg>
