<svg width="1113" height="463" viewBox="0 0 1113 463" fill="none" xmlns="http://www.w3.org/2000/svg">
<g clip-path="url(#clip0_404_71)">
<path d="M719.261 75.3721C722.852 74.1757 733.623 66.9972 739.208 64.6045C747.585 61.0153 767.93 51.4441 770.324 53.8368C772.717 56.2296 805.03 55.0332 805.03 55.0332C810.21 58.2786 815.862 60.7005 821.785 62.2118C826.205 62.9084 830.728 62.4974 834.949 61.0155C834.949 61.0155 836.146 62.2119 828.966 59.8191C821.785 57.4264 816.998 53.8369 809.817 51.4442C804.835 49.6493 799.551 48.8368 794.259 49.0515C789.472 49.0515 769.127 47.8552 769.127 47.8552C779.275 46.5 789.045 43.1089 797.849 37.8853C805.941 31.8851 814.329 26.295 822.982 21.136C827.769 17.5469 825.375 10.3685 826.572 9.17209L827.769 11.5648C827.704 16.3777 828.105 21.1856 828.966 25.9214C830.162 28.3141 839.737 42.6708 837.343 39.0817C834.91 32.6642 833.302 25.9641 832.556 19.1419C832.556 17.9456 831.359 3.589 831.359 3.589V0H825.375C825.168 1.25186 824.764 2.46299 824.178 3.589C822.982 8.37453 822.982 11.9638 821.785 15.5529C820.588 19.1421 814.604 20.3381 809.817 23.9273C801.822 29.3521 793.419 34.1519 784.685 38.2839C776.925 42.6671 768.391 45.511 759.553 46.6588C755.962 47.8552 742.798 57.4264 735.617 59.8191C727.405 63.321 719.412 67.3163 711.682 71.7831C704.16 75.2227 697.384 80.0999 691.735 86.1397C684.015 93.3566 678.251 102.412 674.981 112.46C673.784 119.638 666.603 136.387 665.008 142.369C663.229 149.843 662.028 157.443 661.417 165.101C660.712 175.857 660.712 186.647 661.417 197.403C660.799 208.184 661.2 218.999 662.614 229.705C663.813 243.238 663.813 256.85 662.614 270.382C661.417 277.561 660.221 302.685 660.221 314.649C660.221 326.612 661.417 340.969 661.417 348.147C659.024 367.289 653.04 372.075 649.45 384.038C645.934 395.667 644.317 407.787 644.662 419.93C644.662 423.519 645.859 445.054 648.253 461.804C649.449 463 650.646 461.804 653.04 461.804V455.821C645.533 427.178 649.392 396.743 663.811 370.879C669.795 352.933 668.598 301.089 668.598 277.56C668.598 254.032 667.401 240.473 667.401 232.098C667.401 223.723 666.204 190.225 667.401 175.868C666.487 163.787 667.702 151.638 670.991 139.977C675.128 131.436 678.725 122.646 681.762 113.656C683.209 107.338 685.632 101.283 688.943 95.7104C697.638 87.0338 707.934 80.1268 719.261 75.3721Z" fill="#231F20"/>
<path d="M853.3 7.17802L849.71 5.98169C852.613 12.4338 855.013 19.1002 856.891 25.9214C858.303 30.0758 860.778 33.7882 864.071 36.689C862.568 29.3832 860.569 22.1879 858.087 15.1538C856.313 12.6065 854.714 9.94187 853.3 7.17802Z" fill="#231F20"/>
<path d="M893.99 35.8913L899.974 23.9273C902.707 18.0868 905.105 12.0953 907.155 5.98169C907.155 5.98169 904.761 10.7674 901.171 16.7493C897.054 22.3442 894.569 28.9699 893.99 35.8913Z" fill="#231F20"/>
<path d="M825.774 293.114C812.848 293.298 799.96 291.688 787.477 288.328C783.887 285.935 780.297 284.739 776.706 282.347V281.15C774.313 278.757 769.526 277.561 766.733 272.775C764.439 269.539 762.812 265.879 761.946 262.008C760.166 254.13 758.966 246.133 758.356 238.08C758.356 218.938 760.749 172.279 760.749 138.382C751.393 153.192 745.653 169.995 743.994 187.433C743.801 196.251 743.001 205.046 741.601 213.754L736.814 241.271C736.814 241.271 730.83 277.162 728.436 285.537C724.846 304.679 718.463 323.821 716.469 334.589C713.665 347.21 711.666 359.997 710.485 372.872C710.485 381.247 709.288 392.812 709.288 401.586C709.288 410.359 711.682 454.226 711.682 462.601H718.862C718.862 455.423 716.469 422.722 716.469 419.532C715.272 408.764 716.469 383.64 716.469 377.658C716.469 371.676 722.453 351.338 724.846 335.785C729.633 311.857 749.978 175.469 755.962 159.916C754.765 174.273 751.175 213.754 752.372 222.128C751.511 226.864 751.11 231.672 751.175 236.485L752.372 252.038C753.569 255.627 754.765 262.805 755.962 266.394C759.142 275.508 765.52 283.16 773.914 287.93C775.111 295.108 777.504 302.286 777.504 303.483C778.111 313.842 778.111 324.229 777.504 334.589L771.52 370.48C771.52 370.48 761.547 397.996 759.553 403.978C747.585 438.673 740.404 451.834 736.814 462.601H742.798C743.995 460.208 745.191 451.834 747.585 445.852C753.48 433.798 758.674 421.416 763.143 408.764C770.069 395.818 774.15 381.541 775.111 366.891C776.307 358.516 779.898 348.945 781.095 335.785C783.21 325.15 783.614 314.245 782.291 303.483C781.795 298.934 780.583 294.493 778.701 290.322C781.851 292.569 785.603 293.819 789.472 293.911C799.595 296.691 810.158 297.503 820.588 296.304C822.184 295.506 829.364 293.114 825.774 293.114Z" fill="#231F20"/>
<path d="M1038.8 75.3721C1031.92 72.2383 1025.25 68.6407 1018.85 64.6045C1010.48 61.0153 990.131 51.4441 986.541 53.8368C982.95 56.2296 951.834 55.0332 951.834 55.0332C946.991 58.1067 941.758 60.5211 936.276 62.2118C931.857 62.9084 927.333 62.4974 923.112 61.0155C923.112 61.0155 921.915 62.2119 929.096 59.8191C936.276 57.4264 941.063 53.8369 947.047 51.4442C952.44 49.6347 958.118 48.8239 963.802 49.0515C968.589 49.0515 988.934 47.8552 988.934 47.8552C978.747 46.6659 968.944 43.263 960.212 37.8853C945.85 29.5106 943.457 25.9216 935.079 21.136C930.292 17.5469 931.489 10.3685 930.292 9.17209L929.096 11.5648C929.16 16.3777 928.759 21.1856 927.899 25.9214C926.702 28.3141 917.128 42.6708 919.521 39.0817C921.954 32.6642 923.562 25.9641 924.308 19.1419C925.257 14.0147 925.659 8.80107 925.505 3.589V0H932.686V3.589C935.079 8.37453 933.883 11.9638 936.276 15.5529C938.67 19.1421 943.457 20.3381 947.047 23.9273C955.425 29.9092 966.993 34.6947 972.179 38.2839C979.939 42.6671 988.473 45.511 997.312 46.6588C1002.1 47.8552 1014.07 57.4264 1022.44 59.8191C1028.43 62.2119 1036.81 66.9975 1046.38 71.7831C1053.71 75.5355 1060.44 80.3758 1066.33 86.1397C1074.05 93.1424 1079.47 102.318 1081.88 112.46C1084.28 119.638 1090.26 136.387 1092.65 142.369C1094.63 149.775 1095.44 157.445 1095.05 165.101C1098.07 174.767 1098.89 184.987 1097.44 195.01C1097.85 206.627 1097.05 218.254 1095.05 229.705C1093.42 243.2 1093.02 256.815 1093.85 270.382C1095.05 286.711 1095.05 303.105 1093.85 319.434C1093.84 329.055 1094.64 338.66 1096.24 348.147C1097.44 367.289 1103.43 372.075 1108.21 384.038C1111.13 395.789 1112.74 407.826 1113 419.93C1113 423.519 1110.61 445.054 1109.41 461.804C1107.02 463 1105.82 461.804 1103.43 461.804C1104.62 460.607 1104.62 457.018 1104.62 455.821C1106.81 440.366 1107.22 424.71 1105.82 409.163C1103.07 396.045 1099.07 383.225 1093.85 370.879C1086.67 352.933 1089.06 301.089 1089.06 277.56V232.098C1089.06 224.92 1091.46 190.225 1090.26 175.868C1090.26 163.745 1088.65 151.676 1085.47 139.977C1081.17 131.605 1077.83 122.776 1075.5 113.656C1073.68 107.267 1070.85 101.209 1067.12 95.7104C1059.09 87.1604 1049.47 80.253 1038.8 75.3721Z" fill="#231F20"/>
<path d="M929.894 289.524C943.151 291.588 956.676 291.182 969.786 288.328C973.376 285.935 976.967 284.739 980.557 282.346L981.754 281.15C985.415 278.785 988.765 275.972 991.727 272.775C994.021 269.539 995.648 265.878 996.514 262.008C997.947 254.294 999.947 246.696 1002.5 239.277C1002.5 220.134 996.514 172.279 996.514 138.78C1005.81 153.722 1011.92 170.421 1014.47 187.832C1013.72 196.678 1014.53 205.586 1016.86 214.152L1021.65 241.669C1021.65 241.669 1027.63 276.364 1028.83 285.935C1032.42 305.078 1038.8 324.219 1040.79 334.987C1043.6 347.609 1045.6 360.396 1046.78 373.271C1046.78 381.646 1049.17 393.211 1049.17 401.985C1049.17 410.758 1045.58 454.625 1046.78 463H1039.6C1039.6 455.822 1041.99 423.121 1041.99 419.93C1041.99 409.163 1040.79 384.039 1040.79 378.057C1038.72 363.965 1035.93 349.988 1032.42 336.183C1028.83 312.256 1007.29 175.868 1001.3 160.316C1004.46 180.903 1006.06 201.699 1006.09 222.527C1006.09 227.313 1008.48 236.884 1008.48 239.277L1004.89 252.437C1004.68 257.302 1003.88 262.123 1002.5 266.793C998.509 275.423 992.318 282.85 984.546 288.328C983.271 293.606 981.673 298.8 979.759 303.881C979.459 314.265 979.859 324.657 980.956 334.987L986.94 370.879C986.94 370.879 995.317 398.395 997.711 404.377C1009.68 439.072 1016.86 452.233 1020.45 463H1015.66C1014.47 460.607 1012.07 452.233 1009.68 446.251C1008.48 442.662 998.908 422.323 994.121 409.163C988.288 395.798 984.263 381.716 982.153 367.289C982.153 358.914 978.563 349.343 977.366 336.183C975.25 325.548 974.846 314.644 976.169 303.881C976.691 299.449 977.49 295.053 978.562 290.721C977.226 291.958 975.655 292.913 973.941 293.53C972.228 294.146 970.408 294.411 968.589 294.31C959.167 296.724 949.289 296.724 939.867 294.31C931.09 293.113 925.106 289.524 929.894 289.524Z" fill="#231F20"/>
<path d="M870.055 247.252L816.2 214.95V230.503C798.515 231.164 780.818 229.556 763.542 225.718L756.361 224.521C746.366 222.107 736.989 217.624 728.835 211.361C731.719 208.977 735.143 207.333 738.809 206.575C738.743 200.174 739.143 193.777 740.005 187.433V179.058C728.038 182.647 716.07 189.028 716.07 194.611V224.521C716.07 240.074 736.016 248.449 759.154 253.234L765.138 254.43C781.403 256.649 797.79 257.848 814.205 258.02V273.573L870.055 247.252Z" fill="#E5202F"/>
<path d="M887.208 247.252L942.26 214.95V230.503C959.548 231.109 976.842 229.501 993.721 225.718L1002.1 224.521C1012 221.845 1021.33 217.386 1029.62 211.361C1026.43 209.51 1023.1 207.909 1019.65 206.575C1018.48 200.266 1018.08 193.839 1018.45 187.433C1018.45 185.041 1017.26 182.647 1017.26 179.058C1029.23 182.647 1042.39 189.028 1042.39 194.611V224.521C1042.39 240.074 1020.85 248.449 999.306 253.234L992.126 254.43C975.864 256.683 959.474 257.882 943.058 258.02V273.573L887.208 247.252Z" fill="#E5202F"/>
<path d="M475.119 412.752C473.76 398.398 470.403 384.305 465.146 370.879C463.178 361.037 462.375 350.998 462.753 340.969C462.753 321.03 463.949 275.168 463.949 270.383C464.103 265.17 463.702 259.957 462.753 254.83C458.702 244.016 455.891 232.778 454.375 221.331C452.745 215.905 452.336 210.184 453.178 204.581C453.178 196.206 457.966 186.636 457.966 178.261C457.357 165.118 454.524 152.173 449.588 139.977C444.801 129.209 439.615 112.46 437.62 107.674C436.017 104.234 434.813 100.621 434.03 96.9068C434.03 95.7104 432.833 88.5325 432.833 88.5325C432.833 88.5325 419.669 75.3723 414.882 71.7832C410.095 68.194 410.095 66.9973 406.504 65.8009C402.914 64.6045 393.34 64.6046 393.34 64.6046C393.34 64.6046 389.749 62.212 387.356 61.0156C383.725 61.6677 379.984 61.2521 376.585 59.8192C373.973 58.5793 371.554 56.967 369.404 55.0333C364.593 55.0199 359.79 54.6199 355.043 53.837C350.256 53.837 349.059 56.2297 345.07 55.0333C341.081 53.8369 334.299 43.0696 325.921 35.8913C317.544 28.713 307.97 23.9276 301.986 19.1421C296.002 14.3565 290.816 7.97575 288.821 5.98178V3.58911H282.838V10.7677C281.756 14.2479 281.35 17.9021 281.641 21.5347C281.641 29.9094 275.657 38.2841 278.05 35.8913C280.444 33.4986 282.838 27.517 282.838 27.517C282.816 25.0729 283.221 22.6435 284.034 20.3384C285.231 19.142 286.428 20.3385 286.428 17.9457C286.428 15.553 284.034 15.5531 284.034 14.3567C284.034 13.1603 286.428 13.1604 287.625 11.9641C291.215 14.3568 304.38 27.5169 307.571 29.9097C312.976 33.6051 318.17 37.5993 323.129 41.8736C326.095 45.8134 329.743 49.19 333.9 51.8435L332.703 53.0398C329.796 55.3885 326.381 57.0269 322.73 57.8251C316.238 59.7705 309.547 60.9744 302.784 61.4141C292.013 62.6105 277.652 63.8068 277.652 63.8068C281.242 70.9851 286.029 69.789 295.603 70.9854C305.177 72.1818 303.981 68.5929 309.964 66.2001C316.64 64.6749 323.08 62.2602 329.113 59.0215C331.44 57.3906 333.465 55.3665 335.097 53.0398L337.49 55.4325C338.687 56.6289 342.277 61.4141 347.463 61.4141C354.099 62.0077 360.774 62.0077 367.41 61.4141C367.41 61.4141 377.383 65.0037 379.377 66.2001C381.372 67.3965 385.361 67.3964 389.351 68.5928C393.34 69.7891 391.744 69.7891 395.334 69.7891H405.307C405.307 69.7891 425.254 89.7285 426.849 92.52C427.935 94.3131 428.358 96.4298 428.046 98.5023C429.243 99.6987 443.604 140.376 443.604 140.376L450.785 164.303C452.2 171.814 452.2 179.524 450.785 187.035C447.632 195.037 446.008 203.558 445.998 212.158C447.013 215.805 448.212 219.399 449.588 222.926C449.588 225.319 454.375 248.05 455.572 254.032C457.747 258.501 458.174 263.621 456.769 268.388C456.769 273.174 455.572 298.298 455.572 305.477C455.572 312.655 456.769 343.76 456.769 343.76C456.115 348.576 456.524 353.476 457.966 358.117C457.966 361.706 460.359 366.492 461.556 374.866C462.32 383.297 463.518 391.683 465.146 399.991C465.765 401.297 466.571 402.506 467.54 403.58C467.54 403.58 467.54 422.722 466.343 431.097C465.182 439.418 464.781 447.827 465.146 456.221C469.933 456.221 469.933 457.417 472.327 456.221V446.251C474.567 435.232 475.504 423.989 475.119 412.752Z" fill="#231F20"/>
<path d="M83.7741 57.8251C91.7413 57.2235 99.7424 57.2235 107.71 57.8251C111.624 58.0278 115.471 56.7462 118.481 54.2361C120.874 54.2361 122.071 55.4324 124.464 56.6288C126.858 57.8252 162.761 57.8251 162.761 57.8251C167.605 60.8987 172.837 63.3124 178.319 65.0031C184.686 65.6523 191.101 65.6523 197.468 65.0031C193.383 64.7939 189.351 63.9879 185.5 62.6105C178.319 60.2177 173.532 56.6289 166.352 54.2361C161.819 52.1867 156.954 50.971 151.99 50.6471C144.822 50.0446 137.616 50.0446 130.448 50.6471C128.055 51.8435 126.858 50.6471 126.858 50.6471L149.198 35.8913C162.362 27.5167 165.953 22.7313 173.133 17.9457C176.711 16.9431 180.086 15.3238 183.106 13.1604L184.303 15.5531V29.9097C183.106 35.8916 178.319 37.0877 171.139 37.0877C173.884 39.5116 177.451 40.7959 181.112 40.6773C187.096 40.6773 184.702 26.3206 185.899 28.7133C187.096 31.1061 196.67 46.6591 194.276 41.8736C191.965 35.6934 190.359 29.2716 189.489 22.7311C189.489 21.5347 188.292 7.17811 188.292 7.17811V3.58911H182.309V7.17811C173.87 11.1524 165.852 15.9619 158.373 21.5347C150.77 27.6356 142.774 33.2307 134.438 38.284C128.837 42.819 122.827 46.8243 116.486 50.248C110.971 51.3322 105.344 51.734 99.731 51.4443C91.9657 49.9012 83.9044 51.1735 76.9923 55.0333C67.0192 59.8188 55.4505 68.1935 51.8602 69.3899C48.2699 70.5863 43.4828 80.1573 41.0892 84.9428C38.6957 89.7284 33.9086 104.883 31.1161 112.46C28.32 122.598 24.991 132.582 21.143 142.369C18.7494 147.155 13.9623 157.922 13.9623 157.922C13.309 169.101 13.7097 180.317 15.159 191.421C17.5526 211.361 18.7494 221.331 22.3397 227.313C22.3397 227.313 23.5365 260.812 22.3397 267.99C21.1429 275.168 21.143 299.096 21.143 311.06V349.344L9.17527 379.253C4.90487 390.934 1.57 402.936 -0.797852 415.145C0.398923 417.538 1.59565 437.876 3.9892 455.822C5.18598 455.822 6.38271 454.625 8.77626 455.822V449.84C6.37853 436.387 6.37853 422.616 8.77626 409.163C12.1039 394.36 16.9153 379.931 23.1376 366.093C26.7279 355.325 27.9246 355.326 27.9246 355.326V275.567C27.9246 251.639 26.7279 235.688 26.7279 231.301C26.7279 226.914 18.3505 189.427 19.5472 175.071C20.9636 162.657 24.3294 150.544 29.5204 139.179C33.9488 130.864 37.3001 122.02 39.4935 112.859C43.0838 102.091 47.871 76.9672 52.6581 74.5744C62.6335 68.2845 73.0301 62.6882 83.7741 57.8251Z" fill="#231F20"/>
<path d="M209.037 10.7677L205.446 9.5708C208.167 15.824 210.564 22.2136 212.627 28.7134C215.02 38.6832 219.808 39.4804 219.808 39.4804C218.119 32.6009 215.712 25.9177 212.627 19.5407C211.926 16.437 210.713 13.4723 209.037 10.7677Z" fill="#231F20"/>
<path d="M246.535 39.4804L252.519 27.517C255.252 21.6765 257.65 15.6844 259.7 9.5708C259.7 9.5708 256.11 14.3565 252.519 20.3384C249.115 26.1902 247.07 32.732 246.535 39.4804Z" fill="#231F20"/>
<path d="M147.203 218.938C129.916 219.544 112.621 217.936 95.742 214.153C95.9322 211.698 95.5215 209.235 94.5453 206.975C82.2525 181.185 80.1163 151.716 88.5613 124.424C81.1723 139.679 77.7426 156.547 78.5882 173.475C78.5882 191.421 85.7689 200.992 88.5613 213.355C79.0173 210.709 70.0763 206.24 62.2323 200.195C65.9955 197.043 70.5467 194.974 75.3969 194.213C73.8959 187.67 73.0935 180.986 73.0033 174.273V170.684C58.642 174.273 49.0679 179.059 49.0679 185.041V213.754C49.0679 229.307 69.0141 236.485 90.9549 241.271C92.1517 256.824 92.1517 273.573 92.1517 283.144C90.9549 296.304 87.3646 321.428 84.971 332.993C82.2845 344.141 80.4179 355.471 79.3861 366.891C79.3861 375.265 81.7797 386.831 81.7797 395.604C81.1659 403.169 81.1659 410.77 81.7797 418.335C84.9932 430.419 86.206 442.947 85.37 455.423H93.7474C94.345 448.257 94.345 441.054 93.7474 433.888C92.7612 426.98 90.7441 420.258 87.7635 413.948C86.5629 410.459 86.5629 406.67 87.7635 403.181C88.9451 398.901 89.3505 394.444 88.9603 390.021C88.9603 384.039 86.5667 378.057 86.5667 373.272C86.5667 368.486 92.5506 346.951 93.7474 331.398C94.9442 315.845 97.3377 288.329 97.3377 279.954C102.125 290.721 121.273 336.183 122.47 338.576C123.778 340.501 124.976 342.499 126.06 344.558V375.664C125.579 382.944 124.376 390.157 122.47 397.199C120.064 402.031 118.811 407.354 118.811 412.752C118.811 418.149 120.064 423.473 122.47 428.305C122.47 428.305 114.092 446.251 110.502 455.822H120.475C120.475 453.429 120.475 454.625 121.672 453.429L128.853 439.072C130.397 445.539 133.876 451.382 138.826 455.822H146.006C139.065 445.813 133.435 434.958 129.252 423.519C125.661 409.163 129.252 410.36 130.448 400.789C131.645 391.217 134.039 381.646 135.236 362.504V343.362L106.513 272.775C104.212 266.96 101.409 261.355 98.1356 256.026V241.669C114.33 244.622 130.743 246.223 147.203 246.455V260.811L201.058 235.688L148.4 203.385L147.203 218.938Z" fill="#231F20"/>
<path d="M393.739 169.886C394.942 177.817 394.942 185.884 393.739 193.814C397.597 195.282 401.225 197.296 404.51 199.796C398.587 204.148 392.157 207.764 385.361 210.563C385.661 205.315 386.462 200.107 387.755 195.01C389.727 183.102 389.259 170.917 386.378 159.195C383.498 147.472 378.266 136.457 371 126.816C382.186 152.431 384.707 180.994 378.181 208.171V212.956C358.946 217.304 339.256 219.312 319.539 218.938V203.385L265.684 235.688L320.735 260.811V246.455C340.028 246.24 359.259 244.238 378.181 240.473C378.024 246.082 378.425 251.693 379.377 257.222C376.984 262.008 372.197 272.775 372.197 272.775L343.474 343.362V362.504C344.671 381.646 347.065 391.217 348.261 400.788C350.613 408.136 351.025 415.966 349.458 423.519C345.037 435.083 338.993 445.96 331.506 455.822H339.884C344.671 450.192 348.328 443.693 350.655 436.68C355.287 441.775 359.304 447.396 362.623 453.429C362.623 454.625 362.623 453.429 363.819 455.822H372.197C367.529 445.591 362.336 435.608 356.639 425.912C358.182 421.209 358.765 416.245 358.354 411.313C357.943 406.381 356.545 401.581 354.245 397.199C352.555 390.148 351.751 382.914 351.852 375.664V344.558C352.092 342.384 352.92 340.316 354.245 338.576C356.639 334.987 381.771 278.757 381.771 278.757V277.162C382.968 292.715 385.361 308.268 386.558 317.839C389.014 331.334 392.346 344.656 396.531 357.719C397.414 365.774 396.598 373.925 394.138 381.646C391.744 391.616 397.728 401.586 395.334 425.912C394.138 439.072 394.138 445.852 392.941 455.822H400.122C398.925 443.858 402.515 411.555 401.318 405.972C400.718 395.213 400.718 384.429 401.318 373.67C403.479 365.473 403.887 356.912 402.515 348.546C399.551 337.51 397.154 326.329 395.334 315.047C395.334 307.869 388.154 281.549 386.957 265.996C386.957 258.817 384.564 250.443 384.564 239.675C402.515 234.89 418.073 226.515 418.073 213.355V184.641C417.674 177.463 408.499 173.475 393.739 169.886Z" fill="#231F20"/>
<path d="M199.861 234.491L146.006 202.188V218.938C128.345 218.931 110.721 217.33 93.3484 214.152L86.1677 211.76C77.3263 209.8 69.105 205.691 62.2323 199.796C66.8308 197.376 71.6372 195.375 76.5936 193.814C74.4855 187.638 73.2764 181.191 73.0033 174.671V166.297C61.0355 169.886 45.4775 177.064 45.4775 183.046V212.956C45.4775 227.313 65.4237 235.687 88.5613 240.473L94.5453 241.669C110.74 244.622 127.153 246.222 143.613 246.455V260.811L199.861 234.491Z" fill="#E5202F"/>
<path d="M265.684 234.491L319.539 202.189V218.938C337.197 218.871 354.816 217.27 372.197 214.152L379.377 211.76C388.563 209.753 397.162 205.66 404.51 199.796C400.699 197.786 396.688 196.182 392.542 195.011C393.71 188.701 394.112 182.274 393.739 175.869C393.944 173.024 393.535 170.168 392.542 167.494C405.706 171.083 420.068 177.463 420.068 183.047V212.956C420.068 227.313 400.122 235.688 376.984 240.473L371 241.669C354.805 244.622 338.393 246.223 321.932 246.455V260.811L265.684 234.491Z" fill="#E5202F"/>
</g>
<defs>
<clipPath id="clip0_404_71">
<rect width="1113" height="463" fill="white"/>
</clipPath>
</defs>
</svg>
